%TF.GenerationSoftware,KiCad,Pcbnew,(6.0.4-0)*%
%TF.CreationDate,2022-09-08T11:41:12+02:00*%
%TF.ProjectId,Antennenumschalter,416e7465-6e6e-4656-9e75-6d736368616c,rev?*%
%TF.SameCoordinates,Original*%
%TF.FileFunction,Copper,L2,Bot*%
%TF.FilePolarity,Positive*%
%FSLAX46Y46*%
G04 Gerber Fmt 4.6, Leading zero omitted, Abs format (unit mm)*
G04 Created by KiCad (PCBNEW (6.0.4-0)) date 2022-09-08 11:41:12*
%MOMM*%
%LPD*%
G01*
G04 APERTURE LIST*
G04 Aperture macros list*
%AMRoundRect*
0 Rectangle with rounded corners*
0 $1 Rounding radius*
0 $2 $3 $4 $5 $6 $7 $8 $9 X,Y pos of 4 corners*
0 Add a 4 corners polygon primitive as box body*
4,1,4,$2,$3,$4,$5,$6,$7,$8,$9,$2,$3,0*
0 Add four circle primitives for the rounded corners*
1,1,$1+$1,$2,$3*
1,1,$1+$1,$4,$5*
1,1,$1+$1,$6,$7*
1,1,$1+$1,$8,$9*
0 Add four rect primitives between the rounded corners*
20,1,$1+$1,$2,$3,$4,$5,0*
20,1,$1+$1,$4,$5,$6,$7,0*
20,1,$1+$1,$6,$7,$8,$9,0*
20,1,$1+$1,$8,$9,$2,$3,0*%
G04 Aperture macros list end*
%TA.AperFunction,ComponentPad*%
%ADD10R,0.850000X0.850000*%
%TD*%
%TA.AperFunction,ComponentPad*%
%ADD11R,1.700000X1.700000*%
%TD*%
%TA.AperFunction,ComponentPad*%
%ADD12O,1.700000X1.700000*%
%TD*%
%TA.AperFunction,ComponentPad*%
%ADD13C,5.600000*%
%TD*%
%TA.AperFunction,ComponentPad*%
%ADD14C,1.524000*%
%TD*%
%TA.AperFunction,ComponentPad*%
%ADD15R,2.400000X2.400000*%
%TD*%
%TA.AperFunction,ComponentPad*%
%ADD16C,2.400000*%
%TD*%
%TA.AperFunction,ComponentPad*%
%ADD17R,1.600000X1.600000*%
%TD*%
%TA.AperFunction,ComponentPad*%
%ADD18O,1.600000X1.600000*%
%TD*%
%TA.AperFunction,ComponentPad*%
%ADD19R,2.000000X1.905000*%
%TD*%
%TA.AperFunction,ComponentPad*%
%ADD20O,2.000000X1.905000*%
%TD*%
%TA.AperFunction,ComponentPad*%
%ADD21R,3.960000X1.980000*%
%TD*%
%TA.AperFunction,ComponentPad*%
%ADD22O,3.960000X1.980000*%
%TD*%
%TA.AperFunction,ComponentPad*%
%ADD23C,1.700000*%
%TD*%
%TA.AperFunction,ComponentPad*%
%ADD24C,3.000000*%
%TD*%
%TA.AperFunction,SMDPad,CuDef*%
%ADD25RoundRect,0.250000X-0.650000X0.412500X-0.650000X-0.412500X0.650000X-0.412500X0.650000X0.412500X0*%
%TD*%
%TA.AperFunction,SMDPad,CuDef*%
%ADD26R,2.500000X1.000000*%
%TD*%
%TA.AperFunction,SMDPad,CuDef*%
%ADD27R,1.000000X1.800000*%
%TD*%
%TA.AperFunction,ViaPad*%
%ADD28C,0.800000*%
%TD*%
%TA.AperFunction,Conductor*%
%ADD29C,0.500000*%
%TD*%
%TA.AperFunction,Conductor*%
%ADD30C,2.000000*%
%TD*%
%TA.AperFunction,Conductor*%
%ADD31C,1.000000*%
%TD*%
%TA.AperFunction,Conductor*%
%ADD32C,0.750000*%
%TD*%
G04 APERTURE END LIST*
D10*
X69088000Y-58039000D03*
X61087000Y-100457000D03*
D11*
X81153000Y-132842000D03*
D12*
X81153000Y-135382000D03*
X81153000Y-137922000D03*
D11*
X53086000Y-134351000D03*
D12*
X53086000Y-131811000D03*
X53086000Y-129271000D03*
X53086000Y-126731000D03*
X53086000Y-124191000D03*
X53086000Y-121651000D03*
X53086000Y-119111000D03*
X53086000Y-116571000D03*
D13*
X146000000Y-53000000D03*
X53000000Y-146000000D03*
D14*
X130429000Y-80779000D03*
X130429000Y-65793000D03*
D13*
X146000000Y-146000000D03*
X53000000Y-53000000D03*
D15*
X84582000Y-64389000D03*
D16*
X84582000Y-59389000D03*
D17*
X86360000Y-75959000D03*
D18*
X86360000Y-81039000D03*
X93980000Y-81039000D03*
X93980000Y-75959000D03*
D19*
X61382000Y-73914000D03*
D20*
X61382000Y-76454000D03*
X61382000Y-78994000D03*
D21*
X131953000Y-89818000D03*
D22*
X131953000Y-94818000D03*
D19*
X79883000Y-103505000D03*
D20*
X79883000Y-106045000D03*
X79883000Y-108585000D03*
D11*
X67743000Y-139355000D03*
D23*
X74243000Y-139355000D03*
X74243000Y-143855000D03*
X67743000Y-143855000D03*
D24*
X120363000Y-67216000D03*
X120363000Y-72216000D03*
X120363000Y-77216000D03*
X120363000Y-82216000D03*
X120363000Y-87216000D03*
X100363000Y-87216000D03*
X100363000Y-82216000D03*
X100363000Y-77216000D03*
X100363000Y-72216000D03*
X100363000Y-67216000D03*
D11*
X110485000Y-145796000D03*
D12*
X113025000Y-145796000D03*
D25*
X90043000Y-76796500D03*
X90043000Y-79921500D03*
D26*
X90317000Y-138120000D03*
X90317000Y-136120000D03*
X90317000Y-134120000D03*
X90317000Y-132120000D03*
X90317000Y-130120000D03*
X90317000Y-128120000D03*
X90317000Y-126120000D03*
X90317000Y-124120000D03*
D27*
X92917000Y-122620000D03*
X94917000Y-122620000D03*
X96917000Y-122620000D03*
X98917000Y-122620000D03*
X100917000Y-122620000D03*
X102917000Y-122620000D03*
D26*
X105517000Y-124120000D03*
X105517000Y-126120000D03*
X105517000Y-128120000D03*
X105517000Y-130120000D03*
X105517000Y-132120000D03*
X105517000Y-134120000D03*
X105517000Y-136120000D03*
X105517000Y-138120000D03*
D28*
X85979000Y-127635000D03*
X64516000Y-132334000D03*
X117729000Y-131318000D03*
X109474000Y-128143000D03*
X107823000Y-130175000D03*
X108966000Y-132080000D03*
X108966000Y-134366000D03*
X96139000Y-137922000D03*
X99822000Y-138049000D03*
X64135000Y-102362000D03*
X87503000Y-97409000D03*
X76073000Y-97409000D03*
X86614000Y-115697000D03*
X129794000Y-115062000D03*
X107188000Y-108966000D03*
X56896000Y-132588000D03*
X56896000Y-139065000D03*
X125857000Y-131572000D03*
D29*
X93345000Y-133604000D02*
X92829000Y-134120000D01*
X92829000Y-134120000D02*
X90317000Y-134120000D01*
X74243000Y-143855000D02*
X81824000Y-143855000D01*
X81824000Y-143855000D02*
X87559000Y-138120000D01*
X87559000Y-138120000D02*
X90317000Y-138120000D01*
X67743000Y-143855000D02*
X74243000Y-143855000D01*
D30*
X85430000Y-53000000D02*
X69002000Y-53000000D01*
X69002000Y-53000000D02*
X53000000Y-53000000D01*
D29*
X69088000Y-53086000D02*
X69002000Y-53000000D01*
X69088000Y-58039000D02*
X69088000Y-53086000D01*
D30*
X131953000Y-89818000D02*
X131953000Y-82303000D01*
X131953000Y-82303000D02*
X130429000Y-80779000D01*
X120363000Y-87216000D02*
X127965000Y-94818000D01*
X127965000Y-94818000D02*
X131953000Y-94818000D01*
D31*
X79883000Y-106045000D02*
X85471000Y-106045000D01*
D29*
X93345000Y-125857000D02*
X93345000Y-133604000D01*
X90317000Y-124120000D02*
X91608000Y-124120000D01*
D31*
X90317000Y-111018000D02*
X90317000Y-110891000D01*
X85471000Y-106045000D02*
X90317000Y-110891000D01*
X90317000Y-124120000D02*
X90317000Y-111018000D01*
D29*
X91608000Y-124120000D02*
X93345000Y-125857000D01*
X85979000Y-127635000D02*
X87630000Y-127635000D01*
X88115000Y-128120000D02*
X90317000Y-128120000D01*
X87630000Y-127635000D02*
X88115000Y-128120000D01*
D30*
X53340000Y-76454000D02*
X61382000Y-76454000D01*
D32*
X112531000Y-126120000D02*
X117729000Y-131318000D01*
D31*
X88138000Y-79921500D02*
X90043000Y-79921500D01*
D30*
X53000000Y-53000000D02*
X53000000Y-61554000D01*
X64516000Y-127889000D02*
X64516000Y-132334000D01*
D31*
X75197000Y-81039000D02*
X84582000Y-81039000D01*
X84582000Y-53848000D02*
X85430000Y-53000000D01*
D30*
X53086000Y-116571000D02*
X53086000Y-76200000D01*
D31*
X84582000Y-81039000D02*
X87020500Y-81039000D01*
X105517000Y-124120000D02*
X105517000Y-105263000D01*
D29*
X51801000Y-129271000D02*
X50673000Y-128143000D01*
X50673000Y-121666000D02*
X53086000Y-119253000D01*
D31*
X87020500Y-81039000D02*
X88138000Y-79921500D01*
D30*
X53086000Y-121651000D02*
X58278000Y-121651000D01*
D29*
X105517000Y-124120000D02*
X105517000Y-126120000D01*
D31*
X105517000Y-105263000D02*
X86360000Y-86106000D01*
D30*
X146000000Y-53000000D02*
X85430000Y-53000000D01*
X84582000Y-59389000D02*
X84582000Y-53848000D01*
X53086000Y-76200000D02*
X53340000Y-76454000D01*
D31*
X86360000Y-86106000D02*
X86360000Y-81039000D01*
D30*
X53086000Y-116571000D02*
X53086000Y-119111000D01*
X58278000Y-121651000D02*
X64516000Y-127889000D01*
D31*
X61382000Y-76454000D02*
X70612000Y-76454000D01*
X70612000Y-76454000D02*
X75197000Y-81039000D01*
D30*
X53086000Y-76200000D02*
X53086000Y-61640000D01*
X53086000Y-119253000D02*
X53086000Y-121651000D01*
X53086000Y-119111000D02*
X53086000Y-119253000D01*
X53000000Y-61554000D02*
X53086000Y-61640000D01*
D29*
X50673000Y-128143000D02*
X50673000Y-121666000D01*
D32*
X105517000Y-126120000D02*
X112531000Y-126120000D01*
D29*
X53086000Y-129271000D02*
X51801000Y-129271000D01*
X105540000Y-128143000D02*
X105517000Y-128120000D01*
X109474000Y-128143000D02*
X105540000Y-128143000D01*
X107768000Y-130120000D02*
X107823000Y-130175000D01*
X105517000Y-130120000D02*
X107768000Y-130120000D01*
X105557000Y-132080000D02*
X105517000Y-132120000D01*
X108966000Y-132080000D02*
X105557000Y-132080000D01*
X108966000Y-134366000D02*
X105763000Y-134366000D01*
X105763000Y-134366000D02*
X105517000Y-134120000D01*
X97790000Y-137922000D02*
X99592000Y-136120000D01*
X96139000Y-137922000D02*
X97790000Y-137922000D01*
X99592000Y-136120000D02*
X105517000Y-136120000D01*
X99893000Y-138120000D02*
X105517000Y-138120000D01*
X99822000Y-138049000D02*
X99893000Y-138120000D01*
D30*
X61382000Y-73914000D02*
X70907000Y-64389000D01*
D31*
X88138000Y-76796500D02*
X90043000Y-76796500D01*
D30*
X70907000Y-64389000D02*
X84582000Y-64389000D01*
X87757000Y-67564000D02*
X87757000Y-74562000D01*
D31*
X87300500Y-75959000D02*
X88138000Y-76796500D01*
D30*
X87757000Y-74562000D02*
X86360000Y-75959000D01*
X84582000Y-64389000D02*
X87757000Y-67564000D01*
D31*
X75184000Y-102870000D02*
X75057000Y-102997000D01*
X64770000Y-102997000D02*
X64135000Y-102362000D01*
X75057000Y-102997000D02*
X73406000Y-102997000D01*
X76073000Y-97409000D02*
X76073000Y-101981000D01*
X79883000Y-108585000D02*
X75819000Y-108585000D01*
X76073000Y-97409000D02*
X87503000Y-97409000D01*
X73406000Y-102997000D02*
X64770000Y-102997000D01*
X73406000Y-106172000D02*
X73406000Y-102997000D01*
X76073000Y-101981000D02*
X75184000Y-102870000D01*
X75819000Y-108585000D02*
X73406000Y-106172000D01*
D30*
X129006000Y-67216000D02*
X130429000Y-65793000D01*
X120363000Y-67216000D02*
X129006000Y-67216000D01*
D29*
X67960000Y-134351000D02*
X53086000Y-134351000D01*
X86614000Y-115697000D02*
X67960000Y-134351000D01*
X123698000Y-108966000D02*
X107188000Y-108966000D01*
X129794000Y-115062000D02*
X123698000Y-108966000D01*
X105048582Y-148082000D02*
X65913000Y-148082000D01*
X121558582Y-131572000D02*
X105048582Y-148082000D01*
X125857000Y-131572000D02*
X121558582Y-131572000D01*
X56896000Y-132588000D02*
X56896000Y-128016000D01*
X65913000Y-148082000D02*
X56896000Y-139065000D01*
X56896000Y-128016000D02*
X55611000Y-126731000D01*
X55611000Y-126731000D02*
X53086000Y-126731000D01*
D30*
X100363000Y-82216000D02*
X95157000Y-82216000D01*
X95157000Y-82216000D02*
X93980000Y-81039000D01*
X97723000Y-72216000D02*
X93980000Y-75959000D01*
X100363000Y-72216000D02*
X97723000Y-72216000D01*
%TA.AperFunction,Conductor*%
G36*
X143883642Y-50528502D02*
G01*
X143904616Y-50545405D01*
X146000000Y-52640790D01*
X148454595Y-55095384D01*
X148488621Y-55157696D01*
X148491500Y-55184479D01*
X148491500Y-60459496D01*
X148471498Y-60527617D01*
X148417842Y-60574110D01*
X148366618Y-60585491D01*
X106190115Y-60959839D01*
X106190114Y-60959839D01*
X106172000Y-60960000D01*
X106172000Y-101854000D01*
X106185638Y-101853960D01*
X106185640Y-101853960D01*
X148365126Y-101728798D01*
X148433306Y-101748597D01*
X148479958Y-101802115D01*
X148491500Y-101854797D01*
X148491500Y-143815521D01*
X148471498Y-143883642D01*
X148454595Y-143904616D01*
X146000000Y-146359210D01*
X143904616Y-148454595D01*
X143842304Y-148488621D01*
X143815521Y-148491500D01*
X106015953Y-148491500D01*
X105947832Y-148471498D01*
X105901339Y-148417842D01*
X105891235Y-148347568D01*
X105920729Y-148282988D01*
X105926858Y-148276405D01*
X108911405Y-145291858D01*
X108973717Y-145257832D01*
X109044532Y-145262897D01*
X109101368Y-145305444D01*
X109126179Y-145371964D01*
X109126500Y-145380953D01*
X109126500Y-146694134D01*
X109133255Y-146756316D01*
X109184385Y-146892705D01*
X109271739Y-147009261D01*
X109388295Y-147096615D01*
X109524684Y-147147745D01*
X109586866Y-147154500D01*
X111383134Y-147154500D01*
X111445316Y-147147745D01*
X111581705Y-147096615D01*
X111698261Y-147009261D01*
X111785615Y-146892705D01*
X111807945Y-146833139D01*
X111829798Y-146774848D01*
X111872440Y-146718084D01*
X111939001Y-146693384D01*
X112008350Y-146708592D01*
X112043017Y-146736580D01*
X112068218Y-146765673D01*
X112075580Y-146772883D01*
X112239434Y-146908916D01*
X112247881Y-146914831D01*
X112431756Y-147022279D01*
X112441042Y-147026729D01*
X112640001Y-147102703D01*
X112649899Y-147105579D01*
X112753250Y-147126606D01*
X112767299Y-147125410D01*
X112771000Y-147115065D01*
X112771000Y-147114517D01*
X113279000Y-147114517D01*
X113283064Y-147128359D01*
X113296478Y-147130393D01*
X113303184Y-147129534D01*
X113313262Y-147127392D01*
X113517255Y-147066191D01*
X113526842Y-147062433D01*
X113718095Y-146968739D01*
X113726945Y-146963464D01*
X113900328Y-146839792D01*
X113908200Y-146833139D01*
X114059052Y-146682812D01*
X114065730Y-146674965D01*
X114190003Y-146502020D01*
X114195313Y-146493183D01*
X114289670Y-146302267D01*
X114293469Y-146292672D01*
X114355377Y-146088910D01*
X114357555Y-146078837D01*
X114358986Y-146067962D01*
X114356775Y-146053778D01*
X114343617Y-146050000D01*
X113297115Y-146050000D01*
X113281876Y-146054475D01*
X113280671Y-146055865D01*
X113279000Y-146063548D01*
X113279000Y-147114517D01*
X112771000Y-147114517D01*
X112771000Y-145991832D01*
X142687333Y-145991832D01*
X142705117Y-146342893D01*
X142705827Y-146349649D01*
X142761420Y-146696723D01*
X142762859Y-146703378D01*
X142855608Y-147042410D01*
X142857757Y-147048871D01*
X142986581Y-147375912D01*
X142989412Y-147382095D01*
X143152803Y-147693310D01*
X143156286Y-147699152D01*
X143352330Y-147990896D01*
X143356433Y-147996340D01*
X143476425Y-148138836D01*
X143489164Y-148147279D01*
X143499608Y-148141181D01*
X145627980Y-146012810D01*
X145635592Y-145998869D01*
X145635461Y-145997034D01*
X145631210Y-145990420D01*
X143500992Y-143860203D01*
X143487455Y-143852811D01*
X143477753Y-143859599D01*
X143370430Y-143985257D01*
X143366296Y-143990664D01*
X143168215Y-144281041D01*
X143164697Y-144286851D01*
X142999134Y-144596922D01*
X142996259Y-144603087D01*
X142865155Y-144929218D01*
X142862962Y-144935658D01*
X142767846Y-145274044D01*
X142766363Y-145280679D01*
X142708350Y-145627354D01*
X142707591Y-145634126D01*
X142687357Y-145985037D01*
X142687333Y-145991832D01*
X112771000Y-145991832D01*
X112771000Y-145523885D01*
X113279000Y-145523885D01*
X113283475Y-145539124D01*
X113284865Y-145540329D01*
X113292548Y-145542000D01*
X114343344Y-145542000D01*
X114356875Y-145538027D01*
X114358180Y-145528947D01*
X114316214Y-145361875D01*
X114312894Y-145352124D01*
X114227972Y-145156814D01*
X114223105Y-145147739D01*
X114107426Y-144968926D01*
X114101136Y-144960757D01*
X113957806Y-144803240D01*
X113950273Y-144796215D01*
X113783139Y-144664222D01*
X113774552Y-144658517D01*
X113588117Y-144555599D01*
X113578705Y-144551369D01*
X113377959Y-144480280D01*
X113367988Y-144477646D01*
X113296837Y-144464972D01*
X113283540Y-144466432D01*
X113279000Y-144480989D01*
X113279000Y-145523885D01*
X112771000Y-145523885D01*
X112771000Y-144479102D01*
X112767082Y-144465758D01*
X112752806Y-144463771D01*
X112714324Y-144469660D01*
X112704288Y-144472051D01*
X112501868Y-144538212D01*
X112492359Y-144542209D01*
X112303463Y-144640542D01*
X112294738Y-144646036D01*
X112124433Y-144773905D01*
X112116726Y-144780748D01*
X112039478Y-144861584D01*
X111977954Y-144897014D01*
X111907042Y-144893557D01*
X111849255Y-144852311D01*
X111830402Y-144818763D01*
X111788767Y-144707703D01*
X111785615Y-144699295D01*
X111698261Y-144582739D01*
X111581705Y-144495385D01*
X111445316Y-144444255D01*
X111383134Y-144437500D01*
X110069953Y-144437500D01*
X110001832Y-144417498D01*
X109955339Y-144363842D01*
X109945235Y-144293568D01*
X109974729Y-144228988D01*
X109980858Y-144222405D01*
X110716401Y-143486862D01*
X143849950Y-143486862D01*
X143849986Y-143487704D01*
X143855037Y-143495826D01*
X145987190Y-145627980D01*
X146001131Y-145635592D01*
X146002966Y-145635461D01*
X146009580Y-145631210D01*
X148142798Y-143497991D01*
X148150412Y-143484047D01*
X148150344Y-143483089D01*
X148145836Y-143476272D01*
X148144418Y-143475065D01*
X147864813Y-143262064D01*
X147859187Y-143258240D01*
X147558214Y-143076681D01*
X147552202Y-143073484D01*
X147233370Y-142925487D01*
X147227070Y-142922967D01*
X146894129Y-142810273D01*
X146887551Y-142808437D01*
X146544417Y-142732367D01*
X146537678Y-142731251D01*
X146188310Y-142692680D01*
X146181529Y-142692301D01*
X145830015Y-142691687D01*
X145823242Y-142692042D01*
X145473720Y-142729395D01*
X145467010Y-142730482D01*
X145123586Y-142805361D01*
X145117011Y-142807172D01*
X144783683Y-142918702D01*
X144777361Y-142921205D01*
X144458034Y-143068079D01*
X144451991Y-143071265D01*
X144150401Y-143251763D01*
X144144755Y-143255571D01*
X143864408Y-143467596D01*
X143859211Y-143471987D01*
X143857972Y-143473155D01*
X143849950Y-143486862D01*
X110716401Y-143486862D01*
X121835858Y-132367405D01*
X121898170Y-132333379D01*
X121924953Y-132330500D01*
X125314413Y-132330500D01*
X125388472Y-132354563D01*
X125394902Y-132359235D01*
X125394909Y-132359239D01*
X125400248Y-132363118D01*
X125406276Y-132365802D01*
X125406278Y-132365803D01*
X125540621Y-132425616D01*
X125574712Y-132440794D01*
X125668113Y-132460647D01*
X125755056Y-132479128D01*
X125755061Y-132479128D01*
X125761513Y-132480500D01*
X125952487Y-132480500D01*
X125958939Y-132479128D01*
X125958944Y-132479128D01*
X126045887Y-132460647D01*
X126139288Y-132440794D01*
X126173379Y-132425616D01*
X126307722Y-132365803D01*
X126307724Y-132365802D01*
X126313752Y-132363118D01*
X126319097Y-132359235D01*
X126389812Y-132307857D01*
X126468253Y-132250866D01*
X126596040Y-132108944D01*
X126691527Y-131943556D01*
X126750542Y-131761928D01*
X126770504Y-131572000D01*
X126753062Y-131406045D01*
X126751232Y-131388635D01*
X126751232Y-131388633D01*
X126750542Y-131382072D01*
X126691527Y-131200444D01*
X126596040Y-131035056D01*
X126556783Y-130991456D01*
X126472675Y-130898045D01*
X126472674Y-130898044D01*
X126468253Y-130893134D01*
X126358647Y-130813500D01*
X126319094Y-130784763D01*
X126319093Y-130784762D01*
X126313752Y-130780882D01*
X126307724Y-130778198D01*
X126307722Y-130778197D01*
X126145319Y-130705891D01*
X126145318Y-130705891D01*
X126139288Y-130703206D01*
X126045888Y-130683353D01*
X125958944Y-130664872D01*
X125958939Y-130664872D01*
X125952487Y-130663500D01*
X125761513Y-130663500D01*
X125755061Y-130664872D01*
X125755056Y-130664872D01*
X125668112Y-130683353D01*
X125574712Y-130703206D01*
X125568682Y-130705891D01*
X125568681Y-130705891D01*
X125406278Y-130778197D01*
X125406276Y-130778198D01*
X125400248Y-130780882D01*
X125394909Y-130784761D01*
X125394902Y-130784765D01*
X125388472Y-130789437D01*
X125314413Y-130813500D01*
X121625652Y-130813500D01*
X121606702Y-130812067D01*
X121592467Y-130809901D01*
X121592463Y-130809901D01*
X121585233Y-130808801D01*
X121577941Y-130809394D01*
X121577938Y-130809394D01*
X121532564Y-130813085D01*
X121522349Y-130813500D01*
X121514289Y-130813500D01*
X121510655Y-130813924D01*
X121510649Y-130813924D01*
X121497624Y-130815443D01*
X121486062Y-130816791D01*
X121481714Y-130817221D01*
X121408946Y-130823140D01*
X121401985Y-130825395D01*
X121396045Y-130826582D01*
X121390170Y-130827971D01*
X121382901Y-130828818D01*
X121314252Y-130853736D01*
X121310124Y-130855153D01*
X121247646Y-130875393D01*
X121247644Y-130875394D01*
X121240683Y-130877649D01*
X121234428Y-130881445D01*
X121228954Y-130883951D01*
X121223524Y-130886670D01*
X121216645Y-130889167D01*
X121210525Y-130893180D01*
X121210524Y-130893180D01*
X121155606Y-130929186D01*
X121151902Y-130931523D01*
X121089475Y-130969405D01*
X121081098Y-130976803D01*
X121081074Y-130976776D01*
X121078082Y-130979429D01*
X121074849Y-130982132D01*
X121068730Y-130986144D01*
X121063698Y-130991456D01*
X121015454Y-131042383D01*
X121013076Y-131044825D01*
X106252095Y-145805806D01*
X106189783Y-145839832D01*
X106118968Y-145834767D01*
X106062132Y-145792220D01*
X106037321Y-145725700D01*
X106037000Y-145716711D01*
X106037000Y-139420000D01*
X89797000Y-139420000D01*
X89797000Y-146740000D01*
X105013711Y-146740000D01*
X105081832Y-146760002D01*
X105128325Y-146813658D01*
X105138429Y-146883932D01*
X105108935Y-146948512D01*
X105102806Y-146955095D01*
X104771306Y-147286595D01*
X104708994Y-147320621D01*
X104682211Y-147323500D01*
X66279371Y-147323500D01*
X66211250Y-147303498D01*
X66190276Y-147286595D01*
X59153350Y-140249669D01*
X66385001Y-140249669D01*
X66385371Y-140256490D01*
X66390895Y-140307352D01*
X66394521Y-140322604D01*
X66439676Y-140443054D01*
X66448214Y-140458649D01*
X66524715Y-140560724D01*
X66537276Y-140573285D01*
X66639351Y-140649786D01*
X66654946Y-140658324D01*
X66775394Y-140703478D01*
X66790649Y-140707105D01*
X66841514Y-140712631D01*
X66848328Y-140713000D01*
X67470885Y-140713000D01*
X67486124Y-140708525D01*
X67487329Y-140707135D01*
X67489000Y-140699452D01*
X67489000Y-140694884D01*
X67997000Y-140694884D01*
X68001475Y-140710123D01*
X68002865Y-140711328D01*
X68010548Y-140712999D01*
X68637669Y-140712999D01*
X68644490Y-140712629D01*
X68695352Y-140707105D01*
X68710604Y-140703479D01*
X68831054Y-140658324D01*
X68846649Y-140649786D01*
X68948724Y-140573285D01*
X68961285Y-140560724D01*
X69021894Y-140479853D01*
X73482977Y-140479853D01*
X73488258Y-140486907D01*
X73649756Y-140581279D01*
X73659042Y-140585729D01*
X73858001Y-140661703D01*
X73867899Y-140664579D01*
X74076595Y-140707038D01*
X74086823Y-140708257D01*
X74299650Y-140716062D01*
X74309936Y-140715595D01*
X74521185Y-140688534D01*
X74531262Y-140686392D01*
X74735255Y-140625191D01*
X74744842Y-140621433D01*
X74936098Y-140527738D01*
X74944944Y-140522465D01*
X74992247Y-140488723D01*
X75000648Y-140478023D01*
X74993660Y-140464870D01*
X74255812Y-139727022D01*
X74241868Y-139719408D01*
X74240035Y-139719539D01*
X74233420Y-139723790D01*
X73489737Y-140467473D01*
X73482977Y-140479853D01*
X69021894Y-140479853D01*
X69037786Y-140458649D01*
X69046324Y-140443054D01*
X69091478Y-140322606D01*
X69095105Y-140307351D01*
X69100631Y-140256486D01*
X69101000Y-140249672D01*
X69101000Y-139627115D01*
X69096525Y-139611876D01*
X69095135Y-139610671D01*
X69087452Y-139609000D01*
X68015115Y-139609000D01*
X67999876Y-139613475D01*
X67998671Y-139614865D01*
X67997000Y-139622548D01*
X67997000Y-140694884D01*
X67489000Y-140694884D01*
X67489000Y-139627115D01*
X67484525Y-139611876D01*
X67483135Y-139610671D01*
X67475452Y-139609000D01*
X66403116Y-139609000D01*
X66387877Y-139613475D01*
X66386672Y-139614865D01*
X66385001Y-139622548D01*
X66385001Y-140249669D01*
X59153350Y-140249669D01*
X58230544Y-139326863D01*
X72881050Y-139326863D01*
X72893309Y-139539477D01*
X72894745Y-139549697D01*
X72941565Y-139757446D01*
X72944645Y-139767275D01*
X73024770Y-139964603D01*
X73029413Y-139973794D01*
X73109460Y-140104420D01*
X73119916Y-140113880D01*
X73128694Y-140110096D01*
X73870978Y-139367812D01*
X73877356Y-139356132D01*
X74607408Y-139356132D01*
X74607539Y-139357965D01*
X74611790Y-139364580D01*
X75353474Y-140106264D01*
X75365484Y-140112823D01*
X75377223Y-140103855D01*
X75408004Y-140061019D01*
X75413315Y-140052180D01*
X75507670Y-139861267D01*
X75511469Y-139851672D01*
X75573376Y-139647915D01*
X75575555Y-139637834D01*
X75603590Y-139424887D01*
X75604109Y-139418212D01*
X75605572Y-139358364D01*
X75605378Y-139351646D01*
X75587781Y-139137604D01*
X75586096Y-139127424D01*
X75534214Y-138920875D01*
X75530894Y-138911124D01*
X75445972Y-138715814D01*
X75441105Y-138706739D01*
X75376063Y-138606197D01*
X75365377Y-138596995D01*
X75355812Y-138601398D01*
X74615022Y-139342188D01*
X74607408Y-139356132D01*
X73877356Y-139356132D01*
X73878592Y-139353868D01*
X73878461Y-139352035D01*
X73874210Y-139345420D01*
X73132849Y-138604059D01*
X73121313Y-138597759D01*
X73109031Y-138607382D01*
X73061089Y-138677662D01*
X73056004Y-138686613D01*
X72966338Y-138879783D01*
X72962775Y-138889470D01*
X72905864Y-139094681D01*
X72903933Y-139104800D01*
X72881302Y-139316574D01*
X72881050Y-139326863D01*
X58230544Y-139326863D01*
X57986566Y-139082885D01*
X66385000Y-139082885D01*
X66389475Y-139098124D01*
X66390865Y-139099329D01*
X66398548Y-139101000D01*
X67470885Y-139101000D01*
X67486124Y-139096525D01*
X67487329Y-139095135D01*
X67489000Y-139087452D01*
X67489000Y-139082885D01*
X67997000Y-139082885D01*
X68001475Y-139098124D01*
X68002865Y-139099329D01*
X68010548Y-139101000D01*
X69082884Y-139101000D01*
X69098123Y-139096525D01*
X69099328Y-139095135D01*
X69100999Y-139087452D01*
X69100999Y-138460331D01*
X69100629Y-138453510D01*
X69095105Y-138402648D01*
X69091479Y-138387396D01*
X69046324Y-138266946D01*
X69037786Y-138251351D01*
X69022854Y-138231427D01*
X73484223Y-138231427D01*
X73490968Y-138243758D01*
X74230188Y-138982978D01*
X74244132Y-138990592D01*
X74245965Y-138990461D01*
X74252580Y-138986210D01*
X74996389Y-138242401D01*
X75003410Y-138229544D01*
X74996611Y-138220213D01*
X74992554Y-138217518D01*
X74806117Y-138114599D01*
X74796705Y-138110369D01*
X74595959Y-138039280D01*
X74585989Y-138036646D01*
X74376327Y-137999301D01*
X74366073Y-137998331D01*
X74153116Y-137995728D01*
X74142832Y-137996448D01*
X73932321Y-138028661D01*
X73922293Y-138031050D01*
X73719868Y-138097212D01*
X73710359Y-138101209D01*
X73521466Y-138199540D01*
X73512734Y-138205039D01*
X73492677Y-138220099D01*
X73484223Y-138231427D01*
X69022854Y-138231427D01*
X68961285Y-138149276D01*
X68948724Y-138136715D01*
X68846649Y-138060214D01*
X68831054Y-138051676D01*
X68710606Y-138006522D01*
X68695351Y-138002895D01*
X68644486Y-137997369D01*
X68637672Y-137997000D01*
X68015115Y-137997000D01*
X67999876Y-138001475D01*
X67998671Y-138002865D01*
X67997000Y-138010548D01*
X67997000Y-139082885D01*
X67489000Y-139082885D01*
X67489000Y-138015116D01*
X67484525Y-137999877D01*
X67483135Y-137998672D01*
X67475452Y-137997001D01*
X66848331Y-137997001D01*
X66841510Y-137997371D01*
X66790648Y-138002895D01*
X66775396Y-138006521D01*
X66654946Y-138051676D01*
X66639351Y-138060214D01*
X66537276Y-138136715D01*
X66524715Y-138149276D01*
X66448214Y-138251351D01*
X66439676Y-138266946D01*
X66394522Y-138387394D01*
X66390895Y-138402649D01*
X66385369Y-138453514D01*
X66385000Y-138460328D01*
X66385000Y-139082885D01*
X57986566Y-139082885D01*
X57816125Y-138912444D01*
X57785387Y-138862285D01*
X57778185Y-138840118D01*
X57730527Y-138693444D01*
X57725425Y-138684606D01*
X57690478Y-138624077D01*
X57635040Y-138528056D01*
X57566248Y-138451654D01*
X57511675Y-138391045D01*
X57511674Y-138391044D01*
X57507253Y-138386134D01*
X57379831Y-138293556D01*
X57358094Y-138277763D01*
X57358093Y-138277762D01*
X57352752Y-138273882D01*
X57346724Y-138271198D01*
X57346722Y-138271197D01*
X57184319Y-138198891D01*
X57184318Y-138198891D01*
X57178288Y-138196206D01*
X57084887Y-138176353D01*
X56997944Y-138157872D01*
X56997939Y-138157872D01*
X56991487Y-138156500D01*
X56800513Y-138156500D01*
X56794061Y-138157872D01*
X56794056Y-138157872D01*
X56707113Y-138176353D01*
X56613712Y-138196206D01*
X56607682Y-138198891D01*
X56607681Y-138198891D01*
X56445278Y-138271197D01*
X56445276Y-138271198D01*
X56439248Y-138273882D01*
X56433907Y-138277762D01*
X56433906Y-138277763D01*
X56412169Y-138293556D01*
X56284747Y-138386134D01*
X56280326Y-138391044D01*
X56280325Y-138391045D01*
X56225753Y-138451654D01*
X56156960Y-138528056D01*
X56101522Y-138624077D01*
X56066576Y-138684606D01*
X56061473Y-138693444D01*
X56002458Y-138875072D01*
X56001768Y-138881633D01*
X56001768Y-138881635D01*
X55985615Y-139035327D01*
X55982496Y-139065000D01*
X55983186Y-139071565D01*
X55995914Y-139192661D01*
X56002458Y-139254928D01*
X56061473Y-139436556D01*
X56156960Y-139601944D01*
X56161378Y-139606851D01*
X56161379Y-139606852D01*
X56280325Y-139738955D01*
X56284747Y-139743866D01*
X56316967Y-139767275D01*
X56433129Y-139851672D01*
X56439248Y-139856118D01*
X56445276Y-139858802D01*
X56445278Y-139858803D01*
X56607681Y-139931109D01*
X56613712Y-139933794D01*
X56620167Y-139935166D01*
X56620176Y-139935169D01*
X56676772Y-139947199D01*
X56739669Y-139981350D01*
X65034724Y-148276405D01*
X65068750Y-148338717D01*
X65063685Y-148409532D01*
X65021138Y-148466368D01*
X64954618Y-148491179D01*
X64945629Y-148491500D01*
X55184479Y-148491500D01*
X55116358Y-148471498D01*
X55095384Y-148454595D01*
X52641921Y-146001131D01*
X53364408Y-146001131D01*
X53364539Y-146002966D01*
X53368790Y-146009580D01*
X55499009Y-148139798D01*
X55512605Y-148147223D01*
X55522218Y-148140522D01*
X55622518Y-148023912D01*
X55626676Y-148018514D01*
X55825762Y-147728840D01*
X55829310Y-147723029D01*
X55995942Y-147413559D01*
X55998849Y-147407381D01*
X56131090Y-147081713D01*
X56133304Y-147075283D01*
X56229598Y-146737237D01*
X56231105Y-146730607D01*
X56290332Y-146384118D01*
X56291112Y-146377378D01*
X56312668Y-146024925D01*
X56312784Y-146021323D01*
X56312853Y-146001819D01*
X56312761Y-145998194D01*
X56293666Y-145645615D01*
X56292931Y-145638849D01*
X56236130Y-145291985D01*
X56234663Y-145285313D01*
X56140736Y-144946627D01*
X56138562Y-144940163D01*
X56008598Y-144613578D01*
X56005742Y-144607398D01*
X55841269Y-144296763D01*
X55837769Y-144290937D01*
X55640697Y-143999862D01*
X55636590Y-143994453D01*
X55523565Y-143861179D01*
X55510740Y-143852743D01*
X55500416Y-143858795D01*
X53372020Y-145987190D01*
X53364408Y-146001131D01*
X52641921Y-146001131D01*
X52640790Y-146000000D01*
X50545405Y-143904616D01*
X50511379Y-143842304D01*
X50508500Y-143815521D01*
X50508500Y-143486862D01*
X50849950Y-143486862D01*
X50849986Y-143487704D01*
X50855037Y-143495826D01*
X52987190Y-145627980D01*
X53001131Y-145635592D01*
X53002966Y-145635461D01*
X53009580Y-145631210D01*
X55142798Y-143497991D01*
X55150412Y-143484047D01*
X55150344Y-143483089D01*
X55145836Y-143476272D01*
X55144418Y-143475065D01*
X54864813Y-143262064D01*
X54859187Y-143258240D01*
X54558214Y-143076681D01*
X54552202Y-143073484D01*
X54233370Y-142925487D01*
X54227070Y-142922967D01*
X53894129Y-142810273D01*
X53887551Y-142808437D01*
X53544417Y-142732367D01*
X53537678Y-142731251D01*
X53188310Y-142692680D01*
X53181529Y-142692301D01*
X52830015Y-142691687D01*
X52823242Y-142692042D01*
X52473720Y-142729395D01*
X52467010Y-142730482D01*
X52123586Y-142805361D01*
X52117011Y-142807172D01*
X51783683Y-142918702D01*
X51777361Y-142921205D01*
X51458034Y-143068079D01*
X51451991Y-143071265D01*
X51150401Y-143251763D01*
X51144755Y-143255571D01*
X50864408Y-143467596D01*
X50859211Y-143471987D01*
X50857972Y-143473155D01*
X50849950Y-143486862D01*
X50508500Y-143486862D01*
X50508500Y-137888695D01*
X79790251Y-137888695D01*
X79790548Y-137893848D01*
X79790548Y-137893851D01*
X79801248Y-138079414D01*
X79803110Y-138111715D01*
X79804247Y-138116761D01*
X79804248Y-138116767D01*
X79824119Y-138204939D01*
X79852222Y-138329639D01*
X79902522Y-138453514D01*
X79929876Y-138520878D01*
X79936266Y-138536616D01*
X79952808Y-138563610D01*
X80046072Y-138715803D01*
X80052987Y-138727088D01*
X80199250Y-138895938D01*
X80371126Y-139038632D01*
X80564000Y-139151338D01*
X80772692Y-139231030D01*
X80777760Y-139232061D01*
X80777763Y-139232062D01*
X80885017Y-139253883D01*
X80991597Y-139275567D01*
X80996772Y-139275757D01*
X80996774Y-139275757D01*
X81209673Y-139283564D01*
X81209677Y-139283564D01*
X81214837Y-139283753D01*
X81219957Y-139283097D01*
X81219959Y-139283097D01*
X81431288Y-139256025D01*
X81431289Y-139256025D01*
X81436416Y-139255368D01*
X81459758Y-139248365D01*
X81645429Y-139192661D01*
X81645434Y-139192659D01*
X81650384Y-139191174D01*
X81850994Y-139092896D01*
X82032860Y-138963173D01*
X82191096Y-138805489D01*
X82200670Y-138792166D01*
X82318435Y-138628277D01*
X82321453Y-138624077D01*
X82324157Y-138618607D01*
X82418136Y-138428453D01*
X82418137Y-138428451D01*
X82420430Y-138423811D01*
X82474695Y-138245206D01*
X82483865Y-138215023D01*
X82483865Y-138215021D01*
X82485370Y-138210069D01*
X82514529Y-137988590D01*
X82516156Y-137922000D01*
X82497852Y-137699361D01*
X82443431Y-137482702D01*
X82354354Y-137277840D01*
X82278522Y-137160621D01*
X82235822Y-137094617D01*
X82235820Y-137094614D01*
X82233014Y-137090277D01*
X82082670Y-136925051D01*
X82078619Y-136921852D01*
X82078615Y-136921848D01*
X81911414Y-136789800D01*
X81911410Y-136789798D01*
X81907359Y-136786598D01*
X81866053Y-136763796D01*
X81816084Y-136713364D01*
X81801312Y-136643921D01*
X81826428Y-136577516D01*
X81853780Y-136550909D01*
X81897603Y-136519650D01*
X82032860Y-136423173D01*
X82191096Y-136265489D01*
X82250594Y-136182689D01*
X82318435Y-136088277D01*
X82321453Y-136084077D01*
X82420430Y-135883811D01*
X82485370Y-135670069D01*
X82514529Y-135448590D01*
X82516156Y-135382000D01*
X82497852Y-135159361D01*
X82443431Y-134942702D01*
X82354354Y-134737840D01*
X82295700Y-134647175D01*
X82235822Y-134554617D01*
X82235820Y-134554614D01*
X82233014Y-134550277D01*
X82229540Y-134546459D01*
X82229533Y-134546450D01*
X82085435Y-134388088D01*
X82054383Y-134324242D01*
X82062779Y-134253744D01*
X82107956Y-134198976D01*
X82134400Y-134185307D01*
X82241052Y-134145325D01*
X82256649Y-134136786D01*
X82358724Y-134060285D01*
X82371285Y-134047724D01*
X82447786Y-133945649D01*
X82456324Y-133930054D01*
X82501478Y-133809606D01*
X82505105Y-133794351D01*
X82510631Y-133743486D01*
X82511000Y-133736672D01*
X82511000Y-133114115D01*
X82506525Y-133098876D01*
X82505135Y-133097671D01*
X82497452Y-133096000D01*
X79813116Y-133096000D01*
X79797877Y-133100475D01*
X79796672Y-133101865D01*
X79795001Y-133109548D01*
X79795001Y-133736669D01*
X79795371Y-133743490D01*
X79800895Y-133794352D01*
X79804521Y-133809604D01*
X79849676Y-133930054D01*
X79858214Y-133945649D01*
X79934715Y-134047724D01*
X79947276Y-134060285D01*
X80049351Y-134136786D01*
X80064946Y-134145324D01*
X80173827Y-134186142D01*
X80230591Y-134228784D01*
X80255291Y-134295345D01*
X80240083Y-134364694D01*
X80220691Y-134391175D01*
X80097200Y-134520401D01*
X80093629Y-134524138D01*
X79967743Y-134708680D01*
X79943174Y-134761610D01*
X79887010Y-134882606D01*
X79873688Y-134911305D01*
X79813989Y-135126570D01*
X79790251Y-135348695D01*
X79790548Y-135353848D01*
X79790548Y-135353851D01*
X79800611Y-135528381D01*
X79803110Y-135571715D01*
X79804247Y-135576761D01*
X79804248Y-135576767D01*
X79821827Y-135654767D01*
X79852222Y-135789639D01*
X79936266Y-135996616D01*
X80052987Y-136187088D01*
X80199250Y-136355938D01*
X80371126Y-136498632D01*
X80441595Y-136539811D01*
X80444445Y-136541476D01*
X80493169Y-136593114D01*
X80506240Y-136662897D01*
X80479509Y-136728669D01*
X80439055Y-136762027D01*
X80426607Y-136768507D01*
X80422474Y-136771610D01*
X80422471Y-136771612D01*
X80252100Y-136899530D01*
X80247965Y-136902635D01*
X80093629Y-137064138D01*
X80090715Y-137068410D01*
X80090714Y-137068411D01*
X80041538Y-137140500D01*
X79967743Y-137248680D01*
X79920715Y-137349993D01*
X79880251Y-137437167D01*
X79873688Y-137451305D01*
X79813989Y-137666570D01*
X79790251Y-137888695D01*
X50508500Y-137888695D01*
X50508500Y-131777695D01*
X51723251Y-131777695D01*
X51723548Y-131782848D01*
X51723548Y-131782851D01*
X51729706Y-131889648D01*
X51736110Y-132000715D01*
X51737247Y-132005761D01*
X51737248Y-132005767D01*
X51752498Y-132073435D01*
X51785222Y-132218639D01*
X51843888Y-132363118D01*
X51860747Y-132404635D01*
X51869266Y-132425616D01*
X51871965Y-132430020D01*
X51983008Y-132611226D01*
X51985987Y-132616088D01*
X52132250Y-132784938D01*
X52136230Y-132788242D01*
X52140981Y-132792187D01*
X52180616Y-132851090D01*
X52182113Y-132922071D01*
X52144997Y-132982593D01*
X52104724Y-133007112D01*
X51989295Y-133050385D01*
X51872739Y-133137739D01*
X51785385Y-133254295D01*
X51734255Y-133390684D01*
X51727500Y-133452866D01*
X51727500Y-135249134D01*
X51734255Y-135311316D01*
X51785385Y-135447705D01*
X51872739Y-135564261D01*
X51989295Y-135651615D01*
X52125684Y-135702745D01*
X52187866Y-135709500D01*
X53984134Y-135709500D01*
X54046316Y-135702745D01*
X54182705Y-135651615D01*
X54299261Y-135564261D01*
X54386615Y-135447705D01*
X54437745Y-135311316D01*
X54444500Y-135249134D01*
X54444500Y-135235500D01*
X54464502Y-135167379D01*
X54518158Y-135120886D01*
X54570500Y-135109500D01*
X67892930Y-135109500D01*
X67911880Y-135110933D01*
X67926115Y-135113099D01*
X67926119Y-135113099D01*
X67933349Y-135114199D01*
X67940641Y-135113606D01*
X67940644Y-135113606D01*
X67986018Y-135109915D01*
X67996233Y-135109500D01*
X68004293Y-135109500D01*
X68017583Y-135107951D01*
X68032507Y-135106211D01*
X68036882Y-135105778D01*
X68102339Y-135100454D01*
X68102342Y-135100453D01*
X68109637Y-135099860D01*
X68116601Y-135097604D01*
X68122560Y-135096413D01*
X68128415Y-135095029D01*
X68135681Y-135094182D01*
X68204327Y-135069265D01*
X68208455Y-135067848D01*
X68270936Y-135047607D01*
X68270938Y-135047606D01*
X68277899Y-135045351D01*
X68284154Y-135041555D01*
X68289628Y-135039049D01*
X68295058Y-135036330D01*
X68301937Y-135033833D01*
X68362976Y-134993814D01*
X68366680Y-134991477D01*
X68429107Y-134953595D01*
X68435760Y-134947720D01*
X68437484Y-134946197D01*
X68437508Y-134946224D01*
X68440500Y-134943571D01*
X68443733Y-134940868D01*
X68449852Y-134936856D01*
X68503128Y-134880617D01*
X68505506Y-134878175D01*
X70813796Y-132569885D01*
X79795000Y-132569885D01*
X79799475Y-132585124D01*
X79800865Y-132586329D01*
X79808548Y-132588000D01*
X80880885Y-132588000D01*
X80896124Y-132583525D01*
X80897329Y-132582135D01*
X80899000Y-132574452D01*
X80899000Y-132569885D01*
X81407000Y-132569885D01*
X81411475Y-132585124D01*
X81412865Y-132586329D01*
X81420548Y-132588000D01*
X82492884Y-132588000D01*
X82508123Y-132583525D01*
X82509328Y-132582135D01*
X82510999Y-132574452D01*
X82510999Y-131947331D01*
X82510629Y-131940510D01*
X82505105Y-131889648D01*
X82501479Y-131874396D01*
X82456324Y-131753946D01*
X82447786Y-131738351D01*
X82371285Y-131636276D01*
X82358724Y-131623715D01*
X82256649Y-131547214D01*
X82241054Y-131538676D01*
X82120606Y-131493522D01*
X82105351Y-131489895D01*
X82054486Y-131484369D01*
X82047672Y-131484000D01*
X81425115Y-131484000D01*
X81409876Y-131488475D01*
X81408671Y-131489865D01*
X81407000Y-131497548D01*
X81407000Y-132569885D01*
X80899000Y-132569885D01*
X80899000Y-131502116D01*
X80894525Y-131486877D01*
X80893135Y-131485672D01*
X80885452Y-131484001D01*
X80258331Y-131484001D01*
X80251510Y-131484371D01*
X80200648Y-131489895D01*
X80185396Y-131493521D01*
X80064946Y-131538676D01*
X80049351Y-131547214D01*
X79947276Y-131623715D01*
X79934715Y-131636276D01*
X79858214Y-131738351D01*
X79849676Y-131753946D01*
X79804522Y-131874394D01*
X79800895Y-131889649D01*
X79795369Y-131940514D01*
X79795000Y-131947328D01*
X79795000Y-132569885D01*
X70813796Y-132569885D01*
X86770331Y-116613350D01*
X86833228Y-116579199D01*
X86889824Y-116567169D01*
X86889833Y-116567166D01*
X86896288Y-116565794D01*
X86902319Y-116563109D01*
X87064722Y-116490803D01*
X87064724Y-116490802D01*
X87070752Y-116488118D01*
X87225253Y-116375866D01*
X87281311Y-116313607D01*
X87348621Y-116238852D01*
X87348622Y-116238851D01*
X87353040Y-116233944D01*
X87427215Y-116105470D01*
X87445223Y-116074279D01*
X87445224Y-116074278D01*
X87448527Y-116068556D01*
X87507542Y-115886928D01*
X87510814Y-115855803D01*
X87526814Y-115703565D01*
X87527504Y-115697000D01*
X87507542Y-115507072D01*
X87448527Y-115325444D01*
X87353040Y-115160056D01*
X87225253Y-115018134D01*
X87070752Y-114905882D01*
X87064724Y-114903198D01*
X87064722Y-114903197D01*
X86902319Y-114830891D01*
X86902318Y-114830891D01*
X86896288Y-114828206D01*
X86802888Y-114808353D01*
X86715944Y-114789872D01*
X86715939Y-114789872D01*
X86709487Y-114788500D01*
X86518513Y-114788500D01*
X86512061Y-114789872D01*
X86512056Y-114789872D01*
X86425112Y-114808353D01*
X86331712Y-114828206D01*
X86325682Y-114830891D01*
X86325681Y-114830891D01*
X86163278Y-114903197D01*
X86163276Y-114903198D01*
X86157248Y-114905882D01*
X86002747Y-115018134D01*
X85874960Y-115160056D01*
X85779473Y-115325444D01*
X85742486Y-115439279D01*
X85724613Y-115494285D01*
X85693875Y-115544444D01*
X67682724Y-133555595D01*
X67620412Y-133589621D01*
X67593629Y-133592500D01*
X57446845Y-133592500D01*
X57378724Y-133572498D01*
X57332231Y-133518842D01*
X57322127Y-133448568D01*
X57351621Y-133383988D01*
X57372784Y-133364564D01*
X57410431Y-133337212D01*
X57507253Y-133266866D01*
X57511675Y-133261955D01*
X57630621Y-133129852D01*
X57630622Y-133129851D01*
X57635040Y-133124944D01*
X57696107Y-133019173D01*
X57727223Y-132965279D01*
X57727224Y-132965278D01*
X57730527Y-132959556D01*
X57789542Y-132777928D01*
X57791138Y-132762749D01*
X57808814Y-132594565D01*
X57809504Y-132588000D01*
X57801142Y-132508438D01*
X57790232Y-132404635D01*
X57790232Y-132404633D01*
X57789542Y-132398072D01*
X57730527Y-132216444D01*
X57671381Y-132114000D01*
X57654500Y-132051001D01*
X57654500Y-128083063D01*
X57655933Y-128064114D01*
X57658097Y-128049886D01*
X57659198Y-128042651D01*
X57654915Y-127989990D01*
X57654500Y-127979777D01*
X57654500Y-127971707D01*
X57654078Y-127968087D01*
X57654077Y-127968069D01*
X57651208Y-127943461D01*
X57650775Y-127939086D01*
X57645454Y-127873661D01*
X57645453Y-127873658D01*
X57644860Y-127866363D01*
X57642604Y-127859399D01*
X57641413Y-127853440D01*
X57640029Y-127847585D01*
X57639182Y-127840319D01*
X57614265Y-127771673D01*
X57612848Y-127767545D01*
X57592607Y-127705064D01*
X57592606Y-127705062D01*
X57590351Y-127698101D01*
X57586555Y-127691846D01*
X57584049Y-127686372D01*
X57581330Y-127680942D01*
X57578833Y-127674063D01*
X57538809Y-127613016D01*
X57536472Y-127609312D01*
X57534497Y-127606056D01*
X57513750Y-127571866D01*
X57501509Y-127551693D01*
X57501505Y-127551688D01*
X57498595Y-127546892D01*
X57494252Y-127541974D01*
X57491197Y-127538516D01*
X57491223Y-127538493D01*
X57488574Y-127535503D01*
X57485866Y-127532264D01*
X57481856Y-127526148D01*
X57476549Y-127521121D01*
X57476546Y-127521117D01*
X57425617Y-127472872D01*
X57423175Y-127470494D01*
X56194770Y-126242089D01*
X56182384Y-126227677D01*
X56173851Y-126216082D01*
X56173846Y-126216077D01*
X56169508Y-126210182D01*
X56163930Y-126205443D01*
X56163927Y-126205440D01*
X56129232Y-126175965D01*
X56121716Y-126169035D01*
X56116021Y-126163340D01*
X56109880Y-126158482D01*
X56093749Y-126145719D01*
X56090345Y-126142928D01*
X56040297Y-126100409D01*
X56040295Y-126100408D01*
X56034715Y-126095667D01*
X56028199Y-126092339D01*
X56023150Y-126088972D01*
X56018021Y-126085805D01*
X56012284Y-126081266D01*
X55946125Y-126050345D01*
X55942225Y-126048439D01*
X55877192Y-126015231D01*
X55870084Y-126013492D01*
X55864441Y-126011393D01*
X55858678Y-126009476D01*
X55852050Y-126006378D01*
X55780583Y-125991513D01*
X55776299Y-125990543D01*
X55705390Y-125973192D01*
X55699788Y-125972844D01*
X55699785Y-125972844D01*
X55694236Y-125972500D01*
X55694238Y-125972464D01*
X55690245Y-125972225D01*
X55686053Y-125971851D01*
X55678885Y-125970360D01*
X55612675Y-125972151D01*
X55601479Y-125972454D01*
X55598072Y-125972500D01*
X54281939Y-125972500D01*
X54213818Y-125952498D01*
X54176147Y-125914941D01*
X54168818Y-125903612D01*
X54166014Y-125899277D01*
X54015670Y-125734051D01*
X54011619Y-125730852D01*
X54011615Y-125730848D01*
X53844414Y-125598800D01*
X53844410Y-125598798D01*
X53840359Y-125595598D01*
X53799053Y-125572796D01*
X53749084Y-125522364D01*
X53734312Y-125452921D01*
X53759428Y-125386516D01*
X53786780Y-125359909D01*
X53830603Y-125328650D01*
X53965860Y-125232173D01*
X54124096Y-125074489D01*
X54183594Y-124991689D01*
X54251435Y-124897277D01*
X54254453Y-124893077D01*
X54263936Y-124873891D01*
X54351136Y-124697453D01*
X54351137Y-124697451D01*
X54353430Y-124692811D01*
X54418370Y-124479069D01*
X54447529Y-124257590D01*
X54449156Y-124191000D01*
X54430852Y-123968361D01*
X54376431Y-123751702D01*
X54287354Y-123546840D01*
X54247906Y-123485862D01*
X54168822Y-123363617D01*
X54168820Y-123363614D01*
X54166014Y-123359277D01*
X54015670Y-123194051D01*
X54011619Y-123190852D01*
X54011615Y-123190848D01*
X53844414Y-123058800D01*
X53844410Y-123058798D01*
X53840359Y-123055598D01*
X53798569Y-123032529D01*
X53748598Y-122982097D01*
X53733826Y-122912654D01*
X53758942Y-122846248D01*
X53786294Y-122819641D01*
X53961328Y-122694792D01*
X53969200Y-122688139D01*
X54120052Y-122537812D01*
X54126730Y-122529965D01*
X54251003Y-122357020D01*
X54256313Y-122348183D01*
X54350670Y-122157267D01*
X54354469Y-122147672D01*
X54416377Y-121943910D01*
X54418555Y-121933837D01*
X54419986Y-121922962D01*
X54417775Y-121908778D01*
X54404617Y-121905000D01*
X51769225Y-121905000D01*
X51755694Y-121908973D01*
X51754257Y-121918966D01*
X51784565Y-122053446D01*
X51787645Y-122063275D01*
X51867770Y-122260603D01*
X51872413Y-122269794D01*
X51983694Y-122451388D01*
X51989777Y-122459699D01*
X52129213Y-122620667D01*
X52136580Y-122627883D01*
X52300434Y-122763916D01*
X52308881Y-122769831D01*
X52377969Y-122810203D01*
X52426693Y-122861842D01*
X52439764Y-122931625D01*
X52413033Y-122997396D01*
X52372584Y-123030752D01*
X52359607Y-123037507D01*
X52355474Y-123040610D01*
X52355471Y-123040612D01*
X52185100Y-123168530D01*
X52180965Y-123171635D01*
X52026629Y-123333138D01*
X51900743Y-123517680D01*
X51806688Y-123720305D01*
X51746989Y-123935570D01*
X51723251Y-124157695D01*
X51723548Y-124162848D01*
X51723548Y-124162851D01*
X51729011Y-124257590D01*
X51736110Y-124380715D01*
X51737247Y-124385761D01*
X51737248Y-124385767D01*
X51738679Y-124392115D01*
X51785222Y-124598639D01*
X51869266Y-124805616D01*
X51871965Y-124810020D01*
X51981422Y-124988638D01*
X51985987Y-124996088D01*
X52132250Y-125164938D01*
X52304126Y-125307632D01*
X52312835Y-125312721D01*
X52377445Y-125350476D01*
X52426169Y-125402114D01*
X52439240Y-125471897D01*
X52412509Y-125537669D01*
X52372055Y-125571027D01*
X52359607Y-125577507D01*
X52355474Y-125580610D01*
X52355471Y-125580612D01*
X52186653Y-125707364D01*
X52180965Y-125711635D01*
X52177393Y-125715373D01*
X52036199Y-125863124D01*
X52026629Y-125873138D01*
X52023715Y-125877410D01*
X52023714Y-125877411D01*
X51972493Y-125952498D01*
X51900743Y-126057680D01*
X51861172Y-126142928D01*
X51815144Y-126242089D01*
X51806688Y-126260305D01*
X51746989Y-126475570D01*
X51723251Y-126697695D01*
X51723548Y-126702848D01*
X51723548Y-126702851D01*
X51734601Y-126894543D01*
X51736110Y-126920715D01*
X51737247Y-126925761D01*
X51737248Y-126925767D01*
X51758229Y-127018862D01*
X51785222Y-127138639D01*
X51818468Y-127220514D01*
X51864576Y-127334065D01*
X51869266Y-127345616D01*
X51878348Y-127360437D01*
X51979896Y-127526148D01*
X51985987Y-127536088D01*
X52132250Y-127704938D01*
X52304126Y-127847632D01*
X52377955Y-127890774D01*
X52426679Y-127942412D01*
X52439750Y-128012195D01*
X52413019Y-128077967D01*
X52372562Y-128111327D01*
X52364457Y-128115546D01*
X52355738Y-128121036D01*
X52185433Y-128248905D01*
X52177726Y-128255748D01*
X52030590Y-128409717D01*
X52024104Y-128417727D01*
X51904098Y-128593649D01*
X51899000Y-128602623D01*
X51809338Y-128795783D01*
X51805775Y-128805470D01*
X51750389Y-129005183D01*
X51751912Y-129013607D01*
X51764292Y-129017000D01*
X54404344Y-129017000D01*
X54417875Y-129013027D01*
X54419180Y-129003947D01*
X54377214Y-128836875D01*
X54373894Y-128827124D01*
X54288972Y-128631814D01*
X54284105Y-128622739D01*
X54168426Y-128443926D01*
X54162136Y-128435757D01*
X54018806Y-128278240D01*
X54011273Y-128271215D01*
X53844139Y-128139222D01*
X53835556Y-128133520D01*
X53798602Y-128113120D01*
X53748631Y-128062687D01*
X53733859Y-127993245D01*
X53758975Y-127926839D01*
X53786327Y-127900232D01*
X53851927Y-127853440D01*
X53965860Y-127772173D01*
X54124096Y-127614489D01*
X54133683Y-127601148D01*
X54176203Y-127541974D01*
X54232198Y-127498326D01*
X54278526Y-127489500D01*
X55244629Y-127489500D01*
X55312750Y-127509502D01*
X55333724Y-127526405D01*
X56100595Y-128293276D01*
X56134621Y-128355588D01*
X56137500Y-128382371D01*
X56137500Y-132051001D01*
X56120619Y-132114000D01*
X56061473Y-132216444D01*
X56002458Y-132398072D01*
X56001768Y-132404633D01*
X56001768Y-132404635D01*
X55990858Y-132508438D01*
X55982496Y-132588000D01*
X55983186Y-132594565D01*
X56000863Y-132762749D01*
X56002458Y-132777928D01*
X56061473Y-132959556D01*
X56064776Y-132965278D01*
X56064777Y-132965279D01*
X56095893Y-133019173D01*
X56156960Y-133124944D01*
X56161378Y-133129851D01*
X56161379Y-133129852D01*
X56280325Y-133261955D01*
X56284747Y-133266866D01*
X56381569Y-133337212D01*
X56419216Y-133364564D01*
X56462570Y-133420787D01*
X56468645Y-133491523D01*
X56435513Y-133554314D01*
X56373693Y-133589226D01*
X56345155Y-133592500D01*
X54570500Y-133592500D01*
X54502379Y-133572498D01*
X54455886Y-133518842D01*
X54444500Y-133466500D01*
X54444500Y-133452866D01*
X54437745Y-133390684D01*
X54386615Y-133254295D01*
X54299261Y-133137739D01*
X54182705Y-133050385D01*
X54130609Y-133030855D01*
X54064203Y-133005960D01*
X54007439Y-132963318D01*
X53982739Y-132896756D01*
X53997947Y-132827408D01*
X54019493Y-132798727D01*
X54055597Y-132762749D01*
X54124096Y-132694489D01*
X54179818Y-132616944D01*
X54251435Y-132517277D01*
X54254453Y-132513077D01*
X54270554Y-132480500D01*
X54351136Y-132317453D01*
X54351137Y-132317451D01*
X54353430Y-132312811D01*
X54418370Y-132099069D01*
X54447529Y-131877590D01*
X54449156Y-131811000D01*
X54430852Y-131588361D01*
X54376431Y-131371702D01*
X54287354Y-131166840D01*
X54202099Y-131035056D01*
X54168822Y-130983617D01*
X54168820Y-130983614D01*
X54166014Y-130979277D01*
X54015670Y-130814051D01*
X54011619Y-130810852D01*
X54011615Y-130810848D01*
X53844414Y-130678800D01*
X53844410Y-130678798D01*
X53840359Y-130675598D01*
X53798569Y-130652529D01*
X53748598Y-130602097D01*
X53733826Y-130532654D01*
X53758942Y-130466248D01*
X53786294Y-130439641D01*
X53961328Y-130314792D01*
X53969200Y-130308139D01*
X54120052Y-130157812D01*
X54126730Y-130149965D01*
X54251003Y-129977020D01*
X54256313Y-129968183D01*
X54350670Y-129777267D01*
X54354469Y-129767672D01*
X54416377Y-129563910D01*
X54418555Y-129553837D01*
X54419986Y-129542962D01*
X54417775Y-129528778D01*
X54404617Y-129525000D01*
X51769225Y-129525000D01*
X51755694Y-129528973D01*
X51754257Y-129538966D01*
X51784565Y-129673446D01*
X51787645Y-129683275D01*
X51867770Y-129880603D01*
X51872413Y-129889794D01*
X51983694Y-130071388D01*
X51989777Y-130079699D01*
X52129213Y-130240667D01*
X52136580Y-130247883D01*
X52300434Y-130383916D01*
X52308881Y-130389831D01*
X52377969Y-130430203D01*
X52426693Y-130481842D01*
X52439764Y-130551625D01*
X52413033Y-130617396D01*
X52372584Y-130650752D01*
X52359607Y-130657507D01*
X52355474Y-130660610D01*
X52355471Y-130660612D01*
X52190115Y-130784765D01*
X52180965Y-130791635D01*
X52155894Y-130817870D01*
X52048368Y-130930390D01*
X52026629Y-130953138D01*
X52023715Y-130957410D01*
X52023714Y-130957411D01*
X52000490Y-130991456D01*
X51900743Y-131137680D01*
X51882228Y-131177568D01*
X51824702Y-131301498D01*
X51806688Y-131340305D01*
X51746989Y-131555570D01*
X51723251Y-131777695D01*
X50508500Y-131777695D01*
X50508500Y-121385183D01*
X51750389Y-121385183D01*
X51751912Y-121393607D01*
X51764292Y-121397000D01*
X52813885Y-121397000D01*
X52829124Y-121392525D01*
X52830329Y-121391135D01*
X52832000Y-121383452D01*
X52832000Y-121378885D01*
X53340000Y-121378885D01*
X53344475Y-121394124D01*
X53345865Y-121395329D01*
X53353548Y-121397000D01*
X54404344Y-121397000D01*
X54417875Y-121393027D01*
X54419180Y-121383947D01*
X54377214Y-121216875D01*
X54373894Y-121207124D01*
X54288972Y-121011814D01*
X54284105Y-121002739D01*
X54168426Y-120823926D01*
X54162136Y-120815757D01*
X54018806Y-120658240D01*
X54011273Y-120651215D01*
X53844139Y-120519222D01*
X53835552Y-120513517D01*
X53798116Y-120492851D01*
X53748146Y-120442419D01*
X53733374Y-120372976D01*
X53758490Y-120306571D01*
X53785842Y-120279964D01*
X53961327Y-120154792D01*
X53969200Y-120148139D01*
X54120052Y-119997812D01*
X54126730Y-119989965D01*
X54251003Y-119817020D01*
X54256313Y-119808183D01*
X54350670Y-119617267D01*
X54354469Y-119607672D01*
X54416377Y-119403910D01*
X54418555Y-119393837D01*
X54419986Y-119382962D01*
X54417775Y-119368778D01*
X54404617Y-119365000D01*
X53358115Y-119365000D01*
X53342876Y-119369475D01*
X53341671Y-119370865D01*
X53340000Y-119378548D01*
X53340000Y-121378885D01*
X52832000Y-121378885D01*
X52832000Y-119383115D01*
X52827525Y-119367876D01*
X52826135Y-119366671D01*
X52818452Y-119365000D01*
X51769225Y-119365000D01*
X51755694Y-119368973D01*
X51754257Y-119378966D01*
X51784565Y-119513446D01*
X51787645Y-119523275D01*
X51867770Y-119720603D01*
X51872413Y-119729794D01*
X51983694Y-119911388D01*
X51989777Y-119919699D01*
X52129213Y-120080667D01*
X52136580Y-120087883D01*
X52300434Y-120223916D01*
X52308881Y-120229831D01*
X52378479Y-120270501D01*
X52427203Y-120322140D01*
X52440274Y-120391923D01*
X52413543Y-120457694D01*
X52373087Y-120491053D01*
X52364462Y-120495542D01*
X52355738Y-120501036D01*
X52185433Y-120628905D01*
X52177726Y-120635748D01*
X52030590Y-120789717D01*
X52024104Y-120797727D01*
X51904098Y-120973649D01*
X51899000Y-120982623D01*
X51809338Y-121175783D01*
X51805775Y-121185470D01*
X51750389Y-121385183D01*
X50508500Y-121385183D01*
X50508500Y-118845183D01*
X51750389Y-118845183D01*
X51751912Y-118853607D01*
X51764292Y-118857000D01*
X52813885Y-118857000D01*
X52829124Y-118852525D01*
X52830329Y-118851135D01*
X52832000Y-118843452D01*
X52832000Y-118838885D01*
X53340000Y-118838885D01*
X53344475Y-118854124D01*
X53345865Y-118855329D01*
X53353548Y-118857000D01*
X54404344Y-118857000D01*
X54417875Y-118853027D01*
X54419180Y-118843947D01*
X54377214Y-118676875D01*
X54373894Y-118667124D01*
X54288972Y-118471814D01*
X54284105Y-118462739D01*
X54168426Y-118283926D01*
X54162136Y-118275757D01*
X54018806Y-118118240D01*
X54011273Y-118111215D01*
X53844139Y-117979222D01*
X53835552Y-117973517D01*
X53798116Y-117952851D01*
X53748146Y-117902419D01*
X53733374Y-117832976D01*
X53758490Y-117766571D01*
X53785842Y-117739964D01*
X53961327Y-117614792D01*
X53969200Y-117608139D01*
X54120052Y-117457812D01*
X54126730Y-117449965D01*
X54251003Y-117277020D01*
X54256313Y-117268183D01*
X54350670Y-117077267D01*
X54354469Y-117067672D01*
X54416377Y-116863910D01*
X54418555Y-116853837D01*
X54419986Y-116842962D01*
X54417775Y-116828778D01*
X54404617Y-116825000D01*
X53358115Y-116825000D01*
X53342876Y-116829475D01*
X53341671Y-116830865D01*
X53340000Y-116838548D01*
X53340000Y-118838885D01*
X52832000Y-118838885D01*
X52832000Y-116843115D01*
X52827525Y-116827876D01*
X52826135Y-116826671D01*
X52818452Y-116825000D01*
X51769225Y-116825000D01*
X51755694Y-116828973D01*
X51754257Y-116838966D01*
X51784565Y-116973446D01*
X51787645Y-116983275D01*
X51867770Y-117180603D01*
X51872413Y-117189794D01*
X51983694Y-117371388D01*
X51989777Y-117379699D01*
X52129213Y-117540667D01*
X52136580Y-117547883D01*
X52300434Y-117683916D01*
X52308881Y-117689831D01*
X52378479Y-117730501D01*
X52427203Y-117782140D01*
X52440274Y-117851923D01*
X52413543Y-117917694D01*
X52373087Y-117951053D01*
X52364462Y-117955542D01*
X52355738Y-117961036D01*
X52185433Y-118088905D01*
X52177726Y-118095748D01*
X52030590Y-118249717D01*
X52024104Y-118257727D01*
X51904098Y-118433649D01*
X51899000Y-118442623D01*
X51809338Y-118635783D01*
X51805775Y-118645470D01*
X51750389Y-118845183D01*
X50508500Y-118845183D01*
X50508500Y-116305183D01*
X51750389Y-116305183D01*
X51751912Y-116313607D01*
X51764292Y-116317000D01*
X52813885Y-116317000D01*
X52829124Y-116312525D01*
X52830329Y-116311135D01*
X52832000Y-116303452D01*
X52832000Y-116298885D01*
X53340000Y-116298885D01*
X53344475Y-116314124D01*
X53345865Y-116315329D01*
X53353548Y-116317000D01*
X54404344Y-116317000D01*
X54417875Y-116313027D01*
X54419180Y-116303947D01*
X54377214Y-116136875D01*
X54373894Y-116127124D01*
X54288972Y-115931814D01*
X54284105Y-115922739D01*
X54168426Y-115743926D01*
X54162136Y-115735757D01*
X54018806Y-115578240D01*
X54011273Y-115571215D01*
X53844139Y-115439222D01*
X53835552Y-115433517D01*
X53649117Y-115330599D01*
X53639705Y-115326369D01*
X53438959Y-115255280D01*
X53428988Y-115252646D01*
X53357837Y-115239972D01*
X53344540Y-115241432D01*
X53340000Y-115255989D01*
X53340000Y-116298885D01*
X52832000Y-116298885D01*
X52832000Y-115254102D01*
X52828082Y-115240758D01*
X52813806Y-115238771D01*
X52775324Y-115244660D01*
X52765288Y-115247051D01*
X52562868Y-115313212D01*
X52553359Y-115317209D01*
X52364463Y-115415542D01*
X52355738Y-115421036D01*
X52185433Y-115548905D01*
X52177726Y-115555748D01*
X52030590Y-115709717D01*
X52024104Y-115717727D01*
X51904098Y-115893649D01*
X51899000Y-115902623D01*
X51809338Y-116095783D01*
X51805775Y-116105470D01*
X51750389Y-116305183D01*
X50508500Y-116305183D01*
X50508500Y-102351388D01*
X63121676Y-102351388D01*
X63138913Y-102548413D01*
X63140632Y-102554330D01*
X63140633Y-102554335D01*
X63178614Y-102685064D01*
X63194091Y-102738336D01*
X63285108Y-102913926D01*
X63381738Y-103034973D01*
X63384231Y-103037466D01*
X64013149Y-103666383D01*
X64022251Y-103676527D01*
X64045968Y-103706025D01*
X64050696Y-103709992D01*
X64084421Y-103738291D01*
X64088070Y-103741473D01*
X64089883Y-103743117D01*
X64092075Y-103745309D01*
X64125237Y-103772548D01*
X64126164Y-103773318D01*
X64158853Y-103800747D01*
X64192753Y-103829193D01*
X64192756Y-103829195D01*
X64197474Y-103833154D01*
X64202147Y-103835723D01*
X64206262Y-103839103D01*
X64211691Y-103842014D01*
X64211694Y-103842016D01*
X64288171Y-103883023D01*
X64289329Y-103883652D01*
X64301366Y-103890269D01*
X64370787Y-103928433D01*
X64375865Y-103930044D01*
X64380563Y-103932563D01*
X64469498Y-103959753D01*
X64470702Y-103960128D01*
X64559306Y-103988235D01*
X64564597Y-103988828D01*
X64569698Y-103990388D01*
X64662311Y-103999795D01*
X64663431Y-103999915D01*
X64713227Y-104005500D01*
X64716756Y-104005500D01*
X64717739Y-104005555D01*
X64723426Y-104006003D01*
X64743683Y-104008060D01*
X64760336Y-104009752D01*
X64760339Y-104009752D01*
X64766463Y-104010374D01*
X64812112Y-104006059D01*
X64823969Y-104005500D01*
X72271500Y-104005500D01*
X72339621Y-104025502D01*
X72386114Y-104079158D01*
X72397500Y-104131500D01*
X72397500Y-106110157D01*
X72396763Y-106123764D01*
X72393655Y-106152377D01*
X72392676Y-106161388D01*
X72393213Y-106167523D01*
X72397050Y-106211388D01*
X72397379Y-106216214D01*
X72397500Y-106218686D01*
X72397500Y-106221769D01*
X72397801Y-106224837D01*
X72401690Y-106264506D01*
X72401812Y-106265819D01*
X72409913Y-106358413D01*
X72411400Y-106363532D01*
X72411920Y-106368833D01*
X72438791Y-106457834D01*
X72439126Y-106458967D01*
X72465091Y-106548336D01*
X72467544Y-106553068D01*
X72469084Y-106558169D01*
X72471978Y-106563612D01*
X72512731Y-106640260D01*
X72513343Y-106641426D01*
X72556108Y-106723926D01*
X72559431Y-106728089D01*
X72561934Y-106732796D01*
X72620755Y-106804918D01*
X72621446Y-106805774D01*
X72652738Y-106844973D01*
X72655242Y-106847477D01*
X72655884Y-106848195D01*
X72659585Y-106852528D01*
X72686935Y-106886062D01*
X72691682Y-106889989D01*
X72691684Y-106889991D01*
X72722262Y-106915287D01*
X72731042Y-106923277D01*
X75062145Y-109254379D01*
X75071247Y-109264522D01*
X75094968Y-109294025D01*
X75133456Y-109326320D01*
X75137075Y-109329478D01*
X75138890Y-109331124D01*
X75141075Y-109333309D01*
X75143455Y-109335264D01*
X75143465Y-109335273D01*
X75174236Y-109360549D01*
X75175251Y-109361391D01*
X75246474Y-109421154D01*
X75251148Y-109423723D01*
X75255261Y-109427102D01*
X75260698Y-109430017D01*
X75260699Y-109430018D01*
X75337047Y-109470955D01*
X75338177Y-109471568D01*
X75419787Y-109516433D01*
X75424869Y-109518045D01*
X75429563Y-109520562D01*
X75518531Y-109547762D01*
X75519559Y-109548082D01*
X75608306Y-109576235D01*
X75613602Y-109576829D01*
X75618698Y-109578387D01*
X75711257Y-109587790D01*
X75712393Y-109587911D01*
X75746008Y-109591681D01*
X75758730Y-109593108D01*
X75758734Y-109593108D01*
X75762227Y-109593500D01*
X75765754Y-109593500D01*
X75766739Y-109593555D01*
X75772419Y-109594002D01*
X75801825Y-109596989D01*
X75809337Y-109597752D01*
X75809339Y-109597752D01*
X75815462Y-109598374D01*
X75861108Y-109594059D01*
X75872967Y-109593500D01*
X78725513Y-109593500D01*
X78793634Y-109613502D01*
X78812564Y-109628406D01*
X78912912Y-109724301D01*
X79111378Y-109859686D01*
X79116061Y-109861860D01*
X79116065Y-109861862D01*
X79324595Y-109958658D01*
X79324599Y-109958659D01*
X79329290Y-109960837D01*
X79560798Y-110025040D01*
X79565935Y-110025589D01*
X79753593Y-110045644D01*
X79753601Y-110045644D01*
X79756928Y-110046000D01*
X79991402Y-110046000D01*
X79993975Y-110045788D01*
X79993986Y-110045788D01*
X80094946Y-110037487D01*
X80169937Y-110031322D01*
X80402944Y-109972794D01*
X80531771Y-109916779D01*
X80618526Y-109879057D01*
X80618529Y-109879055D01*
X80623263Y-109876997D01*
X80804417Y-109759803D01*
X80820637Y-109749310D01*
X80820640Y-109749308D01*
X80824977Y-109746502D01*
X81002670Y-109584814D01*
X81071843Y-109497226D01*
X81148367Y-109400330D01*
X81148370Y-109400325D01*
X81151568Y-109396276D01*
X81171069Y-109360951D01*
X81265177Y-109190474D01*
X81265179Y-109190470D01*
X81267674Y-109185950D01*
X81276083Y-109162206D01*
X81346144Y-108964360D01*
X81346145Y-108964356D01*
X81347870Y-108959485D01*
X81380541Y-108776072D01*
X81389095Y-108728052D01*
X81389096Y-108728046D01*
X81390001Y-108722963D01*
X81392936Y-108482737D01*
X81356596Y-108245256D01*
X81295677Y-108058872D01*
X81283566Y-108021817D01*
X81283563Y-108021811D01*
X81281958Y-108016899D01*
X81274630Y-108002821D01*
X81173416Y-107808393D01*
X81171025Y-107803800D01*
X81026777Y-107611680D01*
X80853088Y-107445699D01*
X80816097Y-107420465D01*
X80771096Y-107365556D01*
X80762925Y-107295032D01*
X80794179Y-107231284D01*
X80818660Y-107210589D01*
X80820635Y-107209311D01*
X80824977Y-107206502D01*
X80828795Y-107203028D01*
X80828804Y-107203021D01*
X80957072Y-107086306D01*
X81020917Y-107055254D01*
X81041871Y-107053500D01*
X85001075Y-107053500D01*
X85069196Y-107073502D01*
X85090170Y-107090405D01*
X89271595Y-111271829D01*
X89305621Y-111334141D01*
X89308500Y-111360924D01*
X89308500Y-122985500D01*
X89288498Y-123053621D01*
X89234842Y-123100114D01*
X89182500Y-123111500D01*
X89018866Y-123111500D01*
X88956684Y-123118255D01*
X88820295Y-123169385D01*
X88703739Y-123256739D01*
X88616385Y-123373295D01*
X88565255Y-123509684D01*
X88558500Y-123571866D01*
X88558500Y-124668134D01*
X88565255Y-124730316D01*
X88616385Y-124866705D01*
X88703739Y-124983261D01*
X88751660Y-125019176D01*
X88794173Y-125076033D01*
X88799199Y-125146851D01*
X88765139Y-125209145D01*
X88751670Y-125220817D01*
X88703739Y-125256739D01*
X88616385Y-125373295D01*
X88565255Y-125509684D01*
X88558500Y-125571866D01*
X88558500Y-126668134D01*
X88565255Y-126730316D01*
X88616385Y-126866705D01*
X88703739Y-126983261D01*
X88751660Y-127019176D01*
X88794173Y-127076033D01*
X88799199Y-127146851D01*
X88765139Y-127209145D01*
X88751670Y-127220817D01*
X88703739Y-127256739D01*
X88690648Y-127274206D01*
X88663024Y-127311065D01*
X88606165Y-127353580D01*
X88562198Y-127361500D01*
X88481371Y-127361500D01*
X88413250Y-127341498D01*
X88392276Y-127324595D01*
X88213770Y-127146089D01*
X88201384Y-127131677D01*
X88192851Y-127120082D01*
X88192846Y-127120077D01*
X88188508Y-127114182D01*
X88182930Y-127109443D01*
X88182927Y-127109440D01*
X88148232Y-127079965D01*
X88140716Y-127073035D01*
X88135021Y-127067340D01*
X88128880Y-127062482D01*
X88112749Y-127049719D01*
X88109345Y-127046928D01*
X88059297Y-127004409D01*
X88059295Y-127004408D01*
X88053715Y-126999667D01*
X88047199Y-126996339D01*
X88042150Y-126992972D01*
X88037021Y-126989805D01*
X88031284Y-126985266D01*
X87965125Y-126954345D01*
X87961225Y-126952439D01*
X87960857Y-126952251D01*
X87896192Y-126919231D01*
X87889084Y-126917492D01*
X87883441Y-126915393D01*
X87877678Y-126913476D01*
X87871050Y-126910378D01*
X87799583Y-126895513D01*
X87795299Y-126894543D01*
X87724390Y-126877192D01*
X87718788Y-126876844D01*
X87718785Y-126876844D01*
X87713236Y-126876500D01*
X87713238Y-126876464D01*
X87709245Y-126876225D01*
X87705053Y-126875851D01*
X87697885Y-126874360D01*
X87631675Y-126876151D01*
X87620479Y-126876454D01*
X87617072Y-126876500D01*
X86521587Y-126876500D01*
X86447528Y-126852437D01*
X86441098Y-126847765D01*
X86441091Y-126847761D01*
X86435752Y-126843882D01*
X86429724Y-126841198D01*
X86429722Y-126841197D01*
X86267319Y-126768891D01*
X86267318Y-126768891D01*
X86261288Y-126766206D01*
X86167887Y-126746353D01*
X86080944Y-126727872D01*
X86080939Y-126727872D01*
X86074487Y-126726500D01*
X85883513Y-126726500D01*
X85877061Y-126727872D01*
X85877056Y-126727872D01*
X85790113Y-126746353D01*
X85696712Y-126766206D01*
X85690682Y-126768891D01*
X85690681Y-126768891D01*
X85528278Y-126841197D01*
X85528276Y-126841198D01*
X85522248Y-126843882D01*
X85516907Y-126847762D01*
X85516906Y-126847763D01*
X85490835Y-126866705D01*
X85367747Y-126956134D01*
X85363326Y-126961044D01*
X85363325Y-126961045D01*
X85259229Y-127076656D01*
X85239960Y-127098056D01*
X85216122Y-127139345D01*
X85151449Y-127251362D01*
X85144473Y-127263444D01*
X85085458Y-127445072D01*
X85084768Y-127451633D01*
X85084768Y-127451635D01*
X85082938Y-127469045D01*
X85065496Y-127635000D01*
X85085458Y-127824928D01*
X85144473Y-128006556D01*
X85147776Y-128012278D01*
X85147777Y-128012279D01*
X85169490Y-128049886D01*
X85239960Y-128171944D01*
X85367747Y-128313866D01*
X85425172Y-128355588D01*
X85516904Y-128422235D01*
X85522248Y-128426118D01*
X85528276Y-128428802D01*
X85528278Y-128428803D01*
X85690681Y-128501109D01*
X85696712Y-128503794D01*
X85790113Y-128523647D01*
X85877056Y-128542128D01*
X85877061Y-128542128D01*
X85883513Y-128543500D01*
X86074487Y-128543500D01*
X86080939Y-128542128D01*
X86080944Y-128542128D01*
X86167887Y-128523647D01*
X86261288Y-128503794D01*
X86267319Y-128501109D01*
X86429722Y-128428803D01*
X86429724Y-128428802D01*
X86435752Y-128426118D01*
X86441091Y-128422239D01*
X86441098Y-128422235D01*
X86447528Y-128417563D01*
X86521587Y-128393500D01*
X87263629Y-128393500D01*
X87331750Y-128413502D01*
X87352724Y-128430405D01*
X87531230Y-128608911D01*
X87543616Y-128623323D01*
X87552149Y-128634918D01*
X87552154Y-128634923D01*
X87556492Y-128640818D01*
X87562070Y-128645557D01*
X87562073Y-128645560D01*
X87596768Y-128675035D01*
X87604284Y-128681965D01*
X87609980Y-128687661D01*
X87612841Y-128689924D01*
X87612846Y-128689929D01*
X87632256Y-128705285D01*
X87635658Y-128708074D01*
X87691285Y-128755333D01*
X87697802Y-128758661D01*
X87702850Y-128762027D01*
X87707972Y-128765190D01*
X87713716Y-128769735D01*
X87779895Y-128800664D01*
X87783779Y-128802563D01*
X87848808Y-128835769D01*
X87855923Y-128837510D01*
X87861578Y-128839613D01*
X87867317Y-128841522D01*
X87873950Y-128844622D01*
X87945435Y-128859491D01*
X87949701Y-128860457D01*
X88020610Y-128877808D01*
X88026212Y-128878156D01*
X88026215Y-128878156D01*
X88031764Y-128878500D01*
X88031762Y-128878535D01*
X88035734Y-128878775D01*
X88039955Y-128879152D01*
X88047115Y-128880641D01*
X88124542Y-128878546D01*
X88127950Y-128878500D01*
X88562198Y-128878500D01*
X88630319Y-128898502D01*
X88663024Y-128928935D01*
X88703739Y-128983261D01*
X88751660Y-129019176D01*
X88794173Y-129076033D01*
X88799199Y-129146851D01*
X88765139Y-129209145D01*
X88751670Y-129220817D01*
X88703739Y-129256739D01*
X88616385Y-129373295D01*
X88565255Y-129509684D01*
X88558500Y-129571866D01*
X88558500Y-130668134D01*
X88565255Y-130730316D01*
X88616385Y-130866705D01*
X88703739Y-130983261D01*
X88751660Y-131019176D01*
X88794173Y-131076033D01*
X88799199Y-131146851D01*
X88765139Y-131209145D01*
X88751670Y-131220817D01*
X88703739Y-131256739D01*
X88616385Y-131373295D01*
X88565255Y-131509684D01*
X88558500Y-131571866D01*
X88558500Y-132668134D01*
X88565255Y-132730316D01*
X88616385Y-132866705D01*
X88703739Y-132983261D01*
X88751660Y-133019176D01*
X88794173Y-133076033D01*
X88799199Y-133146851D01*
X88765139Y-133209145D01*
X88751670Y-133220817D01*
X88703739Y-133256739D01*
X88616385Y-133373295D01*
X88565255Y-133509684D01*
X88558500Y-133571866D01*
X88558500Y-134668134D01*
X88565255Y-134730316D01*
X88616385Y-134866705D01*
X88703739Y-134983261D01*
X88751660Y-135019176D01*
X88794173Y-135076033D01*
X88799199Y-135146851D01*
X88765139Y-135209145D01*
X88751670Y-135220817D01*
X88703739Y-135256739D01*
X88616385Y-135373295D01*
X88565255Y-135509684D01*
X88558500Y-135571866D01*
X88558500Y-136668134D01*
X88565255Y-136730316D01*
X88616385Y-136866705D01*
X88703739Y-136983261D01*
X88751660Y-137019176D01*
X88794173Y-137076033D01*
X88799199Y-137146851D01*
X88765139Y-137209145D01*
X88751670Y-137220817D01*
X88703739Y-137256739D01*
X88698358Y-137263919D01*
X88663024Y-137311065D01*
X88606165Y-137353580D01*
X88562198Y-137361500D01*
X87626070Y-137361500D01*
X87607120Y-137360067D01*
X87592885Y-137357901D01*
X87592881Y-137357901D01*
X87585651Y-137356801D01*
X87578359Y-137357394D01*
X87578356Y-137357394D01*
X87532982Y-137361085D01*
X87522767Y-137361500D01*
X87514707Y-137361500D01*
X87511073Y-137361924D01*
X87511067Y-137361924D01*
X87498042Y-137363443D01*
X87486480Y-137364791D01*
X87482132Y-137365221D01*
X87409364Y-137371140D01*
X87402403Y-137373395D01*
X87396463Y-137374582D01*
X87390588Y-137375971D01*
X87383319Y-137376818D01*
X87314670Y-137401736D01*
X87310542Y-137403153D01*
X87248064Y-137423393D01*
X87248062Y-137423394D01*
X87241101Y-137425649D01*
X87234846Y-137429445D01*
X87229372Y-137431951D01*
X87223942Y-137434670D01*
X87217063Y-137437167D01*
X87210943Y-137441180D01*
X87210942Y-137441180D01*
X87156024Y-137477186D01*
X87152320Y-137479523D01*
X87089893Y-137517405D01*
X87081516Y-137524803D01*
X87081492Y-137524776D01*
X87078500Y-137527429D01*
X87075267Y-137530132D01*
X87069148Y-137534144D01*
X87064116Y-137539456D01*
X87015872Y-137590383D01*
X87013494Y-137592825D01*
X81546724Y-143059595D01*
X81484412Y-143093621D01*
X81457629Y-143096500D01*
X75438939Y-143096500D01*
X75370818Y-143076498D01*
X75333147Y-143038941D01*
X75325818Y-143027612D01*
X75323014Y-143023277D01*
X75172670Y-142858051D01*
X75168619Y-142854852D01*
X75168615Y-142854848D01*
X75001414Y-142722800D01*
X75001410Y-142722798D01*
X74997359Y-142719598D01*
X74801789Y-142611638D01*
X74796920Y-142609914D01*
X74796916Y-142609912D01*
X74596087Y-142538795D01*
X74596083Y-142538794D01*
X74591212Y-142537069D01*
X74586119Y-142536162D01*
X74586116Y-142536161D01*
X74376373Y-142498800D01*
X74376367Y-142498799D01*
X74371284Y-142497894D01*
X74297452Y-142496992D01*
X74153081Y-142495228D01*
X74153079Y-142495228D01*
X74147911Y-142495165D01*
X73927091Y-142528955D01*
X73714756Y-142598357D01*
X73684443Y-142614137D01*
X73534292Y-142692301D01*
X73516607Y-142701507D01*
X73512474Y-142704610D01*
X73512471Y-142704612D01*
X73475505Y-142732367D01*
X73337965Y-142835635D01*
X73334393Y-142839373D01*
X73254509Y-142922967D01*
X73183629Y-142997138D01*
X73153363Y-143041507D01*
X73098455Y-143086507D01*
X73049277Y-143096500D01*
X68938939Y-143096500D01*
X68870818Y-143076498D01*
X68833147Y-143038941D01*
X68825818Y-143027612D01*
X68823014Y-143023277D01*
X68672670Y-142858051D01*
X68668619Y-142854852D01*
X68668615Y-142854848D01*
X68501414Y-142722800D01*
X68501410Y-142722798D01*
X68497359Y-142719598D01*
X68301789Y-142611638D01*
X68296920Y-142609914D01*
X68296916Y-142609912D01*
X68096087Y-142538795D01*
X68096083Y-142538794D01*
X68091212Y-142537069D01*
X68086119Y-142536162D01*
X68086116Y-142536161D01*
X67876373Y-142498800D01*
X67876367Y-142498799D01*
X67871284Y-142497894D01*
X67797452Y-142496992D01*
X67653081Y-142495228D01*
X67653079Y-142495228D01*
X67647911Y-142495165D01*
X67427091Y-142528955D01*
X67214756Y-142598357D01*
X67184443Y-142614137D01*
X67034292Y-142692301D01*
X67016607Y-142701507D01*
X67012474Y-142704610D01*
X67012471Y-142704612D01*
X66975505Y-142732367D01*
X66837965Y-142835635D01*
X66834393Y-142839373D01*
X66754509Y-142922967D01*
X66683629Y-142997138D01*
X66680720Y-143001403D01*
X66680714Y-143001411D01*
X66641024Y-143059595D01*
X66557743Y-143181680D01*
X66463688Y-143384305D01*
X66403989Y-143599570D01*
X66380251Y-143821695D01*
X66380548Y-143826848D01*
X66380548Y-143826851D01*
X66390212Y-143994453D01*
X66393110Y-144044715D01*
X66394247Y-144049761D01*
X66394248Y-144049767D01*
X66418304Y-144156508D01*
X66442222Y-144262639D01*
X66491752Y-144384617D01*
X66523893Y-144463771D01*
X66526266Y-144469616D01*
X66542808Y-144496610D01*
X66610699Y-144607398D01*
X66642987Y-144660088D01*
X66789250Y-144828938D01*
X66961126Y-144971632D01*
X67154000Y-145084338D01*
X67362692Y-145164030D01*
X67367760Y-145165061D01*
X67367763Y-145165062D01*
X67475017Y-145186883D01*
X67581597Y-145208567D01*
X67586772Y-145208757D01*
X67586774Y-145208757D01*
X67799673Y-145216564D01*
X67799677Y-145216564D01*
X67804837Y-145216753D01*
X67809957Y-145216097D01*
X67809959Y-145216097D01*
X68021288Y-145189025D01*
X68021289Y-145189025D01*
X68026416Y-145188368D01*
X68031366Y-145186883D01*
X68235429Y-145125661D01*
X68235434Y-145125659D01*
X68240384Y-145124174D01*
X68440994Y-145025896D01*
X68622860Y-144896173D01*
X68781096Y-144738489D01*
X68833203Y-144665974D01*
X68889198Y-144622326D01*
X68935526Y-144613500D01*
X73045491Y-144613500D01*
X73113612Y-144633502D01*
X73142402Y-144660595D01*
X73142987Y-144660088D01*
X73289250Y-144828938D01*
X73461126Y-144971632D01*
X73654000Y-145084338D01*
X73862692Y-145164030D01*
X73867760Y-145165061D01*
X73867763Y-145165062D01*
X73975017Y-145186883D01*
X74081597Y-145208567D01*
X74086772Y-145208757D01*
X74086774Y-145208757D01*
X74299673Y-145216564D01*
X74299677Y-145216564D01*
X74304837Y-145216753D01*
X74309957Y-145216097D01*
X74309959Y-145216097D01*
X74521288Y-145189025D01*
X74521289Y-145189025D01*
X74526416Y-145188368D01*
X74531366Y-145186883D01*
X74735429Y-145125661D01*
X74735434Y-145125659D01*
X74740384Y-145124174D01*
X74940994Y-145025896D01*
X75122860Y-144896173D01*
X75281096Y-144738489D01*
X75333203Y-144665974D01*
X75389198Y-144622326D01*
X75435526Y-144613500D01*
X81756930Y-144613500D01*
X81775880Y-144614933D01*
X81790115Y-144617099D01*
X81790119Y-144617099D01*
X81797349Y-144618199D01*
X81804641Y-144617606D01*
X81804644Y-144617606D01*
X81850018Y-144613915D01*
X81860233Y-144613500D01*
X81868293Y-144613500D01*
X81881583Y-144611951D01*
X81896507Y-144610211D01*
X81900882Y-144609778D01*
X81966339Y-144604454D01*
X81966342Y-144604453D01*
X81973637Y-144603860D01*
X81980601Y-144601604D01*
X81986560Y-144600413D01*
X81992415Y-144599029D01*
X81999681Y-144598182D01*
X82068327Y-144573265D01*
X82072455Y-144571848D01*
X82134936Y-144551607D01*
X82134938Y-144551606D01*
X82141899Y-144549351D01*
X82148154Y-144545555D01*
X82153628Y-144543049D01*
X82159058Y-144540330D01*
X82165937Y-144537833D01*
X82172058Y-144533820D01*
X82226976Y-144497814D01*
X82230680Y-144495477D01*
X82293107Y-144457595D01*
X82301484Y-144450197D01*
X82301508Y-144450224D01*
X82304500Y-144447571D01*
X82307733Y-144444868D01*
X82313852Y-144440856D01*
X82367128Y-144384617D01*
X82369506Y-144382175D01*
X87836276Y-138915405D01*
X87898588Y-138881379D01*
X87925371Y-138878500D01*
X88562198Y-138878500D01*
X88630319Y-138898502D01*
X88663024Y-138928935D01*
X88703739Y-138983261D01*
X88820295Y-139070615D01*
X88956684Y-139121745D01*
X89018866Y-139128500D01*
X91615134Y-139128500D01*
X91677316Y-139121745D01*
X91813705Y-139070615D01*
X91930261Y-138983261D01*
X92017615Y-138866705D01*
X92068745Y-138730316D01*
X92075500Y-138668134D01*
X92075500Y-137922000D01*
X95225496Y-137922000D01*
X95226186Y-137928565D01*
X95243469Y-138093000D01*
X95245458Y-138111928D01*
X95304473Y-138293556D01*
X95307776Y-138299278D01*
X95307777Y-138299279D01*
X95328069Y-138334425D01*
X95399960Y-138458944D01*
X95404378Y-138463851D01*
X95404379Y-138463852D01*
X95495286Y-138564814D01*
X95527747Y-138600866D01*
X95553309Y-138619438D01*
X95676904Y-138709235D01*
X95682248Y-138713118D01*
X95688276Y-138715802D01*
X95688278Y-138715803D01*
X95850681Y-138788109D01*
X95856712Y-138790794D01*
X95943009Y-138809137D01*
X96037056Y-138829128D01*
X96037061Y-138829128D01*
X96043513Y-138830500D01*
X96234487Y-138830500D01*
X96240939Y-138829128D01*
X96240944Y-138829128D01*
X96334991Y-138809137D01*
X96421288Y-138790794D01*
X96427319Y-138788109D01*
X96589722Y-138715803D01*
X96589724Y-138715802D01*
X96595752Y-138713118D01*
X96601091Y-138709239D01*
X96601098Y-138709235D01*
X96607528Y-138704563D01*
X96681587Y-138680500D01*
X97722930Y-138680500D01*
X97741880Y-138681933D01*
X97756115Y-138684099D01*
X97756119Y-138684099D01*
X97763349Y-138685199D01*
X97770641Y-138684606D01*
X97770644Y-138684606D01*
X97816018Y-138680915D01*
X97826233Y-138680500D01*
X97834293Y-138680500D01*
X97847583Y-138678951D01*
X97862507Y-138677211D01*
X97866882Y-138676778D01*
X97932339Y-138671454D01*
X97932342Y-138671453D01*
X97939637Y-138670860D01*
X97946601Y-138668604D01*
X97952560Y-138667413D01*
X97958415Y-138666029D01*
X97965681Y-138665182D01*
X98034327Y-138640265D01*
X98038455Y-138638848D01*
X98100936Y-138618607D01*
X98100938Y-138618606D01*
X98107899Y-138616351D01*
X98114154Y-138612555D01*
X98119628Y-138610049D01*
X98125058Y-138607330D01*
X98131937Y-138604833D01*
X98145478Y-138595955D01*
X98192976Y-138564814D01*
X98196680Y-138562477D01*
X98259107Y-138524595D01*
X98267484Y-138517197D01*
X98267508Y-138517224D01*
X98270499Y-138514572D01*
X98273733Y-138511868D01*
X98279852Y-138507856D01*
X98333094Y-138451653D01*
X98335470Y-138449212D01*
X98705268Y-138079414D01*
X98767580Y-138045388D01*
X98838395Y-138050453D01*
X98895231Y-138093000D01*
X98919673Y-138155339D01*
X98927670Y-138231427D01*
X98928458Y-138238928D01*
X98987473Y-138420556D01*
X98990776Y-138426278D01*
X98990777Y-138426279D01*
X99004704Y-138450401D01*
X99082960Y-138585944D01*
X99087378Y-138590851D01*
X99087379Y-138590852D01*
X99206325Y-138722955D01*
X99210747Y-138727866D01*
X99224303Y-138737715D01*
X99350122Y-138829128D01*
X99365248Y-138840118D01*
X99371276Y-138842802D01*
X99371278Y-138842803D01*
X99533681Y-138915109D01*
X99539712Y-138917794D01*
X99633112Y-138937647D01*
X99720056Y-138956128D01*
X99720061Y-138956128D01*
X99726513Y-138957500D01*
X99917487Y-138957500D01*
X99923939Y-138956128D01*
X99923944Y-138956128D01*
X100010888Y-138937647D01*
X100104288Y-138917794D01*
X100116305Y-138912444D01*
X100168078Y-138889393D01*
X100219327Y-138878500D01*
X103762198Y-138878500D01*
X103830319Y-138898502D01*
X103863024Y-138928935D01*
X103903739Y-138983261D01*
X104020295Y-139070615D01*
X104156684Y-139121745D01*
X104218866Y-139128500D01*
X106815134Y-139128500D01*
X106877316Y-139121745D01*
X107013705Y-139070615D01*
X107130261Y-138983261D01*
X107217615Y-138866705D01*
X107268745Y-138730316D01*
X107275500Y-138668134D01*
X107275500Y-137571866D01*
X107268745Y-137509684D01*
X107217615Y-137373295D01*
X107130261Y-137256739D01*
X107082340Y-137220824D01*
X107039827Y-137163967D01*
X107034801Y-137093149D01*
X107068861Y-137030855D01*
X107082330Y-137019183D01*
X107130261Y-136983261D01*
X107217615Y-136866705D01*
X107268745Y-136730316D01*
X107275500Y-136668134D01*
X107275500Y-135571866D01*
X107268745Y-135509684D01*
X107217615Y-135373295D01*
X107182218Y-135326065D01*
X107157370Y-135259559D01*
X107172423Y-135190176D01*
X107222597Y-135139946D01*
X107283044Y-135124500D01*
X108423413Y-135124500D01*
X108497472Y-135148563D01*
X108503902Y-135153235D01*
X108503909Y-135153239D01*
X108509248Y-135157118D01*
X108515276Y-135159802D01*
X108515278Y-135159803D01*
X108626103Y-135209145D01*
X108683712Y-135234794D01*
X108761658Y-135251362D01*
X108864056Y-135273128D01*
X108864061Y-135273128D01*
X108870513Y-135274500D01*
X109061487Y-135274500D01*
X109067939Y-135273128D01*
X109067944Y-135273128D01*
X109170342Y-135251362D01*
X109248288Y-135234794D01*
X109305897Y-135209145D01*
X109416722Y-135159803D01*
X109416724Y-135159802D01*
X109422752Y-135157118D01*
X109428097Y-135153235D01*
X109500743Y-135100454D01*
X109577253Y-135044866D01*
X109589869Y-135030855D01*
X109700621Y-134907852D01*
X109700622Y-134907851D01*
X109705040Y-134902944D01*
X109785944Y-134762814D01*
X109797223Y-134743279D01*
X109797224Y-134743278D01*
X109800527Y-134737556D01*
X109859542Y-134555928D01*
X109877183Y-134388088D01*
X109878814Y-134372565D01*
X109879504Y-134366000D01*
X109867706Y-134253744D01*
X109860232Y-134182635D01*
X109860232Y-134182633D01*
X109859542Y-134176072D01*
X109800527Y-133994444D01*
X109705040Y-133829056D01*
X109687526Y-133809604D01*
X109581675Y-133692045D01*
X109581674Y-133692044D01*
X109577253Y-133687134D01*
X109445036Y-133591072D01*
X109428094Y-133578763D01*
X109428093Y-133578762D01*
X109422752Y-133574882D01*
X109416724Y-133572198D01*
X109416722Y-133572197D01*
X109254319Y-133499891D01*
X109254318Y-133499891D01*
X109248288Y-133497206D01*
X109154888Y-133477353D01*
X109067944Y-133458872D01*
X109067939Y-133458872D01*
X109061487Y-133457500D01*
X108870513Y-133457500D01*
X108864061Y-133458872D01*
X108864056Y-133458872D01*
X108777112Y-133477353D01*
X108683712Y-133497206D01*
X108677682Y-133499891D01*
X108677681Y-133499891D01*
X108515278Y-133572197D01*
X108515276Y-133572198D01*
X108509248Y-133574882D01*
X108503909Y-133578761D01*
X108503902Y-133578765D01*
X108497472Y-133583437D01*
X108423413Y-133607500D01*
X107390542Y-133607500D01*
X107322421Y-133587498D01*
X107275928Y-133533842D01*
X107269261Y-133514435D01*
X107268745Y-133509684D01*
X107265972Y-133502285D01*
X107220767Y-133381703D01*
X107217615Y-133373295D01*
X107130261Y-133256739D01*
X107082340Y-133220824D01*
X107039827Y-133163967D01*
X107034801Y-133093149D01*
X107068861Y-133030855D01*
X107082330Y-133019183D01*
X107130261Y-132983261D01*
X107143738Y-132965279D01*
X107200955Y-132888935D01*
X107257815Y-132846420D01*
X107301781Y-132838500D01*
X108423413Y-132838500D01*
X108497472Y-132862563D01*
X108503902Y-132867235D01*
X108503909Y-132867239D01*
X108509248Y-132871118D01*
X108515276Y-132873802D01*
X108515278Y-132873803D01*
X108636181Y-132927632D01*
X108683712Y-132948794D01*
X108777113Y-132968647D01*
X108864056Y-132987128D01*
X108864061Y-132987128D01*
X108870513Y-132988500D01*
X109061487Y-132988500D01*
X109067939Y-132987128D01*
X109067944Y-132987128D01*
X109154887Y-132968647D01*
X109248288Y-132948794D01*
X109295819Y-132927632D01*
X109416722Y-132873803D01*
X109416724Y-132873802D01*
X109422752Y-132871118D01*
X109428097Y-132867235D01*
X109522389Y-132798727D01*
X109577253Y-132758866D01*
X109581675Y-132753955D01*
X109700621Y-132621852D01*
X109700622Y-132621851D01*
X109705040Y-132616944D01*
X109800527Y-132451556D01*
X109859542Y-132269928D01*
X109861138Y-132254749D01*
X109878814Y-132086565D01*
X109879504Y-132080000D01*
X109859542Y-131890072D01*
X109800527Y-131708444D01*
X109705040Y-131543056D01*
X109668178Y-131502116D01*
X109581675Y-131406045D01*
X109581674Y-131406044D01*
X109577253Y-131401134D01*
X109467144Y-131321135D01*
X109428094Y-131292763D01*
X109428093Y-131292762D01*
X109422752Y-131288882D01*
X109416724Y-131286198D01*
X109416722Y-131286197D01*
X109254319Y-131213891D01*
X109254318Y-131213891D01*
X109248288Y-131211206D01*
X109154887Y-131191353D01*
X109067944Y-131172872D01*
X109067939Y-131172872D01*
X109061487Y-131171500D01*
X108870513Y-131171500D01*
X108864061Y-131172872D01*
X108864056Y-131172872D01*
X108777113Y-131191353D01*
X108683712Y-131211206D01*
X108677682Y-131213891D01*
X108677681Y-131213891D01*
X108515278Y-131286197D01*
X108515276Y-131286198D01*
X108509248Y-131288882D01*
X108503909Y-131292761D01*
X108503902Y-131292765D01*
X108497472Y-131297437D01*
X108423413Y-131321500D01*
X107997597Y-131321500D01*
X107929476Y-131301498D01*
X107882983Y-131247842D01*
X107872879Y-131177568D01*
X107902373Y-131112988D01*
X107962099Y-131074604D01*
X107971400Y-131072253D01*
X107987090Y-131068918D01*
X108105288Y-131043794D01*
X108222842Y-130991456D01*
X108273722Y-130968803D01*
X108273724Y-130968802D01*
X108279752Y-130966118D01*
X108297618Y-130953138D01*
X108385550Y-130889251D01*
X108434253Y-130853866D01*
X108466664Y-130817870D01*
X108557621Y-130716852D01*
X108557622Y-130716851D01*
X108562040Y-130711944D01*
X108657527Y-130546556D01*
X108716542Y-130364928D01*
X108721812Y-130314792D01*
X108735814Y-130181565D01*
X108736504Y-130175000D01*
X108735814Y-130168435D01*
X108717232Y-129991635D01*
X108717232Y-129991633D01*
X108716542Y-129985072D01*
X108657527Y-129803444D01*
X108562040Y-129638056D01*
X108446454Y-129509684D01*
X108438675Y-129501045D01*
X108438674Y-129501044D01*
X108434253Y-129496134D01*
X108279752Y-129383882D01*
X108273724Y-129381198D01*
X108273722Y-129381197D01*
X108111319Y-129308891D01*
X108111318Y-129308891D01*
X108105288Y-129306206D01*
X108011887Y-129286353D01*
X107924944Y-129267872D01*
X107924939Y-129267872D01*
X107918487Y-129266500D01*
X107727513Y-129266500D01*
X107721061Y-129267872D01*
X107721056Y-129267872D01*
X107634113Y-129286353D01*
X107540712Y-129306206D01*
X107534682Y-129308891D01*
X107534681Y-129308891D01*
X107440985Y-129350607D01*
X107389736Y-129361500D01*
X107271802Y-129361500D01*
X107203681Y-129341498D01*
X107170976Y-129311065D01*
X107135642Y-129263919D01*
X107130261Y-129256739D01*
X107082340Y-129220824D01*
X107039827Y-129163967D01*
X107034801Y-129093149D01*
X107068861Y-129030855D01*
X107082330Y-129019183D01*
X107130261Y-128983261D01*
X107135644Y-128976079D01*
X107153740Y-128951934D01*
X107210599Y-128909419D01*
X107254565Y-128901500D01*
X108931413Y-128901500D01*
X109005472Y-128925563D01*
X109011902Y-128930235D01*
X109011909Y-128930239D01*
X109017248Y-128934118D01*
X109023276Y-128936802D01*
X109023278Y-128936803D01*
X109174087Y-129003947D01*
X109191712Y-129011794D01*
X109285112Y-129031647D01*
X109372056Y-129050128D01*
X109372061Y-129050128D01*
X109378513Y-129051500D01*
X109569487Y-129051500D01*
X109575939Y-129050128D01*
X109575944Y-129050128D01*
X109662888Y-129031647D01*
X109756288Y-129011794D01*
X109773913Y-129003947D01*
X109924722Y-128936803D01*
X109924724Y-128936802D01*
X109930752Y-128934118D01*
X109936097Y-128930235D01*
X110013647Y-128873891D01*
X110085253Y-128821866D01*
X110167685Y-128730316D01*
X110208621Y-128684852D01*
X110208622Y-128684851D01*
X110213040Y-128679944D01*
X110308527Y-128514556D01*
X110367542Y-128332928D01*
X110369138Y-128317749D01*
X110386814Y-128149565D01*
X110387504Y-128143000D01*
X110381363Y-128084567D01*
X110368232Y-127959635D01*
X110368232Y-127959633D01*
X110367542Y-127953072D01*
X110308527Y-127771444D01*
X110213040Y-127606056D01*
X110164092Y-127551693D01*
X110089675Y-127469045D01*
X110089674Y-127469044D01*
X110085253Y-127464134D01*
X109950334Y-127366109D01*
X109936094Y-127355763D01*
X109936093Y-127355762D01*
X109930752Y-127351882D01*
X109924724Y-127349198D01*
X109924722Y-127349197D01*
X109762319Y-127276891D01*
X109762318Y-127276891D01*
X109756288Y-127274206D01*
X109648816Y-127251362D01*
X109575944Y-127235872D01*
X109575939Y-127235872D01*
X109569487Y-127234500D01*
X109378513Y-127234500D01*
X109372061Y-127235872D01*
X109372056Y-127235872D01*
X109299184Y-127251362D01*
X109191712Y-127274206D01*
X109185682Y-127276891D01*
X109185681Y-127276891D01*
X109023278Y-127349197D01*
X109023276Y-127349198D01*
X109017248Y-127351882D01*
X109011909Y-127355761D01*
X109011902Y-127355765D01*
X109005472Y-127360437D01*
X108931413Y-127384500D01*
X107289040Y-127384500D01*
X107220919Y-127364498D01*
X107188214Y-127334065D01*
X107135643Y-127263920D01*
X107135642Y-127263919D01*
X107130261Y-127256739D01*
X107081926Y-127220514D01*
X107039411Y-127163655D01*
X107034385Y-127092836D01*
X107068445Y-127030543D01*
X107081925Y-127018862D01*
X107122726Y-126988283D01*
X107135285Y-126975724D01*
X107211786Y-126873649D01*
X107220324Y-126858054D01*
X107265478Y-126737606D01*
X107269105Y-126722351D01*
X107274631Y-126671486D01*
X107275000Y-126664672D01*
X107275000Y-126392115D01*
X107270525Y-126376876D01*
X107269135Y-126375671D01*
X107261452Y-126374000D01*
X103777116Y-126374000D01*
X103761877Y-126378475D01*
X103760672Y-126379865D01*
X103759001Y-126387548D01*
X103759001Y-126664669D01*
X103759371Y-126671490D01*
X103764895Y-126722352D01*
X103768521Y-126737604D01*
X103813676Y-126858054D01*
X103822214Y-126873649D01*
X103898715Y-126975724D01*
X103911274Y-126988283D01*
X103952075Y-127018862D01*
X103994589Y-127075722D01*
X103999614Y-127146540D01*
X103965554Y-127208834D01*
X103952075Y-127220513D01*
X103903739Y-127256739D01*
X103816385Y-127373295D01*
X103765255Y-127509684D01*
X103758500Y-127571866D01*
X103758500Y-128668134D01*
X103765255Y-128730316D01*
X103816385Y-128866705D01*
X103903739Y-128983261D01*
X103951660Y-129019176D01*
X103994173Y-129076033D01*
X103999199Y-129146851D01*
X103965139Y-129209145D01*
X103951670Y-129220817D01*
X103903739Y-129256739D01*
X103816385Y-129373295D01*
X103765255Y-129509684D01*
X103758500Y-129571866D01*
X103758500Y-130668134D01*
X103765255Y-130730316D01*
X103816385Y-130866705D01*
X103903739Y-130983261D01*
X103951660Y-131019176D01*
X103994173Y-131076033D01*
X103999199Y-131146851D01*
X103965139Y-131209145D01*
X103951670Y-131220817D01*
X103903739Y-131256739D01*
X103816385Y-131373295D01*
X103765255Y-131509684D01*
X103758500Y-131571866D01*
X103758500Y-132668134D01*
X103765255Y-132730316D01*
X103816385Y-132866705D01*
X103903739Y-132983261D01*
X103951660Y-133019176D01*
X103994173Y-133076033D01*
X103999199Y-133146851D01*
X103965139Y-133209145D01*
X103951670Y-133220817D01*
X103903739Y-133256739D01*
X103816385Y-133373295D01*
X103765255Y-133509684D01*
X103758500Y-133571866D01*
X103758500Y-134668134D01*
X103765255Y-134730316D01*
X103816385Y-134866705D01*
X103903739Y-134983261D01*
X103951660Y-135019176D01*
X103994173Y-135076033D01*
X103999199Y-135146851D01*
X103965139Y-135209145D01*
X103951670Y-135220817D01*
X103903739Y-135256739D01*
X103898358Y-135263919D01*
X103863024Y-135311065D01*
X103806165Y-135353580D01*
X103762198Y-135361500D01*
X99659070Y-135361500D01*
X99640120Y-135360067D01*
X99625885Y-135357901D01*
X99625881Y-135357901D01*
X99618651Y-135356801D01*
X99611359Y-135357394D01*
X99611356Y-135357394D01*
X99565982Y-135361085D01*
X99555767Y-135361500D01*
X99547707Y-135361500D01*
X99544073Y-135361924D01*
X99544067Y-135361924D01*
X99531042Y-135363443D01*
X99519480Y-135364791D01*
X99515132Y-135365221D01*
X99442364Y-135371140D01*
X99435403Y-135373395D01*
X99429463Y-135374582D01*
X99423588Y-135375971D01*
X99416319Y-135376818D01*
X99347670Y-135401736D01*
X99343542Y-135403153D01*
X99281064Y-135423393D01*
X99281062Y-135423394D01*
X99274101Y-135425649D01*
X99267846Y-135429445D01*
X99262372Y-135431951D01*
X99256942Y-135434670D01*
X99250063Y-135437167D01*
X99243943Y-135441180D01*
X99243942Y-135441180D01*
X99189024Y-135477186D01*
X99185320Y-135479523D01*
X99122893Y-135517405D01*
X99114516Y-135524803D01*
X99114492Y-135524776D01*
X99111500Y-135527429D01*
X99108267Y-135530132D01*
X99102148Y-135534144D01*
X99066413Y-135571866D01*
X99048872Y-135590383D01*
X99046494Y-135592825D01*
X97512724Y-137126595D01*
X97450412Y-137160621D01*
X97423629Y-137163500D01*
X96681587Y-137163500D01*
X96607528Y-137139437D01*
X96601098Y-137134765D01*
X96601091Y-137134761D01*
X96595752Y-137130882D01*
X96589724Y-137128198D01*
X96589722Y-137128197D01*
X96427319Y-137055891D01*
X96427318Y-137055891D01*
X96421288Y-137053206D01*
X96327887Y-137033353D01*
X96240944Y-137014872D01*
X96240939Y-137014872D01*
X96234487Y-137013500D01*
X96043513Y-137013500D01*
X96037061Y-137014872D01*
X96037056Y-137014872D01*
X95950113Y-137033353D01*
X95856712Y-137053206D01*
X95850682Y-137055891D01*
X95850681Y-137055891D01*
X95688278Y-137128197D01*
X95688276Y-137128198D01*
X95682248Y-137130882D01*
X95676907Y-137134762D01*
X95676906Y-137134763D01*
X95641316Y-137160621D01*
X95527747Y-137243134D01*
X95523326Y-137248044D01*
X95523325Y-137248045D01*
X95407378Y-137376818D01*
X95399960Y-137385056D01*
X95304473Y-137550444D01*
X95245458Y-137732072D01*
X95244768Y-137738633D01*
X95244768Y-137738635D01*
X95232110Y-137859072D01*
X95225496Y-137922000D01*
X92075500Y-137922000D01*
X92075500Y-137571866D01*
X92068745Y-137509684D01*
X92017615Y-137373295D01*
X91930261Y-137256739D01*
X91882340Y-137220824D01*
X91839827Y-137163967D01*
X91834801Y-137093149D01*
X91868861Y-137030855D01*
X91882330Y-137019183D01*
X91930261Y-136983261D01*
X92017615Y-136866705D01*
X92068745Y-136730316D01*
X92075500Y-136668134D01*
X92075500Y-135571866D01*
X92068745Y-135509684D01*
X92017615Y-135373295D01*
X91930261Y-135256739D01*
X91882340Y-135220824D01*
X91839827Y-135163967D01*
X91834801Y-135093149D01*
X91868861Y-135030855D01*
X91882330Y-135019183D01*
X91930261Y-134983261D01*
X91970976Y-134928935D01*
X92027835Y-134886420D01*
X92071802Y-134878500D01*
X92761930Y-134878500D01*
X92780880Y-134879933D01*
X92795115Y-134882099D01*
X92795119Y-134882099D01*
X92802349Y-134883199D01*
X92809641Y-134882606D01*
X92809644Y-134882606D01*
X92855018Y-134878915D01*
X92865233Y-134878500D01*
X92873293Y-134878500D01*
X92886583Y-134876951D01*
X92901507Y-134875211D01*
X92905882Y-134874778D01*
X92971339Y-134869454D01*
X92971342Y-134869453D01*
X92978637Y-134868860D01*
X92985601Y-134866604D01*
X92991560Y-134865413D01*
X92997415Y-134864029D01*
X93004681Y-134863182D01*
X93073327Y-134838265D01*
X93077455Y-134836848D01*
X93139936Y-134816607D01*
X93139938Y-134816606D01*
X93146899Y-134814351D01*
X93153154Y-134810555D01*
X93158628Y-134808049D01*
X93164058Y-134805330D01*
X93170937Y-134802833D01*
X93231976Y-134762814D01*
X93235680Y-134760477D01*
X93298107Y-134722595D01*
X93306484Y-134715197D01*
X93306508Y-134715224D01*
X93309500Y-134712571D01*
X93312733Y-134709868D01*
X93318852Y-134705856D01*
X93372128Y-134649617D01*
X93374506Y-134647175D01*
X93833911Y-134187770D01*
X93848323Y-134175384D01*
X93859918Y-134166851D01*
X93859923Y-134166846D01*
X93865818Y-134162508D01*
X93870557Y-134156930D01*
X93870560Y-134156927D01*
X93900035Y-134122232D01*
X93906965Y-134114716D01*
X93912660Y-134109021D01*
X93930281Y-134086749D01*
X93933072Y-134083345D01*
X93975591Y-134033297D01*
X93975592Y-134033295D01*
X93980333Y-134027715D01*
X93983661Y-134021199D01*
X93987028Y-134016150D01*
X93990195Y-134011021D01*
X93994734Y-134005284D01*
X94025655Y-133939125D01*
X94027561Y-133935225D01*
X94060769Y-133870192D01*
X94062508Y-133863084D01*
X94064607Y-133857441D01*
X94066524Y-133851678D01*
X94069622Y-133845050D01*
X94084487Y-133773583D01*
X94085457Y-133769299D01*
X94101473Y-133703845D01*
X94102808Y-133698390D01*
X94103500Y-133687236D01*
X94103536Y-133687238D01*
X94103775Y-133683245D01*
X94104149Y-133679053D01*
X94105640Y-133671885D01*
X94103546Y-133594479D01*
X94103500Y-133591072D01*
X94103500Y-125924070D01*
X94104933Y-125905120D01*
X94107099Y-125890885D01*
X94107099Y-125890881D01*
X94108199Y-125883651D01*
X94107020Y-125869147D01*
X94105290Y-125847885D01*
X103759000Y-125847885D01*
X103763475Y-125863124D01*
X103764865Y-125864329D01*
X103772548Y-125866000D01*
X105244885Y-125866000D01*
X105260124Y-125861525D01*
X105261329Y-125860135D01*
X105263000Y-125852452D01*
X105263000Y-125847885D01*
X105771000Y-125847885D01*
X105775475Y-125863124D01*
X105776865Y-125864329D01*
X105784548Y-125866000D01*
X107256884Y-125866000D01*
X107272123Y-125861525D01*
X107273328Y-125860135D01*
X107274999Y-125852452D01*
X107274999Y-125575331D01*
X107274629Y-125568510D01*
X107269105Y-125517648D01*
X107265479Y-125502396D01*
X107220324Y-125381946D01*
X107211786Y-125366351D01*
X107135285Y-125264276D01*
X107122724Y-125251715D01*
X107081509Y-125220826D01*
X107038994Y-125163967D01*
X107033968Y-125093148D01*
X107068028Y-125030855D01*
X107081509Y-125019174D01*
X107122724Y-124988285D01*
X107135285Y-124975724D01*
X107211786Y-124873649D01*
X107220324Y-124858054D01*
X107265478Y-124737606D01*
X107269105Y-124722351D01*
X107274631Y-124671486D01*
X107275000Y-124664672D01*
X107275000Y-124392115D01*
X107270525Y-124376876D01*
X107269135Y-124375671D01*
X107261452Y-124374000D01*
X105789115Y-124374000D01*
X105773876Y-124378475D01*
X105772671Y-124379865D01*
X105771000Y-124387548D01*
X105771000Y-125847885D01*
X105263000Y-125847885D01*
X105263000Y-124392115D01*
X105258525Y-124376876D01*
X105257135Y-124375671D01*
X105249452Y-124374000D01*
X103777116Y-124374000D01*
X103761877Y-124378475D01*
X103760672Y-124379865D01*
X103759001Y-124387548D01*
X103759001Y-124664669D01*
X103759371Y-124671490D01*
X103764895Y-124722352D01*
X103768521Y-124737604D01*
X103813676Y-124858054D01*
X103822214Y-124873649D01*
X103898715Y-124975724D01*
X103911276Y-124988285D01*
X103952491Y-125019174D01*
X103995006Y-125076033D01*
X104000032Y-125146852D01*
X103965972Y-125209145D01*
X103952491Y-125220826D01*
X103911276Y-125251715D01*
X103898715Y-125264276D01*
X103822214Y-125366351D01*
X103813676Y-125381946D01*
X103768522Y-125502394D01*
X103764895Y-125517649D01*
X103759369Y-125568514D01*
X103759000Y-125575328D01*
X103759000Y-125847885D01*
X94105290Y-125847885D01*
X94103915Y-125830982D01*
X94103500Y-125820767D01*
X94103500Y-125812707D01*
X94100209Y-125784480D01*
X94099778Y-125780121D01*
X94096341Y-125737870D01*
X94093860Y-125707364D01*
X94091605Y-125700403D01*
X94090418Y-125694463D01*
X94089029Y-125688588D01*
X94088182Y-125681319D01*
X94063264Y-125612670D01*
X94061847Y-125608542D01*
X94041607Y-125546064D01*
X94041606Y-125546062D01*
X94039351Y-125539101D01*
X94035555Y-125532846D01*
X94033049Y-125527372D01*
X94030330Y-125521942D01*
X94027833Y-125515063D01*
X93987814Y-125454024D01*
X93985467Y-125450305D01*
X93947595Y-125387893D01*
X93940197Y-125379516D01*
X93940224Y-125379492D01*
X93937571Y-125376500D01*
X93934868Y-125373267D01*
X93930856Y-125367148D01*
X93874617Y-125313872D01*
X93872175Y-125311494D01*
X92804276Y-124243595D01*
X92770250Y-124181283D01*
X92775315Y-124110468D01*
X92817862Y-124053632D01*
X92884382Y-124028821D01*
X92893371Y-124028500D01*
X93465134Y-124028500D01*
X93527316Y-124021745D01*
X93663705Y-123970615D01*
X93780261Y-123883261D01*
X93816176Y-123835340D01*
X93873033Y-123792827D01*
X93943851Y-123787801D01*
X94006145Y-123821861D01*
X94017817Y-123835330D01*
X94053739Y-123883261D01*
X94170295Y-123970615D01*
X94306684Y-124021745D01*
X94368866Y-124028500D01*
X95465134Y-124028500D01*
X95527316Y-124021745D01*
X95663705Y-123970615D01*
X95780261Y-123883261D01*
X95816176Y-123835340D01*
X95873033Y-123792827D01*
X95943851Y-123787801D01*
X96006145Y-123821861D01*
X96017817Y-123835330D01*
X96053739Y-123883261D01*
X96170295Y-123970615D01*
X96306684Y-124021745D01*
X96368866Y-124028500D01*
X97465134Y-124028500D01*
X97527316Y-124021745D01*
X97663705Y-123970615D01*
X97780261Y-123883261D01*
X97816176Y-123835340D01*
X97873033Y-123792827D01*
X97943851Y-123787801D01*
X98006145Y-123821861D01*
X98017817Y-123835330D01*
X98053739Y-123883261D01*
X98170295Y-123970615D01*
X98306684Y-124021745D01*
X98368866Y-124028500D01*
X99465134Y-124028500D01*
X99527316Y-124021745D01*
X99663705Y-123970615D01*
X99780261Y-123883261D01*
X99816176Y-123835340D01*
X99873033Y-123792827D01*
X99943851Y-123787801D01*
X100006145Y-123821861D01*
X100017817Y-123835330D01*
X100053739Y-123883261D01*
X100170295Y-123970615D01*
X100306684Y-124021745D01*
X100368866Y-124028500D01*
X101465134Y-124028500D01*
X101527316Y-124021745D01*
X101663705Y-123970615D01*
X101780261Y-123883261D01*
X101816176Y-123835340D01*
X101873033Y-123792827D01*
X101943851Y-123787801D01*
X102006145Y-123821861D01*
X102017817Y-123835330D01*
X102053739Y-123883261D01*
X102170295Y-123970615D01*
X102306684Y-124021745D01*
X102368866Y-124028500D01*
X103465134Y-124028500D01*
X103527316Y-124021745D01*
X103663705Y-123970615D01*
X103769702Y-123891174D01*
X103836209Y-123866326D01*
X103845268Y-123866000D01*
X105244885Y-123866000D01*
X105260124Y-123861525D01*
X105261329Y-123860135D01*
X105263000Y-123852452D01*
X105263000Y-123847885D01*
X105771000Y-123847885D01*
X105775475Y-123863124D01*
X105776865Y-123864329D01*
X105784548Y-123866000D01*
X107256884Y-123866000D01*
X107272123Y-123861525D01*
X107273328Y-123860135D01*
X107274999Y-123852452D01*
X107274999Y-123575331D01*
X107274629Y-123568510D01*
X107269105Y-123517648D01*
X107265479Y-123502396D01*
X107220324Y-123381946D01*
X107211786Y-123366351D01*
X107135285Y-123264276D01*
X107122724Y-123251715D01*
X107020649Y-123175214D01*
X107005054Y-123166676D01*
X106884606Y-123121522D01*
X106869351Y-123117895D01*
X106818486Y-123112369D01*
X106811672Y-123112000D01*
X105789115Y-123112000D01*
X105773876Y-123116475D01*
X105772671Y-123117865D01*
X105771000Y-123125548D01*
X105771000Y-123847885D01*
X105263000Y-123847885D01*
X105263000Y-123130116D01*
X105258525Y-123114877D01*
X105257135Y-123113672D01*
X105249452Y-123112001D01*
X104222331Y-123112001D01*
X104215510Y-123112371D01*
X104164648Y-123117895D01*
X104149397Y-123121521D01*
X104095730Y-123141640D01*
X104024923Y-123146823D01*
X103962554Y-123112903D01*
X103928425Y-123050648D01*
X103925500Y-123023658D01*
X103925500Y-121671866D01*
X103918745Y-121609684D01*
X103867615Y-121473295D01*
X103780261Y-121356739D01*
X103663705Y-121269385D01*
X103527316Y-121218255D01*
X103465134Y-121211500D01*
X102368866Y-121211500D01*
X102306684Y-121218255D01*
X102170295Y-121269385D01*
X102053739Y-121356739D01*
X102017824Y-121404660D01*
X101960967Y-121447173D01*
X101890149Y-121452199D01*
X101827855Y-121418139D01*
X101816183Y-121404670D01*
X101780261Y-121356739D01*
X101663705Y-121269385D01*
X101527316Y-121218255D01*
X101465134Y-121211500D01*
X100368866Y-121211500D01*
X100306684Y-121218255D01*
X100170295Y-121269385D01*
X100053739Y-121356739D01*
X100017824Y-121404660D01*
X99960967Y-121447173D01*
X99890149Y-121452199D01*
X99827855Y-121418139D01*
X99816183Y-121404670D01*
X99780261Y-121356739D01*
X99663705Y-121269385D01*
X99527316Y-121218255D01*
X99465134Y-121211500D01*
X98368866Y-121211500D01*
X98306684Y-121218255D01*
X98170295Y-121269385D01*
X98053739Y-121356739D01*
X98017824Y-121404660D01*
X97960967Y-121447173D01*
X97890149Y-121452199D01*
X97827855Y-121418139D01*
X97816183Y-121404670D01*
X97780261Y-121356739D01*
X97663705Y-121269385D01*
X97527316Y-121218255D01*
X97465134Y-121211500D01*
X96368866Y-121211500D01*
X96306684Y-121218255D01*
X96170295Y-121269385D01*
X96053739Y-121356739D01*
X96017824Y-121404660D01*
X95960967Y-121447173D01*
X95890149Y-121452199D01*
X95827855Y-121418139D01*
X95816183Y-121404670D01*
X95780261Y-121356739D01*
X95663705Y-121269385D01*
X95527316Y-121218255D01*
X95465134Y-121211500D01*
X94368866Y-121211500D01*
X94306684Y-121218255D01*
X94170295Y-121269385D01*
X94053739Y-121356739D01*
X94017824Y-121404660D01*
X93960967Y-121447173D01*
X93890149Y-121452199D01*
X93827855Y-121418139D01*
X93816183Y-121404670D01*
X93780261Y-121356739D01*
X93663705Y-121269385D01*
X93527316Y-121218255D01*
X93465134Y-121211500D01*
X92368866Y-121211500D01*
X92306684Y-121218255D01*
X92170295Y-121269385D01*
X92053739Y-121356739D01*
X91966385Y-121473295D01*
X91915255Y-121609684D01*
X91908500Y-121671866D01*
X91908500Y-123023124D01*
X91888498Y-123091245D01*
X91834842Y-123137738D01*
X91764568Y-123147842D01*
X91738273Y-123141107D01*
X91677316Y-123118255D01*
X91615134Y-123111500D01*
X91451500Y-123111500D01*
X91383379Y-123091498D01*
X91336886Y-123037842D01*
X91325500Y-122985500D01*
X91325500Y-110952843D01*
X91326237Y-110939236D01*
X91329659Y-110907738D01*
X91329659Y-110907733D01*
X91330324Y-110901612D01*
X91325950Y-110851612D01*
X91325621Y-110846786D01*
X91325500Y-110844314D01*
X91325500Y-110841231D01*
X91324326Y-110829262D01*
X91321310Y-110798494D01*
X91321188Y-110797181D01*
X91313623Y-110710718D01*
X91313087Y-110704587D01*
X91311600Y-110699468D01*
X91311080Y-110694167D01*
X91284209Y-110605166D01*
X91283874Y-110604033D01*
X91259630Y-110520586D01*
X91259628Y-110520582D01*
X91257909Y-110514664D01*
X91255456Y-110509932D01*
X91253916Y-110504831D01*
X91210269Y-110422740D01*
X91209657Y-110421574D01*
X91169729Y-110344547D01*
X91166892Y-110339074D01*
X91163569Y-110334911D01*
X91161066Y-110330204D01*
X91102245Y-110258082D01*
X91101554Y-110257226D01*
X91070262Y-110218027D01*
X91067758Y-110215523D01*
X91067116Y-110214805D01*
X91063415Y-110210472D01*
X91036065Y-110176938D01*
X91000737Y-110147712D01*
X90991958Y-110139723D01*
X89818235Y-108966000D01*
X106274496Y-108966000D01*
X106294458Y-109155928D01*
X106353473Y-109337556D01*
X106448960Y-109502944D01*
X106453378Y-109507851D01*
X106453379Y-109507852D01*
X106516889Y-109578387D01*
X106576747Y-109644866D01*
X106675843Y-109716864D01*
X106725904Y-109753235D01*
X106731248Y-109757118D01*
X106737276Y-109759802D01*
X106737278Y-109759803D01*
X106899681Y-109832109D01*
X106905712Y-109834794D01*
X106999113Y-109854647D01*
X107086056Y-109873128D01*
X107086061Y-109873128D01*
X107092513Y-109874500D01*
X107283487Y-109874500D01*
X107289939Y-109873128D01*
X107289944Y-109873128D01*
X107376887Y-109854647D01*
X107470288Y-109834794D01*
X107476319Y-109832109D01*
X107638722Y-109759803D01*
X107638724Y-109759802D01*
X107644752Y-109757118D01*
X107650091Y-109753239D01*
X107650098Y-109753235D01*
X107656528Y-109748563D01*
X107730587Y-109724500D01*
X123331629Y-109724500D01*
X123399750Y-109744502D01*
X123420724Y-109761405D01*
X128873875Y-115214556D01*
X128904613Y-115264714D01*
X128959473Y-115433556D01*
X129054960Y-115598944D01*
X129059378Y-115603851D01*
X129059379Y-115603852D01*
X129178147Y-115735757D01*
X129182747Y-115740866D01*
X129337248Y-115853118D01*
X129343276Y-115855802D01*
X129343278Y-115855803D01*
X129493620Y-115922739D01*
X129511712Y-115930794D01*
X129605112Y-115950647D01*
X129692056Y-115969128D01*
X129692061Y-115969128D01*
X129698513Y-115970500D01*
X129889487Y-115970500D01*
X129895939Y-115969128D01*
X129895944Y-115969128D01*
X129982888Y-115950647D01*
X130076288Y-115930794D01*
X130094380Y-115922739D01*
X130244722Y-115855803D01*
X130244724Y-115855802D01*
X130250752Y-115853118D01*
X130405253Y-115740866D01*
X130409853Y-115735757D01*
X130528621Y-115603852D01*
X130528622Y-115603851D01*
X130533040Y-115598944D01*
X130628527Y-115433556D01*
X130687542Y-115251928D01*
X130707504Y-115062000D01*
X130702485Y-115014251D01*
X130688232Y-114878635D01*
X130688232Y-114878633D01*
X130687542Y-114872072D01*
X130628527Y-114690444D01*
X130533040Y-114525056D01*
X130405253Y-114383134D01*
X130250752Y-114270882D01*
X130244724Y-114268198D01*
X130244722Y-114268197D01*
X130082319Y-114195891D01*
X130082318Y-114195891D01*
X130076288Y-114193206D01*
X130069833Y-114191834D01*
X130069824Y-114191831D01*
X130013228Y-114179801D01*
X129950331Y-114145650D01*
X124281770Y-108477089D01*
X124269384Y-108462677D01*
X124260851Y-108451082D01*
X124260846Y-108451077D01*
X124256508Y-108445182D01*
X124250930Y-108440443D01*
X124250927Y-108440440D01*
X124216232Y-108410965D01*
X124208716Y-108404035D01*
X124203021Y-108398340D01*
X124196880Y-108393482D01*
X124180749Y-108380719D01*
X124177345Y-108377928D01*
X124127297Y-108335409D01*
X124127295Y-108335408D01*
X124121715Y-108330667D01*
X124115199Y-108327339D01*
X124110150Y-108323972D01*
X124105021Y-108320805D01*
X124099284Y-108316266D01*
X124033125Y-108285345D01*
X124029225Y-108283439D01*
X124028857Y-108283251D01*
X123964192Y-108250231D01*
X123957084Y-108248492D01*
X123951441Y-108246393D01*
X123945678Y-108244476D01*
X123939050Y-108241378D01*
X123867583Y-108226513D01*
X123863299Y-108225543D01*
X123792390Y-108208192D01*
X123786788Y-108207844D01*
X123786785Y-108207844D01*
X123781236Y-108207500D01*
X123781238Y-108207464D01*
X123777245Y-108207225D01*
X123773053Y-108206851D01*
X123765885Y-108205360D01*
X123699675Y-108207151D01*
X123688479Y-108207454D01*
X123685072Y-108207500D01*
X107730587Y-108207500D01*
X107656528Y-108183437D01*
X107650098Y-108178765D01*
X107650091Y-108178761D01*
X107644752Y-108174882D01*
X107638724Y-108172198D01*
X107638722Y-108172197D01*
X107476319Y-108099891D01*
X107476318Y-108099891D01*
X107470288Y-108097206D01*
X107376887Y-108077353D01*
X107289944Y-108058872D01*
X107289939Y-108058872D01*
X107283487Y-108057500D01*
X107092513Y-108057500D01*
X107086061Y-108058872D01*
X107086056Y-108058872D01*
X106999112Y-108077353D01*
X106905712Y-108097206D01*
X106899682Y-108099891D01*
X106899681Y-108099891D01*
X106737278Y-108172197D01*
X106737276Y-108172198D01*
X106731248Y-108174882D01*
X106725907Y-108178762D01*
X106725906Y-108178763D01*
X106719473Y-108183437D01*
X106576747Y-108287134D01*
X106572326Y-108292044D01*
X106572325Y-108292045D01*
X106468229Y-108407656D01*
X106448960Y-108429056D01*
X106353473Y-108594444D01*
X106294458Y-108776072D01*
X106274496Y-108966000D01*
X89818235Y-108966000D01*
X86897234Y-106045000D01*
X94279654Y-106045000D01*
X94279924Y-106049119D01*
X94290560Y-106211388D01*
X94299017Y-106340426D01*
X94299819Y-106344459D01*
X94299820Y-106344465D01*
X94353256Y-106613101D01*
X94356776Y-106630797D01*
X94451941Y-106911145D01*
X94582885Y-107176673D01*
X94585179Y-107180106D01*
X94674375Y-107313597D01*
X94747367Y-107422838D01*
X94750081Y-107425932D01*
X94750085Y-107425938D01*
X94916604Y-107615815D01*
X94942573Y-107645427D01*
X94945662Y-107648136D01*
X95162062Y-107837915D01*
X95162068Y-107837919D01*
X95165162Y-107840633D01*
X95168588Y-107842922D01*
X95168593Y-107842926D01*
X95352405Y-107965744D01*
X95411327Y-108005115D01*
X95415026Y-108006939D01*
X95415031Y-108006942D01*
X95445195Y-108021817D01*
X95676855Y-108136059D01*
X95680760Y-108137384D01*
X95680761Y-108137385D01*
X95953290Y-108229896D01*
X95953294Y-108229897D01*
X95957203Y-108231224D01*
X95961247Y-108232028D01*
X95961253Y-108232030D01*
X96243535Y-108288180D01*
X96243541Y-108288181D01*
X96247574Y-108288983D01*
X96251679Y-108289252D01*
X96251686Y-108289253D01*
X96538881Y-108308076D01*
X96543000Y-108308346D01*
X96547119Y-108308076D01*
X96834314Y-108289253D01*
X96834321Y-108289252D01*
X96838426Y-108288983D01*
X96842459Y-108288181D01*
X96842465Y-108288180D01*
X97124747Y-108232030D01*
X97124753Y-108232028D01*
X97128797Y-108231224D01*
X97132706Y-108229897D01*
X97132710Y-108229896D01*
X97405239Y-108137385D01*
X97405240Y-108137384D01*
X97409145Y-108136059D01*
X97640805Y-108021817D01*
X97670969Y-108006942D01*
X97670974Y-108006939D01*
X97674673Y-108005115D01*
X97733595Y-107965744D01*
X97917407Y-107842926D01*
X97917412Y-107842922D01*
X97920838Y-107840633D01*
X97923932Y-107837919D01*
X97923938Y-107837915D01*
X98140338Y-107648136D01*
X98143427Y-107645427D01*
X98169396Y-107615815D01*
X98335915Y-107425938D01*
X98335919Y-107425932D01*
X98338633Y-107422838D01*
X98411626Y-107313597D01*
X98500821Y-107180106D01*
X98503115Y-107176673D01*
X98634059Y-106911145D01*
X98729224Y-106630797D01*
X98732744Y-106613101D01*
X98786180Y-106344465D01*
X98786181Y-106344459D01*
X98786983Y-106340426D01*
X98795441Y-106211388D01*
X98806076Y-106049119D01*
X98806346Y-106045000D01*
X98796970Y-105901948D01*
X98787253Y-105753686D01*
X98787252Y-105753679D01*
X98786983Y-105749574D01*
X98782863Y-105728859D01*
X98730030Y-105463253D01*
X98730028Y-105463247D01*
X98729224Y-105459203D01*
X98725735Y-105448923D01*
X98635385Y-105182761D01*
X98635384Y-105182760D01*
X98634059Y-105178855D01*
X98561454Y-105031626D01*
X98504942Y-104917031D01*
X98504939Y-104917026D01*
X98503115Y-104913327D01*
X98441695Y-104821405D01*
X98340926Y-104670593D01*
X98340922Y-104670588D01*
X98338633Y-104667162D01*
X98335919Y-104664068D01*
X98335915Y-104664062D01*
X98146136Y-104447662D01*
X98143427Y-104444573D01*
X98140338Y-104441864D01*
X97923938Y-104252085D01*
X97923932Y-104252081D01*
X97920838Y-104249367D01*
X97917412Y-104247078D01*
X97917407Y-104247074D01*
X97678106Y-104087179D01*
X97674673Y-104084885D01*
X97670974Y-104083061D01*
X97670969Y-104083058D01*
X97514609Y-104005950D01*
X97409145Y-103953941D01*
X97360287Y-103937356D01*
X97132710Y-103860104D01*
X97132706Y-103860103D01*
X97128797Y-103858776D01*
X97124753Y-103857972D01*
X97124747Y-103857970D01*
X96842465Y-103801820D01*
X96842459Y-103801819D01*
X96838426Y-103801017D01*
X96834321Y-103800748D01*
X96834314Y-103800747D01*
X96547119Y-103781924D01*
X96543000Y-103781654D01*
X96538881Y-103781924D01*
X96251686Y-103800747D01*
X96251679Y-103800748D01*
X96247574Y-103801017D01*
X96243541Y-103801819D01*
X96243535Y-103801820D01*
X95961253Y-103857970D01*
X95961247Y-103857972D01*
X95957203Y-103858776D01*
X95953294Y-103860103D01*
X95953290Y-103860104D01*
X95725713Y-103937356D01*
X95676855Y-103953941D01*
X95571391Y-104005950D01*
X95415031Y-104083058D01*
X95415026Y-104083061D01*
X95411327Y-104084885D01*
X95407894Y-104087179D01*
X95168593Y-104247074D01*
X95168588Y-104247078D01*
X95165162Y-104249367D01*
X95162068Y-104252081D01*
X95162062Y-104252085D01*
X94945662Y-104441864D01*
X94942573Y-104444573D01*
X94939864Y-104447662D01*
X94750085Y-104664062D01*
X94750081Y-104664068D01*
X94747367Y-104667162D01*
X94745078Y-104670588D01*
X94745074Y-104670593D01*
X94644305Y-104821405D01*
X94582885Y-104913327D01*
X94581061Y-104917026D01*
X94581058Y-104917031D01*
X94524546Y-105031626D01*
X94451941Y-105178855D01*
X94450616Y-105182760D01*
X94450615Y-105182761D01*
X94360266Y-105448923D01*
X94356776Y-105459203D01*
X94355972Y-105463247D01*
X94355970Y-105463253D01*
X94303138Y-105728859D01*
X94299017Y-105749574D01*
X94298748Y-105753679D01*
X94298747Y-105753686D01*
X94289030Y-105901948D01*
X94279654Y-106045000D01*
X86897234Y-106045000D01*
X86227855Y-105375621D01*
X86218753Y-105365478D01*
X86198897Y-105340782D01*
X86195032Y-105335975D01*
X86156578Y-105303708D01*
X86152931Y-105300528D01*
X86151119Y-105298885D01*
X86148925Y-105296691D01*
X86115651Y-105269358D01*
X86114853Y-105268696D01*
X86043526Y-105208846D01*
X86038856Y-105206278D01*
X86034739Y-105202897D01*
X85952914Y-105159023D01*
X85951755Y-105158394D01*
X85875619Y-105116538D01*
X85875611Y-105116535D01*
X85870213Y-105113567D01*
X85865131Y-105111955D01*
X85860437Y-105109438D01*
X85771469Y-105082238D01*
X85770441Y-105081918D01*
X85681694Y-105053765D01*
X85676398Y-105053171D01*
X85671302Y-105051613D01*
X85578743Y-105042210D01*
X85577607Y-105042089D01*
X85543992Y-105038319D01*
X85531270Y-105036892D01*
X85531266Y-105036892D01*
X85527773Y-105036500D01*
X85524246Y-105036500D01*
X85523261Y-105036445D01*
X85517581Y-105035998D01*
X85488175Y-105033011D01*
X85480663Y-105032248D01*
X85480661Y-105032248D01*
X85474538Y-105031626D01*
X85432259Y-105035623D01*
X85428891Y-105035941D01*
X85417033Y-105036500D01*
X81332199Y-105036500D01*
X81264078Y-105016498D01*
X81217585Y-104962842D01*
X81207481Y-104892568D01*
X81236975Y-104827988D01*
X81243104Y-104821405D01*
X81251285Y-104813224D01*
X81327786Y-104711149D01*
X81336324Y-104695554D01*
X81381478Y-104575106D01*
X81385105Y-104559851D01*
X81390631Y-104508986D01*
X81391000Y-104502172D01*
X81391000Y-103777115D01*
X81386525Y-103761876D01*
X81385135Y-103760671D01*
X81377452Y-103759000D01*
X78393116Y-103759000D01*
X78377877Y-103763475D01*
X78376672Y-103764865D01*
X78375001Y-103772548D01*
X78375001Y-104502169D01*
X78375371Y-104508990D01*
X78380895Y-104559852D01*
X78384521Y-104575104D01*
X78429676Y-104695554D01*
X78438214Y-104711149D01*
X78514715Y-104813224D01*
X78527276Y-104825785D01*
X78629351Y-104902286D01*
X78644945Y-104910824D01*
X78656513Y-104915160D01*
X78713279Y-104957801D01*
X78737980Y-105024362D01*
X78722774Y-105093711D01*
X78711168Y-105111235D01*
X78617633Y-105229670D01*
X78617630Y-105229675D01*
X78614432Y-105233724D01*
X78611939Y-105238240D01*
X78611937Y-105238243D01*
X78500823Y-105439526D01*
X78498326Y-105444050D01*
X78496602Y-105448919D01*
X78496600Y-105448923D01*
X78419856Y-105665640D01*
X78418130Y-105670515D01*
X78417223Y-105675608D01*
X78417222Y-105675611D01*
X78403212Y-105754266D01*
X78375999Y-105907037D01*
X78373064Y-106147263D01*
X78409404Y-106384744D01*
X78433251Y-106457704D01*
X78482434Y-106608183D01*
X78482437Y-106608189D01*
X78484042Y-106613101D01*
X78486429Y-106617687D01*
X78486431Y-106617691D01*
X78546665Y-106733398D01*
X78594975Y-106826200D01*
X78598085Y-106830342D01*
X78667863Y-106923277D01*
X78739223Y-107018320D01*
X78912912Y-107184301D01*
X78949903Y-107209535D01*
X78994904Y-107264444D01*
X79003075Y-107334968D01*
X78971821Y-107398716D01*
X78947340Y-107419411D01*
X78945707Y-107420468D01*
X78941023Y-107423498D01*
X78937205Y-107426972D01*
X78937196Y-107426979D01*
X78808928Y-107543694D01*
X78745083Y-107574746D01*
X78724129Y-107576500D01*
X76288925Y-107576500D01*
X76220804Y-107556498D01*
X76199830Y-107539595D01*
X74451405Y-105791171D01*
X74417380Y-105728859D01*
X74414500Y-105702076D01*
X74414500Y-104131500D01*
X74434502Y-104063379D01*
X74488158Y-104016886D01*
X74540500Y-104005500D01*
X74995157Y-104005500D01*
X75008764Y-104006237D01*
X75040262Y-104009659D01*
X75040267Y-104009659D01*
X75046388Y-104010324D01*
X75072638Y-104008027D01*
X75096388Y-104005950D01*
X75101214Y-104005621D01*
X75103686Y-104005500D01*
X75106769Y-104005500D01*
X75118738Y-104004326D01*
X75149506Y-104001310D01*
X75150819Y-104001188D01*
X75195084Y-103997315D01*
X75243413Y-103993087D01*
X75248532Y-103991600D01*
X75253833Y-103991080D01*
X75342834Y-103964209D01*
X75343967Y-103963874D01*
X75427414Y-103939630D01*
X75427418Y-103939628D01*
X75433336Y-103937909D01*
X75438068Y-103935456D01*
X75443169Y-103933916D01*
X75455360Y-103927434D01*
X75525260Y-103890269D01*
X75526426Y-103889657D01*
X75603453Y-103849729D01*
X75608926Y-103846892D01*
X75613089Y-103843569D01*
X75617796Y-103841066D01*
X75623997Y-103836009D01*
X75665916Y-103801820D01*
X75689918Y-103782245D01*
X75690774Y-103781554D01*
X75729973Y-103750262D01*
X75732477Y-103747758D01*
X75733195Y-103747116D01*
X75737528Y-103743415D01*
X75771062Y-103716065D01*
X75800285Y-103680741D01*
X75808273Y-103671962D01*
X75856967Y-103623267D01*
X75856971Y-103623263D01*
X75856973Y-103623262D01*
X76247350Y-103232885D01*
X78375000Y-103232885D01*
X78379475Y-103248124D01*
X78380865Y-103249329D01*
X78388548Y-103251000D01*
X79610885Y-103251000D01*
X79626124Y-103246525D01*
X79627329Y-103245135D01*
X79629000Y-103237452D01*
X79629000Y-103232885D01*
X80137000Y-103232885D01*
X80141475Y-103248124D01*
X80142865Y-103249329D01*
X80150548Y-103251000D01*
X81372884Y-103251000D01*
X81388123Y-103246525D01*
X81389328Y-103245135D01*
X81390999Y-103237452D01*
X81390999Y-102507831D01*
X81390629Y-102501010D01*
X81385105Y-102450148D01*
X81381479Y-102434896D01*
X81336324Y-102314446D01*
X81327786Y-102298851D01*
X81251285Y-102196776D01*
X81238724Y-102184215D01*
X81136649Y-102107714D01*
X81121054Y-102099176D01*
X81000606Y-102054022D01*
X80985351Y-102050395D01*
X80934486Y-102044869D01*
X80927672Y-102044500D01*
X80155115Y-102044500D01*
X80139876Y-102048975D01*
X80138671Y-102050365D01*
X80137000Y-102058048D01*
X80137000Y-103232885D01*
X79629000Y-103232885D01*
X79629000Y-102062616D01*
X79624525Y-102047377D01*
X79623135Y-102046172D01*
X79615452Y-102044501D01*
X78838331Y-102044501D01*
X78831510Y-102044871D01*
X78780648Y-102050395D01*
X78765396Y-102054021D01*
X78644946Y-102099176D01*
X78629351Y-102107714D01*
X78527276Y-102184215D01*
X78514715Y-102196776D01*
X78438214Y-102298851D01*
X78429676Y-102314446D01*
X78384522Y-102434894D01*
X78380895Y-102450149D01*
X78375369Y-102501014D01*
X78375000Y-102507828D01*
X78375000Y-103232885D01*
X76247350Y-103232885D01*
X76742383Y-102737851D01*
X76752527Y-102728749D01*
X76777218Y-102708897D01*
X76782025Y-102705032D01*
X76814292Y-102666578D01*
X76817472Y-102662931D01*
X76819115Y-102661119D01*
X76821309Y-102658925D01*
X76848642Y-102625651D01*
X76849348Y-102624800D01*
X76905195Y-102558244D01*
X76909154Y-102553526D01*
X76911722Y-102548856D01*
X76915103Y-102544739D01*
X76958977Y-102462914D01*
X76959606Y-102461755D01*
X77001462Y-102385619D01*
X77001465Y-102385611D01*
X77004433Y-102380213D01*
X77006045Y-102375131D01*
X77008562Y-102370437D01*
X77035747Y-102281523D01*
X77036139Y-102280265D01*
X77062372Y-102197567D01*
X77064235Y-102191694D01*
X77064829Y-102186403D01*
X77066388Y-102181302D01*
X77075790Y-102088737D01*
X77075925Y-102087470D01*
X77081108Y-102041270D01*
X77081108Y-102041265D01*
X77081500Y-102037773D01*
X77081500Y-102034248D01*
X77081555Y-102033263D01*
X77082004Y-102027559D01*
X77085752Y-101990666D01*
X77085752Y-101990661D01*
X77086374Y-101984538D01*
X77082059Y-101938891D01*
X77081500Y-101927033D01*
X77081500Y-98543500D01*
X77101502Y-98475379D01*
X77155158Y-98428886D01*
X77207500Y-98417500D01*
X87552769Y-98417500D01*
X87555825Y-98417200D01*
X87555832Y-98417200D01*
X87614340Y-98411463D01*
X87699833Y-98403080D01*
X87705734Y-98401298D01*
X87705736Y-98401298D01*
X87779053Y-98379162D01*
X87889169Y-98345916D01*
X88063796Y-98253066D01*
X88150062Y-98182709D01*
X88212287Y-98131960D01*
X88212290Y-98131957D01*
X88217062Y-98128065D01*
X88220991Y-98123316D01*
X88339201Y-97980425D01*
X88339203Y-97980421D01*
X88343130Y-97975675D01*
X88437198Y-97801701D01*
X88495682Y-97612768D01*
X88516355Y-97416075D01*
X88505799Y-97300083D01*
X88498989Y-97225251D01*
X88498988Y-97225248D01*
X88498430Y-97219112D01*
X88496150Y-97211363D01*
X88444330Y-97035294D01*
X88442590Y-97029381D01*
X88437727Y-97020078D01*
X88353813Y-96859568D01*
X88350960Y-96854110D01*
X88227032Y-96699975D01*
X88220727Y-96694684D01*
X88137610Y-96624941D01*
X88075526Y-96572846D01*
X88070128Y-96569879D01*
X88070123Y-96569875D01*
X87907608Y-96480533D01*
X87907609Y-96480533D01*
X87902213Y-96477567D01*
X87896346Y-96475706D01*
X87896344Y-96475705D01*
X87719564Y-96419627D01*
X87719563Y-96419627D01*
X87713694Y-96417765D01*
X87559773Y-96400500D01*
X76132873Y-96400500D01*
X76119703Y-96399810D01*
X76086204Y-96396289D01*
X76086202Y-96396289D01*
X76080075Y-96395645D01*
X76029827Y-96400218D01*
X76025793Y-96400500D01*
X76023231Y-96400500D01*
X76020173Y-96400800D01*
X76020169Y-96400800D01*
X75978404Y-96404895D01*
X75977529Y-96404977D01*
X75955830Y-96406952D01*
X75883112Y-96413570D01*
X75879703Y-96414573D01*
X75876167Y-96414920D01*
X75785279Y-96442361D01*
X75784610Y-96442561D01*
X75693381Y-96469410D01*
X75690228Y-96471058D01*
X75686831Y-96472084D01*
X75681401Y-96474971D01*
X75681399Y-96474972D01*
X75670940Y-96480533D01*
X75602899Y-96516711D01*
X75602319Y-96517016D01*
X75518110Y-96561040D01*
X75515342Y-96563265D01*
X75512204Y-96564934D01*
X75507426Y-96568831D01*
X75438628Y-96624941D01*
X75437944Y-96625494D01*
X75368782Y-96681102D01*
X75368776Y-96681108D01*
X75363975Y-96684968D01*
X75361692Y-96687689D01*
X75358938Y-96689935D01*
X75355011Y-96694682D01*
X75355009Y-96694684D01*
X75298441Y-96763064D01*
X75297935Y-96763671D01*
X75236846Y-96836474D01*
X75235134Y-96839589D01*
X75232870Y-96842325D01*
X75229096Y-96849306D01*
X75187700Y-96925865D01*
X75187298Y-96926603D01*
X75141567Y-97009787D01*
X75140494Y-97013170D01*
X75138802Y-97016299D01*
X75132922Y-97035294D01*
X75110725Y-97107002D01*
X75110468Y-97107822D01*
X75081765Y-97198306D01*
X75081369Y-97201837D01*
X75080318Y-97205232D01*
X75078214Y-97225251D01*
X75070396Y-97299638D01*
X75070311Y-97300421D01*
X75064500Y-97352227D01*
X75064500Y-97354800D01*
X75064180Y-97358776D01*
X75059645Y-97401925D01*
X75060204Y-97408065D01*
X75063981Y-97449570D01*
X75064500Y-97460990D01*
X75064500Y-101511074D01*
X75044498Y-101579195D01*
X75027596Y-101600169D01*
X74676171Y-101951595D01*
X74613858Y-101985620D01*
X74587075Y-101988500D01*
X73465873Y-101988500D01*
X73452703Y-101987810D01*
X73419204Y-101984289D01*
X73419202Y-101984289D01*
X73413075Y-101983645D01*
X73367309Y-101987810D01*
X73365430Y-101987981D01*
X73354010Y-101988500D01*
X65239924Y-101988500D01*
X65171803Y-101968498D01*
X65150829Y-101951595D01*
X64812925Y-101613691D01*
X64698739Y-101519897D01*
X64524437Y-101426438D01*
X64406890Y-101390500D01*
X64341200Y-101370416D01*
X64341198Y-101370416D01*
X64335302Y-101368613D01*
X64277449Y-101362736D01*
X64144666Y-101349248D01*
X64144661Y-101349248D01*
X64138538Y-101348626D01*
X64014475Y-101360354D01*
X63947771Y-101366659D01*
X63947769Y-101366659D01*
X63941638Y-101367239D01*
X63883408Y-101384598D01*
X63758007Y-101421981D01*
X63758005Y-101421982D01*
X63752104Y-101423741D01*
X63577154Y-101515982D01*
X63572368Y-101519858D01*
X63572366Y-101519859D01*
X63473192Y-101600169D01*
X63423453Y-101640447D01*
X63296854Y-101792396D01*
X63202178Y-101966041D01*
X63143035Y-102154768D01*
X63142370Y-102160891D01*
X63142369Y-102160895D01*
X63129402Y-102280265D01*
X63121676Y-102351388D01*
X50508500Y-102351388D01*
X50508500Y-100930134D01*
X60153500Y-100930134D01*
X60160255Y-100992316D01*
X60211385Y-101128705D01*
X60298739Y-101245261D01*
X60415295Y-101332615D01*
X60551684Y-101383745D01*
X60613866Y-101390500D01*
X61560134Y-101390500D01*
X61622316Y-101383745D01*
X61758705Y-101332615D01*
X61875261Y-101245261D01*
X61962615Y-101128705D01*
X62013745Y-100992316D01*
X62020500Y-100930134D01*
X62020500Y-99983866D01*
X62013745Y-99921684D01*
X61962615Y-99785295D01*
X61875261Y-99668739D01*
X61758705Y-99581385D01*
X61622316Y-99530255D01*
X61560134Y-99523500D01*
X60613866Y-99523500D01*
X60551684Y-99530255D01*
X60415295Y-99581385D01*
X60298739Y-99668739D01*
X60211385Y-99785295D01*
X60160255Y-99921684D01*
X60153500Y-99983866D01*
X60153500Y-100930134D01*
X50508500Y-100930134D01*
X50508500Y-87194918D01*
X98349917Y-87194918D01*
X98365682Y-87468320D01*
X98366507Y-87472525D01*
X98366508Y-87472533D01*
X98377127Y-87526657D01*
X98418405Y-87737053D01*
X98419792Y-87741103D01*
X98419793Y-87741108D01*
X98440605Y-87801895D01*
X98507112Y-87996144D01*
X98630160Y-88240799D01*
X98632586Y-88244328D01*
X98632589Y-88244334D01*
X98733040Y-88390490D01*
X98785274Y-88466490D01*
X98969582Y-88669043D01*
X98972877Y-88671798D01*
X98972878Y-88671799D01*
X99017382Y-88709010D01*
X99179675Y-88844707D01*
X99183316Y-88846991D01*
X99408024Y-88987951D01*
X99408028Y-88987953D01*
X99411664Y-88990234D01*
X99479544Y-89020883D01*
X99657345Y-89101164D01*
X99657349Y-89101166D01*
X99661257Y-89102930D01*
X99665377Y-89104150D01*
X99665376Y-89104150D01*
X99919723Y-89179491D01*
X99919727Y-89179492D01*
X99923836Y-89180709D01*
X99928070Y-89181357D01*
X99928075Y-89181358D01*
X100190298Y-89221483D01*
X100190300Y-89221483D01*
X100194540Y-89222132D01*
X100333912Y-89224322D01*
X100464071Y-89226367D01*
X100464077Y-89226367D01*
X100468362Y-89226434D01*
X100740235Y-89193534D01*
X101005127Y-89124041D01*
X101009087Y-89122401D01*
X101009092Y-89122399D01*
X101131631Y-89071641D01*
X101258136Y-89019241D01*
X101494582Y-88881073D01*
X101710089Y-88712094D01*
X101751809Y-88669043D01*
X101897686Y-88518509D01*
X101900669Y-88515431D01*
X101903202Y-88511983D01*
X101903206Y-88511978D01*
X102060257Y-88298178D01*
X102062795Y-88294723D01*
X102090154Y-88244334D01*
X102191418Y-88057830D01*
X102191419Y-88057828D01*
X102193468Y-88054054D01*
X102290269Y-87797877D01*
X102351407Y-87530933D01*
X102375751Y-87258161D01*
X102376193Y-87216000D01*
X102357567Y-86942778D01*
X102302032Y-86674612D01*
X102210617Y-86416465D01*
X102085013Y-86173112D01*
X102075040Y-86158921D01*
X101930008Y-85952562D01*
X101927545Y-85949057D01*
X101741125Y-85748445D01*
X101737810Y-85745731D01*
X101737806Y-85745728D01*
X101532523Y-85577706D01*
X101529205Y-85574990D01*
X101295704Y-85431901D01*
X101291768Y-85430173D01*
X101048873Y-85323549D01*
X101048869Y-85323548D01*
X101044945Y-85321825D01*
X100781566Y-85246800D01*
X100777324Y-85246196D01*
X100777318Y-85246195D01*
X100561538Y-85215485D01*
X100510443Y-85208213D01*
X100366589Y-85207460D01*
X100240877Y-85206802D01*
X100240871Y-85206802D01*
X100236591Y-85206780D01*
X100232347Y-85207339D01*
X100232343Y-85207339D01*
X100113302Y-85223011D01*
X99965078Y-85242525D01*
X99960938Y-85243658D01*
X99960936Y-85243658D01*
X99888008Y-85263609D01*
X99700928Y-85314788D01*
X99696980Y-85316472D01*
X99452982Y-85420546D01*
X99452978Y-85420548D01*
X99449030Y-85422232D01*
X99429125Y-85434145D01*
X99217725Y-85560664D01*
X99217721Y-85560667D01*
X99214043Y-85562868D01*
X99000318Y-85734094D01*
X98811808Y-85932742D01*
X98652002Y-86155136D01*
X98523857Y-86397161D01*
X98522385Y-86401184D01*
X98522383Y-86401188D01*
X98515314Y-86420506D01*
X98429743Y-86654337D01*
X98371404Y-86921907D01*
X98349917Y-87194918D01*
X50508500Y-87194918D01*
X50508500Y-81305522D01*
X85077273Y-81305522D01*
X85124764Y-81482761D01*
X85128510Y-81493053D01*
X85220586Y-81690511D01*
X85226069Y-81700007D01*
X85351028Y-81878467D01*
X85358084Y-81886875D01*
X85512125Y-82040916D01*
X85520533Y-82047972D01*
X85698993Y-82172931D01*
X85708489Y-82178414D01*
X85905947Y-82270490D01*
X85916239Y-82274236D01*
X86088503Y-82320394D01*
X86102599Y-82320058D01*
X86106000Y-82312116D01*
X86106000Y-82306967D01*
X86614000Y-82306967D01*
X86617973Y-82320498D01*
X86626522Y-82321727D01*
X86803761Y-82274236D01*
X86814053Y-82270490D01*
X87011511Y-82178414D01*
X87021007Y-82172931D01*
X87199467Y-82047972D01*
X87207875Y-82040916D01*
X87361916Y-81886875D01*
X87368972Y-81878467D01*
X87493931Y-81700007D01*
X87499414Y-81690511D01*
X87591490Y-81493053D01*
X87595236Y-81482761D01*
X87641394Y-81310497D01*
X87641058Y-81296401D01*
X87633116Y-81293000D01*
X86632115Y-81293000D01*
X86616876Y-81297475D01*
X86615671Y-81298865D01*
X86614000Y-81306548D01*
X86614000Y-82306967D01*
X86106000Y-82306967D01*
X86106000Y-81311115D01*
X86101525Y-81295876D01*
X86100135Y-81294671D01*
X86092452Y-81293000D01*
X85092033Y-81293000D01*
X85078502Y-81296973D01*
X85077273Y-81305522D01*
X50508500Y-81305522D01*
X50508500Y-81118205D01*
X92468666Y-81118205D01*
X92469335Y-81123218D01*
X92469335Y-81123220D01*
X92493796Y-81306548D01*
X92500771Y-81358820D01*
X92502233Y-81363661D01*
X92502233Y-81363663D01*
X92523557Y-81434290D01*
X92570933Y-81591208D01*
X92677346Y-81809388D01*
X92680259Y-81813517D01*
X92781862Y-81957547D01*
X92817274Y-82007747D01*
X92836909Y-82029250D01*
X92837932Y-82030273D01*
X94073342Y-83265684D01*
X94075796Y-83268206D01*
X94144332Y-83340681D01*
X94148349Y-83343752D01*
X94148352Y-83343755D01*
X94206761Y-83388412D01*
X94211892Y-83392553D01*
X94271720Y-83443470D01*
X94276046Y-83446090D01*
X94276053Y-83446095D01*
X94299824Y-83460491D01*
X94311071Y-83468163D01*
X94337174Y-83488120D01*
X94406416Y-83525247D01*
X94412137Y-83528510D01*
X94475034Y-83566602D01*
X94479357Y-83569220D01*
X94509834Y-83581534D01*
X94522150Y-83587303D01*
X94551109Y-83602831D01*
X94625433Y-83628423D01*
X94631561Y-83630714D01*
X94663906Y-83643782D01*
X94699733Y-83658258D01*
X94699737Y-83658259D01*
X94704429Y-83660155D01*
X94709368Y-83661277D01*
X94709371Y-83661278D01*
X94736460Y-83667432D01*
X94749559Y-83671163D01*
X94780631Y-83681862D01*
X94858100Y-83695243D01*
X94864504Y-83696523D01*
X94941144Y-83713935D01*
X94973953Y-83715999D01*
X94987453Y-83717585D01*
X95019836Y-83723179D01*
X95023793Y-83723359D01*
X95023796Y-83723359D01*
X95047506Y-83724436D01*
X95047525Y-83724436D01*
X95048925Y-83724500D01*
X95105107Y-83724500D01*
X95113018Y-83724749D01*
X95183412Y-83729178D01*
X95224991Y-83725101D01*
X95237287Y-83724500D01*
X98990173Y-83724500D01*
X99058294Y-83744502D01*
X99070994Y-83753836D01*
X99179675Y-83844707D01*
X99183316Y-83846991D01*
X99408024Y-83987951D01*
X99408028Y-83987953D01*
X99411664Y-83990234D01*
X99479544Y-84020883D01*
X99657345Y-84101164D01*
X99657349Y-84101166D01*
X99661257Y-84102930D01*
X99665377Y-84104150D01*
X99665376Y-84104150D01*
X99919723Y-84179491D01*
X99919727Y-84179492D01*
X99923836Y-84180709D01*
X99928070Y-84181357D01*
X99928075Y-84181358D01*
X100190298Y-84221483D01*
X100190300Y-84221483D01*
X100194540Y-84222132D01*
X100333912Y-84224322D01*
X100464071Y-84226367D01*
X100464077Y-84226367D01*
X100468362Y-84226434D01*
X100740235Y-84193534D01*
X101005127Y-84124041D01*
X101009087Y-84122401D01*
X101009092Y-84122399D01*
X101131632Y-84071641D01*
X101258136Y-84019241D01*
X101494582Y-83881073D01*
X101710089Y-83712094D01*
X101725176Y-83696526D01*
X101871193Y-83545848D01*
X101900669Y-83515431D01*
X101903202Y-83511983D01*
X101903206Y-83511978D01*
X102060257Y-83298178D01*
X102062795Y-83294723D01*
X102078562Y-83265684D01*
X102191418Y-83057830D01*
X102191419Y-83057828D01*
X102193468Y-83054054D01*
X102241869Y-82925965D01*
X102288751Y-82801895D01*
X102288752Y-82801891D01*
X102290269Y-82797877D01*
X102351407Y-82530933D01*
X102375751Y-82258161D01*
X102376193Y-82216000D01*
X102376024Y-82213519D01*
X102357859Y-81947055D01*
X102357858Y-81947049D01*
X102357567Y-81942778D01*
X102302032Y-81674612D01*
X102210617Y-81416465D01*
X102085013Y-81173112D01*
X102072380Y-81155136D01*
X101978275Y-81021239D01*
X101927545Y-80949057D01*
X101854618Y-80870578D01*
X101744046Y-80751588D01*
X101744043Y-80751585D01*
X101741125Y-80748445D01*
X101737810Y-80745731D01*
X101737806Y-80745728D01*
X101532523Y-80577706D01*
X101529205Y-80574990D01*
X101307388Y-80439061D01*
X101299366Y-80434145D01*
X101299365Y-80434145D01*
X101295704Y-80431901D01*
X101291768Y-80430173D01*
X101048873Y-80323549D01*
X101048869Y-80323548D01*
X101044945Y-80321825D01*
X100781566Y-80246800D01*
X100777324Y-80246196D01*
X100777318Y-80246195D01*
X100576834Y-80217662D01*
X100510443Y-80208213D01*
X100366589Y-80207460D01*
X100240877Y-80206802D01*
X100240871Y-80206802D01*
X100236591Y-80206780D01*
X100232347Y-80207339D01*
X100232343Y-80207339D01*
X100119744Y-80222163D01*
X99965078Y-80242525D01*
X99960938Y-80243658D01*
X99960936Y-80243658D01*
X99888008Y-80263609D01*
X99700928Y-80314788D01*
X99696980Y-80316472D01*
X99452982Y-80420546D01*
X99452978Y-80420548D01*
X99449030Y-80422232D01*
X99349308Y-80481914D01*
X99217725Y-80560664D01*
X99217721Y-80560667D01*
X99214043Y-80562868D01*
X99210700Y-80565546D01*
X99210696Y-80565549D01*
X99068046Y-80679834D01*
X99002376Y-80706816D01*
X98989265Y-80707500D01*
X95834031Y-80707500D01*
X95765910Y-80687498D01*
X95744936Y-80670595D01*
X95003536Y-79929195D01*
X95001626Y-79927569D01*
X95001619Y-79927563D01*
X94869132Y-79814808D01*
X94869130Y-79814806D01*
X94865280Y-79811530D01*
X94657642Y-79685779D01*
X94432571Y-79594845D01*
X94308650Y-79566691D01*
X94200787Y-79542185D01*
X94200784Y-79542184D01*
X94195856Y-79541065D01*
X94190809Y-79540747D01*
X94190806Y-79540747D01*
X93970350Y-79526877D01*
X93953587Y-79525822D01*
X93765524Y-79544263D01*
X93717025Y-79549018D01*
X93717024Y-79549018D01*
X93711998Y-79549511D01*
X93477304Y-79611519D01*
X93472687Y-79613575D01*
X93472686Y-79613575D01*
X93381999Y-79653952D01*
X93255544Y-79710254D01*
X93052422Y-79843174D01*
X92873164Y-80006858D01*
X92801676Y-80097054D01*
X92725527Y-80193129D01*
X92725523Y-80193135D01*
X92722382Y-80197098D01*
X92674267Y-80283190D01*
X92620311Y-80379733D01*
X92603955Y-80408998D01*
X92576945Y-80483206D01*
X92542550Y-80577706D01*
X92520930Y-80637105D01*
X92519982Y-80642074D01*
X92519981Y-80642078D01*
X92492718Y-80785000D01*
X92475444Y-80875553D01*
X92471375Y-81021239D01*
X92468914Y-81109338D01*
X92468666Y-81118205D01*
X50508500Y-81118205D01*
X50508500Y-80767503D01*
X85078606Y-80767503D01*
X85078942Y-80781599D01*
X85086884Y-80785000D01*
X86087885Y-80785000D01*
X86103124Y-80780525D01*
X86104329Y-80779135D01*
X86106000Y-80771452D01*
X86106000Y-80766885D01*
X86614000Y-80766885D01*
X86618475Y-80782124D01*
X86619865Y-80783329D01*
X86627548Y-80785000D01*
X87627967Y-80785000D01*
X87641498Y-80781027D01*
X87642727Y-80772478D01*
X87595236Y-80595239D01*
X87591490Y-80584947D01*
X87499414Y-80387489D01*
X87495722Y-80381095D01*
X88635001Y-80381095D01*
X88635338Y-80387614D01*
X88645257Y-80483206D01*
X88648149Y-80496600D01*
X88699588Y-80650784D01*
X88705761Y-80663962D01*
X88791063Y-80801807D01*
X88800099Y-80813208D01*
X88914829Y-80927739D01*
X88926240Y-80936751D01*
X89064243Y-81021816D01*
X89077424Y-81027963D01*
X89231710Y-81079138D01*
X89245086Y-81082005D01*
X89339438Y-81091672D01*
X89345854Y-81092000D01*
X89770885Y-81092000D01*
X89786124Y-81087525D01*
X89787329Y-81086135D01*
X89789000Y-81078452D01*
X89789000Y-81073884D01*
X90297000Y-81073884D01*
X90301475Y-81089123D01*
X90302865Y-81090328D01*
X90310548Y-81091999D01*
X90740095Y-81091999D01*
X90746614Y-81091662D01*
X90842206Y-81081743D01*
X90855600Y-81078851D01*
X91009784Y-81027412D01*
X91022962Y-81021239D01*
X91160807Y-80935937D01*
X91172208Y-80926901D01*
X91286739Y-80812171D01*
X91295751Y-80800760D01*
X91380816Y-80662757D01*
X91386963Y-80649576D01*
X91438138Y-80495290D01*
X91441005Y-80481914D01*
X91450672Y-80387562D01*
X91451000Y-80381146D01*
X91451000Y-80193615D01*
X91446525Y-80178376D01*
X91445135Y-80177171D01*
X91437452Y-80175500D01*
X90315115Y-80175500D01*
X90299876Y-80179975D01*
X90298671Y-80181365D01*
X90297000Y-80189048D01*
X90297000Y-81073884D01*
X89789000Y-81073884D01*
X89789000Y-80193615D01*
X89784525Y-80178376D01*
X89783135Y-80177171D01*
X89775452Y-80175500D01*
X88653116Y-80175500D01*
X88637877Y-80179975D01*
X88636672Y-80181365D01*
X88635001Y-80189048D01*
X88635001Y-80381095D01*
X87495722Y-80381095D01*
X87493931Y-80377993D01*
X87368972Y-80199533D01*
X87361916Y-80191125D01*
X87207875Y-80037084D01*
X87199467Y-80030028D01*
X87021007Y-79905069D01*
X87011511Y-79899586D01*
X86814053Y-79807510D01*
X86803761Y-79803764D01*
X86631497Y-79757606D01*
X86617401Y-79757942D01*
X86614000Y-79765884D01*
X86614000Y-80766885D01*
X86106000Y-80766885D01*
X86106000Y-79771033D01*
X86102027Y-79757502D01*
X86093478Y-79756273D01*
X85916239Y-79803764D01*
X85905947Y-79807510D01*
X85708489Y-79899586D01*
X85698993Y-79905069D01*
X85520533Y-80030028D01*
X85512125Y-80037084D01*
X85358084Y-80191125D01*
X85351028Y-80199533D01*
X85226069Y-80377993D01*
X85220586Y-80387489D01*
X85128510Y-80584947D01*
X85124764Y-80595239D01*
X85078606Y-80767503D01*
X50508500Y-80767503D01*
X50508500Y-79096263D01*
X59872064Y-79096263D01*
X59908404Y-79333744D01*
X59945094Y-79445997D01*
X59981434Y-79557183D01*
X59981437Y-79557189D01*
X59983042Y-79562101D01*
X59985429Y-79566687D01*
X59985431Y-79566691D01*
X60047425Y-79685779D01*
X60093975Y-79775200D01*
X60116557Y-79805276D01*
X60218063Y-79940469D01*
X60238223Y-79967320D01*
X60411912Y-80133301D01*
X60416184Y-80136215D01*
X60577408Y-80246195D01*
X60610378Y-80268686D01*
X60615061Y-80270860D01*
X60615065Y-80270862D01*
X60823595Y-80367658D01*
X60823599Y-80367659D01*
X60828290Y-80369837D01*
X61059798Y-80434040D01*
X61064935Y-80434589D01*
X61252593Y-80454644D01*
X61252601Y-80454644D01*
X61255928Y-80455000D01*
X61490402Y-80455000D01*
X61492975Y-80454788D01*
X61492986Y-80454788D01*
X61593946Y-80446487D01*
X61668937Y-80440322D01*
X61879272Y-80387489D01*
X61896932Y-80383053D01*
X61896933Y-80383053D01*
X61901944Y-80381794D01*
X62042566Y-80320650D01*
X62117526Y-80288057D01*
X62117529Y-80288055D01*
X62122263Y-80285997D01*
X62259680Y-80197098D01*
X62319637Y-80158310D01*
X62319640Y-80158308D01*
X62323977Y-80155502D01*
X62501670Y-79993814D01*
X62620638Y-79843174D01*
X62647367Y-79809330D01*
X62647370Y-79809325D01*
X62650568Y-79805276D01*
X62664885Y-79779342D01*
X62736625Y-79649385D01*
X88635000Y-79649385D01*
X88639475Y-79664624D01*
X88640865Y-79665829D01*
X88648548Y-79667500D01*
X89770885Y-79667500D01*
X89786124Y-79663025D01*
X89787329Y-79661635D01*
X89789000Y-79653952D01*
X89789000Y-79649385D01*
X90297000Y-79649385D01*
X90301475Y-79664624D01*
X90302865Y-79665829D01*
X90310548Y-79667500D01*
X91432884Y-79667500D01*
X91448123Y-79663025D01*
X91449328Y-79661635D01*
X91450999Y-79653952D01*
X91450999Y-79461905D01*
X91450662Y-79455386D01*
X91440743Y-79359794D01*
X91437851Y-79346400D01*
X91386412Y-79192216D01*
X91380239Y-79179038D01*
X91294937Y-79041193D01*
X91285901Y-79029792D01*
X91171171Y-78915261D01*
X91159760Y-78906249D01*
X91021757Y-78821184D01*
X91008576Y-78815037D01*
X90854290Y-78763862D01*
X90840914Y-78760995D01*
X90746562Y-78751328D01*
X90740145Y-78751000D01*
X90315115Y-78751000D01*
X90299876Y-78755475D01*
X90298671Y-78756865D01*
X90297000Y-78764548D01*
X90297000Y-79649385D01*
X89789000Y-79649385D01*
X89789000Y-78769116D01*
X89784525Y-78753877D01*
X89783135Y-78752672D01*
X89775452Y-78751001D01*
X89345905Y-78751001D01*
X89339386Y-78751338D01*
X89243794Y-78761257D01*
X89230400Y-78764149D01*
X89076216Y-78815588D01*
X89063038Y-78821761D01*
X88925193Y-78907063D01*
X88913792Y-78916099D01*
X88799261Y-79030829D01*
X88790249Y-79042240D01*
X88705184Y-79180243D01*
X88699037Y-79193424D01*
X88647862Y-79347710D01*
X88644995Y-79361086D01*
X88635328Y-79455438D01*
X88635000Y-79461855D01*
X88635000Y-79649385D01*
X62736625Y-79649385D01*
X62764177Y-79599474D01*
X62764179Y-79599470D01*
X62766674Y-79594950D01*
X62782940Y-79549018D01*
X62845144Y-79373360D01*
X62845145Y-79373356D01*
X62846870Y-79368485D01*
X62852183Y-79338659D01*
X62888095Y-79137052D01*
X62888096Y-79137046D01*
X62889001Y-79131963D01*
X62890733Y-78990234D01*
X62891873Y-78896907D01*
X62891873Y-78896905D01*
X62891936Y-78891737D01*
X62855596Y-78654256D01*
X62818906Y-78542003D01*
X62782566Y-78430817D01*
X62782563Y-78430811D01*
X62780958Y-78425899D01*
X62773630Y-78411821D01*
X62672416Y-78217393D01*
X62670025Y-78212800D01*
X62525777Y-78020680D01*
X62352088Y-77854699D01*
X62314649Y-77829160D01*
X62269648Y-77774249D01*
X62261477Y-77703725D01*
X62292731Y-77639978D01*
X62317210Y-77619284D01*
X62319326Y-77617915D01*
X62327498Y-77611622D01*
X62497480Y-77456950D01*
X62504506Y-77449417D01*
X62646945Y-77269056D01*
X62652650Y-77260469D01*
X62763714Y-77059278D01*
X62767944Y-77049866D01*
X62844659Y-76833232D01*
X62847293Y-76823261D01*
X62864647Y-76725837D01*
X62863187Y-76712540D01*
X62848630Y-76708000D01*
X59913904Y-76708000D01*
X59900560Y-76711918D01*
X59898573Y-76726194D01*
X59908110Y-76788515D01*
X59910499Y-76798543D01*
X59981898Y-77016988D01*
X59985895Y-77026497D01*
X60092011Y-77230344D01*
X60097505Y-77239069D01*
X60235493Y-77422852D01*
X60242336Y-77430559D01*
X60408491Y-77589339D01*
X60416498Y-77595823D01*
X60449356Y-77618237D01*
X60494359Y-77673148D01*
X60502532Y-77743672D01*
X60471278Y-77807420D01*
X60446796Y-77828116D01*
X60445181Y-77829161D01*
X60440023Y-77832498D01*
X60262330Y-77994186D01*
X60217194Y-78051338D01*
X60116633Y-78178670D01*
X60116630Y-78178675D01*
X60113432Y-78182724D01*
X60110939Y-78187240D01*
X60110937Y-78187243D01*
X60051605Y-78294723D01*
X59997326Y-78393050D01*
X59995602Y-78397919D01*
X59995600Y-78397923D01*
X59955211Y-78511978D01*
X59917130Y-78619515D01*
X59916223Y-78624608D01*
X59916222Y-78624611D01*
X59891296Y-78764548D01*
X59874999Y-78856037D01*
X59872064Y-79096263D01*
X50508500Y-79096263D01*
X50508500Y-76454000D01*
X75778654Y-76454000D01*
X75778924Y-76458119D01*
X75796471Y-76725837D01*
X75798017Y-76749426D01*
X75798819Y-76753459D01*
X75798820Y-76753465D01*
X75850424Y-77012891D01*
X75855776Y-77039797D01*
X75857103Y-77043706D01*
X75857104Y-77043710D01*
X75915798Y-77216618D01*
X75950941Y-77320145D01*
X75973478Y-77365846D01*
X76075372Y-77572465D01*
X76081885Y-77585673D01*
X76084179Y-77589106D01*
X76231304Y-77809294D01*
X76246367Y-77831838D01*
X76249081Y-77834932D01*
X76249085Y-77834938D01*
X76415604Y-78024815D01*
X76441573Y-78054427D01*
X76444662Y-78057136D01*
X76661062Y-78246915D01*
X76661068Y-78246919D01*
X76664162Y-78249633D01*
X76667588Y-78251922D01*
X76667593Y-78251926D01*
X76851405Y-78374744D01*
X76910327Y-78414115D01*
X76914026Y-78415939D01*
X76914031Y-78415942D01*
X77016533Y-78466490D01*
X77175855Y-78545059D01*
X77179760Y-78546384D01*
X77179761Y-78546385D01*
X77452290Y-78638896D01*
X77452294Y-78638897D01*
X77456203Y-78640224D01*
X77460247Y-78641028D01*
X77460253Y-78641030D01*
X77742535Y-78697180D01*
X77742541Y-78697181D01*
X77746574Y-78697983D01*
X77750679Y-78698252D01*
X77750686Y-78698253D01*
X78037881Y-78717076D01*
X78042000Y-78717346D01*
X78046119Y-78717076D01*
X78333314Y-78698253D01*
X78333321Y-78698252D01*
X78337426Y-78697983D01*
X78341459Y-78697181D01*
X78341465Y-78697180D01*
X78623747Y-78641030D01*
X78623753Y-78641028D01*
X78627797Y-78640224D01*
X78631706Y-78638897D01*
X78631710Y-78638896D01*
X78904239Y-78546385D01*
X78904240Y-78546384D01*
X78908145Y-78545059D01*
X79067467Y-78466490D01*
X79169969Y-78415942D01*
X79169974Y-78415939D01*
X79173673Y-78414115D01*
X79232595Y-78374744D01*
X79416407Y-78251926D01*
X79416412Y-78251922D01*
X79419838Y-78249633D01*
X79422932Y-78246919D01*
X79422938Y-78246915D01*
X79639338Y-78057136D01*
X79642427Y-78054427D01*
X79668396Y-78024815D01*
X79834915Y-77834938D01*
X79834919Y-77834932D01*
X79837633Y-77831838D01*
X79852697Y-77809294D01*
X79999821Y-77589106D01*
X80002115Y-77585673D01*
X80008629Y-77572465D01*
X80110522Y-77365846D01*
X80133059Y-77320145D01*
X80168202Y-77216618D01*
X80226896Y-77043710D01*
X80226897Y-77043706D01*
X80228224Y-77039797D01*
X80233576Y-77012891D01*
X80285180Y-76753465D01*
X80285181Y-76753459D01*
X80285983Y-76749426D01*
X80287530Y-76725837D01*
X80305076Y-76458119D01*
X80305346Y-76454000D01*
X80290788Y-76231887D01*
X80286253Y-76162686D01*
X80286252Y-76162679D01*
X80285983Y-76158574D01*
X80284608Y-76151657D01*
X80229030Y-75872253D01*
X80229028Y-75872247D01*
X80228224Y-75868203D01*
X80186650Y-75745728D01*
X80134385Y-75591761D01*
X80134384Y-75591760D01*
X80133059Y-75587855D01*
X80055299Y-75430173D01*
X80003942Y-75326031D01*
X80003939Y-75326026D01*
X80002115Y-75322327D01*
X79943740Y-75234962D01*
X79839926Y-75079593D01*
X79839922Y-75079588D01*
X79837633Y-75076162D01*
X79834919Y-75073068D01*
X79834915Y-75073062D01*
X79645136Y-74856662D01*
X79642427Y-74853573D01*
X79639338Y-74850864D01*
X79422938Y-74661085D01*
X79422932Y-74661081D01*
X79419838Y-74658367D01*
X79416412Y-74656078D01*
X79416407Y-74656074D01*
X79177106Y-74496179D01*
X79173673Y-74493885D01*
X79169974Y-74492061D01*
X79169969Y-74492058D01*
X79033687Y-74424852D01*
X78908145Y-74362941D01*
X78904239Y-74361615D01*
X78631710Y-74269104D01*
X78631706Y-74269103D01*
X78627797Y-74267776D01*
X78623753Y-74266972D01*
X78623747Y-74266970D01*
X78341465Y-74210820D01*
X78341459Y-74210819D01*
X78337426Y-74210017D01*
X78333321Y-74209748D01*
X78333314Y-74209747D01*
X78046119Y-74190924D01*
X78042000Y-74190654D01*
X78037881Y-74190924D01*
X77750686Y-74209747D01*
X77750679Y-74209748D01*
X77746574Y-74210017D01*
X77742541Y-74210819D01*
X77742535Y-74210820D01*
X77460253Y-74266970D01*
X77460247Y-74266972D01*
X77456203Y-74267776D01*
X77452294Y-74269103D01*
X77452290Y-74269104D01*
X77179761Y-74361615D01*
X77175855Y-74362941D01*
X77050313Y-74424852D01*
X76914031Y-74492058D01*
X76914026Y-74492061D01*
X76910327Y-74493885D01*
X76906894Y-74496179D01*
X76667593Y-74656074D01*
X76667588Y-74656078D01*
X76664162Y-74658367D01*
X76661068Y-74661081D01*
X76661062Y-74661085D01*
X76444662Y-74850864D01*
X76441573Y-74853573D01*
X76438864Y-74856662D01*
X76249085Y-75073062D01*
X76249081Y-75073068D01*
X76246367Y-75076162D01*
X76244078Y-75079588D01*
X76244074Y-75079593D01*
X76140260Y-75234962D01*
X76081885Y-75322327D01*
X76080061Y-75326026D01*
X76080058Y-75326031D01*
X76028701Y-75430173D01*
X75950941Y-75587855D01*
X75949616Y-75591760D01*
X75949615Y-75591761D01*
X75897351Y-75745728D01*
X75855776Y-75868203D01*
X75854972Y-75872247D01*
X75854970Y-75872253D01*
X75799393Y-76151657D01*
X75798017Y-76158574D01*
X75797748Y-76162679D01*
X75797747Y-76162686D01*
X75793212Y-76231887D01*
X75778654Y-76454000D01*
X50508500Y-76454000D01*
X50508500Y-73940413D01*
X59868822Y-73940413D01*
X59869316Y-73945448D01*
X59872899Y-73981992D01*
X59873500Y-73994288D01*
X59873500Y-74914634D01*
X59880255Y-74976816D01*
X59931385Y-75113205D01*
X60018739Y-75229761D01*
X60135295Y-75317115D01*
X60152458Y-75323549D01*
X60155683Y-75324758D01*
X60212447Y-75367401D01*
X60237146Y-75433962D01*
X60221938Y-75503311D01*
X60210334Y-75520832D01*
X60117055Y-75638944D01*
X60111350Y-75647531D01*
X60000286Y-75848722D01*
X59996056Y-75858134D01*
X59919341Y-76074768D01*
X59916707Y-76084739D01*
X59899353Y-76182163D01*
X59900813Y-76195460D01*
X59915370Y-76200000D01*
X62850096Y-76200000D01*
X62863440Y-76196082D01*
X62865427Y-76181806D01*
X62855890Y-76119485D01*
X62853501Y-76109457D01*
X62782102Y-75891012D01*
X62778105Y-75881503D01*
X62671989Y-75677656D01*
X62666500Y-75668939D01*
X62553098Y-75517901D01*
X62528193Y-75451416D01*
X62543186Y-75382020D01*
X62593316Y-75331747D01*
X62609625Y-75324268D01*
X62628705Y-75317115D01*
X62745261Y-75229761D01*
X62832615Y-75113205D01*
X62883745Y-74976816D01*
X62890500Y-74914634D01*
X62890500Y-74591031D01*
X62910502Y-74522910D01*
X62927405Y-74501936D01*
X71494936Y-65934405D01*
X71557248Y-65900379D01*
X71584031Y-65897500D01*
X82914671Y-65897500D01*
X82982792Y-65917502D01*
X83006332Y-65939407D01*
X83007008Y-65938731D01*
X83013358Y-65945081D01*
X83018739Y-65952261D01*
X83135295Y-66039615D01*
X83271684Y-66090745D01*
X83333866Y-66097500D01*
X84104969Y-66097500D01*
X84173090Y-66117502D01*
X84194064Y-66134405D01*
X86211595Y-68151936D01*
X86245621Y-68214248D01*
X86248500Y-68241031D01*
X86248500Y-73884969D01*
X86228498Y-73953090D01*
X86211595Y-73974064D01*
X85569374Y-74616285D01*
X85507062Y-74650311D01*
X85493887Y-74652453D01*
X85486448Y-74653261D01*
X85449684Y-74657255D01*
X85313295Y-74708385D01*
X85196739Y-74795739D01*
X85109385Y-74912295D01*
X85058255Y-75048684D01*
X85051500Y-75110866D01*
X85051500Y-75172335D01*
X85033276Y-75237606D01*
X85027708Y-75246800D01*
X85006779Y-75281358D01*
X84915845Y-75506429D01*
X84912573Y-75520832D01*
X84873711Y-75691885D01*
X84862065Y-75743144D01*
X84861747Y-75748191D01*
X84861747Y-75748194D01*
X84853942Y-75872253D01*
X84846822Y-75985413D01*
X84870511Y-76227002D01*
X84932519Y-76461696D01*
X84934575Y-76466313D01*
X84934575Y-76466314D01*
X85027316Y-76674612D01*
X85031254Y-76683456D01*
X85034024Y-76687689D01*
X85036123Y-76691538D01*
X85051500Y-76751858D01*
X85051500Y-76807134D01*
X85058255Y-76869316D01*
X85109385Y-77005705D01*
X85196739Y-77122261D01*
X85313295Y-77209615D01*
X85449684Y-77260745D01*
X85511866Y-77267500D01*
X85576320Y-77267500D01*
X85637791Y-77283512D01*
X85725585Y-77332579D01*
X85725588Y-77332581D01*
X85729998Y-77335045D01*
X85734746Y-77336773D01*
X85734750Y-77336775D01*
X85953348Y-77416339D01*
X85953353Y-77416340D01*
X85958105Y-77418070D01*
X85963074Y-77419018D01*
X85963078Y-77419019D01*
X86191578Y-77462607D01*
X86196553Y-77463556D01*
X86352051Y-77467900D01*
X86434150Y-77470193D01*
X86434153Y-77470193D01*
X86439205Y-77470334D01*
X86444218Y-77469665D01*
X86444220Y-77469665D01*
X86674806Y-77438898D01*
X86679820Y-77438229D01*
X86684661Y-77436767D01*
X86684663Y-77436767D01*
X86907357Y-77369532D01*
X86907361Y-77369530D01*
X86912208Y-77368067D01*
X87080888Y-77285797D01*
X87150881Y-77273912D01*
X87216190Y-77301757D01*
X87225216Y-77309950D01*
X87381145Y-77465879D01*
X87390247Y-77476022D01*
X87413968Y-77505525D01*
X87418696Y-77509492D01*
X87452421Y-77537791D01*
X87456069Y-77540972D01*
X87457881Y-77542615D01*
X87460075Y-77544809D01*
X87493349Y-77572142D01*
X87494147Y-77572804D01*
X87565474Y-77632654D01*
X87570144Y-77635222D01*
X87574261Y-77638603D01*
X87632145Y-77669640D01*
X87656086Y-77682477D01*
X87657245Y-77683106D01*
X87733381Y-77724962D01*
X87733389Y-77724965D01*
X87738787Y-77727933D01*
X87743869Y-77729545D01*
X87748563Y-77732062D01*
X87754454Y-77733863D01*
X87837477Y-77759247D01*
X87838735Y-77759639D01*
X87884792Y-77774249D01*
X87927306Y-77787735D01*
X87932597Y-77788329D01*
X87937698Y-77789888D01*
X88030263Y-77799290D01*
X88031450Y-77799416D01*
X88057121Y-77802296D01*
X88077730Y-77804608D01*
X88077735Y-77804608D01*
X88081227Y-77805000D01*
X88084752Y-77805000D01*
X88085737Y-77805055D01*
X88091432Y-77805503D01*
X88103342Y-77806713D01*
X88128334Y-77809252D01*
X88128339Y-77809252D01*
X88134462Y-77809874D01*
X88180108Y-77805559D01*
X88191967Y-77805000D01*
X88878621Y-77805000D01*
X88944737Y-77823740D01*
X89063090Y-77896694D01*
X89070262Y-77901115D01*
X89150005Y-77927564D01*
X89231611Y-77954632D01*
X89231613Y-77954632D01*
X89238139Y-77956797D01*
X89244975Y-77957497D01*
X89244978Y-77957498D01*
X89288031Y-77961909D01*
X89342600Y-77967500D01*
X90743400Y-77967500D01*
X90746646Y-77967163D01*
X90746650Y-77967163D01*
X90842308Y-77957238D01*
X90842312Y-77957237D01*
X90849166Y-77956526D01*
X90855702Y-77954345D01*
X90855704Y-77954345D01*
X90987806Y-77910272D01*
X91016946Y-77900550D01*
X91167348Y-77807478D01*
X91292305Y-77682303D01*
X91318395Y-77639978D01*
X91381275Y-77537968D01*
X91381276Y-77537966D01*
X91385115Y-77531738D01*
X91412420Y-77449417D01*
X91438632Y-77370389D01*
X91438632Y-77370387D01*
X91440797Y-77363861D01*
X91443750Y-77335045D01*
X91448795Y-77285797D01*
X91451500Y-77259400D01*
X91451500Y-76333600D01*
X91440526Y-76227834D01*
X91423540Y-76176919D01*
X91386868Y-76067002D01*
X91384550Y-76060054D01*
X91338361Y-75985413D01*
X92466822Y-75985413D01*
X92490511Y-76227002D01*
X92552519Y-76461696D01*
X92651254Y-76683456D01*
X92784174Y-76886578D01*
X92839397Y-76947055D01*
X92941870Y-77059278D01*
X92947858Y-77065836D01*
X92992310Y-77101068D01*
X93134129Y-77213473D01*
X93134135Y-77213477D01*
X93138098Y-77216618D01*
X93257791Y-77283512D01*
X93323338Y-77320145D01*
X93349998Y-77335045D01*
X93444749Y-77369532D01*
X93573348Y-77416339D01*
X93573353Y-77416340D01*
X93578105Y-77418070D01*
X93583074Y-77419018D01*
X93583078Y-77419019D01*
X93811578Y-77462607D01*
X93816553Y-77463556D01*
X93972051Y-77467900D01*
X94054150Y-77470193D01*
X94054153Y-77470193D01*
X94059205Y-77470334D01*
X94064218Y-77469665D01*
X94064220Y-77469665D01*
X94294806Y-77438898D01*
X94299820Y-77438229D01*
X94304661Y-77436767D01*
X94304663Y-77436767D01*
X94527357Y-77369532D01*
X94527361Y-77369530D01*
X94532208Y-77368067D01*
X94750388Y-77261654D01*
X94844992Y-77194918D01*
X98349917Y-77194918D01*
X98365682Y-77468320D01*
X98366507Y-77472525D01*
X98366508Y-77472533D01*
X98389379Y-77589106D01*
X98418405Y-77737053D01*
X98419792Y-77741103D01*
X98419793Y-77741108D01*
X98497305Y-77967500D01*
X98507112Y-77996144D01*
X98509039Y-77999975D01*
X98598913Y-78178670D01*
X98630160Y-78240799D01*
X98632586Y-78244328D01*
X98632589Y-78244334D01*
X98734800Y-78393050D01*
X98785274Y-78466490D01*
X98969582Y-78669043D01*
X99179675Y-78844707D01*
X99183316Y-78846991D01*
X99408024Y-78987951D01*
X99408028Y-78987953D01*
X99411664Y-78990234D01*
X99479544Y-79020883D01*
X99657345Y-79101164D01*
X99657349Y-79101166D01*
X99661257Y-79102930D01*
X99665377Y-79104150D01*
X99665376Y-79104150D01*
X99919723Y-79179491D01*
X99919727Y-79179492D01*
X99923836Y-79180709D01*
X99928070Y-79181357D01*
X99928075Y-79181358D01*
X100190298Y-79221483D01*
X100190300Y-79221483D01*
X100194540Y-79222132D01*
X100333912Y-79224322D01*
X100464071Y-79226367D01*
X100464077Y-79226367D01*
X100468362Y-79226434D01*
X100740235Y-79193534D01*
X101005127Y-79124041D01*
X101009087Y-79122401D01*
X101009092Y-79122399D01*
X101131631Y-79071641D01*
X101258136Y-79019241D01*
X101436076Y-78915261D01*
X101490879Y-78883237D01*
X101490880Y-78883236D01*
X101494582Y-78881073D01*
X101710089Y-78712094D01*
X101751809Y-78669043D01*
X101897686Y-78518509D01*
X101900669Y-78515431D01*
X101903202Y-78511983D01*
X101903206Y-78511978D01*
X102060257Y-78298178D01*
X102062795Y-78294723D01*
X102090154Y-78244334D01*
X102191418Y-78057830D01*
X102191419Y-78057828D01*
X102193468Y-78054054D01*
X102263832Y-77867841D01*
X102288751Y-77801895D01*
X102288752Y-77801891D01*
X102290269Y-77797877D01*
X102326081Y-77641514D01*
X102350449Y-77535117D01*
X102350450Y-77535113D01*
X102351407Y-77530933D01*
X102351956Y-77524791D01*
X102375531Y-77260627D01*
X102375531Y-77260625D01*
X102375751Y-77258161D01*
X102376193Y-77216000D01*
X102374465Y-77190648D01*
X102357859Y-76947055D01*
X102357858Y-76947049D01*
X102357567Y-76942778D01*
X102345929Y-76886578D01*
X102310271Y-76714395D01*
X102302032Y-76674612D01*
X102210617Y-76416465D01*
X102085013Y-76173112D01*
X102075040Y-76158921D01*
X101930008Y-75952562D01*
X101927545Y-75949057D01*
X101774811Y-75784695D01*
X101744046Y-75751588D01*
X101744043Y-75751585D01*
X101741125Y-75748445D01*
X101737810Y-75745731D01*
X101737806Y-75745728D01*
X101549695Y-75591761D01*
X101529205Y-75574990D01*
X101295704Y-75431901D01*
X101291768Y-75430173D01*
X101048873Y-75323549D01*
X101048869Y-75323548D01*
X101044945Y-75321825D01*
X100781566Y-75246800D01*
X100777324Y-75246196D01*
X100777318Y-75246195D01*
X100517237Y-75209180D01*
X100510443Y-75208213D01*
X100366589Y-75207460D01*
X100240877Y-75206802D01*
X100240871Y-75206802D01*
X100236591Y-75206780D01*
X100232347Y-75207339D01*
X100232343Y-75207339D01*
X100116569Y-75222581D01*
X99965078Y-75242525D01*
X99960938Y-75243658D01*
X99960936Y-75243658D01*
X99888008Y-75263609D01*
X99700928Y-75314788D01*
X99691302Y-75318894D01*
X99452982Y-75420546D01*
X99452978Y-75420548D01*
X99449030Y-75422232D01*
X99429125Y-75434145D01*
X99217725Y-75560664D01*
X99217721Y-75560667D01*
X99214043Y-75562868D01*
X99000318Y-75734094D01*
X98891540Y-75848722D01*
X98833720Y-75909652D01*
X98811808Y-75932742D01*
X98652002Y-76155136D01*
X98523857Y-76397161D01*
X98522385Y-76401184D01*
X98522383Y-76401188D01*
X98502029Y-76456808D01*
X98429743Y-76654337D01*
X98371404Y-76921907D01*
X98349917Y-77194918D01*
X94844992Y-77194918D01*
X94948747Y-77121726D01*
X94970250Y-77102091D01*
X96640440Y-75431901D01*
X98310937Y-73761405D01*
X98373249Y-73727379D01*
X98400032Y-73724500D01*
X98990173Y-73724500D01*
X99058294Y-73744502D01*
X99070994Y-73753836D01*
X99179675Y-73844707D01*
X99183316Y-73846991D01*
X99408024Y-73987951D01*
X99408028Y-73987953D01*
X99411664Y-73990234D01*
X99479544Y-74020883D01*
X99657345Y-74101164D01*
X99657349Y-74101166D01*
X99661257Y-74102930D01*
X99665377Y-74104150D01*
X99665376Y-74104150D01*
X99919723Y-74179491D01*
X99919727Y-74179492D01*
X99923836Y-74180709D01*
X99928070Y-74181357D01*
X99928075Y-74181358D01*
X100190298Y-74221483D01*
X100190300Y-74221483D01*
X100194540Y-74222132D01*
X100333912Y-74224322D01*
X100464071Y-74226367D01*
X100464077Y-74226367D01*
X100468362Y-74226434D01*
X100740235Y-74193534D01*
X101005127Y-74124041D01*
X101009087Y-74122401D01*
X101009092Y-74122399D01*
X101131631Y-74071641D01*
X101258136Y-74019241D01*
X101494582Y-73881073D01*
X101710089Y-73712094D01*
X101751809Y-73669043D01*
X101897686Y-73518509D01*
X101900669Y-73515431D01*
X101903202Y-73511983D01*
X101903206Y-73511978D01*
X102060257Y-73298178D01*
X102062795Y-73294723D01*
X102064841Y-73290955D01*
X102191418Y-73057830D01*
X102191419Y-73057828D01*
X102193468Y-73054054D01*
X102247913Y-72909969D01*
X102288751Y-72801895D01*
X102288752Y-72801891D01*
X102290269Y-72797877D01*
X102335992Y-72598239D01*
X102350449Y-72535117D01*
X102350450Y-72535113D01*
X102351407Y-72530933D01*
X102353197Y-72510885D01*
X102375531Y-72260627D01*
X102375531Y-72260625D01*
X102375751Y-72258161D01*
X102376193Y-72216000D01*
X102357567Y-71942778D01*
X102302032Y-71674612D01*
X102210617Y-71416465D01*
X102085013Y-71173112D01*
X102072380Y-71155136D01*
X101999185Y-71050991D01*
X101927545Y-70949057D01*
X101797539Y-70809154D01*
X101744046Y-70751588D01*
X101744043Y-70751585D01*
X101741125Y-70748445D01*
X101737810Y-70745731D01*
X101737806Y-70745728D01*
X101532523Y-70577706D01*
X101529205Y-70574990D01*
X101295704Y-70431901D01*
X101291768Y-70430173D01*
X101048873Y-70323549D01*
X101048869Y-70323548D01*
X101044945Y-70321825D01*
X100781566Y-70246800D01*
X100777324Y-70246196D01*
X100777318Y-70246195D01*
X100568670Y-70216500D01*
X100510443Y-70208213D01*
X100366589Y-70207460D01*
X100240877Y-70206802D01*
X100240871Y-70206802D01*
X100236591Y-70206780D01*
X100232347Y-70207339D01*
X100232343Y-70207339D01*
X100113302Y-70223011D01*
X99965078Y-70242525D01*
X99960938Y-70243658D01*
X99960936Y-70243658D01*
X99888008Y-70263609D01*
X99700928Y-70314788D01*
X99696980Y-70316472D01*
X99452982Y-70420546D01*
X99452978Y-70420548D01*
X99449030Y-70422232D01*
X99429125Y-70434145D01*
X99217725Y-70560664D01*
X99217721Y-70560667D01*
X99214043Y-70562868D01*
X99210700Y-70565546D01*
X99210696Y-70565549D01*
X99068046Y-70679834D01*
X99002376Y-70706816D01*
X98989265Y-70707500D01*
X97747002Y-70707500D01*
X97743483Y-70707451D01*
X97648850Y-70704807D01*
X97648847Y-70704807D01*
X97643795Y-70704666D01*
X97565902Y-70715059D01*
X97559361Y-70715758D01*
X97530668Y-70718067D01*
X97486077Y-70721654D01*
X97486073Y-70721655D01*
X97481035Y-70722060D01*
X97449122Y-70729899D01*
X97435742Y-70732426D01*
X97403180Y-70736771D01*
X97398339Y-70738232D01*
X97398337Y-70738233D01*
X97327971Y-70759478D01*
X97321610Y-70761219D01*
X97245294Y-70779963D01*
X97240634Y-70781941D01*
X97215049Y-70792801D01*
X97202239Y-70797438D01*
X97170792Y-70806933D01*
X97166244Y-70809151D01*
X97166237Y-70809154D01*
X97100182Y-70841371D01*
X97094180Y-70844107D01*
X97049496Y-70863075D01*
X97021844Y-70874812D01*
X96997532Y-70890123D01*
X96994044Y-70892319D01*
X96982140Y-70898945D01*
X96952612Y-70913346D01*
X96906442Y-70945916D01*
X96888403Y-70958641D01*
X96882914Y-70962301D01*
X96820714Y-71001471D01*
X96816433Y-71004167D01*
X96812644Y-71007508D01*
X96812638Y-71007512D01*
X96791783Y-71025898D01*
X96781088Y-71034344D01*
X96754253Y-71053274D01*
X96732750Y-71072909D01*
X96693034Y-71112625D01*
X96687264Y-71118044D01*
X96638142Y-71161350D01*
X96638139Y-71161353D01*
X96634345Y-71164698D01*
X96631135Y-71168606D01*
X96631134Y-71168607D01*
X96607821Y-71196989D01*
X96599551Y-71206108D01*
X92870195Y-74935464D01*
X92868569Y-74937374D01*
X92868563Y-74937381D01*
X92798873Y-75019267D01*
X92752530Y-75073720D01*
X92626779Y-75281358D01*
X92535845Y-75506429D01*
X92532573Y-75520832D01*
X92493711Y-75691885D01*
X92482065Y-75743144D01*
X92481747Y-75748191D01*
X92481747Y-75748194D01*
X92473942Y-75872253D01*
X92466822Y-75985413D01*
X91338361Y-75985413D01*
X91291478Y-75909652D01*
X91272806Y-75891012D01*
X91171483Y-75789866D01*
X91166303Y-75784695D01*
X91090896Y-75738213D01*
X91021968Y-75695725D01*
X91021966Y-75695724D01*
X91015738Y-75691885D01*
X90896739Y-75652415D01*
X90854389Y-75638368D01*
X90854387Y-75638368D01*
X90847861Y-75636203D01*
X90841025Y-75635503D01*
X90841022Y-75635502D01*
X90797969Y-75631091D01*
X90743400Y-75625500D01*
X89342600Y-75625500D01*
X89339354Y-75625837D01*
X89339350Y-75625837D01*
X89243692Y-75635762D01*
X89243688Y-75635763D01*
X89236834Y-75636474D01*
X89230298Y-75638655D01*
X89230296Y-75638655D01*
X89088345Y-75686014D01*
X89017396Y-75688598D01*
X88956312Y-75652415D01*
X88924487Y-75588950D01*
X88932026Y-75518355D01*
X88952512Y-75484831D01*
X88984470Y-75447280D01*
X88987090Y-75442954D01*
X88987095Y-75442947D01*
X89001491Y-75419176D01*
X89009163Y-75407929D01*
X89029120Y-75381826D01*
X89066247Y-75312584D01*
X89069510Y-75306863D01*
X89107602Y-75243966D01*
X89107603Y-75243965D01*
X89110220Y-75239643D01*
X89122534Y-75209166D01*
X89128303Y-75196850D01*
X89143831Y-75167891D01*
X89169423Y-75093567D01*
X89171718Y-75087429D01*
X89175510Y-75078045D01*
X89201155Y-75014571D01*
X89208432Y-74982539D01*
X89212163Y-74969441D01*
X89222862Y-74938369D01*
X89236243Y-74860900D01*
X89237526Y-74854482D01*
X89253815Y-74782786D01*
X89253815Y-74782785D01*
X89254935Y-74777856D01*
X89256999Y-74745047D01*
X89258585Y-74731547D01*
X89264179Y-74699164D01*
X89265500Y-74670075D01*
X89265500Y-74613893D01*
X89265749Y-74605981D01*
X89269860Y-74540642D01*
X89270178Y-74535588D01*
X89266101Y-74494009D01*
X89265500Y-74481713D01*
X89265500Y-67588016D01*
X89265549Y-67584498D01*
X89268193Y-67489850D01*
X89268193Y-67489847D01*
X89268334Y-67484795D01*
X89257941Y-67406902D01*
X89257241Y-67400353D01*
X89251346Y-67327077D01*
X89251345Y-67327073D01*
X89250940Y-67322035D01*
X89243101Y-67290122D01*
X89240573Y-67276738D01*
X89238424Y-67260627D01*
X89236229Y-67244180D01*
X89221356Y-67194918D01*
X98349917Y-67194918D01*
X98365682Y-67468320D01*
X98366507Y-67472525D01*
X98366508Y-67472533D01*
X98368914Y-67484795D01*
X98418405Y-67737053D01*
X98419792Y-67741103D01*
X98419793Y-67741108D01*
X98440605Y-67801895D01*
X98507112Y-67996144D01*
X98630160Y-68240799D01*
X98632586Y-68244328D01*
X98632589Y-68244334D01*
X98670297Y-68299199D01*
X98785274Y-68466490D01*
X98969582Y-68669043D01*
X99179675Y-68844707D01*
X99183316Y-68846991D01*
X99408024Y-68987951D01*
X99408028Y-68987953D01*
X99411664Y-68990234D01*
X99479544Y-69020883D01*
X99657345Y-69101164D01*
X99657349Y-69101166D01*
X99661257Y-69102930D01*
X99665377Y-69104150D01*
X99665376Y-69104150D01*
X99919723Y-69179491D01*
X99919727Y-69179492D01*
X99923836Y-69180709D01*
X99928070Y-69181357D01*
X99928075Y-69181358D01*
X100190298Y-69221483D01*
X100190300Y-69221483D01*
X100194540Y-69222132D01*
X100333912Y-69224322D01*
X100464071Y-69226367D01*
X100464077Y-69226367D01*
X100468362Y-69226434D01*
X100740235Y-69193534D01*
X101005127Y-69124041D01*
X101009087Y-69122401D01*
X101009092Y-69122399D01*
X101131631Y-69071641D01*
X101258136Y-69019241D01*
X101494582Y-68881073D01*
X101710089Y-68712094D01*
X101751809Y-68669043D01*
X101897686Y-68518509D01*
X101900669Y-68515431D01*
X101903202Y-68511983D01*
X101903206Y-68511978D01*
X102060257Y-68298178D01*
X102062795Y-68294723D01*
X102090154Y-68244334D01*
X102191418Y-68057830D01*
X102191419Y-68057828D01*
X102193468Y-68054054D01*
X102290269Y-67797877D01*
X102338333Y-67588016D01*
X102350449Y-67535117D01*
X102350450Y-67535113D01*
X102351407Y-67530933D01*
X102362476Y-67406914D01*
X102375531Y-67260627D01*
X102375531Y-67260625D01*
X102375751Y-67258161D01*
X102376193Y-67216000D01*
X102364861Y-67049768D01*
X102357859Y-66947055D01*
X102357858Y-66947049D01*
X102357567Y-66942778D01*
X102302032Y-66674612D01*
X102210617Y-66416465D01*
X102085013Y-66173112D01*
X102075040Y-66158921D01*
X101987405Y-66034229D01*
X101927545Y-65949057D01*
X101741125Y-65748445D01*
X101737810Y-65745731D01*
X101737806Y-65745728D01*
X101532523Y-65577706D01*
X101529205Y-65574990D01*
X101295704Y-65431901D01*
X101291768Y-65430173D01*
X101048873Y-65323549D01*
X101048869Y-65323548D01*
X101044945Y-65321825D01*
X100781566Y-65246800D01*
X100777324Y-65246196D01*
X100777318Y-65246195D01*
X100576834Y-65217662D01*
X100510443Y-65208213D01*
X100366589Y-65207460D01*
X100240877Y-65206802D01*
X100240871Y-65206802D01*
X100236591Y-65206780D01*
X100232347Y-65207339D01*
X100232343Y-65207339D01*
X100113302Y-65223011D01*
X99965078Y-65242525D01*
X99960938Y-65243658D01*
X99960936Y-65243658D01*
X99888008Y-65263609D01*
X99700928Y-65314788D01*
X99696980Y-65316472D01*
X99452982Y-65420546D01*
X99452978Y-65420548D01*
X99449030Y-65422232D01*
X99429125Y-65434145D01*
X99217725Y-65560664D01*
X99217721Y-65560667D01*
X99214043Y-65562868D01*
X99000318Y-65734094D01*
X98811808Y-65932742D01*
X98652002Y-66155136D01*
X98523857Y-66397161D01*
X98522385Y-66401184D01*
X98522383Y-66401188D01*
X98439501Y-66627672D01*
X98429743Y-66654337D01*
X98371404Y-66921907D01*
X98349917Y-67194918D01*
X89221356Y-67194918D01*
X89213522Y-67168971D01*
X89211781Y-67162608D01*
X89194244Y-67091209D01*
X89193037Y-67086294D01*
X89180199Y-67056048D01*
X89175561Y-67043237D01*
X89167530Y-67016638D01*
X89166067Y-67011792D01*
X89163849Y-67007244D01*
X89163846Y-67007237D01*
X89131629Y-66941182D01*
X89128893Y-66935180D01*
X89100162Y-66867495D01*
X89098188Y-66862844D01*
X89080681Y-66835044D01*
X89074052Y-66823134D01*
X89059654Y-66793612D01*
X89014357Y-66729400D01*
X89010699Y-66723914D01*
X88971529Y-66661714D01*
X88971528Y-66661713D01*
X88968833Y-66657433D01*
X88965492Y-66653644D01*
X88965488Y-66653638D01*
X88947102Y-66632783D01*
X88938656Y-66622088D01*
X88922009Y-66598490D01*
X88919726Y-66595253D01*
X88900091Y-66573750D01*
X88860375Y-66534034D01*
X88854956Y-66528264D01*
X88811650Y-66479142D01*
X88811647Y-66479139D01*
X88808302Y-66475345D01*
X88776011Y-66448821D01*
X88766892Y-66440551D01*
X86327405Y-64001064D01*
X86293379Y-63938752D01*
X86290500Y-63911969D01*
X86290500Y-63140866D01*
X86283745Y-63078684D01*
X86232615Y-62942295D01*
X86145261Y-62825739D01*
X86028705Y-62738385D01*
X85892316Y-62687255D01*
X85830134Y-62680500D01*
X83333866Y-62680500D01*
X83271684Y-62687255D01*
X83135295Y-62738385D01*
X83018739Y-62825739D01*
X83013358Y-62832919D01*
X83007008Y-62839269D01*
X83005373Y-62837634D01*
X82958641Y-62872579D01*
X82914671Y-62880500D01*
X70931016Y-62880500D01*
X70927498Y-62880451D01*
X70832850Y-62877807D01*
X70832847Y-62877807D01*
X70827795Y-62877666D01*
X70749902Y-62888059D01*
X70743361Y-62888758D01*
X70714668Y-62891067D01*
X70670077Y-62894654D01*
X70670073Y-62894655D01*
X70665035Y-62895060D01*
X70633122Y-62902899D01*
X70619742Y-62905426D01*
X70587180Y-62909771D01*
X70582339Y-62911232D01*
X70582337Y-62911233D01*
X70511971Y-62932478D01*
X70505610Y-62934219D01*
X70429294Y-62952963D01*
X70424634Y-62954941D01*
X70399049Y-62965801D01*
X70386239Y-62970438D01*
X70354792Y-62979933D01*
X70350244Y-62982151D01*
X70350237Y-62982154D01*
X70284182Y-63014371D01*
X70278180Y-63017107D01*
X70236946Y-63034610D01*
X70205844Y-63047812D01*
X70181532Y-63063123D01*
X70178044Y-63065319D01*
X70166140Y-63071945D01*
X70136612Y-63086346D01*
X70132475Y-63089265D01*
X70132474Y-63089265D01*
X70072403Y-63131641D01*
X70066914Y-63135301D01*
X70004714Y-63174471D01*
X70000433Y-63177167D01*
X69996644Y-63180508D01*
X69996638Y-63180512D01*
X69975783Y-63198898D01*
X69965088Y-63207344D01*
X69938253Y-63226274D01*
X69916750Y-63245909D01*
X69877034Y-63285625D01*
X69871264Y-63291044D01*
X69822142Y-63334350D01*
X69822139Y-63334353D01*
X69818345Y-63337698D01*
X69815135Y-63341606D01*
X69815134Y-63341607D01*
X69791821Y-63369989D01*
X69783551Y-63379108D01*
X60746564Y-72416095D01*
X60684252Y-72450121D01*
X60657469Y-72453000D01*
X60333866Y-72453000D01*
X60271684Y-72459755D01*
X60135295Y-72510885D01*
X60018739Y-72598239D01*
X59931385Y-72714795D01*
X59880255Y-72851184D01*
X59873500Y-72913366D01*
X59873500Y-73862108D01*
X59873251Y-73870019D01*
X59868822Y-73940413D01*
X50508500Y-73940413D01*
X50508500Y-60762359D01*
X83573386Y-60762359D01*
X83582099Y-60773879D01*
X83670586Y-60838760D01*
X83678505Y-60843708D01*
X83894877Y-60957547D01*
X83903451Y-60961275D01*
X84134282Y-61041885D01*
X84143291Y-61044299D01*
X84383518Y-61089908D01*
X84392775Y-61090962D01*
X84637107Y-61100563D01*
X84646420Y-61100237D01*
X84889478Y-61073618D01*
X84898655Y-61071917D01*
X85135107Y-61009665D01*
X85143926Y-61006628D01*
X85368584Y-60910107D01*
X85376856Y-60905800D01*
X85584777Y-60777135D01*
X85586620Y-60775796D01*
X85594038Y-60764541D01*
X85587974Y-60754184D01*
X84594812Y-59761022D01*
X84580868Y-59753408D01*
X84579035Y-59753539D01*
X84572420Y-59757790D01*
X83580044Y-60750166D01*
X83573386Y-60762359D01*
X50508500Y-60762359D01*
X50508500Y-59348835D01*
X82870022Y-59348835D01*
X82881754Y-59593064D01*
X82882891Y-59602324D01*
X82930593Y-59842143D01*
X82933082Y-59851118D01*
X83015708Y-60081250D01*
X83019505Y-60089778D01*
X83135234Y-60305160D01*
X83140245Y-60313027D01*
X83197173Y-60389263D01*
X83208431Y-60397712D01*
X83220850Y-60390940D01*
X84209978Y-59401812D01*
X84216356Y-59390132D01*
X84946408Y-59390132D01*
X84946539Y-59391965D01*
X84950790Y-59398580D01*
X85945732Y-60393522D01*
X85958112Y-60400282D01*
X85966453Y-60394038D01*
X86084700Y-60210202D01*
X86089147Y-60202011D01*
X86189572Y-59979076D01*
X86192767Y-59970298D01*
X86259135Y-59734973D01*
X86260993Y-59725844D01*
X86292044Y-59481770D01*
X86292525Y-59475483D01*
X86294706Y-59392160D01*
X86294555Y-59385851D01*
X86276321Y-59140486D01*
X86274944Y-59131280D01*
X86220979Y-58892786D01*
X86218255Y-58883875D01*
X86129633Y-58655983D01*
X86125619Y-58647567D01*
X86004284Y-58435276D01*
X85999074Y-58427553D01*
X85967787Y-58387865D01*
X85955863Y-58379395D01*
X85944328Y-58385882D01*
X84954022Y-59376188D01*
X84946408Y-59390132D01*
X84216356Y-59390132D01*
X84217592Y-59387868D01*
X84217461Y-59386035D01*
X84213210Y-59379420D01*
X83218828Y-58385038D01*
X83205520Y-58377771D01*
X83195481Y-58384893D01*
X83190581Y-58390784D01*
X83185168Y-58398373D01*
X83058322Y-58607409D01*
X83054084Y-58615726D01*
X82959529Y-58841214D01*
X82956572Y-58850052D01*
X82896384Y-59087042D01*
X82894763Y-59096232D01*
X82870267Y-59339510D01*
X82870022Y-59348835D01*
X50508500Y-59348835D01*
X50508500Y-58508669D01*
X68155001Y-58508669D01*
X68155371Y-58515490D01*
X68160895Y-58566352D01*
X68164521Y-58581604D01*
X68209676Y-58702054D01*
X68218214Y-58717649D01*
X68294715Y-58819724D01*
X68307276Y-58832285D01*
X68409351Y-58908786D01*
X68424946Y-58917324D01*
X68545394Y-58962478D01*
X68560649Y-58966105D01*
X68611514Y-58971631D01*
X68618328Y-58972000D01*
X68815885Y-58972000D01*
X68831124Y-58967525D01*
X68832329Y-58966135D01*
X68834000Y-58958452D01*
X68834000Y-58953884D01*
X69342000Y-58953884D01*
X69346475Y-58969123D01*
X69347865Y-58970328D01*
X69355548Y-58971999D01*
X69557669Y-58971999D01*
X69564490Y-58971629D01*
X69615352Y-58966105D01*
X69630604Y-58962479D01*
X69751054Y-58917324D01*
X69766649Y-58908786D01*
X69868724Y-58832285D01*
X69881285Y-58819724D01*
X69957786Y-58717649D01*
X69966324Y-58702054D01*
X70011478Y-58581606D01*
X70015105Y-58566351D01*
X70020631Y-58515486D01*
X70021000Y-58508672D01*
X70021000Y-58311115D01*
X70016525Y-58295876D01*
X70015135Y-58294671D01*
X70007452Y-58293000D01*
X69360115Y-58293000D01*
X69344876Y-58297475D01*
X69343671Y-58298865D01*
X69342000Y-58306548D01*
X69342000Y-58953884D01*
X68834000Y-58953884D01*
X68834000Y-58311115D01*
X68829525Y-58295876D01*
X68828135Y-58294671D01*
X68820452Y-58293000D01*
X68173116Y-58293000D01*
X68157877Y-58297475D01*
X68156672Y-58298865D01*
X68155001Y-58306548D01*
X68155001Y-58508669D01*
X50508500Y-58508669D01*
X50508500Y-58013917D01*
X83571330Y-58013917D01*
X83575903Y-58023693D01*
X84569188Y-59016978D01*
X84583132Y-59024592D01*
X84584965Y-59024461D01*
X84591580Y-59020210D01*
X85584488Y-58027302D01*
X85590872Y-58015612D01*
X85581460Y-58003502D01*
X85455144Y-57915873D01*
X85447116Y-57911145D01*
X85227810Y-57802995D01*
X85219177Y-57799507D01*
X84986288Y-57724958D01*
X84977238Y-57722785D01*
X84735891Y-57683480D01*
X84726602Y-57682668D01*
X84482114Y-57679467D01*
X84472803Y-57680037D01*
X84230522Y-57713010D01*
X84221403Y-57714948D01*
X83986668Y-57783367D01*
X83977915Y-57786639D01*
X83755869Y-57889004D01*
X83747714Y-57893524D01*
X83580468Y-58003175D01*
X83571330Y-58013917D01*
X50508500Y-58013917D01*
X50508500Y-57766885D01*
X68155000Y-57766885D01*
X68159475Y-57782124D01*
X68160865Y-57783329D01*
X68168548Y-57785000D01*
X68815885Y-57785000D01*
X68831124Y-57780525D01*
X68832329Y-57779135D01*
X68834000Y-57771452D01*
X68834000Y-57766885D01*
X69342000Y-57766885D01*
X69346475Y-57782124D01*
X69347865Y-57783329D01*
X69355548Y-57785000D01*
X70002884Y-57785000D01*
X70018123Y-57780525D01*
X70019328Y-57779135D01*
X70020999Y-57771452D01*
X70020999Y-57569331D01*
X70020629Y-57562510D01*
X70015105Y-57511648D01*
X70011479Y-57496396D01*
X69966324Y-57375946D01*
X69957786Y-57360351D01*
X69881285Y-57258276D01*
X69868724Y-57245715D01*
X69766649Y-57169214D01*
X69751054Y-57160676D01*
X69630606Y-57115522D01*
X69615351Y-57111895D01*
X69564486Y-57106369D01*
X69557672Y-57106000D01*
X69360115Y-57106000D01*
X69344876Y-57110475D01*
X69343671Y-57111865D01*
X69342000Y-57119548D01*
X69342000Y-57766885D01*
X68834000Y-57766885D01*
X68834000Y-57124116D01*
X68829525Y-57108877D01*
X68828135Y-57107672D01*
X68820452Y-57106001D01*
X68618331Y-57106001D01*
X68611510Y-57106371D01*
X68560648Y-57111895D01*
X68545396Y-57115521D01*
X68424946Y-57160676D01*
X68409351Y-57169214D01*
X68307276Y-57245715D01*
X68294715Y-57258276D01*
X68218214Y-57360351D01*
X68209676Y-57375946D01*
X68164522Y-57496394D01*
X68160895Y-57511649D01*
X68155369Y-57562514D01*
X68155000Y-57569328D01*
X68155000Y-57766885D01*
X50508500Y-57766885D01*
X50508500Y-55516381D01*
X50849160Y-55516381D01*
X50849237Y-55517470D01*
X50851698Y-55521206D01*
X51125632Y-55731404D01*
X51131262Y-55735259D01*
X51431591Y-55917862D01*
X51437593Y-55921080D01*
X51755897Y-56070184D01*
X51762202Y-56072732D01*
X52094743Y-56186587D01*
X52101313Y-56188446D01*
X52444183Y-56265714D01*
X52450912Y-56266853D01*
X52800143Y-56306643D01*
X52806933Y-56307046D01*
X53158419Y-56308886D01*
X53165220Y-56308554D01*
X53514853Y-56272423D01*
X53521581Y-56271357D01*
X53865274Y-56197676D01*
X53871822Y-56195897D01*
X54205549Y-56085527D01*
X54211891Y-56083041D01*
X54531718Y-55937288D01*
X54537777Y-55934121D01*
X54839995Y-55754676D01*
X54845659Y-55750884D01*
X55126732Y-55539849D01*
X55131958Y-55535464D01*
X55141613Y-55526428D01*
X55147540Y-55516381D01*
X143849160Y-55516381D01*
X143849237Y-55517470D01*
X143851698Y-55521206D01*
X144125632Y-55731404D01*
X144131262Y-55735259D01*
X144431591Y-55917862D01*
X144437593Y-55921080D01*
X144755897Y-56070184D01*
X144762202Y-56072732D01*
X145094743Y-56186587D01*
X145101313Y-56188446D01*
X145444183Y-56265714D01*
X145450912Y-56266853D01*
X145800143Y-56306643D01*
X145806933Y-56307046D01*
X146158419Y-56308886D01*
X146165220Y-56308554D01*
X146514853Y-56272423D01*
X146521581Y-56271357D01*
X146865274Y-56197676D01*
X146871822Y-56195897D01*
X147205549Y-56085527D01*
X147211891Y-56083041D01*
X147531718Y-55937288D01*
X147537777Y-55934121D01*
X147839995Y-55754676D01*
X147845659Y-55750884D01*
X148126732Y-55539849D01*
X148131958Y-55535464D01*
X148141613Y-55526428D01*
X148149682Y-55512750D01*
X148149654Y-55512024D01*
X148144512Y-55503723D01*
X146012810Y-53372020D01*
X145998869Y-53364408D01*
X145997034Y-53364539D01*
X145990420Y-53368790D01*
X143856774Y-55502437D01*
X143849160Y-55516381D01*
X55147540Y-55516381D01*
X55149682Y-55512750D01*
X55149654Y-55512024D01*
X55144512Y-55503723D01*
X53012810Y-53372020D01*
X52998869Y-53364408D01*
X52997034Y-53364539D01*
X52990420Y-53368790D01*
X50856774Y-55502437D01*
X50849160Y-55516381D01*
X50508500Y-55516381D01*
X50508500Y-55184479D01*
X50528502Y-55116358D01*
X50545405Y-55095384D01*
X52639659Y-53001131D01*
X53364408Y-53001131D01*
X53364539Y-53002966D01*
X53368790Y-53009580D01*
X55499009Y-55139798D01*
X55512605Y-55147223D01*
X55522218Y-55140522D01*
X55622518Y-55023912D01*
X55626676Y-55018514D01*
X55825762Y-54728840D01*
X55829310Y-54723029D01*
X55995942Y-54413559D01*
X55998849Y-54407381D01*
X56131090Y-54081713D01*
X56133304Y-54075283D01*
X56229598Y-53737237D01*
X56231105Y-53730607D01*
X56290332Y-53384118D01*
X56291112Y-53377378D01*
X56312668Y-53024925D01*
X56312784Y-53021323D01*
X56312853Y-53001819D01*
X56312761Y-52998194D01*
X56312416Y-52991832D01*
X142687333Y-52991832D01*
X142705117Y-53342893D01*
X142705827Y-53349649D01*
X142761420Y-53696723D01*
X142762859Y-53703378D01*
X142855608Y-54042410D01*
X142857757Y-54048871D01*
X142986581Y-54375912D01*
X142989412Y-54382095D01*
X143152803Y-54693310D01*
X143156286Y-54699152D01*
X143352330Y-54990896D01*
X143356433Y-54996340D01*
X143476425Y-55138836D01*
X143489164Y-55147279D01*
X143499608Y-55141181D01*
X145627980Y-53012810D01*
X145635592Y-52998869D01*
X145635461Y-52997034D01*
X145631210Y-52990420D01*
X143500992Y-50860203D01*
X143487455Y-50852811D01*
X143477753Y-50859599D01*
X143370430Y-50985257D01*
X143366296Y-50990664D01*
X143168215Y-51281041D01*
X143164697Y-51286851D01*
X142999134Y-51596922D01*
X142996259Y-51603087D01*
X142865155Y-51929218D01*
X142862962Y-51935658D01*
X142767846Y-52274044D01*
X142766363Y-52280679D01*
X142708350Y-52627354D01*
X142707591Y-52634126D01*
X142687357Y-52985037D01*
X142687333Y-52991832D01*
X56312416Y-52991832D01*
X56293666Y-52645615D01*
X56292931Y-52638849D01*
X56236130Y-52291985D01*
X56234663Y-52285313D01*
X56140736Y-51946627D01*
X56138562Y-51940163D01*
X56008598Y-51613578D01*
X56005742Y-51607398D01*
X55841269Y-51296763D01*
X55837769Y-51290937D01*
X55640697Y-50999862D01*
X55636590Y-50994453D01*
X55523565Y-50861179D01*
X55510740Y-50852743D01*
X55500416Y-50858795D01*
X53372020Y-52987190D01*
X53364408Y-53001131D01*
X52639659Y-53001131D01*
X53000000Y-52640790D01*
X55095384Y-50545405D01*
X55157696Y-50511379D01*
X55184479Y-50508500D01*
X143815521Y-50508500D01*
X143883642Y-50528502D01*
G37*
%TD.AperFunction*%
M02*
