%FSLAX45Y45*%
G04 Gerber Fmt 4.5, Leading zero omitted, Abs format (unit mm)*
G04 Created by KiCad (PCBNEW (6.0.4-0)) date 2022-09-08 11:41:53*
%MOMM*%
%LPD*%
G01*
G04 APERTURE LIST*
%TA.AperFunction,Profile*%
%ADD10C,0.100000*%
%TD*%
%ADD11C,0.200000*%
%ADD12C,0.350000*%
G04 APERTURE END LIST*
D10*
X5000000Y-14900000D02*
X5000000Y-5000000D01*
X14900000Y-14900000D02*
X5000000Y-14900000D01*
X14900000Y-10000000D02*
X14900000Y-14900000D01*
X13900000Y-10000000D02*
X14900000Y-10000000D01*
X13900000Y-10000000D02*
X13900000Y-8500000D01*
X13900000Y-8500000D02*
X14900000Y-8500000D01*
X14900000Y-5000000D02*
X14900000Y-8500000D01*
X5000000Y-5000000D02*
X14900000Y-5000000D01*
D11*
D12*
X7629200Y-7470400D02*
X7979200Y-7820400D01*
X7979200Y-7470400D02*
X7629200Y-7820400D01*
X9479300Y-10429500D02*
X9829300Y-10779500D01*
X9829300Y-10429500D02*
X9479300Y-10779500D01*
D11*
X5252619Y-15215476D02*
X5252619Y-15015476D01*
X5300238Y-15015476D01*
X5328810Y-15025000D01*
X5347857Y-15044048D01*
X5357381Y-15063095D01*
X5366905Y-15101190D01*
X5366905Y-15129762D01*
X5357381Y-15167857D01*
X5347857Y-15186905D01*
X5328810Y-15205952D01*
X5300238Y-15215476D01*
X5252619Y-15215476D01*
X5452619Y-15215476D02*
X5452619Y-15082143D01*
X5452619Y-15120238D02*
X5462143Y-15101190D01*
X5471667Y-15091667D01*
X5490714Y-15082143D01*
X5509762Y-15082143D01*
X5576429Y-15215476D02*
X5576429Y-15082143D01*
X5576429Y-15015476D02*
X5566905Y-15025000D01*
X5576429Y-15034524D01*
X5585952Y-15025000D01*
X5576429Y-15015476D01*
X5576429Y-15034524D01*
X5700238Y-15215476D02*
X5681190Y-15205952D01*
X5671667Y-15186905D01*
X5671667Y-15015476D01*
X5805000Y-15215476D02*
X5785952Y-15205952D01*
X5776428Y-15186905D01*
X5776428Y-15015476D01*
X6033571Y-15215476D02*
X6033571Y-15015476D01*
X6100238Y-15158333D01*
X6166905Y-15015476D01*
X6166905Y-15215476D01*
X6347857Y-15215476D02*
X6347857Y-15110714D01*
X6338333Y-15091667D01*
X6319286Y-15082143D01*
X6281190Y-15082143D01*
X6262143Y-15091667D01*
X6347857Y-15205952D02*
X6328809Y-15215476D01*
X6281190Y-15215476D01*
X6262143Y-15205952D01*
X6252619Y-15186905D01*
X6252619Y-15167857D01*
X6262143Y-15148809D01*
X6281190Y-15139286D01*
X6328809Y-15139286D01*
X6347857Y-15129762D01*
X6443095Y-15082143D02*
X6443095Y-15282143D01*
X6443095Y-15091667D02*
X6462143Y-15082143D01*
X6500238Y-15082143D01*
X6519286Y-15091667D01*
X6528809Y-15101190D01*
X6538333Y-15120238D01*
X6538333Y-15177381D01*
X6528809Y-15196428D01*
X6519286Y-15205952D01*
X6500238Y-15215476D01*
X6462143Y-15215476D01*
X6443095Y-15205952D01*
X6624048Y-15196428D02*
X6633571Y-15205952D01*
X6624048Y-15215476D01*
X6614524Y-15205952D01*
X6624048Y-15196428D01*
X6624048Y-15215476D01*
X6624048Y-15091667D02*
X6633571Y-15101190D01*
X6624048Y-15110714D01*
X6614524Y-15101190D01*
X6624048Y-15091667D01*
X6624048Y-15110714D01*
X4795000Y-15445000D02*
X4995000Y-15645000D01*
X4995000Y-15445000D02*
X4795000Y-15645000D01*
X5233571Y-15435476D02*
X5357381Y-15435476D01*
X5290714Y-15511667D01*
X5319286Y-15511667D01*
X5338333Y-15521190D01*
X5347857Y-15530714D01*
X5357381Y-15549762D01*
X5357381Y-15597381D01*
X5347857Y-15616428D01*
X5338333Y-15625952D01*
X5319286Y-15635476D01*
X5262143Y-15635476D01*
X5243095Y-15625952D01*
X5233571Y-15616428D01*
X5443095Y-15616428D02*
X5452619Y-15625952D01*
X5443095Y-15635476D01*
X5433571Y-15625952D01*
X5443095Y-15616428D01*
X5443095Y-15635476D01*
X5633571Y-15435476D02*
X5538333Y-15435476D01*
X5528810Y-15530714D01*
X5538333Y-15521190D01*
X5557381Y-15511667D01*
X5605000Y-15511667D01*
X5624048Y-15521190D01*
X5633571Y-15530714D01*
X5643095Y-15549762D01*
X5643095Y-15597381D01*
X5633571Y-15616428D01*
X5624048Y-15625952D01*
X5605000Y-15635476D01*
X5557381Y-15635476D01*
X5538333Y-15625952D01*
X5528810Y-15616428D01*
X5766905Y-15435476D02*
X5785952Y-15435476D01*
X5805000Y-15445000D01*
X5814524Y-15454524D01*
X5824048Y-15473571D01*
X5833571Y-15511667D01*
X5833571Y-15559286D01*
X5824048Y-15597381D01*
X5814524Y-15616428D01*
X5805000Y-15625952D01*
X5785952Y-15635476D01*
X5766905Y-15635476D01*
X5747857Y-15625952D01*
X5738333Y-15616428D01*
X5728809Y-15597381D01*
X5719286Y-15559286D01*
X5719286Y-15511667D01*
X5728809Y-15473571D01*
X5738333Y-15454524D01*
X5747857Y-15445000D01*
X5766905Y-15435476D01*
X5957381Y-15435476D02*
X5976428Y-15435476D01*
X5995476Y-15445000D01*
X6005000Y-15454524D01*
X6014524Y-15473571D01*
X6024048Y-15511667D01*
X6024048Y-15559286D01*
X6014524Y-15597381D01*
X6005000Y-15616428D01*
X5995476Y-15625952D01*
X5976428Y-15635476D01*
X5957381Y-15635476D01*
X5938333Y-15625952D01*
X5928809Y-15616428D01*
X5919286Y-15597381D01*
X5909762Y-15559286D01*
X5909762Y-15511667D01*
X5919286Y-15473571D01*
X5928809Y-15454524D01*
X5938333Y-15445000D01*
X5957381Y-15435476D01*
X6109762Y-15635476D02*
X6109762Y-15502143D01*
X6109762Y-15521190D02*
X6119286Y-15511667D01*
X6138333Y-15502143D01*
X6166905Y-15502143D01*
X6185952Y-15511667D01*
X6195476Y-15530714D01*
X6195476Y-15635476D01*
X6195476Y-15530714D02*
X6205000Y-15511667D01*
X6224048Y-15502143D01*
X6252619Y-15502143D01*
X6271667Y-15511667D01*
X6281190Y-15530714D01*
X6281190Y-15635476D01*
X6376428Y-15635476D02*
X6376428Y-15502143D01*
X6376428Y-15521190D02*
X6385952Y-15511667D01*
X6405000Y-15502143D01*
X6433571Y-15502143D01*
X6452619Y-15511667D01*
X6462143Y-15530714D01*
X6462143Y-15635476D01*
X6462143Y-15530714D02*
X6471667Y-15511667D01*
X6490714Y-15502143D01*
X6519286Y-15502143D01*
X6538333Y-15511667D01*
X6547857Y-15530714D01*
X6547857Y-15635476D01*
X6938333Y-15425952D02*
X6766905Y-15683095D01*
X7195476Y-15435476D02*
X7214524Y-15435476D01*
X7233571Y-15445000D01*
X7243095Y-15454524D01*
X7252619Y-15473571D01*
X7262143Y-15511667D01*
X7262143Y-15559286D01*
X7252619Y-15597381D01*
X7243095Y-15616428D01*
X7233571Y-15625952D01*
X7214524Y-15635476D01*
X7195476Y-15635476D01*
X7176428Y-15625952D01*
X7166905Y-15616428D01*
X7157381Y-15597381D01*
X7147857Y-15559286D01*
X7147857Y-15511667D01*
X7157381Y-15473571D01*
X7166905Y-15454524D01*
X7176428Y-15445000D01*
X7195476Y-15435476D01*
X7347857Y-15616428D02*
X7357381Y-15625952D01*
X7347857Y-15635476D01*
X7338333Y-15625952D01*
X7347857Y-15616428D01*
X7347857Y-15635476D01*
X7547857Y-15635476D02*
X7433571Y-15635476D01*
X7490714Y-15635476D02*
X7490714Y-15435476D01*
X7471667Y-15464048D01*
X7452619Y-15483095D01*
X7433571Y-15492619D01*
X7614524Y-15435476D02*
X7738333Y-15435476D01*
X7671667Y-15511667D01*
X7700238Y-15511667D01*
X7719286Y-15521190D01*
X7728809Y-15530714D01*
X7738333Y-15549762D01*
X7738333Y-15597381D01*
X7728809Y-15616428D01*
X7719286Y-15625952D01*
X7700238Y-15635476D01*
X7643095Y-15635476D01*
X7624048Y-15625952D01*
X7614524Y-15616428D01*
X7805000Y-15435476D02*
X7938333Y-15435476D01*
X7852619Y-15635476D01*
X8043095Y-15521190D02*
X8024048Y-15511667D01*
X8014524Y-15502143D01*
X8005000Y-15483095D01*
X8005000Y-15473571D01*
X8014524Y-15454524D01*
X8024048Y-15445000D01*
X8043095Y-15435476D01*
X8081190Y-15435476D01*
X8100238Y-15445000D01*
X8109762Y-15454524D01*
X8119286Y-15473571D01*
X8119286Y-15483095D01*
X8109762Y-15502143D01*
X8100238Y-15511667D01*
X8081190Y-15521190D01*
X8043095Y-15521190D01*
X8024048Y-15530714D01*
X8014524Y-15540238D01*
X8005000Y-15559286D01*
X8005000Y-15597381D01*
X8014524Y-15616428D01*
X8024048Y-15625952D01*
X8043095Y-15635476D01*
X8081190Y-15635476D01*
X8100238Y-15625952D01*
X8109762Y-15616428D01*
X8119286Y-15597381D01*
X8119286Y-15559286D01*
X8109762Y-15540238D01*
X8100238Y-15530714D01*
X8081190Y-15521190D01*
X8195476Y-15435476D02*
X8195476Y-15473571D01*
X8271667Y-15435476D02*
X8271667Y-15473571D01*
X8566905Y-15711667D02*
X8557381Y-15702143D01*
X8538333Y-15673571D01*
X8528810Y-15654524D01*
X8519286Y-15625952D01*
X8509762Y-15578333D01*
X8509762Y-15540238D01*
X8519286Y-15492619D01*
X8528810Y-15464048D01*
X8538333Y-15445000D01*
X8557381Y-15416428D01*
X8566905Y-15406905D01*
X8633571Y-15454524D02*
X8643095Y-15445000D01*
X8662143Y-15435476D01*
X8709762Y-15435476D01*
X8728810Y-15445000D01*
X8738333Y-15454524D01*
X8747857Y-15473571D01*
X8747857Y-15492619D01*
X8738333Y-15521190D01*
X8624048Y-15635476D01*
X8747857Y-15635476D01*
X8985952Y-15635476D02*
X8985952Y-15435476D01*
X9071667Y-15635476D02*
X9071667Y-15530714D01*
X9062143Y-15511667D01*
X9043095Y-15502143D01*
X9014524Y-15502143D01*
X8995476Y-15511667D01*
X8985952Y-15521190D01*
X9195476Y-15635476D02*
X9176429Y-15625952D01*
X9166905Y-15616428D01*
X9157381Y-15597381D01*
X9157381Y-15540238D01*
X9166905Y-15521190D01*
X9176429Y-15511667D01*
X9195476Y-15502143D01*
X9224048Y-15502143D01*
X9243095Y-15511667D01*
X9252619Y-15521190D01*
X9262143Y-15540238D01*
X9262143Y-15597381D01*
X9252619Y-15616428D01*
X9243095Y-15625952D01*
X9224048Y-15635476D01*
X9195476Y-15635476D01*
X9376429Y-15635476D02*
X9357381Y-15625952D01*
X9347857Y-15606905D01*
X9347857Y-15435476D01*
X9528810Y-15625952D02*
X9509762Y-15635476D01*
X9471667Y-15635476D01*
X9452619Y-15625952D01*
X9443095Y-15606905D01*
X9443095Y-15530714D01*
X9452619Y-15511667D01*
X9471667Y-15502143D01*
X9509762Y-15502143D01*
X9528810Y-15511667D01*
X9538333Y-15530714D01*
X9538333Y-15549762D01*
X9443095Y-15568809D01*
X9614524Y-15625952D02*
X9633571Y-15635476D01*
X9671667Y-15635476D01*
X9690714Y-15625952D01*
X9700238Y-15606905D01*
X9700238Y-15597381D01*
X9690714Y-15578333D01*
X9671667Y-15568809D01*
X9643095Y-15568809D01*
X9624048Y-15559286D01*
X9614524Y-15540238D01*
X9614524Y-15530714D01*
X9624048Y-15511667D01*
X9643095Y-15502143D01*
X9671667Y-15502143D01*
X9690714Y-15511667D01*
X9766905Y-15711667D02*
X9776429Y-15702143D01*
X9795476Y-15673571D01*
X9805000Y-15654524D01*
X9814524Y-15625952D01*
X9824048Y-15578333D01*
X9824048Y-15540238D01*
X9814524Y-15492619D01*
X9805000Y-15464048D01*
X9795476Y-15445000D01*
X9776429Y-15416428D01*
X9766905Y-15406905D01*
X10128810Y-15711667D02*
X10119286Y-15702143D01*
X10100238Y-15673571D01*
X10090714Y-15654524D01*
X10081190Y-15625952D01*
X10071667Y-15578333D01*
X10071667Y-15540238D01*
X10081190Y-15492619D01*
X10090714Y-15464048D01*
X10100238Y-15445000D01*
X10119286Y-15416428D01*
X10128810Y-15406905D01*
X10205000Y-15502143D02*
X10205000Y-15635476D01*
X10205000Y-15521190D02*
X10214524Y-15511667D01*
X10233571Y-15502143D01*
X10262143Y-15502143D01*
X10281190Y-15511667D01*
X10290714Y-15530714D01*
X10290714Y-15635476D01*
X10414524Y-15635476D02*
X10395476Y-15625952D01*
X10385952Y-15616428D01*
X10376429Y-15597381D01*
X10376429Y-15540238D01*
X10385952Y-15521190D01*
X10395476Y-15511667D01*
X10414524Y-15502143D01*
X10443095Y-15502143D01*
X10462143Y-15511667D01*
X10471667Y-15521190D01*
X10481190Y-15540238D01*
X10481190Y-15597381D01*
X10471667Y-15616428D01*
X10462143Y-15625952D01*
X10443095Y-15635476D01*
X10414524Y-15635476D01*
X10538333Y-15502143D02*
X10614524Y-15502143D01*
X10566905Y-15435476D02*
X10566905Y-15606905D01*
X10576429Y-15625952D01*
X10595476Y-15635476D01*
X10614524Y-15635476D01*
X10833571Y-15502143D02*
X10833571Y-15702143D01*
X10833571Y-15511667D02*
X10852619Y-15502143D01*
X10890714Y-15502143D01*
X10909762Y-15511667D01*
X10919286Y-15521190D01*
X10928810Y-15540238D01*
X10928810Y-15597381D01*
X10919286Y-15616428D01*
X10909762Y-15625952D01*
X10890714Y-15635476D01*
X10852619Y-15635476D01*
X10833571Y-15625952D01*
X11043095Y-15635476D02*
X11024048Y-15625952D01*
X11014524Y-15606905D01*
X11014524Y-15435476D01*
X11205000Y-15635476D02*
X11205000Y-15530714D01*
X11195476Y-15511667D01*
X11176429Y-15502143D01*
X11138333Y-15502143D01*
X11119286Y-15511667D01*
X11205000Y-15625952D02*
X11185952Y-15635476D01*
X11138333Y-15635476D01*
X11119286Y-15625952D01*
X11109762Y-15606905D01*
X11109762Y-15587857D01*
X11119286Y-15568809D01*
X11138333Y-15559286D01*
X11185952Y-15559286D01*
X11205000Y-15549762D01*
X11271667Y-15502143D02*
X11347857Y-15502143D01*
X11300238Y-15435476D02*
X11300238Y-15606905D01*
X11309762Y-15625952D01*
X11328809Y-15635476D01*
X11347857Y-15635476D01*
X11490714Y-15625952D02*
X11471667Y-15635476D01*
X11433571Y-15635476D01*
X11414524Y-15625952D01*
X11405000Y-15606905D01*
X11405000Y-15530714D01*
X11414524Y-15511667D01*
X11433571Y-15502143D01*
X11471667Y-15502143D01*
X11490714Y-15511667D01*
X11500238Y-15530714D01*
X11500238Y-15549762D01*
X11405000Y-15568809D01*
X11671667Y-15635476D02*
X11671667Y-15435476D01*
X11671667Y-15625952D02*
X11652619Y-15635476D01*
X11614524Y-15635476D01*
X11595476Y-15625952D01*
X11585952Y-15616428D01*
X11576428Y-15597381D01*
X11576428Y-15540238D01*
X11585952Y-15521190D01*
X11595476Y-15511667D01*
X11614524Y-15502143D01*
X11652619Y-15502143D01*
X11671667Y-15511667D01*
X11747857Y-15711667D02*
X11757381Y-15702143D01*
X11776428Y-15673571D01*
X11785952Y-15654524D01*
X11795476Y-15625952D01*
X11805000Y-15578333D01*
X11805000Y-15540238D01*
X11795476Y-15492619D01*
X11785952Y-15464048D01*
X11776428Y-15445000D01*
X11757381Y-15416428D01*
X11747857Y-15406905D01*
M02*
