%TF.GenerationSoftware,KiCad,Pcbnew,(6.0.4-0)*%
%TF.CreationDate,2022-09-08T11:41:12+02:00*%
%TF.ProjectId,Antennenumschalter,416e7465-6e6e-4656-9e75-6d736368616c,rev?*%
%TF.SameCoordinates,Original*%
%TF.FileFunction,Soldermask,Bot*%
%TF.FilePolarity,Negative*%
%FSLAX46Y46*%
G04 Gerber Fmt 4.6, Leading zero omitted, Abs format (unit mm)*
G04 Created by KiCad (PCBNEW (6.0.4-0)) date 2022-09-08 11:41:12*
%MOMM*%
%LPD*%
G01*
G04 APERTURE LIST*
G04 Aperture macros list*
%AMRoundRect*
0 Rectangle with rounded corners*
0 $1 Rounding radius*
0 $2 $3 $4 $5 $6 $7 $8 $9 X,Y pos of 4 corners*
0 Add a 4 corners polygon primitive as box body*
4,1,4,$2,$3,$4,$5,$6,$7,$8,$9,$2,$3,0*
0 Add four circle primitives for the rounded corners*
1,1,$1+$1,$2,$3*
1,1,$1+$1,$4,$5*
1,1,$1+$1,$6,$7*
1,1,$1+$1,$8,$9*
0 Add four rect primitives between the rounded corners*
20,1,$1+$1,$2,$3,$4,$5,0*
20,1,$1+$1,$4,$5,$6,$7,0*
20,1,$1+$1,$6,$7,$8,$9,0*
20,1,$1+$1,$8,$9,$2,$3,0*%
G04 Aperture macros list end*
%ADD10R,0.850000X0.850000*%
%ADD11R,1.700000X1.700000*%
%ADD12O,1.700000X1.700000*%
%ADD13C,5.600000*%
%ADD14C,1.524000*%
%ADD15R,2.400000X2.400000*%
%ADD16C,2.400000*%
%ADD17R,1.600000X1.600000*%
%ADD18O,1.600000X1.600000*%
%ADD19O,3.500000X3.500000*%
%ADD20R,2.000000X1.905000*%
%ADD21O,2.000000X1.905000*%
%ADD22R,3.960000X1.980000*%
%ADD23O,3.960000X1.980000*%
%ADD24C,1.700000*%
%ADD25C,3.000000*%
%ADD26RoundRect,0.250000X-0.650000X0.412500X-0.650000X-0.412500X0.650000X-0.412500X0.650000X0.412500X0*%
%ADD27R,2.500000X1.000000*%
%ADD28R,1.000000X1.800000*%
G04 APERTURE END LIST*
D10*
X69088000Y-58039000D03*
X61087000Y-100457000D03*
D11*
X81153000Y-132842000D03*
D12*
X81153000Y-135382000D03*
X81153000Y-137922000D03*
D11*
X53086000Y-134351000D03*
D12*
X53086000Y-131811000D03*
X53086000Y-129271000D03*
X53086000Y-126731000D03*
X53086000Y-124191000D03*
X53086000Y-121651000D03*
X53086000Y-119111000D03*
X53086000Y-116571000D03*
D13*
X146000000Y-53000000D03*
X53000000Y-146000000D03*
D14*
X130429000Y-80779000D03*
X130429000Y-65793000D03*
D13*
X146000000Y-146000000D03*
X53000000Y-53000000D03*
D15*
X84582000Y-64389000D03*
D16*
X84582000Y-59389000D03*
D17*
X86360000Y-75959000D03*
D18*
X86360000Y-81039000D03*
X93980000Y-81039000D03*
X93980000Y-75959000D03*
D19*
X78042000Y-76454000D03*
D20*
X61382000Y-73914000D03*
D21*
X61382000Y-76454000D03*
X61382000Y-78994000D03*
D22*
X131953000Y-89818000D03*
D23*
X131953000Y-94818000D03*
D19*
X96543000Y-106045000D03*
D20*
X79883000Y-103505000D03*
D21*
X79883000Y-106045000D03*
X79883000Y-108585000D03*
D11*
X67743000Y-139355000D03*
D24*
X74243000Y-139355000D03*
X74243000Y-143855000D03*
X67743000Y-143855000D03*
D25*
X120363000Y-67216000D03*
X120363000Y-72216000D03*
X120363000Y-77216000D03*
X120363000Y-82216000D03*
X120363000Y-87216000D03*
X100363000Y-87216000D03*
X100363000Y-82216000D03*
X100363000Y-77216000D03*
X100363000Y-72216000D03*
X100363000Y-67216000D03*
D11*
X110485000Y-145796000D03*
D12*
X113025000Y-145796000D03*
D26*
X90043000Y-76796500D03*
X90043000Y-79921500D03*
D27*
X90317000Y-138120000D03*
X90317000Y-136120000D03*
X90317000Y-134120000D03*
X90317000Y-132120000D03*
X90317000Y-130120000D03*
X90317000Y-128120000D03*
X90317000Y-126120000D03*
X90317000Y-124120000D03*
D28*
X92917000Y-122620000D03*
X94917000Y-122620000D03*
X96917000Y-122620000D03*
X98917000Y-122620000D03*
X100917000Y-122620000D03*
X102917000Y-122620000D03*
D27*
X105517000Y-124120000D03*
X105517000Y-126120000D03*
X105517000Y-128120000D03*
X105517000Y-130120000D03*
X105517000Y-132120000D03*
X105517000Y-134120000D03*
X105517000Y-136120000D03*
X105517000Y-138120000D03*
M02*
