%TF.GenerationSoftware,KiCad,Pcbnew,(6.0.4-0)*%
%TF.CreationDate,2022-09-08T11:41:12+02:00*%
%TF.ProjectId,Antennenumschalter,416e7465-6e6e-4656-9e75-6d736368616c,rev?*%
%TF.SameCoordinates,Original*%
%TF.FileFunction,Legend,Top*%
%TF.FilePolarity,Positive*%
%FSLAX46Y46*%
G04 Gerber Fmt 4.6, Leading zero omitted, Abs format (unit mm)*
G04 Created by KiCad (PCBNEW (6.0.4-0)) date 2022-09-08 11:41:12*
%MOMM*%
%LPD*%
G01*
G04 APERTURE LIST*
G04 Aperture macros list*
%AMRoundRect*
0 Rectangle with rounded corners*
0 $1 Rounding radius*
0 $2 $3 $4 $5 $6 $7 $8 $9 X,Y pos of 4 corners*
0 Add a 4 corners polygon primitive as box body*
4,1,4,$2,$3,$4,$5,$6,$7,$8,$9,$2,$3,0*
0 Add four circle primitives for the rounded corners*
1,1,$1+$1,$2,$3*
1,1,$1+$1,$4,$5*
1,1,$1+$1,$6,$7*
1,1,$1+$1,$8,$9*
0 Add four rect primitives between the rounded corners*
20,1,$1+$1,$2,$3,$4,$5,0*
20,1,$1+$1,$4,$5,$6,$7,0*
20,1,$1+$1,$6,$7,$8,$9,0*
20,1,$1+$1,$8,$9,$2,$3,0*%
G04 Aperture macros list end*
%ADD10C,0.150000*%
%ADD11C,0.250000*%
%ADD12C,0.120000*%
%ADD13R,0.850000X0.850000*%
%ADD14R,1.700000X1.700000*%
%ADD15O,1.700000X1.700000*%
%ADD16R,1.780000X2.000000*%
%ADD17R,2.000000X1.780000*%
%ADD18RoundRect,0.250000X0.412500X0.650000X-0.412500X0.650000X-0.412500X-0.650000X0.412500X-0.650000X0*%
%ADD19RoundRect,0.250000X0.400000X0.625000X-0.400000X0.625000X-0.400000X-0.625000X0.400000X-0.625000X0*%
%ADD20RoundRect,0.250000X-0.400000X-0.625000X0.400000X-0.625000X0.400000X0.625000X-0.400000X0.625000X0*%
%ADD21C,5.600000*%
%ADD22RoundRect,0.250000X0.625000X-0.400000X0.625000X0.400000X-0.625000X0.400000X-0.625000X-0.400000X0*%
%ADD23RoundRect,0.250000X-0.625000X0.400000X-0.625000X-0.400000X0.625000X-0.400000X0.625000X0.400000X0*%
%ADD24RoundRect,0.250000X-1.875000X0.875000X-1.875000X-0.875000X1.875000X-0.875000X1.875000X0.875000X0*%
%ADD25RoundRect,0.250000X-0.412500X-0.650000X0.412500X-0.650000X0.412500X0.650000X-0.412500X0.650000X0*%
%ADD26RoundRect,0.150000X0.150000X-0.587500X0.150000X0.587500X-0.150000X0.587500X-0.150000X-0.587500X0*%
%ADD27C,1.524000*%
%ADD28RoundRect,0.250000X-0.650000X0.412500X-0.650000X-0.412500X0.650000X-0.412500X0.650000X0.412500X0*%
%ADD29R,2.400000X2.400000*%
%ADD30C,2.400000*%
%ADD31R,1.600000X1.600000*%
%ADD32O,1.600000X1.600000*%
%ADD33O,3.500000X3.500000*%
%ADD34R,2.000000X1.905000*%
%ADD35O,2.000000X1.905000*%
%ADD36R,3.960000X1.980000*%
%ADD37O,3.960000X1.980000*%
%ADD38RoundRect,0.150000X-0.150000X0.587500X-0.150000X-0.587500X0.150000X-0.587500X0.150000X0.587500X0*%
%ADD39C,1.700000*%
%ADD40C,3.000000*%
%ADD41RoundRect,0.250000X1.875000X-0.875000X1.875000X0.875000X-1.875000X0.875000X-1.875000X-0.875000X0*%
G04 APERTURE END LIST*
D10*
X69667619Y-147010380D02*
X69334285Y-146534190D01*
X69096190Y-147010380D02*
X69096190Y-146010380D01*
X69477142Y-146010380D01*
X69572380Y-146058000D01*
X69620000Y-146105619D01*
X69667619Y-146200857D01*
X69667619Y-146343714D01*
X69620000Y-146438952D01*
X69572380Y-146486571D01*
X69477142Y-146534190D01*
X69096190Y-146534190D01*
X70096190Y-146486571D02*
X70429523Y-146486571D01*
X70572380Y-147010380D02*
X70096190Y-147010380D01*
X70096190Y-146010380D01*
X70572380Y-146010380D01*
X70953333Y-146962761D02*
X71096190Y-147010380D01*
X71334285Y-147010380D01*
X71429523Y-146962761D01*
X71477142Y-146915142D01*
X71524761Y-146819904D01*
X71524761Y-146724666D01*
X71477142Y-146629428D01*
X71429523Y-146581809D01*
X71334285Y-146534190D01*
X71143809Y-146486571D01*
X71048571Y-146438952D01*
X71000952Y-146391333D01*
X70953333Y-146296095D01*
X70953333Y-146200857D01*
X71000952Y-146105619D01*
X71048571Y-146058000D01*
X71143809Y-146010380D01*
X71381904Y-146010380D01*
X71524761Y-146058000D01*
X71953333Y-146486571D02*
X72286666Y-146486571D01*
X72429523Y-147010380D02*
X71953333Y-147010380D01*
X71953333Y-146010380D01*
X72429523Y-146010380D01*
X72715238Y-146010380D02*
X73286666Y-146010380D01*
X73000952Y-147010380D02*
X73000952Y-146010380D01*
X59610809Y-102322380D02*
X60229857Y-102322380D01*
X59896523Y-102703333D01*
X60039380Y-102703333D01*
X60134619Y-102750952D01*
X60182238Y-102798571D01*
X60229857Y-102893809D01*
X60229857Y-103131904D01*
X60182238Y-103227142D01*
X60134619Y-103274761D01*
X60039380Y-103322380D01*
X59753666Y-103322380D01*
X59658428Y-103274761D01*
X59610809Y-103227142D01*
X60706047Y-103274761D02*
X60706047Y-103322380D01*
X60658428Y-103417619D01*
X60610809Y-103465238D01*
X61039380Y-102322380D02*
X61658428Y-102322380D01*
X61325095Y-102703333D01*
X61467952Y-102703333D01*
X61563190Y-102750952D01*
X61610809Y-102798571D01*
X61658428Y-102893809D01*
X61658428Y-103131904D01*
X61610809Y-103227142D01*
X61563190Y-103274761D01*
X61467952Y-103322380D01*
X61182238Y-103322380D01*
X61087000Y-103274761D01*
X61039380Y-103227142D01*
X61944142Y-102322380D02*
X62277476Y-103322380D01*
X62610809Y-102322380D01*
X68326095Y-60460000D02*
X68230857Y-60412380D01*
X68088000Y-60412380D01*
X67945142Y-60460000D01*
X67849904Y-60555238D01*
X67802285Y-60650476D01*
X67754666Y-60840952D01*
X67754666Y-60983809D01*
X67802285Y-61174285D01*
X67849904Y-61269523D01*
X67945142Y-61364761D01*
X68088000Y-61412380D01*
X68183238Y-61412380D01*
X68326095Y-61364761D01*
X68373714Y-61317142D01*
X68373714Y-60983809D01*
X68183238Y-60983809D01*
X68802285Y-61412380D02*
X68802285Y-60412380D01*
X69373714Y-61412380D01*
X69373714Y-60412380D01*
X69849904Y-61412380D02*
X69849904Y-60412380D01*
X70088000Y-60412380D01*
X70230857Y-60460000D01*
X70326095Y-60555238D01*
X70373714Y-60650476D01*
X70421333Y-60840952D01*
X70421333Y-60983809D01*
X70373714Y-61174285D01*
X70326095Y-61269523D01*
X70230857Y-61364761D01*
X70088000Y-61412380D01*
X69849904Y-61412380D01*
X84082095Y-137628380D02*
X84653523Y-137628380D01*
X84367809Y-138628380D02*
X84367809Y-137628380D01*
X84891619Y-137628380D02*
X85558285Y-138628380D01*
X85558285Y-137628380D02*
X84891619Y-138628380D01*
X85939238Y-138628380D02*
X85939238Y-137628380D01*
X86177333Y-137628380D01*
X86320190Y-137676000D01*
X86415428Y-137771238D01*
X86463047Y-137866476D01*
X86510666Y-138056952D01*
X86510666Y-138199809D01*
X86463047Y-138390285D01*
X86415428Y-138485523D01*
X86320190Y-138580761D01*
X86177333Y-138628380D01*
X85939238Y-138628380D01*
X84677333Y-135834380D02*
X84344000Y-135358190D01*
X84105904Y-135834380D02*
X84105904Y-134834380D01*
X84486857Y-134834380D01*
X84582095Y-134882000D01*
X84629714Y-134929619D01*
X84677333Y-135024857D01*
X84677333Y-135167714D01*
X84629714Y-135262952D01*
X84582095Y-135310571D01*
X84486857Y-135358190D01*
X84105904Y-135358190D01*
X85010666Y-134834380D02*
X85677333Y-135834380D01*
X85677333Y-134834380D02*
X85010666Y-135834380D01*
X86058285Y-135834380D02*
X86058285Y-134834380D01*
X86296380Y-134834380D01*
X86439238Y-134882000D01*
X86534476Y-134977238D01*
X86582095Y-135072476D01*
X86629714Y-135262952D01*
X86629714Y-135405809D01*
X86582095Y-135596285D01*
X86534476Y-135691523D01*
X86439238Y-135786761D01*
X86296380Y-135834380D01*
X86058285Y-135834380D01*
X84455095Y-132342000D02*
X84359857Y-132294380D01*
X84217000Y-132294380D01*
X84074142Y-132342000D01*
X83978904Y-132437238D01*
X83931285Y-132532476D01*
X83883666Y-132722952D01*
X83883666Y-132865809D01*
X83931285Y-133056285D01*
X83978904Y-133151523D01*
X84074142Y-133246761D01*
X84217000Y-133294380D01*
X84312238Y-133294380D01*
X84455095Y-133246761D01*
X84502714Y-133199142D01*
X84502714Y-132865809D01*
X84312238Y-132865809D01*
X84931285Y-133294380D02*
X84931285Y-132294380D01*
X85502714Y-133294380D01*
X85502714Y-132294380D01*
X85978904Y-133294380D02*
X85978904Y-132294380D01*
X86217000Y-132294380D01*
X86359857Y-132342000D01*
X86455095Y-132437238D01*
X86502714Y-132532476D01*
X86550333Y-132722952D01*
X86550333Y-132865809D01*
X86502714Y-133056285D01*
X86455095Y-133151523D01*
X86359857Y-133246761D01*
X86217000Y-133294380D01*
X85978904Y-133294380D01*
D11*
X141462238Y-76485238D02*
X141367000Y-76390000D01*
X141271761Y-76199523D01*
X141271761Y-75723333D01*
X141367000Y-75532857D01*
X141462238Y-75437619D01*
X141652714Y-75342380D01*
X141843190Y-75342380D01*
X142128904Y-75437619D01*
X143271761Y-76580476D01*
X143271761Y-75342380D01*
X141271761Y-74675714D02*
X141271761Y-73437619D01*
X142033666Y-74104285D01*
X142033666Y-73818571D01*
X142128904Y-73628095D01*
X142224142Y-73532857D01*
X142414619Y-73437619D01*
X142890809Y-73437619D01*
X143081285Y-73532857D01*
X143176523Y-73628095D01*
X143271761Y-73818571D01*
X143271761Y-74390000D01*
X143176523Y-74580476D01*
X143081285Y-74675714D01*
X141271761Y-72199523D02*
X141271761Y-72009047D01*
X141367000Y-71818571D01*
X141462238Y-71723333D01*
X141652714Y-71628095D01*
X142033666Y-71532857D01*
X142509857Y-71532857D01*
X142890809Y-71628095D01*
X143081285Y-71723333D01*
X143176523Y-71818571D01*
X143271761Y-72009047D01*
X143271761Y-72199523D01*
X143176523Y-72390000D01*
X143081285Y-72485238D01*
X142890809Y-72580476D01*
X142509857Y-72675714D01*
X142033666Y-72675714D01*
X141652714Y-72580476D01*
X141462238Y-72485238D01*
X141367000Y-72390000D01*
X141271761Y-72199523D01*
X141271761Y-69437619D02*
X143271761Y-68770952D01*
X141271761Y-68104285D01*
X52412761Y-112327785D02*
X54412761Y-111851595D01*
X52984190Y-111470642D01*
X54412761Y-111089690D01*
X52412761Y-110613500D01*
X54412761Y-108899214D02*
X54412761Y-109851595D01*
X52412761Y-109851595D01*
X53841333Y-108327785D02*
X53841333Y-107375404D01*
X54412761Y-108518261D02*
X52412761Y-107851595D01*
X54412761Y-107184928D01*
X54412761Y-106518261D02*
X52412761Y-106518261D01*
X54412761Y-105375404D01*
X52412761Y-105375404D01*
X53650857Y-104423023D02*
X53650857Y-102899214D01*
X53841333Y-102042071D02*
X53841333Y-101089690D01*
X54412761Y-102232547D02*
X52412761Y-101565880D01*
X54412761Y-100899214D01*
X53079428Y-100232547D02*
X54412761Y-100232547D01*
X53269904Y-100232547D02*
X53174666Y-100137309D01*
X53079428Y-99946833D01*
X53079428Y-99661119D01*
X53174666Y-99470642D01*
X53365142Y-99375404D01*
X54412761Y-99375404D01*
X53079428Y-98708738D02*
X53079428Y-97946833D01*
X52412761Y-98423023D02*
X54127047Y-98423023D01*
X54317523Y-98327785D01*
X54412761Y-98137309D01*
X54412761Y-97946833D01*
X54317523Y-96518261D02*
X54412761Y-96708738D01*
X54412761Y-97089690D01*
X54317523Y-97280166D01*
X54127047Y-97375404D01*
X53365142Y-97375404D01*
X53174666Y-97280166D01*
X53079428Y-97089690D01*
X53079428Y-96708738D01*
X53174666Y-96518261D01*
X53365142Y-96423023D01*
X53555619Y-96423023D01*
X53746095Y-97375404D01*
X53079428Y-95565880D02*
X54412761Y-95565880D01*
X53269904Y-95565880D02*
X53174666Y-95470642D01*
X53079428Y-95280166D01*
X53079428Y-94994452D01*
X53174666Y-94803976D01*
X53365142Y-94708738D01*
X54412761Y-94708738D01*
X53079428Y-93756357D02*
X54412761Y-93756357D01*
X53269904Y-93756357D02*
X53174666Y-93661119D01*
X53079428Y-93470642D01*
X53079428Y-93184928D01*
X53174666Y-92994452D01*
X53365142Y-92899214D01*
X54412761Y-92899214D01*
X54317523Y-91184928D02*
X54412761Y-91375404D01*
X54412761Y-91756357D01*
X54317523Y-91946833D01*
X54127047Y-92042071D01*
X53365142Y-92042071D01*
X53174666Y-91946833D01*
X53079428Y-91756357D01*
X53079428Y-91375404D01*
X53174666Y-91184928D01*
X53365142Y-91089690D01*
X53555619Y-91089690D01*
X53746095Y-92042071D01*
X53079428Y-90232547D02*
X54412761Y-90232547D01*
X53269904Y-90232547D02*
X53174666Y-90137309D01*
X53079428Y-89946833D01*
X53079428Y-89661119D01*
X53174666Y-89470642D01*
X53365142Y-89375404D01*
X54412761Y-89375404D01*
X53079428Y-87565880D02*
X54412761Y-87565880D01*
X53079428Y-88423023D02*
X54127047Y-88423023D01*
X54317523Y-88327785D01*
X54412761Y-88137309D01*
X54412761Y-87851595D01*
X54317523Y-87661119D01*
X54222285Y-87565880D01*
X54412761Y-86613500D02*
X53079428Y-86613500D01*
X53269904Y-86613500D02*
X53174666Y-86518261D01*
X53079428Y-86327785D01*
X53079428Y-86042071D01*
X53174666Y-85851595D01*
X53365142Y-85756357D01*
X54412761Y-85756357D01*
X53365142Y-85756357D02*
X53174666Y-85661119D01*
X53079428Y-85470642D01*
X53079428Y-85184928D01*
X53174666Y-84994452D01*
X53365142Y-84899214D01*
X54412761Y-84899214D01*
X54317523Y-84042071D02*
X54412761Y-83851595D01*
X54412761Y-83470642D01*
X54317523Y-83280166D01*
X54127047Y-83184928D01*
X54031809Y-83184928D01*
X53841333Y-83280166D01*
X53746095Y-83470642D01*
X53746095Y-83756357D01*
X53650857Y-83946833D01*
X53460380Y-84042071D01*
X53365142Y-84042071D01*
X53174666Y-83946833D01*
X53079428Y-83756357D01*
X53079428Y-83470642D01*
X53174666Y-83280166D01*
X54317523Y-81470642D02*
X54412761Y-81661119D01*
X54412761Y-82042071D01*
X54317523Y-82232547D01*
X54222285Y-82327785D01*
X54031809Y-82423023D01*
X53460380Y-82423023D01*
X53269904Y-82327785D01*
X53174666Y-82232547D01*
X53079428Y-82042071D01*
X53079428Y-81661119D01*
X53174666Y-81470642D01*
X54412761Y-80613500D02*
X52412761Y-80613500D01*
X54412761Y-79756357D02*
X53365142Y-79756357D01*
X53174666Y-79851595D01*
X53079428Y-80042071D01*
X53079428Y-80327785D01*
X53174666Y-80518261D01*
X53269904Y-80613500D01*
X54412761Y-77946833D02*
X53365142Y-77946833D01*
X53174666Y-78042071D01*
X53079428Y-78232547D01*
X53079428Y-78613500D01*
X53174666Y-78803976D01*
X54317523Y-77946833D02*
X54412761Y-78137309D01*
X54412761Y-78613500D01*
X54317523Y-78803976D01*
X54127047Y-78899214D01*
X53936571Y-78899214D01*
X53746095Y-78803976D01*
X53650857Y-78613500D01*
X53650857Y-78137309D01*
X53555619Y-77946833D01*
X54412761Y-76708738D02*
X54317523Y-76899214D01*
X54127047Y-76994452D01*
X52412761Y-76994452D01*
X53079428Y-76232547D02*
X53079428Y-75470642D01*
X52412761Y-75946833D02*
X54127047Y-75946833D01*
X54317523Y-75851595D01*
X54412761Y-75661119D01*
X54412761Y-75470642D01*
X54317523Y-74042071D02*
X54412761Y-74232547D01*
X54412761Y-74613500D01*
X54317523Y-74803976D01*
X54127047Y-74899214D01*
X53365142Y-74899214D01*
X53174666Y-74803976D01*
X53079428Y-74613500D01*
X53079428Y-74232547D01*
X53174666Y-74042071D01*
X53365142Y-73946833D01*
X53555619Y-73946833D01*
X53746095Y-74899214D01*
X54412761Y-73089690D02*
X53079428Y-73089690D01*
X53460380Y-73089690D02*
X53269904Y-72994452D01*
X53174666Y-72899214D01*
X53079428Y-72708738D01*
X53079428Y-72518261D01*
X52412761Y-70613500D02*
X54412761Y-69946833D01*
X52412761Y-69280166D01*
X54222285Y-68613500D02*
X54317523Y-68518261D01*
X54412761Y-68613500D01*
X54317523Y-68708738D01*
X54222285Y-68613500D01*
X54412761Y-68613500D01*
X52603238Y-67756357D02*
X52508000Y-67661119D01*
X52412761Y-67470642D01*
X52412761Y-66994452D01*
X52508000Y-66803976D01*
X52603238Y-66708738D01*
X52793714Y-66613500D01*
X52984190Y-66613500D01*
X53269904Y-66708738D01*
X54412761Y-67851595D01*
X54412761Y-66613500D01*
X54222285Y-65756357D02*
X54317523Y-65661119D01*
X54412761Y-65756357D01*
X54317523Y-65851595D01*
X54222285Y-65756357D01*
X54412761Y-65756357D01*
X52603238Y-64899214D02*
X52508000Y-64803976D01*
X52412761Y-64613500D01*
X52412761Y-64137309D01*
X52508000Y-63946833D01*
X52603238Y-63851595D01*
X52793714Y-63756357D01*
X52984190Y-63756357D01*
X53269904Y-63851595D01*
X54412761Y-64994452D01*
X54412761Y-63756357D01*
X52412761Y-62518261D02*
X52412761Y-62327785D01*
X52508000Y-62137309D01*
X52603238Y-62042071D01*
X52793714Y-61946833D01*
X53174666Y-61851595D01*
X53650857Y-61851595D01*
X54031809Y-61946833D01*
X54222285Y-62042071D01*
X54317523Y-62137309D01*
X54412761Y-62327785D01*
X54412761Y-62518261D01*
X54317523Y-62708738D01*
X54222285Y-62803976D01*
X54031809Y-62899214D01*
X53650857Y-62994452D01*
X53174666Y-62994452D01*
X52793714Y-62899214D01*
X52603238Y-62803976D01*
X52508000Y-62708738D01*
X52412761Y-62518261D01*
X52603238Y-61089690D02*
X52508000Y-60994452D01*
X52412761Y-60803976D01*
X52412761Y-60327785D01*
X52508000Y-60137309D01*
X52603238Y-60042071D01*
X52793714Y-59946833D01*
X52984190Y-59946833D01*
X53269904Y-60042071D01*
X54412761Y-61184928D01*
X54412761Y-59946833D01*
X52603238Y-59184928D02*
X52508000Y-59089690D01*
X52412761Y-58899214D01*
X52412761Y-58423023D01*
X52508000Y-58232547D01*
X52603238Y-58137309D01*
X52793714Y-58042071D01*
X52984190Y-58042071D01*
X53269904Y-58137309D01*
X54412761Y-59280166D01*
X54412761Y-58042071D01*
X57632761Y-112137309D02*
X55632761Y-112137309D01*
X55632761Y-111661119D01*
X55728000Y-111375404D01*
X55918476Y-111184928D01*
X56108952Y-111089690D01*
X56489904Y-110994452D01*
X56775619Y-110994452D01*
X57156571Y-111089690D01*
X57347047Y-111184928D01*
X57537523Y-111375404D01*
X57632761Y-111661119D01*
X57632761Y-112137309D01*
X57632761Y-110137309D02*
X55632761Y-110137309D01*
X57061333Y-109470642D01*
X55632761Y-108803976D01*
X57632761Y-108803976D01*
X55632761Y-106994452D02*
X55632761Y-107375404D01*
X55728000Y-107565880D01*
X55823238Y-107661119D01*
X56108952Y-107851595D01*
X56489904Y-107946833D01*
X57251809Y-107946833D01*
X57442285Y-107851595D01*
X57537523Y-107756357D01*
X57632761Y-107565880D01*
X57632761Y-107184928D01*
X57537523Y-106994452D01*
X57442285Y-106899214D01*
X57251809Y-106803976D01*
X56775619Y-106803976D01*
X56585142Y-106899214D01*
X56489904Y-106994452D01*
X56394666Y-107184928D01*
X56394666Y-107565880D01*
X56489904Y-107756357D01*
X56585142Y-107851595D01*
X56775619Y-107946833D01*
X57632761Y-104803976D02*
X56680380Y-105470642D01*
X57632761Y-105946833D02*
X55632761Y-105946833D01*
X55632761Y-105184928D01*
X55728000Y-104994452D01*
X55823238Y-104899214D01*
X56013714Y-104803976D01*
X56299428Y-104803976D01*
X56489904Y-104899214D01*
X56585142Y-104994452D01*
X56680380Y-105184928D01*
X56680380Y-105946833D01*
X57061333Y-104042071D02*
X57061333Y-103089690D01*
X57632761Y-104232547D02*
X55632761Y-103565880D01*
X57632761Y-102899214D01*
X57442285Y-101089690D02*
X57537523Y-101184928D01*
X57632761Y-101470642D01*
X57632761Y-101661119D01*
X57537523Y-101946833D01*
X57347047Y-102137309D01*
X57156571Y-102232547D01*
X56775619Y-102327785D01*
X56489904Y-102327785D01*
X56108952Y-102232547D01*
X55918476Y-102137309D01*
X55728000Y-101946833D01*
X55632761Y-101661119D01*
X55632761Y-101470642D01*
X55728000Y-101184928D01*
X55823238Y-101089690D01*
D10*
X57785095Y-76081000D02*
X57689857Y-76033380D01*
X57547000Y-76033380D01*
X57404142Y-76081000D01*
X57308904Y-76176238D01*
X57261285Y-76271476D01*
X57213666Y-76461952D01*
X57213666Y-76604809D01*
X57261285Y-76795285D01*
X57308904Y-76890523D01*
X57404142Y-76985761D01*
X57547000Y-77033380D01*
X57642238Y-77033380D01*
X57785095Y-76985761D01*
X57832714Y-76938142D01*
X57832714Y-76604809D01*
X57642238Y-76604809D01*
X58261285Y-77033380D02*
X58261285Y-76033380D01*
X58832714Y-77033380D01*
X58832714Y-76033380D01*
X59308904Y-77033380D02*
X59308904Y-76033380D01*
X59547000Y-76033380D01*
X59689857Y-76081000D01*
X59785095Y-76176238D01*
X59832714Y-76271476D01*
X59880333Y-76461952D01*
X59880333Y-76604809D01*
X59832714Y-76795285D01*
X59785095Y-76890523D01*
X59689857Y-76985761D01*
X59547000Y-77033380D01*
X59308904Y-77033380D01*
X55753095Y-118499000D02*
X55657857Y-118451380D01*
X55515000Y-118451380D01*
X55372142Y-118499000D01*
X55276904Y-118594238D01*
X55229285Y-118689476D01*
X55181666Y-118879952D01*
X55181666Y-119022809D01*
X55229285Y-119213285D01*
X55276904Y-119308523D01*
X55372142Y-119403761D01*
X55515000Y-119451380D01*
X55610238Y-119451380D01*
X55753095Y-119403761D01*
X55800714Y-119356142D01*
X55800714Y-119022809D01*
X55610238Y-119022809D01*
X56229285Y-119451380D02*
X56229285Y-118451380D01*
X56800714Y-119451380D01*
X56800714Y-118451380D01*
X57276904Y-119451380D02*
X57276904Y-118451380D01*
X57515000Y-118451380D01*
X57657857Y-118499000D01*
X57753095Y-118594238D01*
X57800714Y-118689476D01*
X57848333Y-118879952D01*
X57848333Y-119022809D01*
X57800714Y-119213285D01*
X57753095Y-119308523D01*
X57657857Y-119403761D01*
X57515000Y-119451380D01*
X57276904Y-119451380D01*
X55276952Y-124372666D02*
X55753142Y-124372666D01*
X55181714Y-124658380D02*
X55515047Y-123658380D01*
X55848380Y-124658380D01*
X56181714Y-124658380D02*
X56181714Y-123658380D01*
X56753142Y-124658380D01*
X56753142Y-123658380D01*
X57086476Y-123658380D02*
X57657904Y-123658380D01*
X57372190Y-124658380D02*
X57372190Y-123658380D01*
X57896000Y-123658380D02*
X58515047Y-123658380D01*
X58181714Y-124039333D01*
X58324571Y-124039333D01*
X58419809Y-124086952D01*
X58467428Y-124134571D01*
X58515047Y-124229809D01*
X58515047Y-124467904D01*
X58467428Y-124563142D01*
X58419809Y-124610761D01*
X58324571Y-124658380D01*
X58038857Y-124658380D01*
X57943619Y-124610761D01*
X57896000Y-124563142D01*
X74930095Y-103005000D02*
X74834857Y-102957380D01*
X74692000Y-102957380D01*
X74549142Y-103005000D01*
X74453904Y-103100238D01*
X74406285Y-103195476D01*
X74358666Y-103385952D01*
X74358666Y-103528809D01*
X74406285Y-103719285D01*
X74453904Y-103814523D01*
X74549142Y-103909761D01*
X74692000Y-103957380D01*
X74787238Y-103957380D01*
X74930095Y-103909761D01*
X74977714Y-103862142D01*
X74977714Y-103528809D01*
X74787238Y-103528809D01*
X75406285Y-103957380D02*
X75406285Y-102957380D01*
X75977714Y-103957380D01*
X75977714Y-102957380D01*
X76453904Y-103957380D02*
X76453904Y-102957380D01*
X76692000Y-102957380D01*
X76834857Y-103005000D01*
X76930095Y-103100238D01*
X76977714Y-103195476D01*
X77025333Y-103385952D01*
X77025333Y-103528809D01*
X76977714Y-103719285D01*
X76930095Y-103814523D01*
X76834857Y-103909761D01*
X76692000Y-103957380D01*
X76453904Y-103957380D01*
X55149952Y-134532666D02*
X55626142Y-134532666D01*
X55054714Y-134818380D02*
X55388047Y-133818380D01*
X55721380Y-134818380D01*
X56054714Y-134818380D02*
X56054714Y-133818380D01*
X56626142Y-134818380D01*
X56626142Y-133818380D01*
X56959476Y-133818380D02*
X57530904Y-133818380D01*
X57245190Y-134818380D02*
X57245190Y-133818380D01*
X58388047Y-134818380D02*
X57816619Y-134818380D01*
X58102333Y-134818380D02*
X58102333Y-133818380D01*
X58007095Y-133961238D01*
X57911857Y-134056476D01*
X57816619Y-134104095D01*
X55149952Y-126785666D02*
X55626142Y-126785666D01*
X55054714Y-127071380D02*
X55388047Y-126071380D01*
X55721380Y-127071380D01*
X56054714Y-127071380D02*
X56054714Y-126071380D01*
X56626142Y-127071380D01*
X56626142Y-126071380D01*
X56959476Y-126071380D02*
X57530904Y-126071380D01*
X57245190Y-127071380D02*
X57245190Y-126071380D01*
X57816619Y-126166619D02*
X57864238Y-126119000D01*
X57959476Y-126071380D01*
X58197571Y-126071380D01*
X58292809Y-126119000D01*
X58340428Y-126166619D01*
X58388047Y-126261857D01*
X58388047Y-126357095D01*
X58340428Y-126499952D01*
X57769000Y-127071380D01*
X58388047Y-127071380D01*
X55626095Y-121039000D02*
X55530857Y-120991380D01*
X55388000Y-120991380D01*
X55245142Y-121039000D01*
X55149904Y-121134238D01*
X55102285Y-121229476D01*
X55054666Y-121419952D01*
X55054666Y-121562809D01*
X55102285Y-121753285D01*
X55149904Y-121848523D01*
X55245142Y-121943761D01*
X55388000Y-121991380D01*
X55483238Y-121991380D01*
X55626095Y-121943761D01*
X55673714Y-121896142D01*
X55673714Y-121562809D01*
X55483238Y-121562809D01*
X56102285Y-121991380D02*
X56102285Y-120991380D01*
X56673714Y-121991380D01*
X56673714Y-120991380D01*
X57149904Y-121991380D02*
X57149904Y-120991380D01*
X57388000Y-120991380D01*
X57530857Y-121039000D01*
X57626095Y-121134238D01*
X57673714Y-121229476D01*
X57721333Y-121419952D01*
X57721333Y-121562809D01*
X57673714Y-121753285D01*
X57626095Y-121848523D01*
X57530857Y-121943761D01*
X57388000Y-121991380D01*
X57149904Y-121991380D01*
X55753095Y-128786000D02*
X55657857Y-128738380D01*
X55515000Y-128738380D01*
X55372142Y-128786000D01*
X55276904Y-128881238D01*
X55229285Y-128976476D01*
X55181666Y-129166952D01*
X55181666Y-129309809D01*
X55229285Y-129500285D01*
X55276904Y-129595523D01*
X55372142Y-129690761D01*
X55515000Y-129738380D01*
X55610238Y-129738380D01*
X55753095Y-129690761D01*
X55800714Y-129643142D01*
X55800714Y-129309809D01*
X55610238Y-129309809D01*
X56229285Y-129738380D02*
X56229285Y-128738380D01*
X56800714Y-129738380D01*
X56800714Y-128738380D01*
X57276904Y-129738380D02*
X57276904Y-128738380D01*
X57515000Y-128738380D01*
X57657857Y-128786000D01*
X57753095Y-128881238D01*
X57800714Y-128976476D01*
X57848333Y-129166952D01*
X57848333Y-129309809D01*
X57800714Y-129500285D01*
X57753095Y-129595523D01*
X57657857Y-129690761D01*
X57515000Y-129738380D01*
X57276904Y-129738380D01*
X55276952Y-131992666D02*
X55753142Y-131992666D01*
X55181714Y-132278380D02*
X55515047Y-131278380D01*
X55848380Y-132278380D01*
X56181714Y-132278380D02*
X56181714Y-131278380D01*
X56753142Y-132278380D01*
X56753142Y-131278380D01*
X57086476Y-131278380D02*
X57657904Y-131278380D01*
X57372190Y-132278380D02*
X57372190Y-131278380D01*
X58419809Y-131611714D02*
X58419809Y-132278380D01*
X58181714Y-131230761D02*
X57943619Y-131945047D01*
X58562666Y-131945047D01*
X55753095Y-115959000D02*
X55657857Y-115911380D01*
X55515000Y-115911380D01*
X55372142Y-115959000D01*
X55276904Y-116054238D01*
X55229285Y-116149476D01*
X55181666Y-116339952D01*
X55181666Y-116482809D01*
X55229285Y-116673285D01*
X55276904Y-116768523D01*
X55372142Y-116863761D01*
X55515000Y-116911380D01*
X55610238Y-116911380D01*
X55753095Y-116863761D01*
X55800714Y-116816142D01*
X55800714Y-116482809D01*
X55610238Y-116482809D01*
X56229285Y-116911380D02*
X56229285Y-115911380D01*
X56800714Y-116911380D01*
X56800714Y-115911380D01*
X57276904Y-116911380D02*
X57276904Y-115911380D01*
X57515000Y-115911380D01*
X57657857Y-115959000D01*
X57753095Y-116054238D01*
X57800714Y-116149476D01*
X57848333Y-116339952D01*
X57848333Y-116482809D01*
X57800714Y-116673285D01*
X57753095Y-116768523D01*
X57657857Y-116863761D01*
X57515000Y-116911380D01*
X57276904Y-116911380D01*
X74945952Y-109037380D02*
X74374523Y-109037380D01*
X74660238Y-109037380D02*
X74660238Y-108037380D01*
X74565000Y-108180238D01*
X74469761Y-108275476D01*
X74374523Y-108323095D01*
X75326904Y-108132619D02*
X75374523Y-108085000D01*
X75469761Y-108037380D01*
X75707857Y-108037380D01*
X75803095Y-108085000D01*
X75850714Y-108132619D01*
X75898333Y-108227857D01*
X75898333Y-108323095D01*
X75850714Y-108465952D01*
X75279285Y-109037380D01*
X75898333Y-109037380D01*
X76184047Y-108037380D02*
X76517380Y-109037380D01*
X76850714Y-108037380D01*
X60721952Y-83002380D02*
X60150523Y-83002380D01*
X60436238Y-83002380D02*
X60436238Y-82002380D01*
X60341000Y-82145238D01*
X60245761Y-82240476D01*
X60150523Y-82288095D01*
X61102904Y-82097619D02*
X61150523Y-82050000D01*
X61245761Y-82002380D01*
X61483857Y-82002380D01*
X61579095Y-82050000D01*
X61626714Y-82097619D01*
X61674333Y-82192857D01*
X61674333Y-82288095D01*
X61626714Y-82430952D01*
X61055285Y-83002380D01*
X61674333Y-83002380D01*
X61960047Y-82002380D02*
X62293380Y-83002380D01*
X62626714Y-82002380D01*
X74342809Y-105370380D02*
X74961857Y-105370380D01*
X74628523Y-105751333D01*
X74771380Y-105751333D01*
X74866619Y-105798952D01*
X74914238Y-105846571D01*
X74961857Y-105941809D01*
X74961857Y-106179904D01*
X74914238Y-106275142D01*
X74866619Y-106322761D01*
X74771380Y-106370380D01*
X74485666Y-106370380D01*
X74390428Y-106322761D01*
X74342809Y-106275142D01*
X75390428Y-106275142D02*
X75438047Y-106322761D01*
X75390428Y-106370380D01*
X75342809Y-106322761D01*
X75390428Y-106275142D01*
X75390428Y-106370380D01*
X75771380Y-105370380D02*
X76390428Y-105370380D01*
X76057095Y-105751333D01*
X76199952Y-105751333D01*
X76295190Y-105798952D01*
X76342809Y-105846571D01*
X76390428Y-105941809D01*
X76390428Y-106179904D01*
X76342809Y-106275142D01*
X76295190Y-106322761D01*
X76199952Y-106370380D01*
X75914238Y-106370380D01*
X75819000Y-106322761D01*
X75771380Y-106275142D01*
X76676142Y-105370380D02*
X77009476Y-106370380D01*
X77342809Y-105370380D01*
X68278476Y-55931380D02*
X68945142Y-56931380D01*
X68945142Y-55931380D02*
X68278476Y-56931380D01*
X69754666Y-55931380D02*
X69564190Y-55931380D01*
X69468952Y-55979000D01*
X69421333Y-56026619D01*
X69326095Y-56169476D01*
X69278476Y-56359952D01*
X69278476Y-56740904D01*
X69326095Y-56836142D01*
X69373714Y-56883761D01*
X69468952Y-56931380D01*
X69659428Y-56931380D01*
X69754666Y-56883761D01*
X69802285Y-56836142D01*
X69849904Y-56740904D01*
X69849904Y-56502809D01*
X69802285Y-56407571D01*
X69754666Y-56359952D01*
X69659428Y-56312333D01*
X69468952Y-56312333D01*
X69373714Y-56359952D01*
X69326095Y-56407571D01*
X69278476Y-56502809D01*
X60277476Y-98349380D02*
X60944142Y-99349380D01*
X60944142Y-98349380D02*
X60277476Y-99349380D01*
X61801285Y-98349380D02*
X61325095Y-98349380D01*
X61277476Y-98825571D01*
X61325095Y-98777952D01*
X61420333Y-98730333D01*
X61658428Y-98730333D01*
X61753666Y-98777952D01*
X61801285Y-98825571D01*
X61848904Y-98920809D01*
X61848904Y-99158904D01*
X61801285Y-99254142D01*
X61753666Y-99301761D01*
X61658428Y-99349380D01*
X61420333Y-99349380D01*
X61325095Y-99301761D01*
X61277476Y-99254142D01*
X77295476Y-131278380D02*
X77962142Y-132278380D01*
X77962142Y-131278380D02*
X77295476Y-132278380D01*
X78295476Y-131373619D02*
X78343095Y-131326000D01*
X78438333Y-131278380D01*
X78676428Y-131278380D01*
X78771666Y-131326000D01*
X78819285Y-131373619D01*
X78866904Y-131468857D01*
X78866904Y-131564095D01*
X78819285Y-131706952D01*
X78247857Y-132278380D01*
X78866904Y-132278380D01*
X77878380Y-119864095D02*
X76878380Y-119864095D01*
X77878380Y-119292666D02*
X77306952Y-119721238D01*
X76878380Y-119292666D02*
X77449809Y-119864095D01*
X77211714Y-118435523D02*
X77878380Y-118435523D01*
X76830761Y-118673619D02*
X77545047Y-118911714D01*
X77545047Y-118292666D01*
X116355904Y-137949380D02*
X116355904Y-136949380D01*
X116927333Y-137949380D02*
X116498761Y-137377952D01*
X116927333Y-136949380D02*
X116355904Y-137520809D01*
X117260666Y-136949380D02*
X117879714Y-136949380D01*
X117546380Y-137330333D01*
X117689238Y-137330333D01*
X117784476Y-137377952D01*
X117832095Y-137425571D01*
X117879714Y-137520809D01*
X117879714Y-137758904D01*
X117832095Y-137854142D01*
X117784476Y-137901761D01*
X117689238Y-137949380D01*
X117403523Y-137949380D01*
X117308285Y-137901761D01*
X117260666Y-137854142D01*
X116609904Y-119534380D02*
X116609904Y-118534380D01*
X117181333Y-119534380D02*
X116752761Y-118962952D01*
X117181333Y-118534380D02*
X116609904Y-119105809D01*
X117562285Y-118629619D02*
X117609904Y-118582000D01*
X117705142Y-118534380D01*
X117943238Y-118534380D01*
X118038476Y-118582000D01*
X118086095Y-118629619D01*
X118133714Y-118724857D01*
X118133714Y-118820095D01*
X118086095Y-118962952D01*
X117514666Y-119534380D01*
X118133714Y-119534380D01*
X116736904Y-112168380D02*
X116736904Y-111168380D01*
X117308333Y-112168380D02*
X116879761Y-111596952D01*
X117308333Y-111168380D02*
X116736904Y-111739809D01*
X118260714Y-112168380D02*
X117689285Y-112168380D01*
X117975000Y-112168380D02*
X117975000Y-111168380D01*
X117879761Y-111311238D01*
X117784523Y-111406476D01*
X117689285Y-111454095D01*
X131151333Y-142597142D02*
X131103714Y-142644761D01*
X130960857Y-142692380D01*
X130865619Y-142692380D01*
X130722761Y-142644761D01*
X130627523Y-142549523D01*
X130579904Y-142454285D01*
X130532285Y-142263809D01*
X130532285Y-142120952D01*
X130579904Y-141930476D01*
X130627523Y-141835238D01*
X130722761Y-141740000D01*
X130865619Y-141692380D01*
X130960857Y-141692380D01*
X131103714Y-141740000D01*
X131151333Y-141787619D01*
X131484666Y-141692380D02*
X132151333Y-141692380D01*
X131722761Y-142692380D01*
X52276476Y-136993380D02*
X52943142Y-137993380D01*
X52943142Y-136993380D02*
X52276476Y-137993380D01*
X53752666Y-137326714D02*
X53752666Y-137993380D01*
X53514571Y-136945761D02*
X53276476Y-137660047D01*
X53895523Y-137660047D01*
X131024333Y-139644380D02*
X130691000Y-139168190D01*
X130452904Y-139644380D02*
X130452904Y-138644380D01*
X130833857Y-138644380D01*
X130929095Y-138692000D01*
X130976714Y-138739619D01*
X131024333Y-138834857D01*
X131024333Y-138977714D01*
X130976714Y-139072952D01*
X130929095Y-139120571D01*
X130833857Y-139168190D01*
X130452904Y-139168190D01*
X131357666Y-138644380D02*
X132024333Y-138644380D01*
X131595761Y-139644380D01*
X112482333Y-129696380D02*
X112149000Y-129220190D01*
X111910904Y-129696380D02*
X111910904Y-128696380D01*
X112291857Y-128696380D01*
X112387095Y-128744000D01*
X112434714Y-128791619D01*
X112482333Y-128886857D01*
X112482333Y-129029714D01*
X112434714Y-129124952D01*
X112387095Y-129172571D01*
X112291857Y-129220190D01*
X111910904Y-129220190D01*
X112815666Y-128696380D02*
X113434714Y-128696380D01*
X113101380Y-129077333D01*
X113244238Y-129077333D01*
X113339476Y-129124952D01*
X113387095Y-129172571D01*
X113434714Y-129267809D01*
X113434714Y-129505904D01*
X113387095Y-129601142D01*
X113339476Y-129648761D01*
X113244238Y-129696380D01*
X112958523Y-129696380D01*
X112863285Y-129648761D01*
X112815666Y-129601142D01*
X124997380Y-112053666D02*
X124521190Y-112387000D01*
X124997380Y-112625095D02*
X123997380Y-112625095D01*
X123997380Y-112244142D01*
X124045000Y-112148904D01*
X124092619Y-112101285D01*
X124187857Y-112053666D01*
X124330714Y-112053666D01*
X124425952Y-112101285D01*
X124473571Y-112148904D01*
X124521190Y-112244142D01*
X124521190Y-112625095D01*
X124997380Y-111577476D02*
X124997380Y-111387000D01*
X124949761Y-111291761D01*
X124902142Y-111244142D01*
X124759285Y-111148904D01*
X124568809Y-111101285D01*
X124187857Y-111101285D01*
X124092619Y-111148904D01*
X124045000Y-111196523D01*
X123997380Y-111291761D01*
X123997380Y-111482238D01*
X124045000Y-111577476D01*
X124092619Y-111625095D01*
X124187857Y-111672714D01*
X124425952Y-111672714D01*
X124521190Y-111625095D01*
X124568809Y-111577476D01*
X124616428Y-111482238D01*
X124616428Y-111291761D01*
X124568809Y-111196523D01*
X124521190Y-111148904D01*
X124425952Y-111101285D01*
X108360380Y-115863666D02*
X107884190Y-116197000D01*
X108360380Y-116435095D02*
X107360380Y-116435095D01*
X107360380Y-116054142D01*
X107408000Y-115958904D01*
X107455619Y-115911285D01*
X107550857Y-115863666D01*
X107693714Y-115863666D01*
X107788952Y-115911285D01*
X107836571Y-115958904D01*
X107884190Y-116054142D01*
X107884190Y-116435095D01*
X107455619Y-115482714D02*
X107408000Y-115435095D01*
X107360380Y-115339857D01*
X107360380Y-115101761D01*
X107408000Y-115006523D01*
X107455619Y-114958904D01*
X107550857Y-114911285D01*
X107646095Y-114911285D01*
X107788952Y-114958904D01*
X108360380Y-115530333D01*
X108360380Y-114911285D01*
X130881380Y-105703666D02*
X130405190Y-106037000D01*
X130881380Y-106275095D02*
X129881380Y-106275095D01*
X129881380Y-105894142D01*
X129929000Y-105798904D01*
X129976619Y-105751285D01*
X130071857Y-105703666D01*
X130214714Y-105703666D01*
X130309952Y-105751285D01*
X130357571Y-105798904D01*
X130405190Y-105894142D01*
X130405190Y-106275095D01*
X129881380Y-104798904D02*
X129881380Y-105275095D01*
X130357571Y-105322714D01*
X130309952Y-105275095D01*
X130262333Y-105179857D01*
X130262333Y-104941761D01*
X130309952Y-104846523D01*
X130357571Y-104798904D01*
X130452809Y-104751285D01*
X130690904Y-104751285D01*
X130786142Y-104798904D01*
X130833761Y-104846523D01*
X130881380Y-104941761D01*
X130881380Y-105179857D01*
X130833761Y-105275095D01*
X130786142Y-105322714D01*
X130929142Y-136723380D02*
X130595809Y-136247190D01*
X130357714Y-136723380D02*
X130357714Y-135723380D01*
X130738666Y-135723380D01*
X130833904Y-135771000D01*
X130881523Y-135818619D01*
X130929142Y-135913857D01*
X130929142Y-136056714D01*
X130881523Y-136151952D01*
X130833904Y-136199571D01*
X130738666Y-136247190D01*
X130357714Y-136247190D01*
X131881523Y-136723380D02*
X131310095Y-136723380D01*
X131595809Y-136723380D02*
X131595809Y-135723380D01*
X131500571Y-135866238D01*
X131405333Y-135961476D01*
X131310095Y-136009095D01*
X132833904Y-136723380D02*
X132262476Y-136723380D01*
X132548190Y-136723380D02*
X132548190Y-135723380D01*
X132452952Y-135866238D01*
X132357714Y-135961476D01*
X132262476Y-136009095D01*
X65775142Y-90717666D02*
X65822761Y-90765285D01*
X65870380Y-90908142D01*
X65870380Y-91003380D01*
X65822761Y-91146238D01*
X65727523Y-91241476D01*
X65632285Y-91289095D01*
X65441809Y-91336714D01*
X65298952Y-91336714D01*
X65108476Y-91289095D01*
X65013238Y-91241476D01*
X64918000Y-91146238D01*
X64870380Y-91003380D01*
X64870380Y-90908142D01*
X64918000Y-90765285D01*
X64965619Y-90717666D01*
X64870380Y-90384333D02*
X64870380Y-89765285D01*
X65251333Y-90098619D01*
X65251333Y-89955761D01*
X65298952Y-89860523D01*
X65346571Y-89812904D01*
X65441809Y-89765285D01*
X65679904Y-89765285D01*
X65775142Y-89812904D01*
X65822761Y-89860523D01*
X65870380Y-89955761D01*
X65870380Y-90241476D01*
X65822761Y-90336714D01*
X65775142Y-90384333D01*
X68286333Y-103989142D02*
X68238714Y-104036761D01*
X68095857Y-104084380D01*
X68000619Y-104084380D01*
X67857761Y-104036761D01*
X67762523Y-103941523D01*
X67714904Y-103846285D01*
X67667285Y-103655809D01*
X67667285Y-103512952D01*
X67714904Y-103322476D01*
X67762523Y-103227238D01*
X67857761Y-103132000D01*
X68000619Y-103084380D01*
X68095857Y-103084380D01*
X68238714Y-103132000D01*
X68286333Y-103179619D01*
X68857761Y-103512952D02*
X68762523Y-103465333D01*
X68714904Y-103417714D01*
X68667285Y-103322476D01*
X68667285Y-103274857D01*
X68714904Y-103179619D01*
X68762523Y-103132000D01*
X68857761Y-103084380D01*
X69048238Y-103084380D01*
X69143476Y-103132000D01*
X69191095Y-103179619D01*
X69238714Y-103274857D01*
X69238714Y-103322476D01*
X69191095Y-103417714D01*
X69143476Y-103465333D01*
X69048238Y-103512952D01*
X68857761Y-103512952D01*
X68762523Y-103560571D01*
X68714904Y-103608190D01*
X68667285Y-103703428D01*
X68667285Y-103893904D01*
X68714904Y-103989142D01*
X68762523Y-104036761D01*
X68857761Y-104084380D01*
X69048238Y-104084380D01*
X69143476Y-104036761D01*
X69191095Y-103989142D01*
X69238714Y-103893904D01*
X69238714Y-103703428D01*
X69191095Y-103608190D01*
X69143476Y-103560571D01*
X69048238Y-103512952D01*
X72604333Y-110434380D02*
X72271000Y-109958190D01*
X72032904Y-110434380D02*
X72032904Y-109434380D01*
X72413857Y-109434380D01*
X72509095Y-109482000D01*
X72556714Y-109529619D01*
X72604333Y-109624857D01*
X72604333Y-109767714D01*
X72556714Y-109862952D01*
X72509095Y-109910571D01*
X72413857Y-109958190D01*
X72032904Y-109958190D01*
X73175761Y-109862952D02*
X73080523Y-109815333D01*
X73032904Y-109767714D01*
X72985285Y-109672476D01*
X72985285Y-109624857D01*
X73032904Y-109529619D01*
X73080523Y-109482000D01*
X73175761Y-109434380D01*
X73366238Y-109434380D01*
X73461476Y-109482000D01*
X73509095Y-109529619D01*
X73556714Y-109624857D01*
X73556714Y-109672476D01*
X73509095Y-109767714D01*
X73461476Y-109815333D01*
X73366238Y-109862952D01*
X73175761Y-109862952D01*
X73080523Y-109910571D01*
X73032904Y-109958190D01*
X72985285Y-110053428D01*
X72985285Y-110243904D01*
X73032904Y-110339142D01*
X73080523Y-110386761D01*
X73175761Y-110434380D01*
X73366238Y-110434380D01*
X73461476Y-110386761D01*
X73509095Y-110339142D01*
X73556714Y-110243904D01*
X73556714Y-110053428D01*
X73509095Y-109958190D01*
X73461476Y-109910571D01*
X73366238Y-109862952D01*
X130735619Y-130905238D02*
X130688000Y-131000476D01*
X130592761Y-131095714D01*
X130449904Y-131238571D01*
X130402285Y-131333809D01*
X130402285Y-131429047D01*
X130640380Y-131381428D02*
X130592761Y-131476666D01*
X130497523Y-131571904D01*
X130307047Y-131619523D01*
X129973714Y-131619523D01*
X129783238Y-131571904D01*
X129688000Y-131476666D01*
X129640380Y-131381428D01*
X129640380Y-131190952D01*
X129688000Y-131095714D01*
X129783238Y-131000476D01*
X129973714Y-130952857D01*
X130307047Y-130952857D01*
X130497523Y-131000476D01*
X130592761Y-131095714D01*
X130640380Y-131190952D01*
X130640380Y-131381428D01*
X129640380Y-130619523D02*
X129640380Y-130000476D01*
X130021333Y-130333809D01*
X130021333Y-130190952D01*
X130068952Y-130095714D01*
X130116571Y-130048095D01*
X130211809Y-130000476D01*
X130449904Y-130000476D01*
X130545142Y-130048095D01*
X130592761Y-130095714D01*
X130640380Y-130190952D01*
X130640380Y-130476666D01*
X130592761Y-130571904D01*
X130545142Y-130619523D01*
X136707571Y-77295333D02*
X136707571Y-77628666D01*
X137231380Y-77628666D02*
X136231380Y-77628666D01*
X136231380Y-77152476D01*
X137231380Y-76247714D02*
X137231380Y-76819142D01*
X137231380Y-76533428D02*
X136231380Y-76533428D01*
X136374238Y-76628666D01*
X136469476Y-76723904D01*
X136517095Y-76819142D01*
X81240333Y-129907380D02*
X80907000Y-129431190D01*
X80668904Y-129907380D02*
X80668904Y-128907380D01*
X81049857Y-128907380D01*
X81145095Y-128955000D01*
X81192714Y-129002619D01*
X81240333Y-129097857D01*
X81240333Y-129240714D01*
X81192714Y-129335952D01*
X81145095Y-129383571D01*
X81049857Y-129431190D01*
X80668904Y-129431190D01*
X82097476Y-129240714D02*
X82097476Y-129907380D01*
X81859380Y-128859761D02*
X81621285Y-129574047D01*
X82240333Y-129574047D01*
X135612142Y-105449666D02*
X135659761Y-105497285D01*
X135707380Y-105640142D01*
X135707380Y-105735380D01*
X135659761Y-105878238D01*
X135564523Y-105973476D01*
X135469285Y-106021095D01*
X135278809Y-106068714D01*
X135135952Y-106068714D01*
X134945476Y-106021095D01*
X134850238Y-105973476D01*
X134755000Y-105878238D01*
X134707380Y-105735380D01*
X134707380Y-105640142D01*
X134755000Y-105497285D01*
X134802619Y-105449666D01*
X134707380Y-104544904D02*
X134707380Y-105021095D01*
X135183571Y-105068714D01*
X135135952Y-105021095D01*
X135088333Y-104925857D01*
X135088333Y-104687761D01*
X135135952Y-104592523D01*
X135183571Y-104544904D01*
X135278809Y-104497285D01*
X135516904Y-104497285D01*
X135612142Y-104544904D01*
X135659761Y-104592523D01*
X135707380Y-104687761D01*
X135707380Y-104925857D01*
X135659761Y-105021095D01*
X135612142Y-105068714D01*
X110577333Y-137231380D02*
X110244000Y-136755190D01*
X110005904Y-137231380D02*
X110005904Y-136231380D01*
X110386857Y-136231380D01*
X110482095Y-136279000D01*
X110529714Y-136326619D01*
X110577333Y-136421857D01*
X110577333Y-136564714D01*
X110529714Y-136659952D01*
X110482095Y-136707571D01*
X110386857Y-136755190D01*
X110005904Y-136755190D01*
X111529714Y-137231380D02*
X110958285Y-137231380D01*
X111244000Y-137231380D02*
X111244000Y-136231380D01*
X111148761Y-136374238D01*
X111053523Y-136469476D01*
X110958285Y-136517095D01*
X132386619Y-117443238D02*
X132339000Y-117538476D01*
X132243761Y-117633714D01*
X132100904Y-117776571D01*
X132053285Y-117871809D01*
X132053285Y-117967047D01*
X132291380Y-117919428D02*
X132243761Y-118014666D01*
X132148523Y-118109904D01*
X131958047Y-118157523D01*
X131624714Y-118157523D01*
X131434238Y-118109904D01*
X131339000Y-118014666D01*
X131291380Y-117919428D01*
X131291380Y-117728952D01*
X131339000Y-117633714D01*
X131434238Y-117538476D01*
X131624714Y-117490857D01*
X131958047Y-117490857D01*
X132148523Y-117538476D01*
X132243761Y-117633714D01*
X132291380Y-117728952D01*
X132291380Y-117919428D01*
X131386619Y-117109904D02*
X131339000Y-117062285D01*
X131291380Y-116967047D01*
X131291380Y-116728952D01*
X131339000Y-116633714D01*
X131386619Y-116586095D01*
X131481857Y-116538476D01*
X131577095Y-116538476D01*
X131719952Y-116586095D01*
X132291380Y-117157523D01*
X132291380Y-116538476D01*
X77439142Y-62055666D02*
X77486761Y-62103285D01*
X77534380Y-62246142D01*
X77534380Y-62341380D01*
X77486761Y-62484238D01*
X77391523Y-62579476D01*
X77296285Y-62627095D01*
X77105809Y-62674714D01*
X76962952Y-62674714D01*
X76772476Y-62627095D01*
X76677238Y-62579476D01*
X76582000Y-62484238D01*
X76534380Y-62341380D01*
X76534380Y-62246142D01*
X76582000Y-62103285D01*
X76629619Y-62055666D01*
X77534380Y-61579476D02*
X77534380Y-61389000D01*
X77486761Y-61293761D01*
X77439142Y-61246142D01*
X77296285Y-61150904D01*
X77105809Y-61103285D01*
X76724857Y-61103285D01*
X76629619Y-61150904D01*
X76582000Y-61198523D01*
X76534380Y-61293761D01*
X76534380Y-61484238D01*
X76582000Y-61579476D01*
X76629619Y-61627095D01*
X76724857Y-61674714D01*
X76962952Y-61674714D01*
X77058190Y-61627095D01*
X77105809Y-61579476D01*
X77153428Y-61484238D01*
X77153428Y-61293761D01*
X77105809Y-61198523D01*
X77058190Y-61150904D01*
X76962952Y-61103285D01*
X89398095Y-72711380D02*
X89969523Y-72711380D01*
X89683809Y-73711380D02*
X89683809Y-72711380D01*
X90255238Y-72806619D02*
X90302857Y-72759000D01*
X90398095Y-72711380D01*
X90636190Y-72711380D01*
X90731428Y-72759000D01*
X90779047Y-72806619D01*
X90826666Y-72901857D01*
X90826666Y-72997095D01*
X90779047Y-73139952D01*
X90207619Y-73711380D01*
X90826666Y-73711380D01*
X131913333Y-127611142D02*
X131865714Y-127658761D01*
X131722857Y-127706380D01*
X131627619Y-127706380D01*
X131484761Y-127658761D01*
X131389523Y-127563523D01*
X131341904Y-127468285D01*
X131294285Y-127277809D01*
X131294285Y-127134952D01*
X131341904Y-126944476D01*
X131389523Y-126849238D01*
X131484761Y-126754000D01*
X131627619Y-126706380D01*
X131722857Y-126706380D01*
X131865714Y-126754000D01*
X131913333Y-126801619D01*
X132770476Y-126706380D02*
X132580000Y-126706380D01*
X132484761Y-126754000D01*
X132437142Y-126801619D01*
X132341904Y-126944476D01*
X132294285Y-127134952D01*
X132294285Y-127515904D01*
X132341904Y-127611142D01*
X132389523Y-127658761D01*
X132484761Y-127706380D01*
X132675238Y-127706380D01*
X132770476Y-127658761D01*
X132818095Y-127611142D01*
X132865714Y-127515904D01*
X132865714Y-127277809D01*
X132818095Y-127182571D01*
X132770476Y-127134952D01*
X132675238Y-127087333D01*
X132484761Y-127087333D01*
X132389523Y-127134952D01*
X132341904Y-127182571D01*
X132294285Y-127277809D01*
X82414380Y-77192095D02*
X81414380Y-77192095D01*
X82414380Y-76620666D02*
X81842952Y-77049238D01*
X81414380Y-76620666D02*
X81985809Y-77192095D01*
X81414380Y-75715904D02*
X81414380Y-76192095D01*
X81890571Y-76239714D01*
X81842952Y-76192095D01*
X81795333Y-76096857D01*
X81795333Y-75858761D01*
X81842952Y-75763523D01*
X81890571Y-75715904D01*
X81985809Y-75668285D01*
X82223904Y-75668285D01*
X82319142Y-75715904D01*
X82366761Y-75763523D01*
X82414380Y-75858761D01*
X82414380Y-76096857D01*
X82366761Y-76192095D01*
X82319142Y-76239714D01*
X127341380Y-84375523D02*
X128341380Y-83708857D01*
X127341380Y-83708857D02*
X128341380Y-84375523D01*
X128341380Y-82804095D02*
X128341380Y-83375523D01*
X128341380Y-83089809D02*
X127341380Y-83089809D01*
X127484238Y-83185047D01*
X127579476Y-83280285D01*
X127627095Y-83375523D01*
X67595761Y-120435619D02*
X67500523Y-120388000D01*
X67405285Y-120292761D01*
X67262428Y-120149904D01*
X67167190Y-120102285D01*
X67071952Y-120102285D01*
X67119571Y-120340380D02*
X67024333Y-120292761D01*
X66929095Y-120197523D01*
X66881476Y-120007047D01*
X66881476Y-119673714D01*
X66929095Y-119483238D01*
X67024333Y-119388000D01*
X67119571Y-119340380D01*
X67310047Y-119340380D01*
X67405285Y-119388000D01*
X67500523Y-119483238D01*
X67548142Y-119673714D01*
X67548142Y-120007047D01*
X67500523Y-120197523D01*
X67405285Y-120292761D01*
X67310047Y-120340380D01*
X67119571Y-120340380D01*
X68405285Y-119673714D02*
X68405285Y-120340380D01*
X68167190Y-119292761D02*
X67929095Y-120007047D01*
X68548142Y-120007047D01*
X100915380Y-106783095D02*
X99915380Y-106783095D01*
X100915380Y-106211666D02*
X100343952Y-106640238D01*
X99915380Y-106211666D02*
X100486809Y-106783095D01*
X99915380Y-105354523D02*
X99915380Y-105545000D01*
X99963000Y-105640238D01*
X100010619Y-105687857D01*
X100153476Y-105783095D01*
X100343952Y-105830714D01*
X100724904Y-105830714D01*
X100820142Y-105783095D01*
X100867761Y-105735476D01*
X100915380Y-105640238D01*
X100915380Y-105449761D01*
X100867761Y-105354523D01*
X100820142Y-105306904D01*
X100724904Y-105259285D01*
X100486809Y-105259285D01*
X100391571Y-105306904D01*
X100343952Y-105354523D01*
X100296333Y-105449761D01*
X100296333Y-105640238D01*
X100343952Y-105735476D01*
X100391571Y-105783095D01*
X100486809Y-105830714D01*
X70231095Y-137709761D02*
X70373952Y-137757380D01*
X70612047Y-137757380D01*
X70707285Y-137709761D01*
X70754904Y-137662142D01*
X70802523Y-137566904D01*
X70802523Y-137471666D01*
X70754904Y-137376428D01*
X70707285Y-137328809D01*
X70612047Y-137281190D01*
X70421571Y-137233571D01*
X70326333Y-137185952D01*
X70278714Y-137138333D01*
X70231095Y-137043095D01*
X70231095Y-136947857D01*
X70278714Y-136852619D01*
X70326333Y-136805000D01*
X70421571Y-136757380D01*
X70659666Y-136757380D01*
X70802523Y-136805000D01*
X71754904Y-137757380D02*
X71183476Y-137757380D01*
X71469190Y-137757380D02*
X71469190Y-136757380D01*
X71373952Y-136900238D01*
X71278714Y-136995476D01*
X71183476Y-137043095D01*
X82891333Y-87153142D02*
X82843714Y-87200761D01*
X82700857Y-87248380D01*
X82605619Y-87248380D01*
X82462761Y-87200761D01*
X82367523Y-87105523D01*
X82319904Y-87010285D01*
X82272285Y-86819809D01*
X82272285Y-86676952D01*
X82319904Y-86486476D01*
X82367523Y-86391238D01*
X82462761Y-86296000D01*
X82605619Y-86248380D01*
X82700857Y-86248380D01*
X82843714Y-86296000D01*
X82891333Y-86343619D01*
X83272285Y-86343619D02*
X83319904Y-86296000D01*
X83415142Y-86248380D01*
X83653238Y-86248380D01*
X83748476Y-86296000D01*
X83796095Y-86343619D01*
X83843714Y-86438857D01*
X83843714Y-86534095D01*
X83796095Y-86676952D01*
X83224666Y-87248380D01*
X83843714Y-87248380D01*
X109601095Y-94448380D02*
X110172523Y-94448380D01*
X109886809Y-95448380D02*
X109886809Y-94448380D01*
X111029666Y-95448380D02*
X110458238Y-95448380D01*
X110743952Y-95448380D02*
X110743952Y-94448380D01*
X110648714Y-94591238D01*
X110553476Y-94686476D01*
X110458238Y-94734095D01*
X117815380Y-78025523D02*
X116815380Y-78025523D01*
X116815380Y-77644571D01*
X116863000Y-77549333D01*
X116910619Y-77501714D01*
X117005857Y-77454095D01*
X117148714Y-77454095D01*
X117243952Y-77501714D01*
X117291571Y-77549333D01*
X117339190Y-77644571D01*
X117339190Y-78025523D01*
X117815380Y-77025523D02*
X117148714Y-77025523D01*
X117339190Y-77025523D02*
X117243952Y-76977904D01*
X117196333Y-76930285D01*
X117148714Y-76835047D01*
X117148714Y-76739809D01*
X117815380Y-76406476D02*
X117148714Y-76406476D01*
X116815380Y-76406476D02*
X116863000Y-76454095D01*
X116910619Y-76406476D01*
X116863000Y-76358857D01*
X116815380Y-76406476D01*
X116910619Y-76406476D01*
X117815380Y-64930285D02*
X117815380Y-65501714D01*
X117815380Y-65216000D02*
X116815380Y-65216000D01*
X116958238Y-65311238D01*
X117053476Y-65406476D01*
X117101095Y-65501714D01*
X103767761Y-78358857D02*
X103815380Y-78216000D01*
X103815380Y-77977904D01*
X103767761Y-77882666D01*
X103720142Y-77835047D01*
X103624904Y-77787428D01*
X103529666Y-77787428D01*
X103434428Y-77835047D01*
X103386809Y-77882666D01*
X103339190Y-77977904D01*
X103291571Y-78168380D01*
X103243952Y-78263619D01*
X103196333Y-78311238D01*
X103101095Y-78358857D01*
X103005857Y-78358857D01*
X102910619Y-78311238D01*
X102863000Y-78263619D01*
X102815380Y-78168380D01*
X102815380Y-77930285D01*
X102863000Y-77787428D01*
X103767761Y-76977904D02*
X103815380Y-77073142D01*
X103815380Y-77263619D01*
X103767761Y-77358857D01*
X103672523Y-77406476D01*
X103291571Y-77406476D01*
X103196333Y-77358857D01*
X103148714Y-77263619D01*
X103148714Y-77073142D01*
X103196333Y-76977904D01*
X103291571Y-76930285D01*
X103386809Y-76930285D01*
X103482047Y-77406476D01*
X103767761Y-76073142D02*
X103815380Y-76168380D01*
X103815380Y-76358857D01*
X103767761Y-76454095D01*
X103720142Y-76501714D01*
X103624904Y-76549333D01*
X103339190Y-76549333D01*
X103243952Y-76501714D01*
X103196333Y-76454095D01*
X103148714Y-76358857D01*
X103148714Y-76168380D01*
X103196333Y-76073142D01*
X66511142Y-97067666D02*
X66558761Y-97115285D01*
X66606380Y-97258142D01*
X66606380Y-97353380D01*
X66558761Y-97496238D01*
X66463523Y-97591476D01*
X66368285Y-97639095D01*
X66177809Y-97686714D01*
X66034952Y-97686714D01*
X65844476Y-97639095D01*
X65749238Y-97591476D01*
X65654000Y-97496238D01*
X65606380Y-97353380D01*
X65606380Y-97258142D01*
X65654000Y-97115285D01*
X65701619Y-97067666D01*
X65939714Y-96210523D02*
X66606380Y-96210523D01*
X65558761Y-96448619D02*
X66273047Y-96686714D01*
X66273047Y-96067666D01*
X73144142Y-118096380D02*
X72810809Y-117620190D01*
X72572714Y-118096380D02*
X72572714Y-117096380D01*
X72953666Y-117096380D01*
X73048904Y-117144000D01*
X73096523Y-117191619D01*
X73144142Y-117286857D01*
X73144142Y-117429714D01*
X73096523Y-117524952D01*
X73048904Y-117572571D01*
X72953666Y-117620190D01*
X72572714Y-117620190D01*
X74096523Y-118096380D02*
X73525095Y-118096380D01*
X73810809Y-118096380D02*
X73810809Y-117096380D01*
X73715571Y-117239238D01*
X73620333Y-117334476D01*
X73525095Y-117382095D01*
X74477476Y-117191619D02*
X74525095Y-117144000D01*
X74620333Y-117096380D01*
X74858428Y-117096380D01*
X74953666Y-117144000D01*
X75001285Y-117191619D01*
X75048904Y-117286857D01*
X75048904Y-117382095D01*
X75001285Y-117524952D01*
X74429857Y-118096380D01*
X75048904Y-118096380D01*
X131913333Y-124912380D02*
X131580000Y-124436190D01*
X131341904Y-124912380D02*
X131341904Y-123912380D01*
X131722857Y-123912380D01*
X131818095Y-123960000D01*
X131865714Y-124007619D01*
X131913333Y-124102857D01*
X131913333Y-124245714D01*
X131865714Y-124340952D01*
X131818095Y-124388571D01*
X131722857Y-124436190D01*
X131341904Y-124436190D01*
X132770476Y-123912380D02*
X132580000Y-123912380D01*
X132484761Y-123960000D01*
X132437142Y-124007619D01*
X132341904Y-124150476D01*
X132294285Y-124340952D01*
X132294285Y-124721904D01*
X132341904Y-124817142D01*
X132389523Y-124864761D01*
X132484761Y-124912380D01*
X132675238Y-124912380D01*
X132770476Y-124864761D01*
X132818095Y-124817142D01*
X132865714Y-124721904D01*
X132865714Y-124483809D01*
X132818095Y-124388571D01*
X132770476Y-124340952D01*
X132675238Y-124293333D01*
X132484761Y-124293333D01*
X132389523Y-124340952D01*
X132341904Y-124388571D01*
X132294285Y-124483809D01*
X123623619Y-106267238D02*
X123576000Y-106362476D01*
X123480761Y-106457714D01*
X123337904Y-106600571D01*
X123290285Y-106695809D01*
X123290285Y-106791047D01*
X123528380Y-106743428D02*
X123480761Y-106838666D01*
X123385523Y-106933904D01*
X123195047Y-106981523D01*
X122861714Y-106981523D01*
X122671238Y-106933904D01*
X122576000Y-106838666D01*
X122528380Y-106743428D01*
X122528380Y-106552952D01*
X122576000Y-106457714D01*
X122671238Y-106362476D01*
X122861714Y-106314857D01*
X123195047Y-106314857D01*
X123385523Y-106362476D01*
X123480761Y-106457714D01*
X123528380Y-106552952D01*
X123528380Y-106743428D01*
X123528380Y-105362476D02*
X123528380Y-105933904D01*
X123528380Y-105648190D02*
X122528380Y-105648190D01*
X122671238Y-105743428D01*
X122766476Y-105838666D01*
X122814095Y-105933904D01*
X107607380Y-146605523D02*
X108607380Y-145938857D01*
X107607380Y-145938857D02*
X108607380Y-146605523D01*
X107607380Y-145653142D02*
X107607380Y-145034095D01*
X107988333Y-145367428D01*
X107988333Y-145224571D01*
X108035952Y-145129333D01*
X108083571Y-145081714D01*
X108178809Y-145034095D01*
X108416904Y-145034095D01*
X108512142Y-145081714D01*
X108559761Y-145129333D01*
X108607380Y-145224571D01*
X108607380Y-145510285D01*
X108559761Y-145605523D01*
X108512142Y-145653142D01*
X131818142Y-122372380D02*
X131484809Y-121896190D01*
X131246714Y-122372380D02*
X131246714Y-121372380D01*
X131627666Y-121372380D01*
X131722904Y-121420000D01*
X131770523Y-121467619D01*
X131818142Y-121562857D01*
X131818142Y-121705714D01*
X131770523Y-121800952D01*
X131722904Y-121848571D01*
X131627666Y-121896190D01*
X131246714Y-121896190D01*
X132770523Y-122372380D02*
X132199095Y-122372380D01*
X132484809Y-122372380D02*
X132484809Y-121372380D01*
X132389571Y-121515238D01*
X132294333Y-121610476D01*
X132199095Y-121658095D01*
X133389571Y-121372380D02*
X133484809Y-121372380D01*
X133580047Y-121420000D01*
X133627666Y-121467619D01*
X133675285Y-121562857D01*
X133722904Y-121753333D01*
X133722904Y-121991428D01*
X133675285Y-122181904D01*
X133627666Y-122277142D01*
X133580047Y-122324761D01*
X133484809Y-122372380D01*
X133389571Y-122372380D01*
X133294333Y-122324761D01*
X133246714Y-122277142D01*
X133199095Y-122181904D01*
X133151476Y-121991428D01*
X133151476Y-121753333D01*
X133199095Y-121562857D01*
X133246714Y-121467619D01*
X133294333Y-121420000D01*
X133389571Y-121372380D01*
D12*
X69783000Y-58724000D02*
X69783000Y-58599000D01*
X68393000Y-58724000D02*
X68479724Y-58724000D01*
X68393000Y-57354000D02*
X69088000Y-57354000D01*
X68393000Y-58724000D02*
X68393000Y-58599000D01*
X69696276Y-58724000D02*
X69783000Y-58724000D01*
X68393000Y-58724000D02*
X69783000Y-58724000D01*
X68393000Y-58039000D02*
X68393000Y-57354000D01*
X61782000Y-101142000D02*
X61782000Y-101017000D01*
X60392000Y-101142000D02*
X60478724Y-101142000D01*
X60392000Y-99772000D02*
X61087000Y-99772000D01*
X60392000Y-101142000D02*
X60392000Y-101017000D01*
X61695276Y-101142000D02*
X61782000Y-101142000D01*
X60392000Y-101142000D02*
X61782000Y-101142000D01*
X60392000Y-100457000D02*
X60392000Y-99772000D01*
X81153000Y-131512000D02*
X82483000Y-131512000D01*
X82483000Y-134112000D02*
X82483000Y-139252000D01*
X79823000Y-134112000D02*
X79823000Y-139252000D01*
X79823000Y-134112000D02*
X82483000Y-134112000D01*
X82483000Y-131512000D02*
X82483000Y-132842000D01*
X79823000Y-139252000D02*
X82483000Y-139252000D01*
X78426000Y-120126000D02*
X78426000Y-122361000D01*
X83626000Y-115891000D02*
X78426000Y-115891000D01*
X78426000Y-122361000D02*
X83626000Y-122361000D01*
X83626000Y-122361000D02*
X83626000Y-115891000D01*
X78426000Y-115891000D02*
X78426000Y-118126000D01*
X78426000Y-120126000D02*
G75*
G03*
X78426000Y-118126000I0J1000000D01*
G01*
X116094000Y-138497000D02*
X113859000Y-138497000D01*
X120329000Y-143697000D02*
X120329000Y-138497000D01*
X113859000Y-138497000D02*
X113859000Y-143697000D01*
X113859000Y-143697000D02*
X120329000Y-143697000D01*
X120329000Y-138497000D02*
X118094000Y-138497000D01*
X116094000Y-138497000D02*
G75*
G03*
X118094000Y-138497000I1000000J0D01*
G01*
X116348000Y-120082000D02*
X114113000Y-120082000D01*
X120583000Y-125282000D02*
X120583000Y-120082000D01*
X114113000Y-120082000D02*
X114113000Y-125282000D01*
X114113000Y-125282000D02*
X120583000Y-125282000D01*
X120583000Y-120082000D02*
X118348000Y-120082000D01*
X116348000Y-120082000D02*
G75*
G03*
X118348000Y-120082000I1000000J0D01*
G01*
X116475000Y-112716000D02*
X114240000Y-112716000D01*
X120710000Y-117916000D02*
X120710000Y-112716000D01*
X114240000Y-112716000D02*
X114240000Y-117916000D01*
X114240000Y-117916000D02*
X120710000Y-117916000D01*
X120710000Y-112716000D02*
X118475000Y-112716000D01*
X116475000Y-112716000D02*
G75*
G03*
X118475000Y-112716000I1000000J0D01*
G01*
X128219252Y-141330000D02*
X126796748Y-141330000D01*
X128219252Y-143150000D02*
X126796748Y-143150000D01*
X54416000Y-134351000D02*
X54416000Y-135681000D01*
X54416000Y-133081000D02*
X51756000Y-133081000D01*
X54416000Y-135681000D02*
X53086000Y-135681000D01*
X54416000Y-115241000D02*
X51756000Y-115241000D01*
X51756000Y-133081000D02*
X51756000Y-115241000D01*
X54416000Y-133081000D02*
X54416000Y-115241000D01*
X128235064Y-140102000D02*
X126780936Y-140102000D01*
X128235064Y-138282000D02*
X126780936Y-138282000D01*
X111921936Y-131974000D02*
X113376064Y-131974000D01*
X111921936Y-130154000D02*
X113376064Y-130154000D01*
X125455000Y-112614064D02*
X125455000Y-111159936D01*
X127275000Y-112614064D02*
X127275000Y-111159936D01*
X110638000Y-116424064D02*
X110638000Y-114969936D01*
X108818000Y-116424064D02*
X108818000Y-114969936D01*
X131085000Y-108492936D02*
X131085000Y-109947064D01*
X129265000Y-108492936D02*
X129265000Y-109947064D01*
X126780936Y-135107000D02*
X128235064Y-135107000D01*
X126780936Y-136927000D02*
X128235064Y-136927000D01*
X64578000Y-85966000D02*
X58358000Y-85966000D01*
X58358000Y-85966000D02*
X58358000Y-94201000D01*
X64578000Y-94201000D02*
X64578000Y-85966000D01*
G36*
X59511515Y-107098850D02*
G01*
X59619778Y-107107503D01*
X59748334Y-107119417D01*
X59885044Y-107133338D01*
X60017768Y-107148015D01*
X60134368Y-107162194D01*
X60222704Y-107174622D01*
X60270637Y-107184046D01*
X60275481Y-107186243D01*
X60271058Y-107216684D01*
X60248055Y-107287355D01*
X60210666Y-107386078D01*
X60184456Y-107450404D01*
X60139274Y-107560615D01*
X60104003Y-107650367D01*
X60083505Y-107707093D01*
X60080291Y-107719721D01*
X60094688Y-107751472D01*
X60131826Y-107817455D01*
X60183308Y-107903990D01*
X60240736Y-107997396D01*
X60295712Y-108083993D01*
X60339840Y-108150099D01*
X60363202Y-108180632D01*
X60398093Y-108178005D01*
X60460238Y-108138918D01*
X60505476Y-108101043D01*
X60622034Y-107995739D01*
X60629945Y-107598936D01*
X60637857Y-107202133D01*
X60801641Y-107465852D01*
X60870804Y-107577012D01*
X60930134Y-107671990D01*
X60972319Y-107739102D01*
X60988538Y-107764471D01*
X61015132Y-107780010D01*
X61069612Y-107776560D01*
X61163010Y-107752982D01*
X61196182Y-107743063D01*
X61505392Y-107678077D01*
X61821242Y-107667950D01*
X62136616Y-107712077D01*
X62444397Y-107809855D01*
X62552142Y-107858155D01*
X62836610Y-108025911D01*
X63080441Y-108233791D01*
X63284447Y-108482580D01*
X63406726Y-108686714D01*
X63501568Y-108892512D01*
X63564193Y-109092868D01*
X63600811Y-109311029D01*
X63612766Y-109458143D01*
X63618224Y-109601645D01*
X63613750Y-109716681D01*
X63596571Y-109828711D01*
X63563915Y-109963195D01*
X63553642Y-110001000D01*
X63519833Y-110124112D01*
X63490425Y-110231488D01*
X63469626Y-110307746D01*
X63463319Y-110331086D01*
X63469887Y-110383498D01*
X63508376Y-110474942D01*
X63579918Y-110607861D01*
X63635559Y-110702515D01*
X63823484Y-111015286D01*
X63823528Y-111541476D01*
X63822536Y-111706108D01*
X63819752Y-111847552D01*
X63815504Y-111957335D01*
X63810121Y-112026984D01*
X63803931Y-112048026D01*
X63803886Y-112047982D01*
X63784346Y-112018787D01*
X63740083Y-111947419D01*
X63675372Y-111840939D01*
X63594488Y-111706413D01*
X63501708Y-111550903D01*
X63437450Y-111442597D01*
X63090698Y-110856896D01*
X63035706Y-110917746D01*
X62971124Y-110979496D01*
X62902142Y-111034601D01*
X62823571Y-111090606D01*
X62823842Y-110752946D01*
X62824114Y-110415286D01*
X62940946Y-110601000D01*
X62999942Y-110693254D01*
X63048934Y-110767098D01*
X63078642Y-110808599D01*
X63081048Y-110811374D01*
X63112848Y-110808189D01*
X63165148Y-110765502D01*
X63229308Y-110692963D01*
X63296687Y-110600222D01*
X63352605Y-110508069D01*
X63427218Y-110372280D01*
X62295000Y-108473170D01*
X62266428Y-109901000D01*
X61627630Y-108850127D01*
X60988831Y-107799254D01*
X60637857Y-107996262D01*
X60629715Y-108319694D01*
X60621573Y-108643127D01*
X60500016Y-108450211D01*
X60378459Y-108257296D01*
X60289546Y-108350577D01*
X60220985Y-108431507D01*
X60147230Y-108531753D01*
X60114639Y-108581165D01*
X60028645Y-108718472D01*
X59916418Y-108531080D01*
X59804191Y-108343689D01*
X59681675Y-108630614D01*
X59631444Y-108745164D01*
X59589116Y-108835922D01*
X59559609Y-108892709D01*
X59548295Y-108906677D01*
X59542738Y-108875989D01*
X59533819Y-108796798D01*
X59522202Y-108677444D01*
X59508549Y-108526266D01*
X59493523Y-108351604D01*
X59477787Y-108161798D01*
X59462004Y-107965188D01*
X59446836Y-107770113D01*
X59432947Y-107584914D01*
X59420998Y-107417931D01*
X59411654Y-107277503D01*
X59405575Y-107171970D01*
X59403427Y-107109672D01*
X59404423Y-107096338D01*
X59435684Y-107094711D01*
X59511515Y-107098850D01*
G37*
G36*
X60066803Y-108767735D02*
G01*
X60111597Y-108834793D01*
X60179306Y-108939966D01*
X60266543Y-109077896D01*
X60369924Y-109243228D01*
X60486063Y-109430605D01*
X60611573Y-109634670D01*
X60623571Y-109654256D01*
X61180714Y-110564075D01*
X61195000Y-109875395D01*
X61209285Y-109186714D01*
X61300661Y-109329274D01*
X61336596Y-109386814D01*
X61397916Y-109486684D01*
X61480582Y-109622230D01*
X61580550Y-109786802D01*
X61693780Y-109973745D01*
X61816228Y-110176407D01*
X61929233Y-110363854D01*
X62052741Y-110567704D01*
X62167801Y-110755239D01*
X62270950Y-110920996D01*
X62358727Y-111059515D01*
X62427670Y-111165331D01*
X62474318Y-111232983D01*
X62495210Y-111257008D01*
X62495227Y-111257009D01*
X62535074Y-111245092D01*
X62605967Y-111213323D01*
X62658204Y-111186714D01*
X62736120Y-111146673D01*
X62791736Y-111120755D01*
X62807976Y-111115286D01*
X62813696Y-111142105D01*
X62818405Y-111215555D01*
X62821684Y-111325130D01*
X62823111Y-111460322D01*
X62823133Y-111493857D01*
X62821371Y-111657436D01*
X62816374Y-111766574D01*
X62807913Y-111823896D01*
X62795761Y-111832027D01*
X62793874Y-111829572D01*
X62766989Y-111787447D01*
X62718551Y-111709654D01*
X62656717Y-111609336D01*
X62619827Y-111549116D01*
X62539320Y-111424953D01*
X62480138Y-111351250D01*
X62440696Y-111326117D01*
X62433882Y-111327143D01*
X62199733Y-111395304D01*
X61938643Y-111434747D01*
X61669510Y-111444712D01*
X61411229Y-111424437D01*
X61195000Y-111377055D01*
X60896656Y-111256954D01*
X60624994Y-111092209D01*
X60386624Y-110888332D01*
X60188155Y-110650836D01*
X60055985Y-110427095D01*
X59962648Y-110219882D01*
X59901109Y-110035869D01*
X59866977Y-109854034D01*
X59855861Y-109653353D01*
X59859585Y-109486714D01*
X59869872Y-109318343D01*
X59885800Y-109187714D01*
X59910712Y-109075475D01*
X59947955Y-108962271D01*
X59952167Y-108951000D01*
X59991192Y-108853172D01*
X60024397Y-108780333D01*
X60045758Y-108745443D01*
X60048310Y-108744147D01*
X60066803Y-108767735D01*
G37*
X67868748Y-106701000D02*
X69291252Y-106701000D01*
X67868748Y-104881000D02*
X69291252Y-104881000D01*
X67852936Y-111019000D02*
X69307064Y-111019000D01*
X67852936Y-109199000D02*
X69307064Y-109199000D01*
X131028000Y-130810000D02*
X131028000Y-132485000D01*
X134148000Y-130810000D02*
X134148000Y-130160000D01*
X131028000Y-130810000D02*
X131028000Y-130160000D01*
X134148000Y-130810000D02*
X134148000Y-131460000D01*
X125429000Y-85779000D02*
X135429000Y-85779000D01*
X135429000Y-85779000D02*
X135429000Y-60779000D01*
X135429000Y-60779000D02*
X125429000Y-60779000D01*
X125429000Y-60779000D02*
X125429000Y-85779000D01*
X82134064Y-126725000D02*
X80679936Y-126725000D01*
X82134064Y-128545000D02*
X80679936Y-128545000D01*
X135911000Y-108635748D02*
X135911000Y-110058252D01*
X134091000Y-108635748D02*
X134091000Y-110058252D01*
X111921936Y-133583000D02*
X113376064Y-133583000D01*
X111921936Y-135403000D02*
X113376064Y-135403000D01*
X135799000Y-117348000D02*
X135799000Y-116698000D01*
X132679000Y-117348000D02*
X132679000Y-116698000D01*
X132679000Y-117348000D02*
X132679000Y-119023000D01*
X135799000Y-117348000D02*
X135799000Y-117998000D01*
X81442000Y-56368000D02*
X87722000Y-56368000D01*
X78920000Y-59048000D02*
X83142000Y-59048000D01*
X86022000Y-58368000D02*
X89852000Y-58368000D01*
X79068000Y-58768000D02*
X83142000Y-58768000D01*
X86022000Y-58848000D02*
X90140000Y-58848000D01*
X86022000Y-60048000D02*
X90641000Y-60048000D01*
X86022000Y-59368000D02*
X90393000Y-59368000D01*
X86022000Y-60288000D02*
X90708000Y-60288000D01*
X86022000Y-58128000D02*
X89684000Y-58128000D01*
X86022000Y-59408000D02*
X90410000Y-59408000D01*
X81901000Y-56128000D02*
X87263000Y-56128000D01*
X79366000Y-58288000D02*
X83142000Y-58288000D01*
X79210000Y-58528000D02*
X83142000Y-58528000D01*
X86022000Y-58408000D02*
X89878000Y-58408000D01*
X78337000Y-60848000D02*
X90827000Y-60848000D01*
X78880000Y-59128000D02*
X83142000Y-59128000D01*
X79114000Y-58688000D02*
X83142000Y-58688000D01*
X79339000Y-58328000D02*
X83142000Y-58328000D01*
X86022000Y-60488000D02*
X90757000Y-60488000D01*
X81513000Y-56328000D02*
X87651000Y-56328000D01*
X86022000Y-59208000D02*
X90321000Y-59208000D01*
X86022000Y-58528000D02*
X89954000Y-58528000D01*
X78824000Y-59248000D02*
X83142000Y-59248000D01*
X78344000Y-60808000D02*
X83142000Y-60808000D01*
X86022000Y-58608000D02*
X90003000Y-58608000D01*
X86022000Y-59968000D02*
X90616000Y-59968000D01*
X80625000Y-56928000D02*
X88539000Y-56928000D01*
X86022000Y-59528000D02*
X90459000Y-59528000D01*
X79664000Y-57888000D02*
X89500000Y-57888000D01*
X86022000Y-59848000D02*
X90577000Y-59848000D01*
X86022000Y-58288000D02*
X89798000Y-58288000D01*
X83160000Y-55688000D02*
X86004000Y-55688000D01*
X80726000Y-56848000D02*
X88438000Y-56848000D01*
X86022000Y-58808000D02*
X90118000Y-58808000D01*
X78523000Y-60048000D02*
X83142000Y-60048000D01*
X78276000Y-61329000D02*
X90888000Y-61329000D01*
X86022000Y-60248000D02*
X90698000Y-60248000D01*
X86022000Y-58488000D02*
X89929000Y-58488000D01*
X86022000Y-58968000D02*
X90204000Y-58968000D01*
X86022000Y-57968000D02*
X89564000Y-57968000D01*
X86022000Y-60808000D02*
X90820000Y-60808000D01*
X78689000Y-59568000D02*
X83142000Y-59568000D01*
X81661000Y-56248000D02*
X87503000Y-56248000D01*
X78273000Y-61369000D02*
X90891000Y-61369000D01*
X83825000Y-55568000D02*
X85339000Y-55568000D01*
X79185000Y-58568000D02*
X83142000Y-58568000D01*
X80215000Y-57288000D02*
X88949000Y-57288000D01*
X78416000Y-60448000D02*
X83142000Y-60448000D01*
X78754000Y-59408000D02*
X83142000Y-59408000D01*
X86022000Y-58888000D02*
X90162000Y-58888000D01*
X78601000Y-59808000D02*
X83142000Y-59808000D01*
X79260000Y-58448000D02*
X83142000Y-58448000D01*
X79002000Y-58888000D02*
X83142000Y-58888000D01*
X86022000Y-59088000D02*
X90264000Y-59088000D01*
X80388000Y-57128000D02*
X88776000Y-57128000D01*
X86022000Y-59728000D02*
X90535000Y-59728000D01*
X81307000Y-56448000D02*
X87857000Y-56448000D01*
X86022000Y-59448000D02*
X90427000Y-59448000D01*
X78253000Y-61769000D02*
X90911000Y-61769000D01*
X78254000Y-61729000D02*
X90910000Y-61729000D01*
X86022000Y-60368000D02*
X90728000Y-60368000D01*
X86022000Y-58928000D02*
X90183000Y-58928000D01*
X86022000Y-58088000D02*
X89655000Y-58088000D01*
X79137000Y-58648000D02*
X83142000Y-58648000D01*
X86022000Y-60768000D02*
X90813000Y-60768000D01*
X86022000Y-58248000D02*
X89770000Y-58248000D01*
X83554000Y-55608000D02*
X85610000Y-55608000D01*
X86022000Y-60128000D02*
X90665000Y-60128000D01*
X82598000Y-55848000D02*
X86566000Y-55848000D01*
X82854000Y-55768000D02*
X86310000Y-55768000D01*
X84265000Y-55528000D02*
X84899000Y-55528000D01*
X83341000Y-55648000D02*
X85823000Y-55648000D01*
X78351000Y-60768000D02*
X83142000Y-60768000D01*
X78258000Y-61609000D02*
X90906000Y-61609000D01*
X82172000Y-56008000D02*
X86992000Y-56008000D01*
X80257000Y-57248000D02*
X88907000Y-57248000D01*
X78390000Y-60568000D02*
X83142000Y-60568000D01*
X80942000Y-56688000D02*
X88222000Y-56688000D01*
X82373000Y-55928000D02*
X86791000Y-55928000D01*
X78366000Y-60688000D02*
X83142000Y-60688000D01*
X86022000Y-60408000D02*
X90738000Y-60408000D01*
X79394000Y-58248000D02*
X83142000Y-58248000D01*
X81243000Y-56488000D02*
X87921000Y-56488000D01*
X78436000Y-60368000D02*
X83142000Y-60368000D01*
X86022000Y-59328000D02*
X90375000Y-59328000D01*
X79422000Y-58208000D02*
X83142000Y-58208000D01*
X80999000Y-56648000D02*
X88165000Y-56648000D01*
X79600000Y-57968000D02*
X83142000Y-57968000D01*
X86022000Y-59168000D02*
X90303000Y-59168000D01*
X78255000Y-61689000D02*
X90909000Y-61689000D01*
X78302000Y-61088000D02*
X90862000Y-61088000D01*
X78806000Y-59288000D02*
X83142000Y-59288000D01*
X82078000Y-56048000D02*
X87086000Y-56048000D01*
X80778000Y-56808000D02*
X88386000Y-56808000D01*
X86022000Y-58448000D02*
X89904000Y-58448000D01*
X86022000Y-59488000D02*
X90443000Y-59488000D01*
X80434000Y-57088000D02*
X88730000Y-57088000D01*
X78288000Y-61209000D02*
X90876000Y-61209000D01*
X86022000Y-59768000D02*
X90549000Y-59768000D01*
X79797000Y-57728000D02*
X89367000Y-57728000D01*
X86022000Y-58208000D02*
X89742000Y-58208000D01*
X82721000Y-55808000D02*
X86443000Y-55808000D01*
X79509000Y-58088000D02*
X83142000Y-58088000D01*
X79161000Y-58608000D02*
X83142000Y-58608000D01*
X80300000Y-57208000D02*
X88864000Y-57208000D01*
X86022000Y-59048000D02*
X90244000Y-59048000D01*
X80015000Y-57488000D02*
X89149000Y-57488000D01*
X78477000Y-60208000D02*
X83142000Y-60208000D01*
X86022000Y-58328000D02*
X89825000Y-58328000D01*
X79539000Y-58048000D02*
X83142000Y-58048000D01*
X78280000Y-61289000D02*
X90884000Y-61289000D01*
X79632000Y-57928000D02*
X89532000Y-57928000D01*
X78270000Y-61409000D02*
X90894000Y-61409000D01*
X78373000Y-60648000D02*
X83142000Y-60648000D01*
X81586000Y-56288000D02*
X87578000Y-56288000D01*
X86022000Y-59568000D02*
X90475000Y-59568000D01*
X80174000Y-57328000D02*
X88990000Y-57328000D01*
X78737000Y-59448000D02*
X83142000Y-59448000D01*
X86022000Y-60088000D02*
X90653000Y-60088000D01*
X79977000Y-57528000D02*
X89187000Y-57528000D01*
X78313000Y-61008000D02*
X90851000Y-61008000D01*
X78284000Y-61249000D02*
X90880000Y-61249000D01*
X78574000Y-59888000D02*
X83142000Y-59888000D01*
X86022000Y-60328000D02*
X90719000Y-60328000D01*
X78940000Y-59008000D02*
X83142000Y-59008000D01*
X79570000Y-58008000D02*
X83142000Y-58008000D01*
X79451000Y-58168000D02*
X83142000Y-58168000D01*
X79940000Y-57568000D02*
X89224000Y-57568000D01*
X81374000Y-56408000D02*
X87790000Y-56408000D01*
X78297000Y-61128000D02*
X90867000Y-61128000D01*
X86022000Y-60568000D02*
X90774000Y-60568000D01*
X80480000Y-57048000D02*
X88684000Y-57048000D01*
X86022000Y-58008000D02*
X89594000Y-58008000D01*
X86022000Y-60528000D02*
X90766000Y-60528000D01*
X81007000Y-68706082D02*
X81007000Y-67456082D01*
X86022000Y-59648000D02*
X90506000Y-59648000D01*
X78843000Y-59208000D02*
X83142000Y-59208000D01*
X82482000Y-55888000D02*
X86682000Y-55888000D01*
X86022000Y-60208000D02*
X90687000Y-60208000D01*
X79312000Y-58368000D02*
X83142000Y-58368000D01*
X78561000Y-59928000D02*
X83142000Y-59928000D01*
X79046000Y-58808000D02*
X83142000Y-58808000D01*
X79868000Y-57648000D02*
X89296000Y-57648000D01*
X80054000Y-57448000D02*
X89110000Y-57448000D01*
X80832000Y-56768000D02*
X88332000Y-56768000D01*
X86022000Y-60688000D02*
X90798000Y-60688000D01*
X78358000Y-60728000D02*
X83142000Y-60728000D01*
X86022000Y-59608000D02*
X90490000Y-59608000D01*
X78981000Y-58928000D02*
X83142000Y-58928000D01*
X78324000Y-60928000D02*
X90840000Y-60928000D01*
X80093000Y-57408000D02*
X89071000Y-57408000D01*
X86022000Y-59288000D02*
X90358000Y-59288000D01*
X78330000Y-60888000D02*
X90834000Y-60888000D01*
X86022000Y-58048000D02*
X89625000Y-58048000D01*
X81180000Y-56528000D02*
X87984000Y-56528000D01*
X78658000Y-59648000D02*
X83142000Y-59648000D01*
X78407000Y-60488000D02*
X83142000Y-60488000D01*
X78426000Y-60408000D02*
X83142000Y-60408000D01*
X78643000Y-59688000D02*
X83142000Y-59688000D01*
X86022000Y-59248000D02*
X90340000Y-59248000D01*
X78445000Y-60328000D02*
X83142000Y-60328000D01*
X78674000Y-59608000D02*
X83142000Y-59608000D01*
X79091000Y-58728000D02*
X83142000Y-58728000D01*
X80527000Y-57008000D02*
X88637000Y-57008000D01*
X78307000Y-61048000D02*
X90857000Y-61048000D01*
X79480000Y-58128000D02*
X83142000Y-58128000D01*
X78262000Y-61529000D02*
X90902000Y-61529000D01*
X80575000Y-56968000D02*
X88589000Y-56968000D01*
X86022000Y-60728000D02*
X90806000Y-60728000D01*
X79235000Y-58488000D02*
X83142000Y-58488000D01*
X78398000Y-60528000D02*
X83142000Y-60528000D01*
X78252000Y-61809000D02*
X90912000Y-61809000D01*
X78499000Y-60128000D02*
X83142000Y-60128000D01*
X80133000Y-57368000D02*
X89031000Y-57368000D01*
X78318000Y-60968000D02*
X90846000Y-60968000D01*
X78960000Y-58968000D02*
X83142000Y-58968000D01*
X79024000Y-58848000D02*
X83142000Y-58848000D01*
X80675000Y-56888000D02*
X88489000Y-56888000D01*
X78488000Y-60168000D02*
X83142000Y-60168000D01*
X81818000Y-56168000D02*
X87346000Y-56168000D01*
X86022000Y-58168000D02*
X89713000Y-58168000D01*
X78511000Y-60088000D02*
X83142000Y-60088000D01*
X86022000Y-60608000D02*
X90783000Y-60608000D01*
X78252000Y-61889000D02*
X90912000Y-61889000D01*
X79697000Y-57848000D02*
X89467000Y-57848000D01*
X86022000Y-58568000D02*
X89979000Y-58568000D01*
X78587000Y-59848000D02*
X83142000Y-59848000D01*
X86022000Y-60648000D02*
X90791000Y-60648000D01*
X80382000Y-68081082D02*
X81632000Y-68081082D01*
X78264000Y-61489000D02*
X90900000Y-61489000D01*
X78629000Y-59728000D02*
X83142000Y-59728000D01*
X78900000Y-59088000D02*
X83142000Y-59088000D01*
X86022000Y-60168000D02*
X90676000Y-60168000D01*
X86022000Y-58688000D02*
X90050000Y-58688000D01*
X86022000Y-58768000D02*
X90096000Y-58768000D01*
X86022000Y-59888000D02*
X90590000Y-59888000D01*
X86022000Y-58728000D02*
X90073000Y-58728000D01*
X78789000Y-59328000D02*
X83142000Y-59328000D01*
X79763000Y-57768000D02*
X89401000Y-57768000D01*
X78721000Y-59488000D02*
X83142000Y-59488000D01*
X86022000Y-58648000D02*
X90027000Y-58648000D01*
X79730000Y-57808000D02*
X89434000Y-57808000D01*
X81988000Y-56088000D02*
X87176000Y-56088000D01*
X78535000Y-60008000D02*
X83142000Y-60008000D01*
X78252000Y-61849000D02*
X90912000Y-61849000D01*
X78705000Y-59528000D02*
X83142000Y-59528000D01*
X78861000Y-59168000D02*
X83142000Y-59168000D01*
X78771000Y-59368000D02*
X83142000Y-59368000D01*
X86022000Y-60008000D02*
X90629000Y-60008000D01*
X79286000Y-58408000D02*
X83142000Y-58408000D01*
X82999000Y-55728000D02*
X86165000Y-55728000D01*
X78615000Y-59768000D02*
X83142000Y-59768000D01*
X81738000Y-56208000D02*
X87426000Y-56208000D01*
X81118000Y-56568000D02*
X88046000Y-56568000D01*
X86022000Y-60448000D02*
X90748000Y-60448000D01*
X86022000Y-59128000D02*
X90284000Y-59128000D01*
X78267000Y-61449000D02*
X90897000Y-61449000D01*
X78260000Y-61569000D02*
X90904000Y-61569000D01*
X86022000Y-59008000D02*
X90224000Y-59008000D01*
X78381000Y-60608000D02*
X83142000Y-60608000D01*
X78466000Y-60248000D02*
X83142000Y-60248000D01*
X80344000Y-57168000D02*
X88820000Y-57168000D01*
X82270000Y-55968000D02*
X86894000Y-55968000D01*
X81058000Y-56608000D02*
X88106000Y-56608000D01*
X78256000Y-61649000D02*
X90908000Y-61649000D01*
X86022000Y-59808000D02*
X90563000Y-59808000D01*
X80886000Y-56728000D02*
X88278000Y-56728000D01*
X79832000Y-57688000D02*
X89332000Y-57688000D01*
X78548000Y-59968000D02*
X83142000Y-59968000D01*
X86022000Y-59688000D02*
X90521000Y-59688000D01*
X78292000Y-61168000D02*
X90872000Y-61168000D01*
X86022000Y-59928000D02*
X90603000Y-59928000D01*
X78456000Y-60288000D02*
X83142000Y-60288000D01*
X79904000Y-57608000D02*
X89260000Y-57608000D01*
X90952000Y-61889000D02*
G75*
G03*
X90952000Y-61889000I-6370000J0D01*
G01*
X92940000Y-82659000D02*
X92940000Y-74059000D01*
X87400000Y-82659000D02*
X92940000Y-82659000D01*
X87400000Y-74059000D02*
X87400000Y-82659000D01*
X92940000Y-74059000D02*
X91170000Y-74059000D01*
X89170000Y-74059000D02*
X87400000Y-74059000D01*
X89170000Y-74059000D02*
G75*
G03*
X91170000Y-74059000I1000000J0D01*
G01*
X128854252Y-126344000D02*
X127431748Y-126344000D01*
X128854252Y-128164000D02*
X127431748Y-128164000D01*
X65072000Y-73914000D02*
X62532000Y-73914000D01*
X65072000Y-76454000D02*
X62532000Y-76454000D01*
X65072000Y-71334000D02*
X65072000Y-81574000D01*
X65072000Y-78994000D02*
X62532000Y-78994000D01*
X80962000Y-71334000D02*
X80962000Y-81574000D01*
X80962000Y-71334000D02*
X65072000Y-71334000D01*
X80962000Y-81574000D02*
X65072000Y-81574000D01*
X125653000Y-97518000D02*
X126603000Y-97518000D01*
X128253000Y-98018000D02*
X128303000Y-98018000D01*
X125653000Y-87168000D02*
X125653000Y-97518000D01*
X133153000Y-98018000D02*
X138253000Y-98018000D01*
X126353000Y-98018000D02*
X128253000Y-98018000D01*
X128303000Y-98018000D02*
X128053000Y-97518000D01*
X128053000Y-97518000D02*
X133453000Y-97518000D01*
X138253000Y-87168000D02*
X125653000Y-87168000D01*
X138253000Y-98018000D02*
X138253000Y-87168000D01*
X133453000Y-97518000D02*
X133153000Y-98018000D01*
X126603000Y-97518000D02*
X126353000Y-98018000D01*
X69251000Y-116586000D02*
X69251000Y-114911000D01*
X69251000Y-116586000D02*
X69251000Y-117236000D01*
X66131000Y-116586000D02*
X66131000Y-117236000D01*
X66131000Y-116586000D02*
X66131000Y-115936000D01*
X83573000Y-103505000D02*
X81033000Y-103505000D01*
X99463000Y-100925000D02*
X99463000Y-111165000D01*
X83573000Y-108585000D02*
X81033000Y-108585000D01*
X83573000Y-100925000D02*
X83573000Y-111165000D01*
X83573000Y-106045000D02*
X81033000Y-106045000D01*
X99463000Y-111165000D02*
X83573000Y-111165000D01*
X99463000Y-100925000D02*
X83573000Y-100925000D01*
X68943000Y-138485000D02*
X73343000Y-138485000D01*
X67873000Y-142755000D02*
X67873000Y-140555000D01*
X68343000Y-144725000D02*
X73543000Y-144725000D01*
X74113000Y-140555000D02*
X74113000Y-142755000D01*
X72407214Y-141605000D02*
G75*
G03*
X72407214Y-141605000I-1414214J0D01*
G01*
X82346748Y-89556000D02*
X83769252Y-89556000D01*
X82346748Y-87736000D02*
X83769252Y-87736000D01*
X123983000Y-93336000D02*
X96743000Y-93336000D01*
X123983000Y-93336000D02*
X123983000Y-61096000D01*
X96743000Y-61096000D02*
X123983000Y-61096000D01*
X96743000Y-61096000D02*
X96743000Y-93336000D01*
X66994000Y-93251000D02*
X66994000Y-101486000D01*
X66994000Y-101486000D02*
X73214000Y-101486000D01*
X73214000Y-101486000D02*
X73214000Y-93251000D01*
X74514064Y-114914000D02*
X73059936Y-114914000D01*
X74514064Y-116734000D02*
X73059936Y-116734000D01*
X128870064Y-125243000D02*
X127415936Y-125243000D01*
X128870064Y-123423000D02*
X127415936Y-123423000D01*
X127036000Y-106172000D02*
X127036000Y-106822000D01*
X127036000Y-106172000D02*
X127036000Y-105522000D01*
X123916000Y-106172000D02*
X123916000Y-105522000D01*
X123916000Y-106172000D02*
X123916000Y-107847000D01*
X111755000Y-147126000D02*
X111755000Y-144466000D01*
X110485000Y-147126000D02*
X109155000Y-147126000D01*
X114355000Y-147126000D02*
X114355000Y-144466000D01*
X109155000Y-147126000D02*
X109155000Y-145796000D01*
X111755000Y-144466000D02*
X114355000Y-144466000D01*
X111755000Y-147126000D02*
X114355000Y-147126000D01*
X127415936Y-120629000D02*
X128870064Y-120629000D01*
X127415936Y-122449000D02*
X128870064Y-122449000D01*
%LPC*%
D13*
X69088000Y-58039000D03*
X61087000Y-100457000D03*
D14*
X81153000Y-132842000D03*
D15*
X81153000Y-135382000D03*
X81153000Y-137922000D03*
D16*
X79756000Y-123891000D03*
X82296000Y-123891000D03*
X82296000Y-114361000D03*
X79756000Y-114361000D03*
D17*
X112329000Y-139827000D03*
X112329000Y-142367000D03*
X121859000Y-142367000D03*
X121859000Y-139827000D03*
X112583000Y-121412000D03*
X112583000Y-123952000D03*
X122113000Y-123952000D03*
X122113000Y-121412000D03*
X112710000Y-114046000D03*
X112710000Y-116586000D03*
X122240000Y-116586000D03*
X122240000Y-114046000D03*
D18*
X129070500Y-142240000D03*
X125945500Y-142240000D03*
D14*
X53086000Y-134351000D03*
D15*
X53086000Y-131811000D03*
X53086000Y-129271000D03*
X53086000Y-126731000D03*
X53086000Y-124191000D03*
X53086000Y-121651000D03*
X53086000Y-119111000D03*
X53086000Y-116571000D03*
D19*
X129058000Y-139192000D03*
X125958000Y-139192000D03*
D20*
X111099000Y-131064000D03*
X114199000Y-131064000D03*
D21*
X146000000Y-53000000D03*
D22*
X126365000Y-113437000D03*
X126365000Y-110337000D03*
X109728000Y-117247000D03*
X109728000Y-114147000D03*
D21*
X53000000Y-146000000D03*
D23*
X130175000Y-107670000D03*
X130175000Y-110770000D03*
D20*
X125958000Y-136017000D03*
X129058000Y-136017000D03*
D24*
X61468000Y-87351000D03*
X61468000Y-93751000D03*
D25*
X67017500Y-105791000D03*
X70142500Y-105791000D03*
D20*
X67030000Y-110109000D03*
X70130000Y-110109000D03*
D26*
X131638000Y-131747500D03*
X133538000Y-131747500D03*
X132588000Y-129872500D03*
D27*
X130429000Y-80779000D03*
X130429000Y-65793000D03*
D21*
X146000000Y-146000000D03*
X53000000Y-53000000D03*
D19*
X82957000Y-127635000D03*
X79857000Y-127635000D03*
D28*
X135001000Y-107784500D03*
X135001000Y-110909500D03*
D20*
X111099000Y-134493000D03*
X114199000Y-134493000D03*
D26*
X133289000Y-118285500D03*
X135189000Y-118285500D03*
X134239000Y-116410500D03*
D29*
X84582000Y-64389000D03*
D30*
X84582000Y-59389000D03*
D31*
X86360000Y-75959000D03*
D32*
X86360000Y-81039000D03*
X93980000Y-81039000D03*
X93980000Y-75959000D03*
D18*
X129705500Y-127254000D03*
X126580500Y-127254000D03*
D33*
X78042000Y-76454000D03*
D34*
X61382000Y-73914000D03*
D35*
X61382000Y-76454000D03*
X61382000Y-78994000D03*
D36*
X131953000Y-89818000D03*
D37*
X131953000Y-94818000D03*
D38*
X68641000Y-115648500D03*
X66741000Y-115648500D03*
X67691000Y-117523500D03*
D33*
X96543000Y-106045000D03*
D34*
X79883000Y-103505000D03*
D35*
X79883000Y-106045000D03*
X79883000Y-108585000D03*
D14*
X67743000Y-139355000D03*
D39*
X74243000Y-139355000D03*
X74243000Y-143855000D03*
X67743000Y-143855000D03*
D25*
X81495500Y-88646000D03*
X84620500Y-88646000D03*
D40*
X120363000Y-67216000D03*
X120363000Y-72216000D03*
X120363000Y-77216000D03*
X120363000Y-82216000D03*
X120363000Y-87216000D03*
X100363000Y-87216000D03*
X100363000Y-82216000D03*
X100363000Y-77216000D03*
X100363000Y-72216000D03*
X100363000Y-67216000D03*
D41*
X70104000Y-100101000D03*
X70104000Y-93701000D03*
D19*
X75337000Y-115824000D03*
X72237000Y-115824000D03*
X129693000Y-124333000D03*
X126593000Y-124333000D03*
D26*
X124526000Y-107109500D03*
X126426000Y-107109500D03*
X125476000Y-105234500D03*
D14*
X110485000Y-145796000D03*
D15*
X113025000Y-145796000D03*
D20*
X126593000Y-121539000D03*
X129693000Y-121539000D03*
M02*
