M48
; DRILL file {KiCad (6.0.4-0)} date Donnerstag, 08. September 2022 um 11:41:36
; FORMAT={-:-/ absolute / metric / decimal}
; #@! TF.CreationDate,2022-09-08T11:41:36+02:00
; #@! TF.GenerationSoftware,Kicad,Pcbnew,(6.0.4-0)
; #@! TF.FileFunction,Plated,1,2,PTH
FMAT,2
METRIC
; #@! TA.AperFunction,Plated,PTH,ViaDrill
T1C0.400
; #@! TA.AperFunction,Plated,PTH,ComponentDrill
T2C0.500
; #@! TA.AperFunction,Plated,PTH,ComponentDrill
T3C0.762
; #@! TA.AperFunction,Plated,PTH,ComponentDrill
T4C0.800
; #@! TA.AperFunction,Plated,PTH,ComponentDrill
T5C1.000
; #@! TA.AperFunction,Plated,PTH,ComponentDrill
T6C1.100
; #@! TA.AperFunction,Plated,PTH,ComponentDrill
T7C1.200
; #@! TA.AperFunction,Plated,PTH,ComponentDrill
T8C1.320
; #@! TA.AperFunction,Plated,PTH,ComponentDrill
T9C1.500
; #@! TA.AperFunction,Plated,PTH,ComponentDrill
T10C3.200
%
G90
G05
T1
X56.896Y-132.588
X56.896Y-139.065
X64.135Y-102.362
X64.516Y-132.334
X76.073Y-97.409
X85.979Y-127.635
X86.614Y-115.697
X87.503Y-97.409
X96.139Y-137.922
X99.822Y-138.049
X107.188Y-108.966
X107.823Y-130.175
X108.966Y-132.08
X108.966Y-134.366
X109.474Y-128.143
X117.729Y-131.318
X125.857Y-131.572
X129.794Y-115.062
T2
X61.087Y-100.457
X69.088Y-58.039
T3
X130.429Y-65.793
X130.429Y-80.779
T4
X86.36Y-75.959
X86.36Y-81.039
X93.98Y-75.959
X93.98Y-81.039
T5
X53.086Y-116.571
X53.086Y-119.111
X53.086Y-121.651
X53.086Y-124.191
X53.086Y-126.731
X53.086Y-129.271
X53.086Y-131.811
X53.086Y-134.351
X67.743Y-139.355
X67.743Y-143.855
X74.243Y-139.355
X74.243Y-143.855
X81.153Y-132.842
X81.153Y-135.382
X81.153Y-137.922
X110.485Y-145.796
X113.025Y-145.796
T6
X61.382Y-73.914
X61.382Y-76.454
X61.382Y-78.994
X79.883Y-103.505
X79.883Y-106.045
X79.883Y-108.585
T7
X84.582Y-59.389
X84.582Y-64.389
T8
X131.953Y-89.818
X131.953Y-94.818
T9
X100.363Y-67.216
X100.363Y-72.216
X100.363Y-77.216
X100.363Y-82.216
X100.363Y-87.216
X120.363Y-67.216
X120.363Y-72.216
X120.363Y-77.216
X120.363Y-82.216
X120.363Y-87.216
T10
X53.0Y-53.0
X53.0Y-146.0
X146.0Y-53.0
X146.0Y-146.0
T0
M30
