%TF.GenerationSoftware,KiCad,Pcbnew,(6.0.4-0)*%
%TF.CreationDate,2022-09-08T11:41:12+02:00*%
%TF.ProjectId,Antennenumschalter,416e7465-6e6e-4656-9e75-6d736368616c,rev?*%
%TF.SameCoordinates,Original*%
%TF.FileFunction,Legend,Bot*%
%TF.FilePolarity,Positive*%
%FSLAX46Y46*%
G04 Gerber Fmt 4.6, Leading zero omitted, Abs format (unit mm)*
G04 Created by KiCad (PCBNEW (6.0.4-0)) date 2022-09-08 11:41:12*
%MOMM*%
%LPD*%
G01*
G04 APERTURE LIST*
G04 Aperture macros list*
%AMRoundRect*
0 Rectangle with rounded corners*
0 $1 Rounding radius*
0 $2 $3 $4 $5 $6 $7 $8 $9 X,Y pos of 4 corners*
0 Add a 4 corners polygon primitive as box body*
4,1,4,$2,$3,$4,$5,$6,$7,$8,$9,$2,$3,0*
0 Add four circle primitives for the rounded corners*
1,1,$1+$1,$2,$3*
1,1,$1+$1,$4,$5*
1,1,$1+$1,$6,$7*
1,1,$1+$1,$8,$9*
0 Add four rect primitives between the rounded corners*
20,1,$1+$1,$2,$3,$4,$5,0*
20,1,$1+$1,$4,$5,$6,$7,0*
20,1,$1+$1,$6,$7,$8,$9,0*
20,1,$1+$1,$8,$9,$2,$3,0*%
G04 Aperture macros list end*
%ADD10C,0.250000*%
%ADD11C,0.150000*%
%ADD12C,0.120000*%
%ADD13R,0.850000X0.850000*%
%ADD14R,1.700000X1.700000*%
%ADD15O,1.700000X1.700000*%
%ADD16C,5.600000*%
%ADD17C,1.524000*%
%ADD18R,2.400000X2.400000*%
%ADD19C,2.400000*%
%ADD20R,1.600000X1.600000*%
%ADD21O,1.600000X1.600000*%
%ADD22O,3.500000X3.500000*%
%ADD23R,2.000000X1.905000*%
%ADD24O,2.000000X1.905000*%
%ADD25R,3.960000X1.980000*%
%ADD26O,3.960000X1.980000*%
%ADD27C,1.700000*%
%ADD28C,3.000000*%
%ADD29RoundRect,0.250000X-0.650000X0.412500X-0.650000X-0.412500X0.650000X-0.412500X0.650000X0.412500X0*%
%ADD30R,2.500000X1.000000*%
%ADD31R,1.000000X1.800000*%
G04 APERTURE END LIST*
D10*
X52666761Y-58487214D02*
X54666761Y-58963404D01*
X53238190Y-59344357D01*
X54666761Y-59725309D01*
X52666761Y-60201500D01*
X54666761Y-61915785D02*
X54666761Y-60963404D01*
X52666761Y-60963404D01*
X54095333Y-62487214D02*
X54095333Y-63439595D01*
X54666761Y-62296738D02*
X52666761Y-62963404D01*
X54666761Y-63630071D01*
X54666761Y-64296738D02*
X52666761Y-64296738D01*
X54666761Y-65439595D01*
X52666761Y-65439595D01*
X53904857Y-66391976D02*
X53904857Y-67915785D01*
X54095333Y-68772928D02*
X54095333Y-69725309D01*
X54666761Y-68582452D02*
X52666761Y-69249119D01*
X54666761Y-69915785D01*
X53333428Y-70582452D02*
X54666761Y-70582452D01*
X53523904Y-70582452D02*
X53428666Y-70677690D01*
X53333428Y-70868166D01*
X53333428Y-71153880D01*
X53428666Y-71344357D01*
X53619142Y-71439595D01*
X54666761Y-71439595D01*
X53333428Y-72106261D02*
X53333428Y-72868166D01*
X52666761Y-72391976D02*
X54381047Y-72391976D01*
X54571523Y-72487214D01*
X54666761Y-72677690D01*
X54666761Y-72868166D01*
X54571523Y-74296738D02*
X54666761Y-74106261D01*
X54666761Y-73725309D01*
X54571523Y-73534833D01*
X54381047Y-73439595D01*
X53619142Y-73439595D01*
X53428666Y-73534833D01*
X53333428Y-73725309D01*
X53333428Y-74106261D01*
X53428666Y-74296738D01*
X53619142Y-74391976D01*
X53809619Y-74391976D01*
X54000095Y-73439595D01*
X53333428Y-75249119D02*
X54666761Y-75249119D01*
X53523904Y-75249119D02*
X53428666Y-75344357D01*
X53333428Y-75534833D01*
X53333428Y-75820547D01*
X53428666Y-76011023D01*
X53619142Y-76106261D01*
X54666761Y-76106261D01*
X53333428Y-77058642D02*
X54666761Y-77058642D01*
X53523904Y-77058642D02*
X53428666Y-77153880D01*
X53333428Y-77344357D01*
X53333428Y-77630071D01*
X53428666Y-77820547D01*
X53619142Y-77915785D01*
X54666761Y-77915785D01*
X54571523Y-79630071D02*
X54666761Y-79439595D01*
X54666761Y-79058642D01*
X54571523Y-78868166D01*
X54381047Y-78772928D01*
X53619142Y-78772928D01*
X53428666Y-78868166D01*
X53333428Y-79058642D01*
X53333428Y-79439595D01*
X53428666Y-79630071D01*
X53619142Y-79725309D01*
X53809619Y-79725309D01*
X54000095Y-78772928D01*
X53333428Y-80582452D02*
X54666761Y-80582452D01*
X53523904Y-80582452D02*
X53428666Y-80677690D01*
X53333428Y-80868166D01*
X53333428Y-81153880D01*
X53428666Y-81344357D01*
X53619142Y-81439595D01*
X54666761Y-81439595D01*
X53333428Y-83249119D02*
X54666761Y-83249119D01*
X53333428Y-82391976D02*
X54381047Y-82391976D01*
X54571523Y-82487214D01*
X54666761Y-82677690D01*
X54666761Y-82963404D01*
X54571523Y-83153880D01*
X54476285Y-83249119D01*
X54666761Y-84201500D02*
X53333428Y-84201500D01*
X53523904Y-84201500D02*
X53428666Y-84296738D01*
X53333428Y-84487214D01*
X53333428Y-84772928D01*
X53428666Y-84963404D01*
X53619142Y-85058642D01*
X54666761Y-85058642D01*
X53619142Y-85058642D02*
X53428666Y-85153880D01*
X53333428Y-85344357D01*
X53333428Y-85630071D01*
X53428666Y-85820547D01*
X53619142Y-85915785D01*
X54666761Y-85915785D01*
X54571523Y-86772928D02*
X54666761Y-86963404D01*
X54666761Y-87344357D01*
X54571523Y-87534833D01*
X54381047Y-87630071D01*
X54285809Y-87630071D01*
X54095333Y-87534833D01*
X54000095Y-87344357D01*
X54000095Y-87058642D01*
X53904857Y-86868166D01*
X53714380Y-86772928D01*
X53619142Y-86772928D01*
X53428666Y-86868166D01*
X53333428Y-87058642D01*
X53333428Y-87344357D01*
X53428666Y-87534833D01*
X54571523Y-89344357D02*
X54666761Y-89153880D01*
X54666761Y-88772928D01*
X54571523Y-88582452D01*
X54476285Y-88487214D01*
X54285809Y-88391976D01*
X53714380Y-88391976D01*
X53523904Y-88487214D01*
X53428666Y-88582452D01*
X53333428Y-88772928D01*
X53333428Y-89153880D01*
X53428666Y-89344357D01*
X54666761Y-90201500D02*
X52666761Y-90201500D01*
X54666761Y-91058642D02*
X53619142Y-91058642D01*
X53428666Y-90963404D01*
X53333428Y-90772928D01*
X53333428Y-90487214D01*
X53428666Y-90296738D01*
X53523904Y-90201500D01*
X54666761Y-92868166D02*
X53619142Y-92868166D01*
X53428666Y-92772928D01*
X53333428Y-92582452D01*
X53333428Y-92201500D01*
X53428666Y-92011023D01*
X54571523Y-92868166D02*
X54666761Y-92677690D01*
X54666761Y-92201500D01*
X54571523Y-92011023D01*
X54381047Y-91915785D01*
X54190571Y-91915785D01*
X54000095Y-92011023D01*
X53904857Y-92201500D01*
X53904857Y-92677690D01*
X53809619Y-92868166D01*
X54666761Y-94106261D02*
X54571523Y-93915785D01*
X54381047Y-93820547D01*
X52666761Y-93820547D01*
X53333428Y-94582452D02*
X53333428Y-95344357D01*
X52666761Y-94868166D02*
X54381047Y-94868166D01*
X54571523Y-94963404D01*
X54666761Y-95153880D01*
X54666761Y-95344357D01*
X54571523Y-96772928D02*
X54666761Y-96582452D01*
X54666761Y-96201500D01*
X54571523Y-96011023D01*
X54381047Y-95915785D01*
X53619142Y-95915785D01*
X53428666Y-96011023D01*
X53333428Y-96201500D01*
X53333428Y-96582452D01*
X53428666Y-96772928D01*
X53619142Y-96868166D01*
X53809619Y-96868166D01*
X54000095Y-95915785D01*
X54666761Y-97725309D02*
X53333428Y-97725309D01*
X53714380Y-97725309D02*
X53523904Y-97820547D01*
X53428666Y-97915785D01*
X53333428Y-98106261D01*
X53333428Y-98296738D01*
X52666761Y-100201500D02*
X54666761Y-100868166D01*
X52666761Y-101534833D01*
X54476285Y-102201500D02*
X54571523Y-102296738D01*
X54666761Y-102201500D01*
X54571523Y-102106261D01*
X54476285Y-102201500D01*
X54666761Y-102201500D01*
X52857238Y-103058642D02*
X52762000Y-103153880D01*
X52666761Y-103344357D01*
X52666761Y-103820547D01*
X52762000Y-104011023D01*
X52857238Y-104106261D01*
X53047714Y-104201500D01*
X53238190Y-104201500D01*
X53523904Y-104106261D01*
X54666761Y-102963404D01*
X54666761Y-104201500D01*
X54476285Y-105058642D02*
X54571523Y-105153880D01*
X54666761Y-105058642D01*
X54571523Y-104963404D01*
X54476285Y-105058642D01*
X54666761Y-105058642D01*
X52857238Y-105915785D02*
X52762000Y-106011023D01*
X52666761Y-106201500D01*
X52666761Y-106677690D01*
X52762000Y-106868166D01*
X52857238Y-106963404D01*
X53047714Y-107058642D01*
X53238190Y-107058642D01*
X53523904Y-106963404D01*
X54666761Y-105820547D01*
X54666761Y-107058642D01*
X52666761Y-108296738D02*
X52666761Y-108487214D01*
X52762000Y-108677690D01*
X52857238Y-108772928D01*
X53047714Y-108868166D01*
X53428666Y-108963404D01*
X53904857Y-108963404D01*
X54285809Y-108868166D01*
X54476285Y-108772928D01*
X54571523Y-108677690D01*
X54666761Y-108487214D01*
X54666761Y-108296738D01*
X54571523Y-108106261D01*
X54476285Y-108011023D01*
X54285809Y-107915785D01*
X53904857Y-107820547D01*
X53428666Y-107820547D01*
X53047714Y-107915785D01*
X52857238Y-108011023D01*
X52762000Y-108106261D01*
X52666761Y-108296738D01*
X52857238Y-109725309D02*
X52762000Y-109820547D01*
X52666761Y-110011023D01*
X52666761Y-110487214D01*
X52762000Y-110677690D01*
X52857238Y-110772928D01*
X53047714Y-110868166D01*
X53238190Y-110868166D01*
X53523904Y-110772928D01*
X54666761Y-109630071D01*
X54666761Y-110868166D01*
X52857238Y-111630071D02*
X52762000Y-111725309D01*
X52666761Y-111915785D01*
X52666761Y-112391976D01*
X52762000Y-112582452D01*
X52857238Y-112677690D01*
X53047714Y-112772928D01*
X53238190Y-112772928D01*
X53523904Y-112677690D01*
X54666761Y-111534833D01*
X54666761Y-112772928D01*
X57886761Y-58677690D02*
X55886761Y-58677690D01*
X55886761Y-59153880D01*
X55982000Y-59439595D01*
X56172476Y-59630071D01*
X56362952Y-59725309D01*
X56743904Y-59820547D01*
X57029619Y-59820547D01*
X57410571Y-59725309D01*
X57601047Y-59630071D01*
X57791523Y-59439595D01*
X57886761Y-59153880D01*
X57886761Y-58677690D01*
X57886761Y-60677690D02*
X55886761Y-60677690D01*
X57315333Y-61344357D01*
X55886761Y-62011023D01*
X57886761Y-62011023D01*
X55886761Y-63820547D02*
X55886761Y-63439595D01*
X55982000Y-63249119D01*
X56077238Y-63153880D01*
X56362952Y-62963404D01*
X56743904Y-62868166D01*
X57505809Y-62868166D01*
X57696285Y-62963404D01*
X57791523Y-63058642D01*
X57886761Y-63249119D01*
X57886761Y-63630071D01*
X57791523Y-63820547D01*
X57696285Y-63915785D01*
X57505809Y-64011023D01*
X57029619Y-64011023D01*
X56839142Y-63915785D01*
X56743904Y-63820547D01*
X56648666Y-63630071D01*
X56648666Y-63249119D01*
X56743904Y-63058642D01*
X56839142Y-62963404D01*
X57029619Y-62868166D01*
X57886761Y-66011023D02*
X56934380Y-65344357D01*
X57886761Y-64868166D02*
X55886761Y-64868166D01*
X55886761Y-65630071D01*
X55982000Y-65820547D01*
X56077238Y-65915785D01*
X56267714Y-66011023D01*
X56553428Y-66011023D01*
X56743904Y-65915785D01*
X56839142Y-65820547D01*
X56934380Y-65630071D01*
X56934380Y-64868166D01*
X57315333Y-66772928D02*
X57315333Y-67725309D01*
X57886761Y-66582452D02*
X55886761Y-67249119D01*
X57886761Y-67915785D01*
X57696285Y-69725309D02*
X57791523Y-69630071D01*
X57886761Y-69344357D01*
X57886761Y-69153880D01*
X57791523Y-68868166D01*
X57601047Y-68677690D01*
X57410571Y-68582452D01*
X57029619Y-68487214D01*
X56743904Y-68487214D01*
X56362952Y-68582452D01*
X56172476Y-68677690D01*
X55982000Y-68868166D01*
X55886761Y-69153880D01*
X55886761Y-69344357D01*
X55982000Y-69630071D01*
X56077238Y-69725309D01*
X141716238Y-68040761D02*
X141621000Y-68136000D01*
X141525761Y-68326476D01*
X141525761Y-68802666D01*
X141621000Y-68993142D01*
X141716238Y-69088380D01*
X141906714Y-69183619D01*
X142097190Y-69183619D01*
X142382904Y-69088380D01*
X143525761Y-67945523D01*
X143525761Y-69183619D01*
X141525761Y-69850285D02*
X141525761Y-71088380D01*
X142287666Y-70421714D01*
X142287666Y-70707428D01*
X142382904Y-70897904D01*
X142478142Y-70993142D01*
X142668619Y-71088380D01*
X143144809Y-71088380D01*
X143335285Y-70993142D01*
X143430523Y-70897904D01*
X143525761Y-70707428D01*
X143525761Y-70136000D01*
X143430523Y-69945523D01*
X143335285Y-69850285D01*
X141525761Y-72326476D02*
X141525761Y-72516952D01*
X141621000Y-72707428D01*
X141716238Y-72802666D01*
X141906714Y-72897904D01*
X142287666Y-72993142D01*
X142763857Y-72993142D01*
X143144809Y-72897904D01*
X143335285Y-72802666D01*
X143430523Y-72707428D01*
X143525761Y-72516952D01*
X143525761Y-72326476D01*
X143430523Y-72136000D01*
X143335285Y-72040761D01*
X143144809Y-71945523D01*
X142763857Y-71850285D01*
X142287666Y-71850285D01*
X141906714Y-71945523D01*
X141716238Y-72040761D01*
X141621000Y-72136000D01*
X141525761Y-72326476D01*
X141525761Y-75088380D02*
X143525761Y-75755047D01*
X141525761Y-76421714D01*
D11*
X88550142Y-78192333D02*
X88597761Y-78144714D01*
X88645380Y-78001857D01*
X88645380Y-77906619D01*
X88597761Y-77763761D01*
X88502523Y-77668523D01*
X88407285Y-77620904D01*
X88216809Y-77573285D01*
X88073952Y-77573285D01*
X87883476Y-77620904D01*
X87788238Y-77668523D01*
X87693000Y-77763761D01*
X87645380Y-77906619D01*
X87645380Y-78001857D01*
X87693000Y-78144714D01*
X87740619Y-78192333D01*
X88645380Y-79144714D02*
X88645380Y-78573285D01*
X88645380Y-78859000D02*
X87645380Y-78859000D01*
X87788238Y-78763761D01*
X87883476Y-78668523D01*
X87931095Y-78573285D01*
X88071285Y-140046666D02*
X87595095Y-140046666D01*
X88166523Y-140332380D02*
X87833190Y-139332380D01*
X87499857Y-140332380D01*
X86642714Y-140332380D02*
X87214142Y-140332380D01*
X86928428Y-140332380D02*
X86928428Y-139332380D01*
X87023666Y-139475238D01*
X87118904Y-139570476D01*
X87214142Y-139618095D01*
D12*
X90953000Y-77647748D02*
X90953000Y-79070252D01*
X89133000Y-77647748D02*
X89133000Y-79070252D01*
X106037000Y-122500000D02*
X103917000Y-122500000D01*
X91917000Y-122500000D02*
X89797000Y-122500000D01*
X106037000Y-123120000D02*
X106037000Y-122500000D01*
X89797000Y-139120000D02*
X89187000Y-139120000D01*
X89797000Y-122500000D02*
X89797000Y-123120000D01*
X106037000Y-146740000D02*
X106037000Y-139120000D01*
X89797000Y-139120000D02*
X89797000Y-146740000D01*
X89797000Y-146740000D02*
X106037000Y-146740000D01*
G36*
X63315913Y-58991104D02*
G01*
X63324374Y-59048426D01*
X63329371Y-59157564D01*
X63331133Y-59321143D01*
X63331111Y-59354678D01*
X63329684Y-59489870D01*
X63326405Y-59599445D01*
X63321696Y-59672895D01*
X63315976Y-59699714D01*
X63299736Y-59694245D01*
X63244120Y-59668327D01*
X63166204Y-59628286D01*
X63113967Y-59601677D01*
X63043074Y-59569908D01*
X63003227Y-59557991D01*
X63003210Y-59557992D01*
X62982318Y-59582017D01*
X62935670Y-59649669D01*
X62866727Y-59755485D01*
X62778950Y-59894004D01*
X62675801Y-60059761D01*
X62560741Y-60247296D01*
X62437233Y-60451146D01*
X62324228Y-60638593D01*
X62201780Y-60841255D01*
X62088550Y-61028198D01*
X61988582Y-61192770D01*
X61905916Y-61328316D01*
X61844596Y-61428186D01*
X61808661Y-61485726D01*
X61717285Y-61628286D01*
X61703000Y-60939605D01*
X61688714Y-60250925D01*
X61131571Y-61160744D01*
X61119573Y-61180330D01*
X60994063Y-61384395D01*
X60877924Y-61571772D01*
X60774543Y-61737104D01*
X60687306Y-61875034D01*
X60619597Y-61980207D01*
X60574803Y-62047265D01*
X60556310Y-62070853D01*
X60553758Y-62069557D01*
X60532397Y-62034667D01*
X60499192Y-61961828D01*
X60460167Y-61864000D01*
X60455955Y-61852729D01*
X60418712Y-61739525D01*
X60393800Y-61627286D01*
X60377872Y-61496657D01*
X60367585Y-61328286D01*
X60363861Y-61161647D01*
X60374977Y-60960966D01*
X60409109Y-60779131D01*
X60470648Y-60595118D01*
X60563985Y-60387905D01*
X60696155Y-60164164D01*
X60894624Y-59926668D01*
X61132994Y-59722791D01*
X61404656Y-59558046D01*
X61703000Y-59437945D01*
X61919229Y-59390563D01*
X62177510Y-59370288D01*
X62446643Y-59380253D01*
X62707733Y-59419696D01*
X62941882Y-59487857D01*
X62948696Y-59488883D01*
X62988138Y-59463750D01*
X63047320Y-59390047D01*
X63127827Y-59265884D01*
X63164717Y-59205664D01*
X63226551Y-59105346D01*
X63274989Y-59027553D01*
X63301874Y-58985428D01*
X63303761Y-58982973D01*
X63315913Y-58991104D01*
G37*
G36*
X64318121Y-58788016D02*
G01*
X64323504Y-58857665D01*
X64327752Y-58967448D01*
X64330536Y-59108892D01*
X64331528Y-59273524D01*
X64331484Y-59799714D01*
X64143559Y-60112485D01*
X64087918Y-60207139D01*
X64016376Y-60340058D01*
X63977887Y-60431502D01*
X63971319Y-60483914D01*
X63977626Y-60507254D01*
X63998425Y-60583512D01*
X64027833Y-60690888D01*
X64061642Y-60814000D01*
X64071915Y-60851805D01*
X64104571Y-60986289D01*
X64121750Y-61098319D01*
X64126224Y-61213355D01*
X64120766Y-61356857D01*
X64108811Y-61503971D01*
X64072193Y-61722132D01*
X64009568Y-61922488D01*
X63914726Y-62128286D01*
X63792447Y-62332420D01*
X63588441Y-62581209D01*
X63344610Y-62789089D01*
X63060142Y-62956845D01*
X62952397Y-63005145D01*
X62644616Y-63102923D01*
X62329242Y-63147050D01*
X62013392Y-63136923D01*
X61704182Y-63071937D01*
X61671010Y-63062018D01*
X61577612Y-63038440D01*
X61523132Y-63034990D01*
X61496538Y-63050529D01*
X61480319Y-63075898D01*
X61438134Y-63143010D01*
X61378804Y-63237988D01*
X61309641Y-63349148D01*
X61145857Y-63612867D01*
X61137945Y-63216064D01*
X61130034Y-62819261D01*
X61013476Y-62713957D01*
X60968238Y-62676082D01*
X60906093Y-62636995D01*
X60871202Y-62634368D01*
X60847840Y-62664901D01*
X60803712Y-62731007D01*
X60748736Y-62817604D01*
X60691308Y-62911010D01*
X60639826Y-62997545D01*
X60602688Y-63063528D01*
X60588291Y-63095279D01*
X60591505Y-63107907D01*
X60612003Y-63164633D01*
X60647274Y-63254385D01*
X60692456Y-63364596D01*
X60718666Y-63428922D01*
X60756055Y-63527645D01*
X60779058Y-63598316D01*
X60783481Y-63628757D01*
X60778637Y-63630954D01*
X60730704Y-63640378D01*
X60642368Y-63652806D01*
X60525768Y-63666985D01*
X60393044Y-63681662D01*
X60256334Y-63695583D01*
X60127778Y-63707497D01*
X60019515Y-63716150D01*
X59943684Y-63720289D01*
X59912423Y-63718662D01*
X59911427Y-63705328D01*
X59913575Y-63643030D01*
X59919654Y-63537497D01*
X59928998Y-63397069D01*
X59940947Y-63230086D01*
X59954836Y-63044887D01*
X59970004Y-62849812D01*
X59985787Y-62653202D01*
X60001523Y-62463396D01*
X60016549Y-62288734D01*
X60030202Y-62137556D01*
X60041819Y-62018202D01*
X60050738Y-61939011D01*
X60056295Y-61908323D01*
X60067609Y-61922291D01*
X60097116Y-61979078D01*
X60139444Y-62069836D01*
X60189675Y-62184386D01*
X60312191Y-62471311D01*
X60424418Y-62283920D01*
X60536645Y-62096528D01*
X60622639Y-62233835D01*
X60655230Y-62283247D01*
X60728985Y-62383493D01*
X60797546Y-62464423D01*
X60886459Y-62557704D01*
X61008016Y-62364789D01*
X61129573Y-62171873D01*
X61137715Y-62495306D01*
X61145857Y-62818738D01*
X61496831Y-63015746D01*
X62135630Y-61964873D01*
X62774428Y-60914000D01*
X62803000Y-62341830D01*
X63935218Y-60442720D01*
X63860605Y-60306931D01*
X63804687Y-60214778D01*
X63737308Y-60122037D01*
X63673148Y-60049498D01*
X63620848Y-60006811D01*
X63589048Y-60003626D01*
X63586642Y-60006401D01*
X63556934Y-60047902D01*
X63507942Y-60121746D01*
X63448946Y-60214000D01*
X63332114Y-60399714D01*
X63331842Y-60062054D01*
X63331571Y-59724394D01*
X63410142Y-59780399D01*
X63479124Y-59835504D01*
X63543706Y-59897254D01*
X63598698Y-59958104D01*
X63945450Y-59372403D01*
X64009708Y-59264097D01*
X64102488Y-59108587D01*
X64183372Y-58974061D01*
X64248083Y-58867581D01*
X64292346Y-58796213D01*
X64311886Y-58767018D01*
X64311931Y-58766974D01*
X64318121Y-58788016D01*
G37*
%LPC*%
D13*
X69088000Y-58039000D03*
X61087000Y-100457000D03*
D14*
X81153000Y-132842000D03*
D15*
X81153000Y-135382000D03*
X81153000Y-137922000D03*
D14*
X53086000Y-134351000D03*
D15*
X53086000Y-131811000D03*
X53086000Y-129271000D03*
X53086000Y-126731000D03*
X53086000Y-124191000D03*
X53086000Y-121651000D03*
X53086000Y-119111000D03*
X53086000Y-116571000D03*
D16*
X146000000Y-53000000D03*
X53000000Y-146000000D03*
D17*
X130429000Y-80779000D03*
X130429000Y-65793000D03*
D16*
X146000000Y-146000000D03*
X53000000Y-53000000D03*
D18*
X84582000Y-64389000D03*
D19*
X84582000Y-59389000D03*
D20*
X86360000Y-75959000D03*
D21*
X86360000Y-81039000D03*
X93980000Y-81039000D03*
X93980000Y-75959000D03*
D22*
X78042000Y-76454000D03*
D23*
X61382000Y-73914000D03*
D24*
X61382000Y-76454000D03*
X61382000Y-78994000D03*
D25*
X131953000Y-89818000D03*
D26*
X131953000Y-94818000D03*
D22*
X96543000Y-106045000D03*
D23*
X79883000Y-103505000D03*
D24*
X79883000Y-106045000D03*
X79883000Y-108585000D03*
D14*
X67743000Y-139355000D03*
D27*
X74243000Y-139355000D03*
X74243000Y-143855000D03*
X67743000Y-143855000D03*
D28*
X120363000Y-67216000D03*
X120363000Y-72216000D03*
X120363000Y-77216000D03*
X120363000Y-82216000D03*
X120363000Y-87216000D03*
X100363000Y-87216000D03*
X100363000Y-82216000D03*
X100363000Y-77216000D03*
X100363000Y-72216000D03*
X100363000Y-67216000D03*
D14*
X110485000Y-145796000D03*
D15*
X113025000Y-145796000D03*
D29*
X90043000Y-76796500D03*
X90043000Y-79921500D03*
D30*
X90317000Y-138120000D03*
X90317000Y-136120000D03*
X90317000Y-134120000D03*
X90317000Y-132120000D03*
X90317000Y-130120000D03*
X90317000Y-128120000D03*
X90317000Y-126120000D03*
X90317000Y-124120000D03*
D31*
X92917000Y-122620000D03*
X94917000Y-122620000D03*
X96917000Y-122620000D03*
X98917000Y-122620000D03*
X100917000Y-122620000D03*
X102917000Y-122620000D03*
D30*
X105517000Y-124120000D03*
X105517000Y-126120000D03*
X105517000Y-128120000D03*
X105517000Y-130120000D03*
X105517000Y-132120000D03*
X105517000Y-134120000D03*
X105517000Y-136120000D03*
X105517000Y-138120000D03*
M02*
