%TF.GenerationSoftware,KiCad,Pcbnew,(6.0.4-0)*%
%TF.CreationDate,2022-09-08T11:41:12+02:00*%
%TF.ProjectId,Antennenumschalter,416e7465-6e6e-4656-9e75-6d736368616c,rev?*%
%TF.SameCoordinates,Original*%
%TF.FileFunction,Soldermask,Top*%
%TF.FilePolarity,Negative*%
%FSLAX46Y46*%
G04 Gerber Fmt 4.6, Leading zero omitted, Abs format (unit mm)*
G04 Created by KiCad (PCBNEW (6.0.4-0)) date 2022-09-08 11:41:12*
%MOMM*%
%LPD*%
G01*
G04 APERTURE LIST*
G04 Aperture macros list*
%AMRoundRect*
0 Rectangle with rounded corners*
0 $1 Rounding radius*
0 $2 $3 $4 $5 $6 $7 $8 $9 X,Y pos of 4 corners*
0 Add a 4 corners polygon primitive as box body*
4,1,4,$2,$3,$4,$5,$6,$7,$8,$9,$2,$3,0*
0 Add four circle primitives for the rounded corners*
1,1,$1+$1,$2,$3*
1,1,$1+$1,$4,$5*
1,1,$1+$1,$6,$7*
1,1,$1+$1,$8,$9*
0 Add four rect primitives between the rounded corners*
20,1,$1+$1,$2,$3,$4,$5,0*
20,1,$1+$1,$4,$5,$6,$7,0*
20,1,$1+$1,$6,$7,$8,$9,0*
20,1,$1+$1,$8,$9,$2,$3,0*%
G04 Aperture macros list end*
%ADD10R,0.850000X0.850000*%
%ADD11R,1.700000X1.700000*%
%ADD12O,1.700000X1.700000*%
%ADD13R,1.780000X2.000000*%
%ADD14R,2.000000X1.780000*%
%ADD15RoundRect,0.250000X0.412500X0.650000X-0.412500X0.650000X-0.412500X-0.650000X0.412500X-0.650000X0*%
%ADD16RoundRect,0.250000X0.400000X0.625000X-0.400000X0.625000X-0.400000X-0.625000X0.400000X-0.625000X0*%
%ADD17RoundRect,0.250000X-0.400000X-0.625000X0.400000X-0.625000X0.400000X0.625000X-0.400000X0.625000X0*%
%ADD18C,5.600000*%
%ADD19RoundRect,0.250000X0.625000X-0.400000X0.625000X0.400000X-0.625000X0.400000X-0.625000X-0.400000X0*%
%ADD20RoundRect,0.250000X-0.625000X0.400000X-0.625000X-0.400000X0.625000X-0.400000X0.625000X0.400000X0*%
%ADD21RoundRect,0.250000X-1.875000X0.875000X-1.875000X-0.875000X1.875000X-0.875000X1.875000X0.875000X0*%
%ADD22RoundRect,0.250000X-0.412500X-0.650000X0.412500X-0.650000X0.412500X0.650000X-0.412500X0.650000X0*%
%ADD23RoundRect,0.150000X0.150000X-0.587500X0.150000X0.587500X-0.150000X0.587500X-0.150000X-0.587500X0*%
%ADD24C,1.524000*%
%ADD25RoundRect,0.250000X-0.650000X0.412500X-0.650000X-0.412500X0.650000X-0.412500X0.650000X0.412500X0*%
%ADD26R,2.400000X2.400000*%
%ADD27C,2.400000*%
%ADD28R,1.600000X1.600000*%
%ADD29O,1.600000X1.600000*%
%ADD30O,3.500000X3.500000*%
%ADD31R,2.000000X1.905000*%
%ADD32O,2.000000X1.905000*%
%ADD33R,3.960000X1.980000*%
%ADD34O,3.960000X1.980000*%
%ADD35RoundRect,0.150000X-0.150000X0.587500X-0.150000X-0.587500X0.150000X-0.587500X0.150000X0.587500X0*%
%ADD36C,1.700000*%
%ADD37C,3.000000*%
%ADD38RoundRect,0.250000X1.875000X-0.875000X1.875000X0.875000X-1.875000X0.875000X-1.875000X-0.875000X0*%
G04 APERTURE END LIST*
D10*
X69088000Y-58039000D03*
X61087000Y-100457000D03*
D11*
X81153000Y-132842000D03*
D12*
X81153000Y-135382000D03*
X81153000Y-137922000D03*
D13*
X79756000Y-123891000D03*
X82296000Y-123891000D03*
X82296000Y-114361000D03*
X79756000Y-114361000D03*
D14*
X112329000Y-139827000D03*
X112329000Y-142367000D03*
X121859000Y-142367000D03*
X121859000Y-139827000D03*
X112583000Y-121412000D03*
X112583000Y-123952000D03*
X122113000Y-123952000D03*
X122113000Y-121412000D03*
X112710000Y-114046000D03*
X112710000Y-116586000D03*
X122240000Y-116586000D03*
X122240000Y-114046000D03*
D15*
X129070500Y-142240000D03*
X125945500Y-142240000D03*
D11*
X53086000Y-134351000D03*
D12*
X53086000Y-131811000D03*
X53086000Y-129271000D03*
X53086000Y-126731000D03*
X53086000Y-124191000D03*
X53086000Y-121651000D03*
X53086000Y-119111000D03*
X53086000Y-116571000D03*
D16*
X129058000Y-139192000D03*
X125958000Y-139192000D03*
D17*
X111099000Y-131064000D03*
X114199000Y-131064000D03*
D18*
X146000000Y-53000000D03*
D19*
X126365000Y-113437000D03*
X126365000Y-110337000D03*
X109728000Y-117247000D03*
X109728000Y-114147000D03*
D18*
X53000000Y-146000000D03*
D20*
X130175000Y-107670000D03*
X130175000Y-110770000D03*
D17*
X125958000Y-136017000D03*
X129058000Y-136017000D03*
D21*
X61468000Y-87351000D03*
X61468000Y-93751000D03*
D22*
X67017500Y-105791000D03*
X70142500Y-105791000D03*
D17*
X67030000Y-110109000D03*
X70130000Y-110109000D03*
D23*
X131638000Y-131747500D03*
X133538000Y-131747500D03*
X132588000Y-129872500D03*
D24*
X130429000Y-80779000D03*
X130429000Y-65793000D03*
D18*
X146000000Y-146000000D03*
X53000000Y-53000000D03*
D16*
X82957000Y-127635000D03*
X79857000Y-127635000D03*
D25*
X135001000Y-107784500D03*
X135001000Y-110909500D03*
D17*
X111099000Y-134493000D03*
X114199000Y-134493000D03*
D23*
X133289000Y-118285500D03*
X135189000Y-118285500D03*
X134239000Y-116410500D03*
D26*
X84582000Y-64389000D03*
D27*
X84582000Y-59389000D03*
D28*
X86360000Y-75959000D03*
D29*
X86360000Y-81039000D03*
X93980000Y-81039000D03*
X93980000Y-75959000D03*
D15*
X129705500Y-127254000D03*
X126580500Y-127254000D03*
D30*
X78042000Y-76454000D03*
D31*
X61382000Y-73914000D03*
D32*
X61382000Y-76454000D03*
X61382000Y-78994000D03*
D33*
X131953000Y-89818000D03*
D34*
X131953000Y-94818000D03*
D35*
X68641000Y-115648500D03*
X66741000Y-115648500D03*
X67691000Y-117523500D03*
D30*
X96543000Y-106045000D03*
D31*
X79883000Y-103505000D03*
D32*
X79883000Y-106045000D03*
X79883000Y-108585000D03*
D11*
X67743000Y-139355000D03*
D36*
X74243000Y-139355000D03*
X74243000Y-143855000D03*
X67743000Y-143855000D03*
D22*
X81495500Y-88646000D03*
X84620500Y-88646000D03*
D37*
X120363000Y-67216000D03*
X120363000Y-72216000D03*
X120363000Y-77216000D03*
X120363000Y-82216000D03*
X120363000Y-87216000D03*
X100363000Y-87216000D03*
X100363000Y-82216000D03*
X100363000Y-77216000D03*
X100363000Y-72216000D03*
X100363000Y-67216000D03*
D38*
X70104000Y-100101000D03*
X70104000Y-93701000D03*
D16*
X75337000Y-115824000D03*
X72237000Y-115824000D03*
X129693000Y-124333000D03*
X126593000Y-124333000D03*
D23*
X124526000Y-107109500D03*
X126426000Y-107109500D03*
X125476000Y-105234500D03*
D11*
X110485000Y-145796000D03*
D12*
X113025000Y-145796000D03*
D17*
X126593000Y-121539000D03*
X129693000Y-121539000D03*
M02*
