%FSLAX45Y45*%
G04 Gerber Fmt 4.5, Leading zero omitted, Abs format (unit mm)*
G04 Created by KiCad (PCBNEW (6.0.4-0)) date 2022-09-08 11:41:53*
%MOMM*%
%LPD*%
G01*
G04 APERTURE LIST*
%TA.AperFunction,Profile*%
%ADD10C,0.100000*%
%TD*%
%ADD11C,0.200000*%
%ADD12C,0.040000*%
%ADD13C,0.050000*%
%ADD14C,0.076200*%
%ADD15C,0.080000*%
%ADD16C,0.100000*%
%ADD17C,0.110000*%
%ADD18C,0.120000*%
%ADD19C,0.132000*%
%ADD20C,0.150000*%
%ADD21C,0.320000*%
G04 APERTURE END LIST*
D10*
X5000000Y-14900000D02*
X5000000Y-5000000D01*
X14900000Y-14900000D02*
X5000000Y-14900000D01*
X14900000Y-10000000D02*
X14900000Y-14900000D01*
X13900000Y-10000000D02*
X14900000Y-10000000D01*
X13900000Y-10000000D02*
X13900000Y-8500000D01*
X13900000Y-8500000D02*
X14900000Y-8500000D01*
X14900000Y-5000000D02*
X14900000Y-8500000D01*
X5000000Y-5000000D02*
X14900000Y-5000000D01*
D11*
D12*
X5669600Y-13238800D02*
X5709600Y-13278800D01*
X5709600Y-13238800D02*
X5669600Y-13278800D01*
X5669600Y-13886500D02*
X5709600Y-13926500D01*
X5709600Y-13886500D02*
X5669600Y-13926500D01*
X6393500Y-10216200D02*
X6433500Y-10256200D01*
X6433500Y-10216200D02*
X6393500Y-10256200D01*
X6431600Y-13213400D02*
X6471600Y-13253400D01*
X6471600Y-13213400D02*
X6431600Y-13253400D01*
X7587300Y-9720900D02*
X7627300Y-9760900D01*
X7627300Y-9720900D02*
X7587300Y-9760900D01*
X8577900Y-12743500D02*
X8617900Y-12783500D01*
X8617900Y-12743500D02*
X8577900Y-12783500D01*
X8641400Y-11549700D02*
X8681400Y-11589700D01*
X8681400Y-11549700D02*
X8641400Y-11589700D01*
X8730300Y-9720900D02*
X8770300Y-9760900D01*
X8770300Y-9720900D02*
X8730300Y-9760900D01*
X9593900Y-13772200D02*
X9633900Y-13812200D01*
X9633900Y-13772200D02*
X9593900Y-13812200D01*
X9962200Y-13784900D02*
X10002200Y-13824900D01*
X10002200Y-13784900D02*
X9962200Y-13824900D01*
X10698800Y-10876600D02*
X10738800Y-10916600D01*
X10738800Y-10876600D02*
X10698800Y-10916600D01*
X10762300Y-12997500D02*
X10802300Y-13037500D01*
X10802300Y-12997500D02*
X10762300Y-13037500D01*
X10876600Y-13188000D02*
X10916600Y-13228000D01*
X10916600Y-13188000D02*
X10876600Y-13228000D01*
X10876600Y-13416600D02*
X10916600Y-13456600D01*
X10916600Y-13416600D02*
X10876600Y-13456600D01*
X10927400Y-12794300D02*
X10967400Y-12834300D01*
X10967400Y-12794300D02*
X10927400Y-12834300D01*
X11752900Y-13111800D02*
X11792900Y-13151800D01*
X11792900Y-13111800D02*
X11752900Y-13151800D01*
X12565700Y-13137200D02*
X12605700Y-13177200D01*
X12605700Y-13137200D02*
X12565700Y-13177200D01*
X12959400Y-11486200D02*
X12999400Y-11526200D01*
X12999400Y-11486200D02*
X12959400Y-11526200D01*
D13*
X6133700Y-10045700D02*
G75*
G03*
X6133700Y-10045700I-25000J0D01*
G01*
X6933800Y-5803900D02*
G75*
G03*
X6933800Y-5803900I-25000J0D01*
G01*
D14*
X13042900Y-6541200D02*
X13042900Y-6617400D01*
X13004800Y-6579300D02*
X13081000Y-6579300D01*
X13042900Y-8039800D02*
X13042900Y-8116000D01*
X13004800Y-8077900D02*
X13081000Y-8077900D01*
D15*
X8664285Y-7624184D02*
X8664285Y-7567615D01*
X8607716Y-7567615D01*
X8607716Y-7624184D01*
X8664285Y-7624184D01*
X8664285Y-8132184D02*
X8664285Y-8075615D01*
X8607716Y-8075615D01*
X8607716Y-8132184D01*
X8664285Y-8132184D01*
X9426285Y-7624184D02*
X9426285Y-7567615D01*
X9369716Y-7567615D01*
X9369716Y-7624184D01*
X9426285Y-7624184D01*
X9426285Y-8132184D02*
X9426285Y-8075615D01*
X9369716Y-8075615D01*
X9369716Y-8132184D01*
X9426285Y-8132184D01*
D16*
X5308600Y-11707100D02*
X5358600Y-11657100D01*
X5308600Y-11607100D01*
X5258600Y-11657100D01*
X5308600Y-11707100D01*
X5308600Y-11961100D02*
X5358600Y-11911100D01*
X5308600Y-11861100D01*
X5258600Y-11911100D01*
X5308600Y-11961100D01*
X5308600Y-12215100D02*
X5358600Y-12165100D01*
X5308600Y-12115100D01*
X5258600Y-12165100D01*
X5308600Y-12215100D01*
X5308600Y-12469100D02*
X5358600Y-12419100D01*
X5308600Y-12369100D01*
X5258600Y-12419100D01*
X5308600Y-12469100D01*
X5308600Y-12723100D02*
X5358600Y-12673100D01*
X5308600Y-12623100D01*
X5258600Y-12673100D01*
X5308600Y-12723100D01*
X5308600Y-12977100D02*
X5358600Y-12927100D01*
X5308600Y-12877100D01*
X5258600Y-12927100D01*
X5308600Y-12977100D01*
X5308600Y-13231100D02*
X5358600Y-13181100D01*
X5308600Y-13131100D01*
X5258600Y-13181100D01*
X5308600Y-13231100D01*
X5308600Y-13485100D02*
X5358600Y-13435100D01*
X5308600Y-13385100D01*
X5258600Y-13435100D01*
X5308600Y-13485100D01*
X6774300Y-13985500D02*
X6824300Y-13935500D01*
X6774300Y-13885500D01*
X6724300Y-13935500D01*
X6774300Y-13985500D01*
X6774300Y-14435500D02*
X6824300Y-14385500D01*
X6774300Y-14335500D01*
X6724300Y-14385500D01*
X6774300Y-14435500D01*
X7424300Y-13985500D02*
X7474300Y-13935500D01*
X7424300Y-13885500D01*
X7374300Y-13935500D01*
X7424300Y-13985500D01*
X7424300Y-14435500D02*
X7474300Y-14385500D01*
X7424300Y-14335500D01*
X7374300Y-14385500D01*
X7424300Y-14435500D01*
X8115300Y-13334200D02*
X8165300Y-13284200D01*
X8115300Y-13234200D01*
X8065300Y-13284200D01*
X8115300Y-13334200D01*
X8115300Y-13588200D02*
X8165300Y-13538200D01*
X8115300Y-13488200D01*
X8065300Y-13538200D01*
X8115300Y-13588200D01*
X8115300Y-13842200D02*
X8165300Y-13792200D01*
X8115300Y-13742200D01*
X8065300Y-13792200D01*
X8115300Y-13842200D01*
X11048500Y-14629600D02*
X11098500Y-14579600D01*
X11048500Y-14529600D01*
X10998500Y-14579600D01*
X11048500Y-14629600D01*
X11302500Y-14629600D02*
X11352500Y-14579600D01*
X11302500Y-14529600D01*
X11252500Y-14579600D01*
X11302500Y-14629600D01*
D17*
X6083200Y-7336400D02*
X6193200Y-7446400D01*
X6193200Y-7336400D02*
X6083200Y-7446400D01*
X6193200Y-7391400D02*
G75*
G03*
X6193200Y-7391400I-55000J0D01*
G01*
X6083200Y-7590400D02*
X6193200Y-7700400D01*
X6193200Y-7590400D02*
X6083200Y-7700400D01*
X6193200Y-7645400D02*
G75*
G03*
X6193200Y-7645400I-55000J0D01*
G01*
X6083200Y-7844400D02*
X6193200Y-7954400D01*
X6193200Y-7844400D02*
X6083200Y-7954400D01*
X6193200Y-7899400D02*
G75*
G03*
X6193200Y-7899400I-55000J0D01*
G01*
X7933300Y-10295500D02*
X8043300Y-10405500D01*
X8043300Y-10295500D02*
X7933300Y-10405500D01*
X8043300Y-10350500D02*
G75*
G03*
X8043300Y-10350500I-55000J0D01*
G01*
X7933300Y-10549500D02*
X8043300Y-10659500D01*
X8043300Y-10549500D02*
X7933300Y-10659500D01*
X8043300Y-10604500D02*
G75*
G03*
X8043300Y-10604500I-55000J0D01*
G01*
X7933300Y-10803500D02*
X8043300Y-10913500D01*
X8043300Y-10803500D02*
X7933300Y-10913500D01*
X8043300Y-10858500D02*
G75*
G03*
X8043300Y-10858500I-55000J0D01*
G01*
D18*
X8398200Y-5878900D02*
X8518200Y-5998900D01*
X8518200Y-5878900D02*
X8398200Y-5998900D01*
X8458200Y-5878900D02*
X8458200Y-5998900D01*
X8398200Y-5938900D02*
X8518200Y-5938900D01*
X8398200Y-6378900D02*
X8518200Y-6498900D01*
X8518200Y-6378900D02*
X8398200Y-6498900D01*
X8458200Y-6378900D02*
X8458200Y-6498900D01*
X8398200Y-6438900D02*
X8518200Y-6438900D01*
D19*
X13129300Y-8915800D02*
X13261300Y-9047800D01*
X13261300Y-8915800D02*
X13129300Y-9047800D01*
X13241969Y-9028470D02*
X13241969Y-8935131D01*
X13148630Y-8935131D01*
X13148630Y-9028470D01*
X13241969Y-9028470D01*
X13129300Y-9415800D02*
X13261300Y-9547800D01*
X13261300Y-9415800D02*
X13129300Y-9547800D01*
X13241969Y-9528470D02*
X13241969Y-9435131D01*
X13148630Y-9435131D01*
X13148630Y-9528470D01*
X13241969Y-9528470D01*
D20*
X9961300Y-6646600D02*
X10111300Y-6796600D01*
X10111300Y-6646600D02*
X9961300Y-6796600D01*
X10036300Y-6796600D02*
X10111300Y-6721600D01*
X10036300Y-6646600D01*
X9961300Y-6721600D01*
X10036300Y-6796600D01*
X9961300Y-7146600D02*
X10111300Y-7296600D01*
X10111300Y-7146600D02*
X9961300Y-7296600D01*
X10036300Y-7296600D02*
X10111300Y-7221600D01*
X10036300Y-7146600D01*
X9961300Y-7221600D01*
X10036300Y-7296600D01*
X9961300Y-7646600D02*
X10111300Y-7796600D01*
X10111300Y-7646600D02*
X9961300Y-7796600D01*
X10036300Y-7796600D02*
X10111300Y-7721600D01*
X10036300Y-7646600D01*
X9961300Y-7721600D01*
X10036300Y-7796600D01*
X9961300Y-8146600D02*
X10111300Y-8296600D01*
X10111300Y-8146600D02*
X9961300Y-8296600D01*
X10036300Y-8296600D02*
X10111300Y-8221600D01*
X10036300Y-8146600D01*
X9961300Y-8221600D01*
X10036300Y-8296600D01*
X9961300Y-8646600D02*
X10111300Y-8796600D01*
X10111300Y-8646600D02*
X9961300Y-8796600D01*
X10036300Y-8796600D02*
X10111300Y-8721600D01*
X10036300Y-8646600D01*
X9961300Y-8721600D01*
X10036300Y-8796600D01*
X11961300Y-6646600D02*
X12111300Y-6796600D01*
X12111300Y-6646600D02*
X11961300Y-6796600D01*
X12036300Y-6796600D02*
X12111300Y-6721600D01*
X12036300Y-6646600D01*
X11961300Y-6721600D01*
X12036300Y-6796600D01*
X11961300Y-7146600D02*
X12111300Y-7296600D01*
X12111300Y-7146600D02*
X11961300Y-7296600D01*
X12036300Y-7296600D02*
X12111300Y-7221600D01*
X12036300Y-7146600D01*
X11961300Y-7221600D01*
X12036300Y-7296600D01*
X11961300Y-7646600D02*
X12111300Y-7796600D01*
X12111300Y-7646600D02*
X11961300Y-7796600D01*
X12036300Y-7796600D02*
X12111300Y-7721600D01*
X12036300Y-7646600D01*
X11961300Y-7721600D01*
X12036300Y-7796600D01*
X11961300Y-8146600D02*
X12111300Y-8296600D01*
X12111300Y-8146600D02*
X11961300Y-8296600D01*
X12036300Y-8296600D02*
X12111300Y-8221600D01*
X12036300Y-8146600D01*
X11961300Y-8221600D01*
X12036300Y-8296600D01*
X11961300Y-8646600D02*
X12111300Y-8796600D01*
X12111300Y-8646600D02*
X11961300Y-8796600D01*
X12036300Y-8796600D02*
X12111300Y-8721600D01*
X12036300Y-8646600D01*
X11961300Y-8721600D01*
X12036300Y-8796600D01*
D21*
X5300000Y-5140000D02*
X5300000Y-5460000D01*
X5140000Y-5300000D02*
X5460000Y-5300000D01*
X5460000Y-5300000D02*
G75*
G03*
X5460000Y-5300000I-160000J0D01*
G01*
X5300000Y-14440000D02*
X5300000Y-14760000D01*
X5140000Y-14600000D02*
X5460000Y-14600000D01*
X5460000Y-14600000D02*
G75*
G03*
X5460000Y-14600000I-160000J0D01*
G01*
X14600000Y-5140000D02*
X14600000Y-5460000D01*
X14440000Y-5300000D02*
X14760000Y-5300000D01*
X14760000Y-5300000D02*
G75*
G03*
X14760000Y-5300000I-160000J0D01*
G01*
X14600000Y-14440000D02*
X14600000Y-14760000D01*
X14440000Y-14600000D02*
X14760000Y-14600000D01*
X14760000Y-14600000D02*
G75*
G03*
X14760000Y-14600000I-160000J0D01*
G01*
D11*
X5252619Y-15215476D02*
X5252619Y-15015476D01*
X5300238Y-15015476D01*
X5328810Y-15025000D01*
X5347857Y-15044048D01*
X5357381Y-15063095D01*
X5366905Y-15101190D01*
X5366905Y-15129762D01*
X5357381Y-15167857D01*
X5347857Y-15186905D01*
X5328810Y-15205952D01*
X5300238Y-15215476D01*
X5252619Y-15215476D01*
X5452619Y-15215476D02*
X5452619Y-15082143D01*
X5452619Y-15120238D02*
X5462143Y-15101190D01*
X5471667Y-15091667D01*
X5490714Y-15082143D01*
X5509762Y-15082143D01*
X5576429Y-15215476D02*
X5576429Y-15082143D01*
X5576429Y-15015476D02*
X5566905Y-15025000D01*
X5576429Y-15034524D01*
X5585952Y-15025000D01*
X5576429Y-15015476D01*
X5576429Y-15034524D01*
X5700238Y-15215476D02*
X5681190Y-15205952D01*
X5671667Y-15186905D01*
X5671667Y-15015476D01*
X5805000Y-15215476D02*
X5785952Y-15205952D01*
X5776428Y-15186905D01*
X5776428Y-15015476D01*
X6033571Y-15215476D02*
X6033571Y-15015476D01*
X6100238Y-15158333D01*
X6166905Y-15015476D01*
X6166905Y-15215476D01*
X6347857Y-15215476D02*
X6347857Y-15110714D01*
X6338333Y-15091667D01*
X6319286Y-15082143D01*
X6281190Y-15082143D01*
X6262143Y-15091667D01*
X6347857Y-15205952D02*
X6328809Y-15215476D01*
X6281190Y-15215476D01*
X6262143Y-15205952D01*
X6252619Y-15186905D01*
X6252619Y-15167857D01*
X6262143Y-15148809D01*
X6281190Y-15139286D01*
X6328809Y-15139286D01*
X6347857Y-15129762D01*
X6443095Y-15082143D02*
X6443095Y-15282143D01*
X6443095Y-15091667D02*
X6462143Y-15082143D01*
X6500238Y-15082143D01*
X6519286Y-15091667D01*
X6528809Y-15101190D01*
X6538333Y-15120238D01*
X6538333Y-15177381D01*
X6528809Y-15196428D01*
X6519286Y-15205952D01*
X6500238Y-15215476D01*
X6462143Y-15215476D01*
X6443095Y-15205952D01*
X6624048Y-15196428D02*
X6633571Y-15205952D01*
X6624048Y-15215476D01*
X6614524Y-15205952D01*
X6624048Y-15196428D01*
X6624048Y-15215476D01*
X6624048Y-15091667D02*
X6633571Y-15101190D01*
X6624048Y-15110714D01*
X6614524Y-15101190D01*
X6624048Y-15091667D01*
X6624048Y-15110714D01*
D12*
X4955000Y-15525000D02*
X4995000Y-15565000D01*
X4995000Y-15525000D02*
X4955000Y-15565000D01*
D11*
X5290714Y-15435476D02*
X5309762Y-15435476D01*
X5328810Y-15445000D01*
X5338333Y-15454524D01*
X5347857Y-15473571D01*
X5357381Y-15511667D01*
X5357381Y-15559286D01*
X5347857Y-15597381D01*
X5338333Y-15616428D01*
X5328810Y-15625952D01*
X5309762Y-15635476D01*
X5290714Y-15635476D01*
X5271667Y-15625952D01*
X5262143Y-15616428D01*
X5252619Y-15597381D01*
X5243095Y-15559286D01*
X5243095Y-15511667D01*
X5252619Y-15473571D01*
X5262143Y-15454524D01*
X5271667Y-15445000D01*
X5290714Y-15435476D01*
X5443095Y-15616428D02*
X5452619Y-15625952D01*
X5443095Y-15635476D01*
X5433571Y-15625952D01*
X5443095Y-15616428D01*
X5443095Y-15635476D01*
X5624048Y-15502143D02*
X5624048Y-15635476D01*
X5576429Y-15425952D02*
X5528810Y-15568809D01*
X5652619Y-15568809D01*
X5766905Y-15435476D02*
X5785952Y-15435476D01*
X5805000Y-15445000D01*
X5814524Y-15454524D01*
X5824048Y-15473571D01*
X5833571Y-15511667D01*
X5833571Y-15559286D01*
X5824048Y-15597381D01*
X5814524Y-15616428D01*
X5805000Y-15625952D01*
X5785952Y-15635476D01*
X5766905Y-15635476D01*
X5747857Y-15625952D01*
X5738333Y-15616428D01*
X5728809Y-15597381D01*
X5719286Y-15559286D01*
X5719286Y-15511667D01*
X5728809Y-15473571D01*
X5738333Y-15454524D01*
X5747857Y-15445000D01*
X5766905Y-15435476D01*
X5957381Y-15435476D02*
X5976428Y-15435476D01*
X5995476Y-15445000D01*
X6005000Y-15454524D01*
X6014524Y-15473571D01*
X6024048Y-15511667D01*
X6024048Y-15559286D01*
X6014524Y-15597381D01*
X6005000Y-15616428D01*
X5995476Y-15625952D01*
X5976428Y-15635476D01*
X5957381Y-15635476D01*
X5938333Y-15625952D01*
X5928809Y-15616428D01*
X5919286Y-15597381D01*
X5909762Y-15559286D01*
X5909762Y-15511667D01*
X5919286Y-15473571D01*
X5928809Y-15454524D01*
X5938333Y-15445000D01*
X5957381Y-15435476D01*
X6109762Y-15635476D02*
X6109762Y-15502143D01*
X6109762Y-15521190D02*
X6119286Y-15511667D01*
X6138333Y-15502143D01*
X6166905Y-15502143D01*
X6185952Y-15511667D01*
X6195476Y-15530714D01*
X6195476Y-15635476D01*
X6195476Y-15530714D02*
X6205000Y-15511667D01*
X6224048Y-15502143D01*
X6252619Y-15502143D01*
X6271667Y-15511667D01*
X6281190Y-15530714D01*
X6281190Y-15635476D01*
X6376428Y-15635476D02*
X6376428Y-15502143D01*
X6376428Y-15521190D02*
X6385952Y-15511667D01*
X6405000Y-15502143D01*
X6433571Y-15502143D01*
X6452619Y-15511667D01*
X6462143Y-15530714D01*
X6462143Y-15635476D01*
X6462143Y-15530714D02*
X6471667Y-15511667D01*
X6490714Y-15502143D01*
X6519286Y-15502143D01*
X6538333Y-15511667D01*
X6547857Y-15530714D01*
X6547857Y-15635476D01*
X6938333Y-15425952D02*
X6766905Y-15683095D01*
X7195476Y-15435476D02*
X7214524Y-15435476D01*
X7233571Y-15445000D01*
X7243095Y-15454524D01*
X7252619Y-15473571D01*
X7262143Y-15511667D01*
X7262143Y-15559286D01*
X7252619Y-15597381D01*
X7243095Y-15616428D01*
X7233571Y-15625952D01*
X7214524Y-15635476D01*
X7195476Y-15635476D01*
X7176428Y-15625952D01*
X7166905Y-15616428D01*
X7157381Y-15597381D01*
X7147857Y-15559286D01*
X7147857Y-15511667D01*
X7157381Y-15473571D01*
X7166905Y-15454524D01*
X7176428Y-15445000D01*
X7195476Y-15435476D01*
X7347857Y-15616428D02*
X7357381Y-15625952D01*
X7347857Y-15635476D01*
X7338333Y-15625952D01*
X7347857Y-15616428D01*
X7347857Y-15635476D01*
X7481190Y-15435476D02*
X7500238Y-15435476D01*
X7519286Y-15445000D01*
X7528809Y-15454524D01*
X7538333Y-15473571D01*
X7547857Y-15511667D01*
X7547857Y-15559286D01*
X7538333Y-15597381D01*
X7528809Y-15616428D01*
X7519286Y-15625952D01*
X7500238Y-15635476D01*
X7481190Y-15635476D01*
X7462143Y-15625952D01*
X7452619Y-15616428D01*
X7443095Y-15597381D01*
X7433571Y-15559286D01*
X7433571Y-15511667D01*
X7443095Y-15473571D01*
X7452619Y-15454524D01*
X7462143Y-15445000D01*
X7481190Y-15435476D01*
X7738333Y-15635476D02*
X7624048Y-15635476D01*
X7681190Y-15635476D02*
X7681190Y-15435476D01*
X7662143Y-15464048D01*
X7643095Y-15483095D01*
X7624048Y-15492619D01*
X7919286Y-15435476D02*
X7824048Y-15435476D01*
X7814524Y-15530714D01*
X7824048Y-15521190D01*
X7843095Y-15511667D01*
X7890714Y-15511667D01*
X7909762Y-15521190D01*
X7919286Y-15530714D01*
X7928809Y-15549762D01*
X7928809Y-15597381D01*
X7919286Y-15616428D01*
X7909762Y-15625952D01*
X7890714Y-15635476D01*
X7843095Y-15635476D01*
X7824048Y-15625952D01*
X7814524Y-15616428D01*
X7995476Y-15435476D02*
X8128809Y-15435476D01*
X8043095Y-15635476D01*
X8195476Y-15435476D02*
X8195476Y-15473571D01*
X8271667Y-15435476D02*
X8271667Y-15473571D01*
X8566905Y-15711667D02*
X8557381Y-15702143D01*
X8538333Y-15673571D01*
X8528810Y-15654524D01*
X8519286Y-15625952D01*
X8509762Y-15578333D01*
X8509762Y-15540238D01*
X8519286Y-15492619D01*
X8528810Y-15464048D01*
X8538333Y-15445000D01*
X8557381Y-15416428D01*
X8566905Y-15406905D01*
X8747857Y-15635476D02*
X8633571Y-15635476D01*
X8690714Y-15635476D02*
X8690714Y-15435476D01*
X8671667Y-15464048D01*
X8652619Y-15483095D01*
X8633571Y-15492619D01*
X8862143Y-15521190D02*
X8843095Y-15511667D01*
X8833571Y-15502143D01*
X8824048Y-15483095D01*
X8824048Y-15473571D01*
X8833571Y-15454524D01*
X8843095Y-15445000D01*
X8862143Y-15435476D01*
X8900238Y-15435476D01*
X8919286Y-15445000D01*
X8928810Y-15454524D01*
X8938333Y-15473571D01*
X8938333Y-15483095D01*
X8928810Y-15502143D01*
X8919286Y-15511667D01*
X8900238Y-15521190D01*
X8862143Y-15521190D01*
X8843095Y-15530714D01*
X8833571Y-15540238D01*
X8824048Y-15559286D01*
X8824048Y-15597381D01*
X8833571Y-15616428D01*
X8843095Y-15625952D01*
X8862143Y-15635476D01*
X8900238Y-15635476D01*
X8919286Y-15625952D01*
X8928810Y-15616428D01*
X8938333Y-15597381D01*
X8938333Y-15559286D01*
X8928810Y-15540238D01*
X8919286Y-15530714D01*
X8900238Y-15521190D01*
X9176429Y-15635476D02*
X9176429Y-15435476D01*
X9262143Y-15635476D02*
X9262143Y-15530714D01*
X9252619Y-15511667D01*
X9233571Y-15502143D01*
X9205000Y-15502143D01*
X9185952Y-15511667D01*
X9176429Y-15521190D01*
X9385952Y-15635476D02*
X9366905Y-15625952D01*
X9357381Y-15616428D01*
X9347857Y-15597381D01*
X9347857Y-15540238D01*
X9357381Y-15521190D01*
X9366905Y-15511667D01*
X9385952Y-15502143D01*
X9414524Y-15502143D01*
X9433571Y-15511667D01*
X9443095Y-15521190D01*
X9452619Y-15540238D01*
X9452619Y-15597381D01*
X9443095Y-15616428D01*
X9433571Y-15625952D01*
X9414524Y-15635476D01*
X9385952Y-15635476D01*
X9566905Y-15635476D02*
X9547857Y-15625952D01*
X9538333Y-15606905D01*
X9538333Y-15435476D01*
X9719286Y-15625952D02*
X9700238Y-15635476D01*
X9662143Y-15635476D01*
X9643095Y-15625952D01*
X9633571Y-15606905D01*
X9633571Y-15530714D01*
X9643095Y-15511667D01*
X9662143Y-15502143D01*
X9700238Y-15502143D01*
X9719286Y-15511667D01*
X9728810Y-15530714D01*
X9728810Y-15549762D01*
X9633571Y-15568809D01*
X9805000Y-15625952D02*
X9824048Y-15635476D01*
X9862143Y-15635476D01*
X9881190Y-15625952D01*
X9890714Y-15606905D01*
X9890714Y-15597381D01*
X9881190Y-15578333D01*
X9862143Y-15568809D01*
X9833571Y-15568809D01*
X9814524Y-15559286D01*
X9805000Y-15540238D01*
X9805000Y-15530714D01*
X9814524Y-15511667D01*
X9833571Y-15502143D01*
X9862143Y-15502143D01*
X9881190Y-15511667D01*
X9957381Y-15711667D02*
X9966905Y-15702143D01*
X9985952Y-15673571D01*
X9995476Y-15654524D01*
X10005000Y-15625952D01*
X10014524Y-15578333D01*
X10014524Y-15540238D01*
X10005000Y-15492619D01*
X9995476Y-15464048D01*
X9985952Y-15445000D01*
X9966905Y-15416428D01*
X9957381Y-15406905D01*
D13*
X4995000Y-15809000D02*
G75*
G03*
X4995000Y-15809000I-25000J0D01*
G01*
D11*
X5290714Y-15699476D02*
X5309762Y-15699476D01*
X5328810Y-15709000D01*
X5338333Y-15718524D01*
X5347857Y-15737571D01*
X5357381Y-15775667D01*
X5357381Y-15823286D01*
X5347857Y-15861381D01*
X5338333Y-15880428D01*
X5328810Y-15889952D01*
X5309762Y-15899476D01*
X5290714Y-15899476D01*
X5271667Y-15889952D01*
X5262143Y-15880428D01*
X5252619Y-15861381D01*
X5243095Y-15823286D01*
X5243095Y-15775667D01*
X5252619Y-15737571D01*
X5262143Y-15718524D01*
X5271667Y-15709000D01*
X5290714Y-15699476D01*
X5443095Y-15880428D02*
X5452619Y-15889952D01*
X5443095Y-15899476D01*
X5433571Y-15889952D01*
X5443095Y-15880428D01*
X5443095Y-15899476D01*
X5633571Y-15699476D02*
X5538333Y-15699476D01*
X5528810Y-15794714D01*
X5538333Y-15785190D01*
X5557381Y-15775667D01*
X5605000Y-15775667D01*
X5624048Y-15785190D01*
X5633571Y-15794714D01*
X5643095Y-15813762D01*
X5643095Y-15861381D01*
X5633571Y-15880428D01*
X5624048Y-15889952D01*
X5605000Y-15899476D01*
X5557381Y-15899476D01*
X5538333Y-15889952D01*
X5528810Y-15880428D01*
X5766905Y-15699476D02*
X5785952Y-15699476D01*
X5805000Y-15709000D01*
X5814524Y-15718524D01*
X5824048Y-15737571D01*
X5833571Y-15775667D01*
X5833571Y-15823286D01*
X5824048Y-15861381D01*
X5814524Y-15880428D01*
X5805000Y-15889952D01*
X5785952Y-15899476D01*
X5766905Y-15899476D01*
X5747857Y-15889952D01*
X5738333Y-15880428D01*
X5728809Y-15861381D01*
X5719286Y-15823286D01*
X5719286Y-15775667D01*
X5728809Y-15737571D01*
X5738333Y-15718524D01*
X5747857Y-15709000D01*
X5766905Y-15699476D01*
X5957381Y-15699476D02*
X5976428Y-15699476D01*
X5995476Y-15709000D01*
X6005000Y-15718524D01*
X6014524Y-15737571D01*
X6024048Y-15775667D01*
X6024048Y-15823286D01*
X6014524Y-15861381D01*
X6005000Y-15880428D01*
X5995476Y-15889952D01*
X5976428Y-15899476D01*
X5957381Y-15899476D01*
X5938333Y-15889952D01*
X5928809Y-15880428D01*
X5919286Y-15861381D01*
X5909762Y-15823286D01*
X5909762Y-15775667D01*
X5919286Y-15737571D01*
X5928809Y-15718524D01*
X5938333Y-15709000D01*
X5957381Y-15699476D01*
X6109762Y-15899476D02*
X6109762Y-15766143D01*
X6109762Y-15785190D02*
X6119286Y-15775667D01*
X6138333Y-15766143D01*
X6166905Y-15766143D01*
X6185952Y-15775667D01*
X6195476Y-15794714D01*
X6195476Y-15899476D01*
X6195476Y-15794714D02*
X6205000Y-15775667D01*
X6224048Y-15766143D01*
X6252619Y-15766143D01*
X6271667Y-15775667D01*
X6281190Y-15794714D01*
X6281190Y-15899476D01*
X6376428Y-15899476D02*
X6376428Y-15766143D01*
X6376428Y-15785190D02*
X6385952Y-15775667D01*
X6405000Y-15766143D01*
X6433571Y-15766143D01*
X6452619Y-15775667D01*
X6462143Y-15794714D01*
X6462143Y-15899476D01*
X6462143Y-15794714D02*
X6471667Y-15775667D01*
X6490714Y-15766143D01*
X6519286Y-15766143D01*
X6538333Y-15775667D01*
X6547857Y-15794714D01*
X6547857Y-15899476D01*
X6938333Y-15689952D02*
X6766905Y-15947095D01*
X7195476Y-15699476D02*
X7214524Y-15699476D01*
X7233571Y-15709000D01*
X7243095Y-15718524D01*
X7252619Y-15737571D01*
X7262143Y-15775667D01*
X7262143Y-15823286D01*
X7252619Y-15861381D01*
X7243095Y-15880428D01*
X7233571Y-15889952D01*
X7214524Y-15899476D01*
X7195476Y-15899476D01*
X7176428Y-15889952D01*
X7166905Y-15880428D01*
X7157381Y-15861381D01*
X7147857Y-15823286D01*
X7147857Y-15775667D01*
X7157381Y-15737571D01*
X7166905Y-15718524D01*
X7176428Y-15709000D01*
X7195476Y-15699476D01*
X7347857Y-15880428D02*
X7357381Y-15889952D01*
X7347857Y-15899476D01*
X7338333Y-15889952D01*
X7347857Y-15880428D01*
X7347857Y-15899476D01*
X7481190Y-15699476D02*
X7500238Y-15699476D01*
X7519286Y-15709000D01*
X7528809Y-15718524D01*
X7538333Y-15737571D01*
X7547857Y-15775667D01*
X7547857Y-15823286D01*
X7538333Y-15861381D01*
X7528809Y-15880428D01*
X7519286Y-15889952D01*
X7500238Y-15899476D01*
X7481190Y-15899476D01*
X7462143Y-15889952D01*
X7452619Y-15880428D01*
X7443095Y-15861381D01*
X7433571Y-15823286D01*
X7433571Y-15775667D01*
X7443095Y-15737571D01*
X7452619Y-15718524D01*
X7462143Y-15709000D01*
X7481190Y-15699476D01*
X7738333Y-15899476D02*
X7624048Y-15899476D01*
X7681190Y-15899476D02*
X7681190Y-15699476D01*
X7662143Y-15728048D01*
X7643095Y-15747095D01*
X7624048Y-15756619D01*
X7833571Y-15899476D02*
X7871667Y-15899476D01*
X7890714Y-15889952D01*
X7900238Y-15880428D01*
X7919286Y-15851857D01*
X7928809Y-15813762D01*
X7928809Y-15737571D01*
X7919286Y-15718524D01*
X7909762Y-15709000D01*
X7890714Y-15699476D01*
X7852619Y-15699476D01*
X7833571Y-15709000D01*
X7824048Y-15718524D01*
X7814524Y-15737571D01*
X7814524Y-15785190D01*
X7824048Y-15804238D01*
X7833571Y-15813762D01*
X7852619Y-15823286D01*
X7890714Y-15823286D01*
X7909762Y-15813762D01*
X7919286Y-15804238D01*
X7928809Y-15785190D01*
X7995476Y-15699476D02*
X8128809Y-15699476D01*
X8043095Y-15899476D01*
X8195476Y-15699476D02*
X8195476Y-15737571D01*
X8271667Y-15699476D02*
X8271667Y-15737571D01*
X8566905Y-15975667D02*
X8557381Y-15966143D01*
X8538333Y-15937571D01*
X8528810Y-15918524D01*
X8519286Y-15889952D01*
X8509762Y-15842333D01*
X8509762Y-15804238D01*
X8519286Y-15756619D01*
X8528810Y-15728048D01*
X8538333Y-15709000D01*
X8557381Y-15680428D01*
X8566905Y-15670905D01*
X8633571Y-15718524D02*
X8643095Y-15709000D01*
X8662143Y-15699476D01*
X8709762Y-15699476D01*
X8728810Y-15709000D01*
X8738333Y-15718524D01*
X8747857Y-15737571D01*
X8747857Y-15756619D01*
X8738333Y-15785190D01*
X8624048Y-15899476D01*
X8747857Y-15899476D01*
X8985952Y-15899476D02*
X8985952Y-15699476D01*
X9071667Y-15899476D02*
X9071667Y-15794714D01*
X9062143Y-15775667D01*
X9043095Y-15766143D01*
X9014524Y-15766143D01*
X8995476Y-15775667D01*
X8985952Y-15785190D01*
X9195476Y-15899476D02*
X9176429Y-15889952D01*
X9166905Y-15880428D01*
X9157381Y-15861381D01*
X9157381Y-15804238D01*
X9166905Y-15785190D01*
X9176429Y-15775667D01*
X9195476Y-15766143D01*
X9224048Y-15766143D01*
X9243095Y-15775667D01*
X9252619Y-15785190D01*
X9262143Y-15804238D01*
X9262143Y-15861381D01*
X9252619Y-15880428D01*
X9243095Y-15889952D01*
X9224048Y-15899476D01*
X9195476Y-15899476D01*
X9376429Y-15899476D02*
X9357381Y-15889952D01*
X9347857Y-15870905D01*
X9347857Y-15699476D01*
X9528810Y-15889952D02*
X9509762Y-15899476D01*
X9471667Y-15899476D01*
X9452619Y-15889952D01*
X9443095Y-15870905D01*
X9443095Y-15794714D01*
X9452619Y-15775667D01*
X9471667Y-15766143D01*
X9509762Y-15766143D01*
X9528810Y-15775667D01*
X9538333Y-15794714D01*
X9538333Y-15813762D01*
X9443095Y-15832809D01*
X9614524Y-15889952D02*
X9633571Y-15899476D01*
X9671667Y-15899476D01*
X9690714Y-15889952D01*
X9700238Y-15870905D01*
X9700238Y-15861381D01*
X9690714Y-15842333D01*
X9671667Y-15832809D01*
X9643095Y-15832809D01*
X9624048Y-15823286D01*
X9614524Y-15804238D01*
X9614524Y-15794714D01*
X9624048Y-15775667D01*
X9643095Y-15766143D01*
X9671667Y-15766143D01*
X9690714Y-15775667D01*
X9766905Y-15975667D02*
X9776429Y-15966143D01*
X9795476Y-15937571D01*
X9805000Y-15918524D01*
X9814524Y-15889952D01*
X9824048Y-15842333D01*
X9824048Y-15804238D01*
X9814524Y-15756619D01*
X9805000Y-15728048D01*
X9795476Y-15709000D01*
X9776429Y-15680428D01*
X9766905Y-15670905D01*
D14*
X4956900Y-16034900D02*
X4956900Y-16111100D01*
X4918800Y-16073000D02*
X4995000Y-16073000D01*
D11*
X5290714Y-15963476D02*
X5309762Y-15963476D01*
X5328810Y-15973000D01*
X5338333Y-15982524D01*
X5347857Y-16001571D01*
X5357381Y-16039667D01*
X5357381Y-16087286D01*
X5347857Y-16125381D01*
X5338333Y-16144428D01*
X5328810Y-16153952D01*
X5309762Y-16163476D01*
X5290714Y-16163476D01*
X5271667Y-16153952D01*
X5262143Y-16144428D01*
X5252619Y-16125381D01*
X5243095Y-16087286D01*
X5243095Y-16039667D01*
X5252619Y-16001571D01*
X5262143Y-15982524D01*
X5271667Y-15973000D01*
X5290714Y-15963476D01*
X5443095Y-16144428D02*
X5452619Y-16153952D01*
X5443095Y-16163476D01*
X5433571Y-16153952D01*
X5443095Y-16144428D01*
X5443095Y-16163476D01*
X5519286Y-15963476D02*
X5652619Y-15963476D01*
X5566905Y-16163476D01*
X5814524Y-15963476D02*
X5776428Y-15963476D01*
X5757381Y-15973000D01*
X5747857Y-15982524D01*
X5728809Y-16011095D01*
X5719286Y-16049190D01*
X5719286Y-16125381D01*
X5728809Y-16144428D01*
X5738333Y-16153952D01*
X5757381Y-16163476D01*
X5795476Y-16163476D01*
X5814524Y-16153952D01*
X5824048Y-16144428D01*
X5833571Y-16125381D01*
X5833571Y-16077762D01*
X5824048Y-16058714D01*
X5814524Y-16049190D01*
X5795476Y-16039667D01*
X5757381Y-16039667D01*
X5738333Y-16049190D01*
X5728809Y-16058714D01*
X5719286Y-16077762D01*
X5909762Y-15982524D02*
X5919286Y-15973000D01*
X5938333Y-15963476D01*
X5985952Y-15963476D01*
X6005000Y-15973000D01*
X6014524Y-15982524D01*
X6024048Y-16001571D01*
X6024048Y-16020619D01*
X6014524Y-16049190D01*
X5900238Y-16163476D01*
X6024048Y-16163476D01*
X6109762Y-16163476D02*
X6109762Y-16030143D01*
X6109762Y-16049190D02*
X6119286Y-16039667D01*
X6138333Y-16030143D01*
X6166905Y-16030143D01*
X6185952Y-16039667D01*
X6195476Y-16058714D01*
X6195476Y-16163476D01*
X6195476Y-16058714D02*
X6205000Y-16039667D01*
X6224048Y-16030143D01*
X6252619Y-16030143D01*
X6271667Y-16039667D01*
X6281190Y-16058714D01*
X6281190Y-16163476D01*
X6376428Y-16163476D02*
X6376428Y-16030143D01*
X6376428Y-16049190D02*
X6385952Y-16039667D01*
X6405000Y-16030143D01*
X6433571Y-16030143D01*
X6452619Y-16039667D01*
X6462143Y-16058714D01*
X6462143Y-16163476D01*
X6462143Y-16058714D02*
X6471667Y-16039667D01*
X6490714Y-16030143D01*
X6519286Y-16030143D01*
X6538333Y-16039667D01*
X6547857Y-16058714D01*
X6547857Y-16163476D01*
X6938333Y-15953952D02*
X6766905Y-16211095D01*
X7195476Y-15963476D02*
X7214524Y-15963476D01*
X7233571Y-15973000D01*
X7243095Y-15982524D01*
X7252619Y-16001571D01*
X7262143Y-16039667D01*
X7262143Y-16087286D01*
X7252619Y-16125381D01*
X7243095Y-16144428D01*
X7233571Y-16153952D01*
X7214524Y-16163476D01*
X7195476Y-16163476D01*
X7176428Y-16153952D01*
X7166905Y-16144428D01*
X7157381Y-16125381D01*
X7147857Y-16087286D01*
X7147857Y-16039667D01*
X7157381Y-16001571D01*
X7166905Y-15982524D01*
X7176428Y-15973000D01*
X7195476Y-15963476D01*
X7347857Y-16144428D02*
X7357381Y-16153952D01*
X7347857Y-16163476D01*
X7338333Y-16153952D01*
X7347857Y-16144428D01*
X7347857Y-16163476D01*
X7481190Y-15963476D02*
X7500238Y-15963476D01*
X7519286Y-15973000D01*
X7528809Y-15982524D01*
X7538333Y-16001571D01*
X7547857Y-16039667D01*
X7547857Y-16087286D01*
X7538333Y-16125381D01*
X7528809Y-16144428D01*
X7519286Y-16153952D01*
X7500238Y-16163476D01*
X7481190Y-16163476D01*
X7462143Y-16153952D01*
X7452619Y-16144428D01*
X7443095Y-16125381D01*
X7433571Y-16087286D01*
X7433571Y-16039667D01*
X7443095Y-16001571D01*
X7452619Y-15982524D01*
X7462143Y-15973000D01*
X7481190Y-15963476D01*
X7614524Y-15963476D02*
X7738333Y-15963476D01*
X7671667Y-16039667D01*
X7700238Y-16039667D01*
X7719286Y-16049190D01*
X7728809Y-16058714D01*
X7738333Y-16077762D01*
X7738333Y-16125381D01*
X7728809Y-16144428D01*
X7719286Y-16153952D01*
X7700238Y-16163476D01*
X7643095Y-16163476D01*
X7624048Y-16153952D01*
X7614524Y-16144428D01*
X7862143Y-15963476D02*
X7881190Y-15963476D01*
X7900238Y-15973000D01*
X7909762Y-15982524D01*
X7919286Y-16001571D01*
X7928809Y-16039667D01*
X7928809Y-16087286D01*
X7919286Y-16125381D01*
X7909762Y-16144428D01*
X7900238Y-16153952D01*
X7881190Y-16163476D01*
X7862143Y-16163476D01*
X7843095Y-16153952D01*
X7833571Y-16144428D01*
X7824048Y-16125381D01*
X7814524Y-16087286D01*
X7814524Y-16039667D01*
X7824048Y-16001571D01*
X7833571Y-15982524D01*
X7843095Y-15973000D01*
X7862143Y-15963476D01*
X8052619Y-15963476D02*
X8071667Y-15963476D01*
X8090714Y-15973000D01*
X8100238Y-15982524D01*
X8109762Y-16001571D01*
X8119286Y-16039667D01*
X8119286Y-16087286D01*
X8109762Y-16125381D01*
X8100238Y-16144428D01*
X8090714Y-16153952D01*
X8071667Y-16163476D01*
X8052619Y-16163476D01*
X8033571Y-16153952D01*
X8024048Y-16144428D01*
X8014524Y-16125381D01*
X8005000Y-16087286D01*
X8005000Y-16039667D01*
X8014524Y-16001571D01*
X8024048Y-15982524D01*
X8033571Y-15973000D01*
X8052619Y-15963476D01*
X8195476Y-15963476D02*
X8195476Y-16001571D01*
X8271667Y-15963476D02*
X8271667Y-16001571D01*
X8566905Y-16239667D02*
X8557381Y-16230143D01*
X8538333Y-16201571D01*
X8528810Y-16182524D01*
X8519286Y-16153952D01*
X8509762Y-16106333D01*
X8509762Y-16068238D01*
X8519286Y-16020619D01*
X8528810Y-15992048D01*
X8538333Y-15973000D01*
X8557381Y-15944428D01*
X8566905Y-15934905D01*
X8633571Y-15982524D02*
X8643095Y-15973000D01*
X8662143Y-15963476D01*
X8709762Y-15963476D01*
X8728810Y-15973000D01*
X8738333Y-15982524D01*
X8747857Y-16001571D01*
X8747857Y-16020619D01*
X8738333Y-16049190D01*
X8624048Y-16163476D01*
X8747857Y-16163476D01*
X8985952Y-16163476D02*
X8985952Y-15963476D01*
X9071667Y-16163476D02*
X9071667Y-16058714D01*
X9062143Y-16039667D01*
X9043095Y-16030143D01*
X9014524Y-16030143D01*
X8995476Y-16039667D01*
X8985952Y-16049190D01*
X9195476Y-16163476D02*
X9176429Y-16153952D01*
X9166905Y-16144428D01*
X9157381Y-16125381D01*
X9157381Y-16068238D01*
X9166905Y-16049190D01*
X9176429Y-16039667D01*
X9195476Y-16030143D01*
X9224048Y-16030143D01*
X9243095Y-16039667D01*
X9252619Y-16049190D01*
X9262143Y-16068238D01*
X9262143Y-16125381D01*
X9252619Y-16144428D01*
X9243095Y-16153952D01*
X9224048Y-16163476D01*
X9195476Y-16163476D01*
X9376429Y-16163476D02*
X9357381Y-16153952D01*
X9347857Y-16134905D01*
X9347857Y-15963476D01*
X9528810Y-16153952D02*
X9509762Y-16163476D01*
X9471667Y-16163476D01*
X9452619Y-16153952D01*
X9443095Y-16134905D01*
X9443095Y-16058714D01*
X9452619Y-16039667D01*
X9471667Y-16030143D01*
X9509762Y-16030143D01*
X9528810Y-16039667D01*
X9538333Y-16058714D01*
X9538333Y-16077762D01*
X9443095Y-16096809D01*
X9614524Y-16153952D02*
X9633571Y-16163476D01*
X9671667Y-16163476D01*
X9690714Y-16153952D01*
X9700238Y-16134905D01*
X9700238Y-16125381D01*
X9690714Y-16106333D01*
X9671667Y-16096809D01*
X9643095Y-16096809D01*
X9624048Y-16087286D01*
X9614524Y-16068238D01*
X9614524Y-16058714D01*
X9624048Y-16039667D01*
X9643095Y-16030143D01*
X9671667Y-16030143D01*
X9690714Y-16039667D01*
X9766905Y-16239667D02*
X9776429Y-16230143D01*
X9795476Y-16201571D01*
X9805000Y-16182524D01*
X9814524Y-16153952D01*
X9824048Y-16106333D01*
X9824048Y-16068238D01*
X9814524Y-16020619D01*
X9805000Y-15992048D01*
X9795476Y-15973000D01*
X9776429Y-15944428D01*
X9766905Y-15934905D01*
D15*
X4983285Y-16365284D02*
X4983285Y-16308715D01*
X4926716Y-16308715D01*
X4926716Y-16365284D01*
X4983285Y-16365284D01*
D11*
X5290714Y-16227476D02*
X5309762Y-16227476D01*
X5328810Y-16237000D01*
X5338333Y-16246524D01*
X5347857Y-16265571D01*
X5357381Y-16303667D01*
X5357381Y-16351286D01*
X5347857Y-16389381D01*
X5338333Y-16408428D01*
X5328810Y-16417952D01*
X5309762Y-16427476D01*
X5290714Y-16427476D01*
X5271667Y-16417952D01*
X5262143Y-16408428D01*
X5252619Y-16389381D01*
X5243095Y-16351286D01*
X5243095Y-16303667D01*
X5252619Y-16265571D01*
X5262143Y-16246524D01*
X5271667Y-16237000D01*
X5290714Y-16227476D01*
X5443095Y-16408428D02*
X5452619Y-16417952D01*
X5443095Y-16427476D01*
X5433571Y-16417952D01*
X5443095Y-16408428D01*
X5443095Y-16427476D01*
X5566905Y-16313190D02*
X5547857Y-16303667D01*
X5538333Y-16294143D01*
X5528810Y-16275095D01*
X5528810Y-16265571D01*
X5538333Y-16246524D01*
X5547857Y-16237000D01*
X5566905Y-16227476D01*
X5605000Y-16227476D01*
X5624048Y-16237000D01*
X5633571Y-16246524D01*
X5643095Y-16265571D01*
X5643095Y-16275095D01*
X5633571Y-16294143D01*
X5624048Y-16303667D01*
X5605000Y-16313190D01*
X5566905Y-16313190D01*
X5547857Y-16322714D01*
X5538333Y-16332238D01*
X5528810Y-16351286D01*
X5528810Y-16389381D01*
X5538333Y-16408428D01*
X5547857Y-16417952D01*
X5566905Y-16427476D01*
X5605000Y-16427476D01*
X5624048Y-16417952D01*
X5633571Y-16408428D01*
X5643095Y-16389381D01*
X5643095Y-16351286D01*
X5633571Y-16332238D01*
X5624048Y-16322714D01*
X5605000Y-16313190D01*
X5766905Y-16227476D02*
X5785952Y-16227476D01*
X5805000Y-16237000D01*
X5814524Y-16246524D01*
X5824048Y-16265571D01*
X5833571Y-16303667D01*
X5833571Y-16351286D01*
X5824048Y-16389381D01*
X5814524Y-16408428D01*
X5805000Y-16417952D01*
X5785952Y-16427476D01*
X5766905Y-16427476D01*
X5747857Y-16417952D01*
X5738333Y-16408428D01*
X5728809Y-16389381D01*
X5719286Y-16351286D01*
X5719286Y-16303667D01*
X5728809Y-16265571D01*
X5738333Y-16246524D01*
X5747857Y-16237000D01*
X5766905Y-16227476D01*
X5957381Y-16227476D02*
X5976428Y-16227476D01*
X5995476Y-16237000D01*
X6005000Y-16246524D01*
X6014524Y-16265571D01*
X6024048Y-16303667D01*
X6024048Y-16351286D01*
X6014524Y-16389381D01*
X6005000Y-16408428D01*
X5995476Y-16417952D01*
X5976428Y-16427476D01*
X5957381Y-16427476D01*
X5938333Y-16417952D01*
X5928809Y-16408428D01*
X5919286Y-16389381D01*
X5909762Y-16351286D01*
X5909762Y-16303667D01*
X5919286Y-16265571D01*
X5928809Y-16246524D01*
X5938333Y-16237000D01*
X5957381Y-16227476D01*
X6109762Y-16427476D02*
X6109762Y-16294143D01*
X6109762Y-16313190D02*
X6119286Y-16303667D01*
X6138333Y-16294143D01*
X6166905Y-16294143D01*
X6185952Y-16303667D01*
X6195476Y-16322714D01*
X6195476Y-16427476D01*
X6195476Y-16322714D02*
X6205000Y-16303667D01*
X6224048Y-16294143D01*
X6252619Y-16294143D01*
X6271667Y-16303667D01*
X6281190Y-16322714D01*
X6281190Y-16427476D01*
X6376428Y-16427476D02*
X6376428Y-16294143D01*
X6376428Y-16313190D02*
X6385952Y-16303667D01*
X6405000Y-16294143D01*
X6433571Y-16294143D01*
X6452619Y-16303667D01*
X6462143Y-16322714D01*
X6462143Y-16427476D01*
X6462143Y-16322714D02*
X6471667Y-16303667D01*
X6490714Y-16294143D01*
X6519286Y-16294143D01*
X6538333Y-16303667D01*
X6547857Y-16322714D01*
X6547857Y-16427476D01*
X6938333Y-16217952D02*
X6766905Y-16475095D01*
X7195476Y-16227476D02*
X7214524Y-16227476D01*
X7233571Y-16237000D01*
X7243095Y-16246524D01*
X7252619Y-16265571D01*
X7262143Y-16303667D01*
X7262143Y-16351286D01*
X7252619Y-16389381D01*
X7243095Y-16408428D01*
X7233571Y-16417952D01*
X7214524Y-16427476D01*
X7195476Y-16427476D01*
X7176428Y-16417952D01*
X7166905Y-16408428D01*
X7157381Y-16389381D01*
X7147857Y-16351286D01*
X7147857Y-16303667D01*
X7157381Y-16265571D01*
X7166905Y-16246524D01*
X7176428Y-16237000D01*
X7195476Y-16227476D01*
X7347857Y-16408428D02*
X7357381Y-16417952D01*
X7347857Y-16427476D01*
X7338333Y-16417952D01*
X7347857Y-16408428D01*
X7347857Y-16427476D01*
X7481190Y-16227476D02*
X7500238Y-16227476D01*
X7519286Y-16237000D01*
X7528809Y-16246524D01*
X7538333Y-16265571D01*
X7547857Y-16303667D01*
X7547857Y-16351286D01*
X7538333Y-16389381D01*
X7528809Y-16408428D01*
X7519286Y-16417952D01*
X7500238Y-16427476D01*
X7481190Y-16427476D01*
X7462143Y-16417952D01*
X7452619Y-16408428D01*
X7443095Y-16389381D01*
X7433571Y-16351286D01*
X7433571Y-16303667D01*
X7443095Y-16265571D01*
X7452619Y-16246524D01*
X7462143Y-16237000D01*
X7481190Y-16227476D01*
X7614524Y-16227476D02*
X7738333Y-16227476D01*
X7671667Y-16303667D01*
X7700238Y-16303667D01*
X7719286Y-16313190D01*
X7728809Y-16322714D01*
X7738333Y-16341762D01*
X7738333Y-16389381D01*
X7728809Y-16408428D01*
X7719286Y-16417952D01*
X7700238Y-16427476D01*
X7643095Y-16427476D01*
X7624048Y-16417952D01*
X7614524Y-16408428D01*
X7928809Y-16427476D02*
X7814524Y-16427476D01*
X7871667Y-16427476D02*
X7871667Y-16227476D01*
X7852619Y-16256048D01*
X7833571Y-16275095D01*
X7814524Y-16284619D01*
X8109762Y-16227476D02*
X8014524Y-16227476D01*
X8005000Y-16322714D01*
X8014524Y-16313190D01*
X8033571Y-16303667D01*
X8081190Y-16303667D01*
X8100238Y-16313190D01*
X8109762Y-16322714D01*
X8119286Y-16341762D01*
X8119286Y-16389381D01*
X8109762Y-16408428D01*
X8100238Y-16417952D01*
X8081190Y-16427476D01*
X8033571Y-16427476D01*
X8014524Y-16417952D01*
X8005000Y-16408428D01*
X8195476Y-16227476D02*
X8195476Y-16265571D01*
X8271667Y-16227476D02*
X8271667Y-16265571D01*
X8566905Y-16503667D02*
X8557381Y-16494143D01*
X8538333Y-16465571D01*
X8528810Y-16446524D01*
X8519286Y-16417952D01*
X8509762Y-16370333D01*
X8509762Y-16332238D01*
X8519286Y-16284619D01*
X8528810Y-16256048D01*
X8538333Y-16237000D01*
X8557381Y-16208428D01*
X8566905Y-16198905D01*
X8728810Y-16294143D02*
X8728810Y-16427476D01*
X8681190Y-16217952D02*
X8633571Y-16360809D01*
X8757381Y-16360809D01*
X8985952Y-16427476D02*
X8985952Y-16227476D01*
X9071667Y-16427476D02*
X9071667Y-16322714D01*
X9062143Y-16303667D01*
X9043095Y-16294143D01*
X9014524Y-16294143D01*
X8995476Y-16303667D01*
X8985952Y-16313190D01*
X9195476Y-16427476D02*
X9176429Y-16417952D01*
X9166905Y-16408428D01*
X9157381Y-16389381D01*
X9157381Y-16332238D01*
X9166905Y-16313190D01*
X9176429Y-16303667D01*
X9195476Y-16294143D01*
X9224048Y-16294143D01*
X9243095Y-16303667D01*
X9252619Y-16313190D01*
X9262143Y-16332238D01*
X9262143Y-16389381D01*
X9252619Y-16408428D01*
X9243095Y-16417952D01*
X9224048Y-16427476D01*
X9195476Y-16427476D01*
X9376429Y-16427476D02*
X9357381Y-16417952D01*
X9347857Y-16398905D01*
X9347857Y-16227476D01*
X9528810Y-16417952D02*
X9509762Y-16427476D01*
X9471667Y-16427476D01*
X9452619Y-16417952D01*
X9443095Y-16398905D01*
X9443095Y-16322714D01*
X9452619Y-16303667D01*
X9471667Y-16294143D01*
X9509762Y-16294143D01*
X9528810Y-16303667D01*
X9538333Y-16322714D01*
X9538333Y-16341762D01*
X9443095Y-16360809D01*
X9614524Y-16417952D02*
X9633571Y-16427476D01*
X9671667Y-16427476D01*
X9690714Y-16417952D01*
X9700238Y-16398905D01*
X9700238Y-16389381D01*
X9690714Y-16370333D01*
X9671667Y-16360809D01*
X9643095Y-16360809D01*
X9624048Y-16351286D01*
X9614524Y-16332238D01*
X9614524Y-16322714D01*
X9624048Y-16303667D01*
X9643095Y-16294143D01*
X9671667Y-16294143D01*
X9690714Y-16303667D01*
X9766905Y-16503667D02*
X9776429Y-16494143D01*
X9795476Y-16465571D01*
X9805000Y-16446524D01*
X9814524Y-16417952D01*
X9824048Y-16370333D01*
X9824048Y-16332238D01*
X9814524Y-16284619D01*
X9805000Y-16256048D01*
X9795476Y-16237000D01*
X9776429Y-16208428D01*
X9766905Y-16198905D01*
D16*
X4945000Y-16651000D02*
X4995000Y-16601000D01*
X4945000Y-16551000D01*
X4895000Y-16601000D01*
X4945000Y-16651000D01*
D11*
X5357381Y-16691476D02*
X5243095Y-16691476D01*
X5300238Y-16691476D02*
X5300238Y-16491476D01*
X5281190Y-16520048D01*
X5262143Y-16539095D01*
X5243095Y-16548619D01*
X5443095Y-16672428D02*
X5452619Y-16681952D01*
X5443095Y-16691476D01*
X5433571Y-16681952D01*
X5443095Y-16672428D01*
X5443095Y-16691476D01*
X5576429Y-16491476D02*
X5595476Y-16491476D01*
X5614524Y-16501000D01*
X5624048Y-16510524D01*
X5633571Y-16529571D01*
X5643095Y-16567667D01*
X5643095Y-16615286D01*
X5633571Y-16653381D01*
X5624048Y-16672428D01*
X5614524Y-16681952D01*
X5595476Y-16691476D01*
X5576429Y-16691476D01*
X5557381Y-16681952D01*
X5547857Y-16672428D01*
X5538333Y-16653381D01*
X5528810Y-16615286D01*
X5528810Y-16567667D01*
X5538333Y-16529571D01*
X5547857Y-16510524D01*
X5557381Y-16501000D01*
X5576429Y-16491476D01*
X5766905Y-16491476D02*
X5785952Y-16491476D01*
X5805000Y-16501000D01*
X5814524Y-16510524D01*
X5824048Y-16529571D01*
X5833571Y-16567667D01*
X5833571Y-16615286D01*
X5824048Y-16653381D01*
X5814524Y-16672428D01*
X5805000Y-16681952D01*
X5785952Y-16691476D01*
X5766905Y-16691476D01*
X5747857Y-16681952D01*
X5738333Y-16672428D01*
X5728809Y-16653381D01*
X5719286Y-16615286D01*
X5719286Y-16567667D01*
X5728809Y-16529571D01*
X5738333Y-16510524D01*
X5747857Y-16501000D01*
X5766905Y-16491476D01*
X5957381Y-16491476D02*
X5976428Y-16491476D01*
X5995476Y-16501000D01*
X6005000Y-16510524D01*
X6014524Y-16529571D01*
X6024048Y-16567667D01*
X6024048Y-16615286D01*
X6014524Y-16653381D01*
X6005000Y-16672428D01*
X5995476Y-16681952D01*
X5976428Y-16691476D01*
X5957381Y-16691476D01*
X5938333Y-16681952D01*
X5928809Y-16672428D01*
X5919286Y-16653381D01*
X5909762Y-16615286D01*
X5909762Y-16567667D01*
X5919286Y-16529571D01*
X5928809Y-16510524D01*
X5938333Y-16501000D01*
X5957381Y-16491476D01*
X6109762Y-16691476D02*
X6109762Y-16558143D01*
X6109762Y-16577190D02*
X6119286Y-16567667D01*
X6138333Y-16558143D01*
X6166905Y-16558143D01*
X6185952Y-16567667D01*
X6195476Y-16586714D01*
X6195476Y-16691476D01*
X6195476Y-16586714D02*
X6205000Y-16567667D01*
X6224048Y-16558143D01*
X6252619Y-16558143D01*
X6271667Y-16567667D01*
X6281190Y-16586714D01*
X6281190Y-16691476D01*
X6376428Y-16691476D02*
X6376428Y-16558143D01*
X6376428Y-16577190D02*
X6385952Y-16567667D01*
X6405000Y-16558143D01*
X6433571Y-16558143D01*
X6452619Y-16567667D01*
X6462143Y-16586714D01*
X6462143Y-16691476D01*
X6462143Y-16586714D02*
X6471667Y-16567667D01*
X6490714Y-16558143D01*
X6519286Y-16558143D01*
X6538333Y-16567667D01*
X6547857Y-16586714D01*
X6547857Y-16691476D01*
X6938333Y-16481952D02*
X6766905Y-16739095D01*
X7195476Y-16491476D02*
X7214524Y-16491476D01*
X7233571Y-16501000D01*
X7243095Y-16510524D01*
X7252619Y-16529571D01*
X7262143Y-16567667D01*
X7262143Y-16615286D01*
X7252619Y-16653381D01*
X7243095Y-16672428D01*
X7233571Y-16681952D01*
X7214524Y-16691476D01*
X7195476Y-16691476D01*
X7176428Y-16681952D01*
X7166905Y-16672428D01*
X7157381Y-16653381D01*
X7147857Y-16615286D01*
X7147857Y-16567667D01*
X7157381Y-16529571D01*
X7166905Y-16510524D01*
X7176428Y-16501000D01*
X7195476Y-16491476D01*
X7347857Y-16672428D02*
X7357381Y-16681952D01*
X7347857Y-16691476D01*
X7338333Y-16681952D01*
X7347857Y-16672428D01*
X7347857Y-16691476D01*
X7481190Y-16491476D02*
X7500238Y-16491476D01*
X7519286Y-16501000D01*
X7528809Y-16510524D01*
X7538333Y-16529571D01*
X7547857Y-16567667D01*
X7547857Y-16615286D01*
X7538333Y-16653381D01*
X7528809Y-16672428D01*
X7519286Y-16681952D01*
X7500238Y-16691476D01*
X7481190Y-16691476D01*
X7462143Y-16681952D01*
X7452619Y-16672428D01*
X7443095Y-16653381D01*
X7433571Y-16615286D01*
X7433571Y-16567667D01*
X7443095Y-16529571D01*
X7452619Y-16510524D01*
X7462143Y-16501000D01*
X7481190Y-16491476D01*
X7614524Y-16491476D02*
X7738333Y-16491476D01*
X7671667Y-16567667D01*
X7700238Y-16567667D01*
X7719286Y-16577190D01*
X7728809Y-16586714D01*
X7738333Y-16605762D01*
X7738333Y-16653381D01*
X7728809Y-16672428D01*
X7719286Y-16681952D01*
X7700238Y-16691476D01*
X7643095Y-16691476D01*
X7624048Y-16681952D01*
X7614524Y-16672428D01*
X7833571Y-16691476D02*
X7871667Y-16691476D01*
X7890714Y-16681952D01*
X7900238Y-16672428D01*
X7919286Y-16643857D01*
X7928809Y-16605762D01*
X7928809Y-16529571D01*
X7919286Y-16510524D01*
X7909762Y-16501000D01*
X7890714Y-16491476D01*
X7852619Y-16491476D01*
X7833571Y-16501000D01*
X7824048Y-16510524D01*
X7814524Y-16529571D01*
X7814524Y-16577190D01*
X7824048Y-16596238D01*
X7833571Y-16605762D01*
X7852619Y-16615286D01*
X7890714Y-16615286D01*
X7909762Y-16605762D01*
X7919286Y-16596238D01*
X7928809Y-16577190D01*
X8100238Y-16558143D02*
X8100238Y-16691476D01*
X8052619Y-16481952D02*
X8005000Y-16624809D01*
X8128809Y-16624809D01*
X8195476Y-16491476D02*
X8195476Y-16529571D01*
X8271667Y-16491476D02*
X8271667Y-16529571D01*
X8566905Y-16767667D02*
X8557381Y-16758143D01*
X8538333Y-16729571D01*
X8528810Y-16710524D01*
X8519286Y-16681952D01*
X8509762Y-16634333D01*
X8509762Y-16596238D01*
X8519286Y-16548619D01*
X8528810Y-16520048D01*
X8538333Y-16501000D01*
X8557381Y-16472428D01*
X8566905Y-16462905D01*
X8747857Y-16691476D02*
X8633571Y-16691476D01*
X8690714Y-16691476D02*
X8690714Y-16491476D01*
X8671667Y-16520048D01*
X8652619Y-16539095D01*
X8633571Y-16548619D01*
X8814524Y-16491476D02*
X8947857Y-16491476D01*
X8862143Y-16691476D01*
X9176429Y-16691476D02*
X9176429Y-16491476D01*
X9262143Y-16691476D02*
X9262143Y-16586714D01*
X9252619Y-16567667D01*
X9233571Y-16558143D01*
X9205000Y-16558143D01*
X9185952Y-16567667D01*
X9176429Y-16577190D01*
X9385952Y-16691476D02*
X9366905Y-16681952D01*
X9357381Y-16672428D01*
X9347857Y-16653381D01*
X9347857Y-16596238D01*
X9357381Y-16577190D01*
X9366905Y-16567667D01*
X9385952Y-16558143D01*
X9414524Y-16558143D01*
X9433571Y-16567667D01*
X9443095Y-16577190D01*
X9452619Y-16596238D01*
X9452619Y-16653381D01*
X9443095Y-16672428D01*
X9433571Y-16681952D01*
X9414524Y-16691476D01*
X9385952Y-16691476D01*
X9566905Y-16691476D02*
X9547857Y-16681952D01*
X9538333Y-16662905D01*
X9538333Y-16491476D01*
X9719286Y-16681952D02*
X9700238Y-16691476D01*
X9662143Y-16691476D01*
X9643095Y-16681952D01*
X9633571Y-16662905D01*
X9633571Y-16586714D01*
X9643095Y-16567667D01*
X9662143Y-16558143D01*
X9700238Y-16558143D01*
X9719286Y-16567667D01*
X9728810Y-16586714D01*
X9728810Y-16605762D01*
X9633571Y-16624809D01*
X9805000Y-16681952D02*
X9824048Y-16691476D01*
X9862143Y-16691476D01*
X9881190Y-16681952D01*
X9890714Y-16662905D01*
X9890714Y-16653381D01*
X9881190Y-16634333D01*
X9862143Y-16624809D01*
X9833571Y-16624809D01*
X9814524Y-16615286D01*
X9805000Y-16596238D01*
X9805000Y-16586714D01*
X9814524Y-16567667D01*
X9833571Y-16558143D01*
X9862143Y-16558143D01*
X9881190Y-16567667D01*
X9957381Y-16767667D02*
X9966905Y-16758143D01*
X9985952Y-16729571D01*
X9995476Y-16710524D01*
X10005000Y-16681952D01*
X10014524Y-16634333D01*
X10014524Y-16596238D01*
X10005000Y-16548619D01*
X9995476Y-16520048D01*
X9985952Y-16501000D01*
X9966905Y-16472428D01*
X9957381Y-16462905D01*
D17*
X4885000Y-16810000D02*
X4995000Y-16920000D01*
X4995000Y-16810000D02*
X4885000Y-16920000D01*
X4995000Y-16865000D02*
G75*
G03*
X4995000Y-16865000I-55000J0D01*
G01*
D11*
X5357381Y-16955476D02*
X5243095Y-16955476D01*
X5300238Y-16955476D02*
X5300238Y-16755476D01*
X5281190Y-16784048D01*
X5262143Y-16803095D01*
X5243095Y-16812619D01*
X5443095Y-16936429D02*
X5452619Y-16945952D01*
X5443095Y-16955476D01*
X5433571Y-16945952D01*
X5443095Y-16936429D01*
X5443095Y-16955476D01*
X5643095Y-16955476D02*
X5528810Y-16955476D01*
X5585952Y-16955476D02*
X5585952Y-16755476D01*
X5566905Y-16784048D01*
X5547857Y-16803095D01*
X5528810Y-16812619D01*
X5766905Y-16755476D02*
X5785952Y-16755476D01*
X5805000Y-16765000D01*
X5814524Y-16774524D01*
X5824048Y-16793571D01*
X5833571Y-16831667D01*
X5833571Y-16879286D01*
X5824048Y-16917381D01*
X5814524Y-16936429D01*
X5805000Y-16945952D01*
X5785952Y-16955476D01*
X5766905Y-16955476D01*
X5747857Y-16945952D01*
X5738333Y-16936429D01*
X5728809Y-16917381D01*
X5719286Y-16879286D01*
X5719286Y-16831667D01*
X5728809Y-16793571D01*
X5738333Y-16774524D01*
X5747857Y-16765000D01*
X5766905Y-16755476D01*
X5957381Y-16755476D02*
X5976428Y-16755476D01*
X5995476Y-16765000D01*
X6005000Y-16774524D01*
X6014524Y-16793571D01*
X6024048Y-16831667D01*
X6024048Y-16879286D01*
X6014524Y-16917381D01*
X6005000Y-16936429D01*
X5995476Y-16945952D01*
X5976428Y-16955476D01*
X5957381Y-16955476D01*
X5938333Y-16945952D01*
X5928809Y-16936429D01*
X5919286Y-16917381D01*
X5909762Y-16879286D01*
X5909762Y-16831667D01*
X5919286Y-16793571D01*
X5928809Y-16774524D01*
X5938333Y-16765000D01*
X5957381Y-16755476D01*
X6109762Y-16955476D02*
X6109762Y-16822143D01*
X6109762Y-16841190D02*
X6119286Y-16831667D01*
X6138333Y-16822143D01*
X6166905Y-16822143D01*
X6185952Y-16831667D01*
X6195476Y-16850714D01*
X6195476Y-16955476D01*
X6195476Y-16850714D02*
X6205000Y-16831667D01*
X6224048Y-16822143D01*
X6252619Y-16822143D01*
X6271667Y-16831667D01*
X6281190Y-16850714D01*
X6281190Y-16955476D01*
X6376428Y-16955476D02*
X6376428Y-16822143D01*
X6376428Y-16841190D02*
X6385952Y-16831667D01*
X6405000Y-16822143D01*
X6433571Y-16822143D01*
X6452619Y-16831667D01*
X6462143Y-16850714D01*
X6462143Y-16955476D01*
X6462143Y-16850714D02*
X6471667Y-16831667D01*
X6490714Y-16822143D01*
X6519286Y-16822143D01*
X6538333Y-16831667D01*
X6547857Y-16850714D01*
X6547857Y-16955476D01*
X6938333Y-16745952D02*
X6766905Y-17003095D01*
X7195476Y-16755476D02*
X7214524Y-16755476D01*
X7233571Y-16765000D01*
X7243095Y-16774524D01*
X7252619Y-16793571D01*
X7262143Y-16831667D01*
X7262143Y-16879286D01*
X7252619Y-16917381D01*
X7243095Y-16936429D01*
X7233571Y-16945952D01*
X7214524Y-16955476D01*
X7195476Y-16955476D01*
X7176428Y-16945952D01*
X7166905Y-16936429D01*
X7157381Y-16917381D01*
X7147857Y-16879286D01*
X7147857Y-16831667D01*
X7157381Y-16793571D01*
X7166905Y-16774524D01*
X7176428Y-16765000D01*
X7195476Y-16755476D01*
X7347857Y-16936429D02*
X7357381Y-16945952D01*
X7347857Y-16955476D01*
X7338333Y-16945952D01*
X7347857Y-16936429D01*
X7347857Y-16955476D01*
X7481190Y-16755476D02*
X7500238Y-16755476D01*
X7519286Y-16765000D01*
X7528809Y-16774524D01*
X7538333Y-16793571D01*
X7547857Y-16831667D01*
X7547857Y-16879286D01*
X7538333Y-16917381D01*
X7528809Y-16936429D01*
X7519286Y-16945952D01*
X7500238Y-16955476D01*
X7481190Y-16955476D01*
X7462143Y-16945952D01*
X7452619Y-16936429D01*
X7443095Y-16917381D01*
X7433571Y-16879286D01*
X7433571Y-16831667D01*
X7443095Y-16793571D01*
X7452619Y-16774524D01*
X7462143Y-16765000D01*
X7481190Y-16755476D01*
X7719286Y-16822143D02*
X7719286Y-16955476D01*
X7671667Y-16745952D02*
X7624048Y-16888810D01*
X7747857Y-16888810D01*
X7805000Y-16755476D02*
X7928809Y-16755476D01*
X7862143Y-16831667D01*
X7890714Y-16831667D01*
X7909762Y-16841190D01*
X7919286Y-16850714D01*
X7928809Y-16869762D01*
X7928809Y-16917381D01*
X7919286Y-16936429D01*
X7909762Y-16945952D01*
X7890714Y-16955476D01*
X7833571Y-16955476D01*
X7814524Y-16945952D01*
X7805000Y-16936429D01*
X7995476Y-16755476D02*
X8119286Y-16755476D01*
X8052619Y-16831667D01*
X8081190Y-16831667D01*
X8100238Y-16841190D01*
X8109762Y-16850714D01*
X8119286Y-16869762D01*
X8119286Y-16917381D01*
X8109762Y-16936429D01*
X8100238Y-16945952D01*
X8081190Y-16955476D01*
X8024048Y-16955476D01*
X8005000Y-16945952D01*
X7995476Y-16936429D01*
X8195476Y-16755476D02*
X8195476Y-16793571D01*
X8271667Y-16755476D02*
X8271667Y-16793571D01*
X8566905Y-17031667D02*
X8557381Y-17022143D01*
X8538333Y-16993571D01*
X8528810Y-16974524D01*
X8519286Y-16945952D01*
X8509762Y-16898333D01*
X8509762Y-16860238D01*
X8519286Y-16812619D01*
X8528810Y-16784048D01*
X8538333Y-16765000D01*
X8557381Y-16736428D01*
X8566905Y-16726905D01*
X8728810Y-16755476D02*
X8690714Y-16755476D01*
X8671667Y-16765000D01*
X8662143Y-16774524D01*
X8643095Y-16803095D01*
X8633571Y-16841190D01*
X8633571Y-16917381D01*
X8643095Y-16936429D01*
X8652619Y-16945952D01*
X8671667Y-16955476D01*
X8709762Y-16955476D01*
X8728810Y-16945952D01*
X8738333Y-16936429D01*
X8747857Y-16917381D01*
X8747857Y-16869762D01*
X8738333Y-16850714D01*
X8728810Y-16841190D01*
X8709762Y-16831667D01*
X8671667Y-16831667D01*
X8652619Y-16841190D01*
X8643095Y-16850714D01*
X8633571Y-16869762D01*
X8985952Y-16955476D02*
X8985952Y-16755476D01*
X9071667Y-16955476D02*
X9071667Y-16850714D01*
X9062143Y-16831667D01*
X9043095Y-16822143D01*
X9014524Y-16822143D01*
X8995476Y-16831667D01*
X8985952Y-16841190D01*
X9195476Y-16955476D02*
X9176429Y-16945952D01*
X9166905Y-16936429D01*
X9157381Y-16917381D01*
X9157381Y-16860238D01*
X9166905Y-16841190D01*
X9176429Y-16831667D01*
X9195476Y-16822143D01*
X9224048Y-16822143D01*
X9243095Y-16831667D01*
X9252619Y-16841190D01*
X9262143Y-16860238D01*
X9262143Y-16917381D01*
X9252619Y-16936429D01*
X9243095Y-16945952D01*
X9224048Y-16955476D01*
X9195476Y-16955476D01*
X9376429Y-16955476D02*
X9357381Y-16945952D01*
X9347857Y-16926905D01*
X9347857Y-16755476D01*
X9528810Y-16945952D02*
X9509762Y-16955476D01*
X9471667Y-16955476D01*
X9452619Y-16945952D01*
X9443095Y-16926905D01*
X9443095Y-16850714D01*
X9452619Y-16831667D01*
X9471667Y-16822143D01*
X9509762Y-16822143D01*
X9528810Y-16831667D01*
X9538333Y-16850714D01*
X9538333Y-16869762D01*
X9443095Y-16888810D01*
X9614524Y-16945952D02*
X9633571Y-16955476D01*
X9671667Y-16955476D01*
X9690714Y-16945952D01*
X9700238Y-16926905D01*
X9700238Y-16917381D01*
X9690714Y-16898333D01*
X9671667Y-16888810D01*
X9643095Y-16888810D01*
X9624048Y-16879286D01*
X9614524Y-16860238D01*
X9614524Y-16850714D01*
X9624048Y-16831667D01*
X9643095Y-16822143D01*
X9671667Y-16822143D01*
X9690714Y-16831667D01*
X9766905Y-17031667D02*
X9776429Y-17022143D01*
X9795476Y-16993571D01*
X9805000Y-16974524D01*
X9814524Y-16945952D01*
X9824048Y-16898333D01*
X9824048Y-16860238D01*
X9814524Y-16812619D01*
X9805000Y-16784048D01*
X9795476Y-16765000D01*
X9776429Y-16736428D01*
X9766905Y-16726905D01*
D18*
X4875000Y-17069000D02*
X4995000Y-17189000D01*
X4995000Y-17069000D02*
X4875000Y-17189000D01*
X4935000Y-17069000D02*
X4935000Y-17189000D01*
X4875000Y-17129000D02*
X4995000Y-17129000D01*
D11*
X5357381Y-17219476D02*
X5243095Y-17219476D01*
X5300238Y-17219476D02*
X5300238Y-17019476D01*
X5281190Y-17048048D01*
X5262143Y-17067095D01*
X5243095Y-17076619D01*
X5443095Y-17200429D02*
X5452619Y-17209952D01*
X5443095Y-17219476D01*
X5433571Y-17209952D01*
X5443095Y-17200429D01*
X5443095Y-17219476D01*
X5528810Y-17038524D02*
X5538333Y-17029000D01*
X5557381Y-17019476D01*
X5605000Y-17019476D01*
X5624048Y-17029000D01*
X5633571Y-17038524D01*
X5643095Y-17057571D01*
X5643095Y-17076619D01*
X5633571Y-17105190D01*
X5519286Y-17219476D01*
X5643095Y-17219476D01*
X5766905Y-17019476D02*
X5785952Y-17019476D01*
X5805000Y-17029000D01*
X5814524Y-17038524D01*
X5824048Y-17057571D01*
X5833571Y-17095667D01*
X5833571Y-17143286D01*
X5824048Y-17181381D01*
X5814524Y-17200429D01*
X5805000Y-17209952D01*
X5785952Y-17219476D01*
X5766905Y-17219476D01*
X5747857Y-17209952D01*
X5738333Y-17200429D01*
X5728809Y-17181381D01*
X5719286Y-17143286D01*
X5719286Y-17095667D01*
X5728809Y-17057571D01*
X5738333Y-17038524D01*
X5747857Y-17029000D01*
X5766905Y-17019476D01*
X5957381Y-17019476D02*
X5976428Y-17019476D01*
X5995476Y-17029000D01*
X6005000Y-17038524D01*
X6014524Y-17057571D01*
X6024048Y-17095667D01*
X6024048Y-17143286D01*
X6014524Y-17181381D01*
X6005000Y-17200429D01*
X5995476Y-17209952D01*
X5976428Y-17219476D01*
X5957381Y-17219476D01*
X5938333Y-17209952D01*
X5928809Y-17200429D01*
X5919286Y-17181381D01*
X5909762Y-17143286D01*
X5909762Y-17095667D01*
X5919286Y-17057571D01*
X5928809Y-17038524D01*
X5938333Y-17029000D01*
X5957381Y-17019476D01*
X6109762Y-17219476D02*
X6109762Y-17086143D01*
X6109762Y-17105190D02*
X6119286Y-17095667D01*
X6138333Y-17086143D01*
X6166905Y-17086143D01*
X6185952Y-17095667D01*
X6195476Y-17114714D01*
X6195476Y-17219476D01*
X6195476Y-17114714D02*
X6205000Y-17095667D01*
X6224048Y-17086143D01*
X6252619Y-17086143D01*
X6271667Y-17095667D01*
X6281190Y-17114714D01*
X6281190Y-17219476D01*
X6376428Y-17219476D02*
X6376428Y-17086143D01*
X6376428Y-17105190D02*
X6385952Y-17095667D01*
X6405000Y-17086143D01*
X6433571Y-17086143D01*
X6452619Y-17095667D01*
X6462143Y-17114714D01*
X6462143Y-17219476D01*
X6462143Y-17114714D02*
X6471667Y-17095667D01*
X6490714Y-17086143D01*
X6519286Y-17086143D01*
X6538333Y-17095667D01*
X6547857Y-17114714D01*
X6547857Y-17219476D01*
X6938333Y-17009952D02*
X6766905Y-17267095D01*
X7195476Y-17019476D02*
X7214524Y-17019476D01*
X7233571Y-17029000D01*
X7243095Y-17038524D01*
X7252619Y-17057571D01*
X7262143Y-17095667D01*
X7262143Y-17143286D01*
X7252619Y-17181381D01*
X7243095Y-17200429D01*
X7233571Y-17209952D01*
X7214524Y-17219476D01*
X7195476Y-17219476D01*
X7176428Y-17209952D01*
X7166905Y-17200429D01*
X7157381Y-17181381D01*
X7147857Y-17143286D01*
X7147857Y-17095667D01*
X7157381Y-17057571D01*
X7166905Y-17038524D01*
X7176428Y-17029000D01*
X7195476Y-17019476D01*
X7347857Y-17200429D02*
X7357381Y-17209952D01*
X7347857Y-17219476D01*
X7338333Y-17209952D01*
X7347857Y-17200429D01*
X7347857Y-17219476D01*
X7481190Y-17019476D02*
X7500238Y-17019476D01*
X7519286Y-17029000D01*
X7528809Y-17038524D01*
X7538333Y-17057571D01*
X7547857Y-17095667D01*
X7547857Y-17143286D01*
X7538333Y-17181381D01*
X7528809Y-17200429D01*
X7519286Y-17209952D01*
X7500238Y-17219476D01*
X7481190Y-17219476D01*
X7462143Y-17209952D01*
X7452619Y-17200429D01*
X7443095Y-17181381D01*
X7433571Y-17143286D01*
X7433571Y-17095667D01*
X7443095Y-17057571D01*
X7452619Y-17038524D01*
X7462143Y-17029000D01*
X7481190Y-17019476D01*
X7719286Y-17086143D02*
X7719286Y-17219476D01*
X7671667Y-17009952D02*
X7624048Y-17152810D01*
X7747857Y-17152810D01*
X7805000Y-17019476D02*
X7938333Y-17019476D01*
X7852619Y-17219476D01*
X8005000Y-17038524D02*
X8014524Y-17029000D01*
X8033571Y-17019476D01*
X8081190Y-17019476D01*
X8100238Y-17029000D01*
X8109762Y-17038524D01*
X8119286Y-17057571D01*
X8119286Y-17076619D01*
X8109762Y-17105190D01*
X7995476Y-17219476D01*
X8119286Y-17219476D01*
X8195476Y-17019476D02*
X8195476Y-17057571D01*
X8271667Y-17019476D02*
X8271667Y-17057571D01*
X8566905Y-17295667D02*
X8557381Y-17286143D01*
X8538333Y-17257571D01*
X8528810Y-17238524D01*
X8519286Y-17209952D01*
X8509762Y-17162333D01*
X8509762Y-17124238D01*
X8519286Y-17076619D01*
X8528810Y-17048048D01*
X8538333Y-17029000D01*
X8557381Y-17000429D01*
X8566905Y-16990905D01*
X8633571Y-17038524D02*
X8643095Y-17029000D01*
X8662143Y-17019476D01*
X8709762Y-17019476D01*
X8728810Y-17029000D01*
X8738333Y-17038524D01*
X8747857Y-17057571D01*
X8747857Y-17076619D01*
X8738333Y-17105190D01*
X8624048Y-17219476D01*
X8747857Y-17219476D01*
X8985952Y-17219476D02*
X8985952Y-17019476D01*
X9071667Y-17219476D02*
X9071667Y-17114714D01*
X9062143Y-17095667D01*
X9043095Y-17086143D01*
X9014524Y-17086143D01*
X8995476Y-17095667D01*
X8985952Y-17105190D01*
X9195476Y-17219476D02*
X9176429Y-17209952D01*
X9166905Y-17200429D01*
X9157381Y-17181381D01*
X9157381Y-17124238D01*
X9166905Y-17105190D01*
X9176429Y-17095667D01*
X9195476Y-17086143D01*
X9224048Y-17086143D01*
X9243095Y-17095667D01*
X9252619Y-17105190D01*
X9262143Y-17124238D01*
X9262143Y-17181381D01*
X9252619Y-17200429D01*
X9243095Y-17209952D01*
X9224048Y-17219476D01*
X9195476Y-17219476D01*
X9376429Y-17219476D02*
X9357381Y-17209952D01*
X9347857Y-17190905D01*
X9347857Y-17019476D01*
X9528810Y-17209952D02*
X9509762Y-17219476D01*
X9471667Y-17219476D01*
X9452619Y-17209952D01*
X9443095Y-17190905D01*
X9443095Y-17114714D01*
X9452619Y-17095667D01*
X9471667Y-17086143D01*
X9509762Y-17086143D01*
X9528810Y-17095667D01*
X9538333Y-17114714D01*
X9538333Y-17133762D01*
X9443095Y-17152810D01*
X9614524Y-17209952D02*
X9633571Y-17219476D01*
X9671667Y-17219476D01*
X9690714Y-17209952D01*
X9700238Y-17190905D01*
X9700238Y-17181381D01*
X9690714Y-17162333D01*
X9671667Y-17152810D01*
X9643095Y-17152810D01*
X9624048Y-17143286D01*
X9614524Y-17124238D01*
X9614524Y-17114714D01*
X9624048Y-17095667D01*
X9643095Y-17086143D01*
X9671667Y-17086143D01*
X9690714Y-17095667D01*
X9766905Y-17295667D02*
X9776429Y-17286143D01*
X9795476Y-17257571D01*
X9805000Y-17238524D01*
X9814524Y-17209952D01*
X9824048Y-17162333D01*
X9824048Y-17124238D01*
X9814524Y-17076619D01*
X9805000Y-17048048D01*
X9795476Y-17029000D01*
X9776429Y-17000429D01*
X9766905Y-16990905D01*
D19*
X4863000Y-17327000D02*
X4995000Y-17459000D01*
X4995000Y-17327000D02*
X4863000Y-17459000D01*
X4975670Y-17439670D02*
X4975670Y-17346331D01*
X4882331Y-17346331D01*
X4882331Y-17439670D01*
X4975670Y-17439670D01*
D11*
X5357381Y-17483476D02*
X5243095Y-17483476D01*
X5300238Y-17483476D02*
X5300238Y-17283476D01*
X5281190Y-17312048D01*
X5262143Y-17331095D01*
X5243095Y-17340619D01*
X5443095Y-17464429D02*
X5452619Y-17473952D01*
X5443095Y-17483476D01*
X5433571Y-17473952D01*
X5443095Y-17464429D01*
X5443095Y-17483476D01*
X5519286Y-17283476D02*
X5643095Y-17283476D01*
X5576429Y-17359667D01*
X5605000Y-17359667D01*
X5624048Y-17369190D01*
X5633571Y-17378714D01*
X5643095Y-17397762D01*
X5643095Y-17445381D01*
X5633571Y-17464429D01*
X5624048Y-17473952D01*
X5605000Y-17483476D01*
X5547857Y-17483476D01*
X5528810Y-17473952D01*
X5519286Y-17464429D01*
X5719286Y-17302524D02*
X5728809Y-17293000D01*
X5747857Y-17283476D01*
X5795476Y-17283476D01*
X5814524Y-17293000D01*
X5824048Y-17302524D01*
X5833571Y-17321571D01*
X5833571Y-17340619D01*
X5824048Y-17369190D01*
X5709762Y-17483476D01*
X5833571Y-17483476D01*
X5957381Y-17283476D02*
X5976428Y-17283476D01*
X5995476Y-17293000D01*
X6005000Y-17302524D01*
X6014524Y-17321571D01*
X6024048Y-17359667D01*
X6024048Y-17407286D01*
X6014524Y-17445381D01*
X6005000Y-17464429D01*
X5995476Y-17473952D01*
X5976428Y-17483476D01*
X5957381Y-17483476D01*
X5938333Y-17473952D01*
X5928809Y-17464429D01*
X5919286Y-17445381D01*
X5909762Y-17407286D01*
X5909762Y-17359667D01*
X5919286Y-17321571D01*
X5928809Y-17302524D01*
X5938333Y-17293000D01*
X5957381Y-17283476D01*
X6109762Y-17483476D02*
X6109762Y-17350143D01*
X6109762Y-17369190D02*
X6119286Y-17359667D01*
X6138333Y-17350143D01*
X6166905Y-17350143D01*
X6185952Y-17359667D01*
X6195476Y-17378714D01*
X6195476Y-17483476D01*
X6195476Y-17378714D02*
X6205000Y-17359667D01*
X6224048Y-17350143D01*
X6252619Y-17350143D01*
X6271667Y-17359667D01*
X6281190Y-17378714D01*
X6281190Y-17483476D01*
X6376428Y-17483476D02*
X6376428Y-17350143D01*
X6376428Y-17369190D02*
X6385952Y-17359667D01*
X6405000Y-17350143D01*
X6433571Y-17350143D01*
X6452619Y-17359667D01*
X6462143Y-17378714D01*
X6462143Y-17483476D01*
X6462143Y-17378714D02*
X6471667Y-17359667D01*
X6490714Y-17350143D01*
X6519286Y-17350143D01*
X6538333Y-17359667D01*
X6547857Y-17378714D01*
X6547857Y-17483476D01*
X6938333Y-17273952D02*
X6766905Y-17531095D01*
X7195476Y-17283476D02*
X7214524Y-17283476D01*
X7233571Y-17293000D01*
X7243095Y-17302524D01*
X7252619Y-17321571D01*
X7262143Y-17359667D01*
X7262143Y-17407286D01*
X7252619Y-17445381D01*
X7243095Y-17464429D01*
X7233571Y-17473952D01*
X7214524Y-17483476D01*
X7195476Y-17483476D01*
X7176428Y-17473952D01*
X7166905Y-17464429D01*
X7157381Y-17445381D01*
X7147857Y-17407286D01*
X7147857Y-17359667D01*
X7157381Y-17321571D01*
X7166905Y-17302524D01*
X7176428Y-17293000D01*
X7195476Y-17283476D01*
X7347857Y-17464429D02*
X7357381Y-17473952D01*
X7347857Y-17483476D01*
X7338333Y-17473952D01*
X7347857Y-17464429D01*
X7347857Y-17483476D01*
X7481190Y-17283476D02*
X7500238Y-17283476D01*
X7519286Y-17293000D01*
X7528809Y-17302524D01*
X7538333Y-17321571D01*
X7547857Y-17359667D01*
X7547857Y-17407286D01*
X7538333Y-17445381D01*
X7528809Y-17464429D01*
X7519286Y-17473952D01*
X7500238Y-17483476D01*
X7481190Y-17483476D01*
X7462143Y-17473952D01*
X7452619Y-17464429D01*
X7443095Y-17445381D01*
X7433571Y-17407286D01*
X7433571Y-17359667D01*
X7443095Y-17321571D01*
X7452619Y-17302524D01*
X7462143Y-17293000D01*
X7481190Y-17283476D01*
X7728809Y-17283476D02*
X7633571Y-17283476D01*
X7624048Y-17378714D01*
X7633571Y-17369190D01*
X7652619Y-17359667D01*
X7700238Y-17359667D01*
X7719286Y-17369190D01*
X7728809Y-17378714D01*
X7738333Y-17397762D01*
X7738333Y-17445381D01*
X7728809Y-17464429D01*
X7719286Y-17473952D01*
X7700238Y-17483476D01*
X7652619Y-17483476D01*
X7633571Y-17473952D01*
X7624048Y-17464429D01*
X7814524Y-17302524D02*
X7824048Y-17293000D01*
X7843095Y-17283476D01*
X7890714Y-17283476D01*
X7909762Y-17293000D01*
X7919286Y-17302524D01*
X7928809Y-17321571D01*
X7928809Y-17340619D01*
X7919286Y-17369190D01*
X7805000Y-17483476D01*
X7928809Y-17483476D01*
X8052619Y-17283476D02*
X8071667Y-17283476D01*
X8090714Y-17293000D01*
X8100238Y-17302524D01*
X8109762Y-17321571D01*
X8119286Y-17359667D01*
X8119286Y-17407286D01*
X8109762Y-17445381D01*
X8100238Y-17464429D01*
X8090714Y-17473952D01*
X8071667Y-17483476D01*
X8052619Y-17483476D01*
X8033571Y-17473952D01*
X8024048Y-17464429D01*
X8014524Y-17445381D01*
X8005000Y-17407286D01*
X8005000Y-17359667D01*
X8014524Y-17321571D01*
X8024048Y-17302524D01*
X8033571Y-17293000D01*
X8052619Y-17283476D01*
X8195476Y-17283476D02*
X8195476Y-17321571D01*
X8271667Y-17283476D02*
X8271667Y-17321571D01*
X8566905Y-17559667D02*
X8557381Y-17550143D01*
X8538333Y-17521571D01*
X8528810Y-17502524D01*
X8519286Y-17473952D01*
X8509762Y-17426333D01*
X8509762Y-17388238D01*
X8519286Y-17340619D01*
X8528810Y-17312048D01*
X8538333Y-17293000D01*
X8557381Y-17264429D01*
X8566905Y-17254905D01*
X8633571Y-17302524D02*
X8643095Y-17293000D01*
X8662143Y-17283476D01*
X8709762Y-17283476D01*
X8728810Y-17293000D01*
X8738333Y-17302524D01*
X8747857Y-17321571D01*
X8747857Y-17340619D01*
X8738333Y-17369190D01*
X8624048Y-17483476D01*
X8747857Y-17483476D01*
X8985952Y-17483476D02*
X8985952Y-17283476D01*
X9071667Y-17483476D02*
X9071667Y-17378714D01*
X9062143Y-17359667D01*
X9043095Y-17350143D01*
X9014524Y-17350143D01*
X8995476Y-17359667D01*
X8985952Y-17369190D01*
X9195476Y-17483476D02*
X9176429Y-17473952D01*
X9166905Y-17464429D01*
X9157381Y-17445381D01*
X9157381Y-17388238D01*
X9166905Y-17369190D01*
X9176429Y-17359667D01*
X9195476Y-17350143D01*
X9224048Y-17350143D01*
X9243095Y-17359667D01*
X9252619Y-17369190D01*
X9262143Y-17388238D01*
X9262143Y-17445381D01*
X9252619Y-17464429D01*
X9243095Y-17473952D01*
X9224048Y-17483476D01*
X9195476Y-17483476D01*
X9376429Y-17483476D02*
X9357381Y-17473952D01*
X9347857Y-17454905D01*
X9347857Y-17283476D01*
X9528810Y-17473952D02*
X9509762Y-17483476D01*
X9471667Y-17483476D01*
X9452619Y-17473952D01*
X9443095Y-17454905D01*
X9443095Y-17378714D01*
X9452619Y-17359667D01*
X9471667Y-17350143D01*
X9509762Y-17350143D01*
X9528810Y-17359667D01*
X9538333Y-17378714D01*
X9538333Y-17397762D01*
X9443095Y-17416810D01*
X9614524Y-17473952D02*
X9633571Y-17483476D01*
X9671667Y-17483476D01*
X9690714Y-17473952D01*
X9700238Y-17454905D01*
X9700238Y-17445381D01*
X9690714Y-17426333D01*
X9671667Y-17416810D01*
X9643095Y-17416810D01*
X9624048Y-17407286D01*
X9614524Y-17388238D01*
X9614524Y-17378714D01*
X9624048Y-17359667D01*
X9643095Y-17350143D01*
X9671667Y-17350143D01*
X9690714Y-17359667D01*
X9766905Y-17559667D02*
X9776429Y-17550143D01*
X9795476Y-17521571D01*
X9805000Y-17502524D01*
X9814524Y-17473952D01*
X9824048Y-17426333D01*
X9824048Y-17388238D01*
X9814524Y-17340619D01*
X9805000Y-17312048D01*
X9795476Y-17293000D01*
X9776429Y-17264429D01*
X9766905Y-17254905D01*
D20*
X4845000Y-17582000D02*
X4995000Y-17732000D01*
X4995000Y-17582000D02*
X4845000Y-17732000D01*
X4920000Y-17732000D02*
X4995000Y-17657000D01*
X4920000Y-17582000D01*
X4845000Y-17657000D01*
X4920000Y-17732000D01*
D11*
X5357381Y-17747476D02*
X5243095Y-17747476D01*
X5300238Y-17747476D02*
X5300238Y-17547476D01*
X5281190Y-17576048D01*
X5262143Y-17595095D01*
X5243095Y-17604619D01*
X5443095Y-17728429D02*
X5452619Y-17737952D01*
X5443095Y-17747476D01*
X5433571Y-17737952D01*
X5443095Y-17728429D01*
X5443095Y-17747476D01*
X5633571Y-17547476D02*
X5538333Y-17547476D01*
X5528810Y-17642714D01*
X5538333Y-17633190D01*
X5557381Y-17623667D01*
X5605000Y-17623667D01*
X5624048Y-17633190D01*
X5633571Y-17642714D01*
X5643095Y-17661762D01*
X5643095Y-17709381D01*
X5633571Y-17728429D01*
X5624048Y-17737952D01*
X5605000Y-17747476D01*
X5557381Y-17747476D01*
X5538333Y-17737952D01*
X5528810Y-17728429D01*
X5766905Y-17547476D02*
X5785952Y-17547476D01*
X5805000Y-17557000D01*
X5814524Y-17566524D01*
X5824048Y-17585571D01*
X5833571Y-17623667D01*
X5833571Y-17671286D01*
X5824048Y-17709381D01*
X5814524Y-17728429D01*
X5805000Y-17737952D01*
X5785952Y-17747476D01*
X5766905Y-17747476D01*
X5747857Y-17737952D01*
X5738333Y-17728429D01*
X5728809Y-17709381D01*
X5719286Y-17671286D01*
X5719286Y-17623667D01*
X5728809Y-17585571D01*
X5738333Y-17566524D01*
X5747857Y-17557000D01*
X5766905Y-17547476D01*
X5957381Y-17547476D02*
X5976428Y-17547476D01*
X5995476Y-17557000D01*
X6005000Y-17566524D01*
X6014524Y-17585571D01*
X6024048Y-17623667D01*
X6024048Y-17671286D01*
X6014524Y-17709381D01*
X6005000Y-17728429D01*
X5995476Y-17737952D01*
X5976428Y-17747476D01*
X5957381Y-17747476D01*
X5938333Y-17737952D01*
X5928809Y-17728429D01*
X5919286Y-17709381D01*
X5909762Y-17671286D01*
X5909762Y-17623667D01*
X5919286Y-17585571D01*
X5928809Y-17566524D01*
X5938333Y-17557000D01*
X5957381Y-17547476D01*
X6109762Y-17747476D02*
X6109762Y-17614143D01*
X6109762Y-17633190D02*
X6119286Y-17623667D01*
X6138333Y-17614143D01*
X6166905Y-17614143D01*
X6185952Y-17623667D01*
X6195476Y-17642714D01*
X6195476Y-17747476D01*
X6195476Y-17642714D02*
X6205000Y-17623667D01*
X6224048Y-17614143D01*
X6252619Y-17614143D01*
X6271667Y-17623667D01*
X6281190Y-17642714D01*
X6281190Y-17747476D01*
X6376428Y-17747476D02*
X6376428Y-17614143D01*
X6376428Y-17633190D02*
X6385952Y-17623667D01*
X6405000Y-17614143D01*
X6433571Y-17614143D01*
X6452619Y-17623667D01*
X6462143Y-17642714D01*
X6462143Y-17747476D01*
X6462143Y-17642714D02*
X6471667Y-17623667D01*
X6490714Y-17614143D01*
X6519286Y-17614143D01*
X6538333Y-17623667D01*
X6547857Y-17642714D01*
X6547857Y-17747476D01*
X6938333Y-17537952D02*
X6766905Y-17795095D01*
X7195476Y-17547476D02*
X7214524Y-17547476D01*
X7233571Y-17557000D01*
X7243095Y-17566524D01*
X7252619Y-17585571D01*
X7262143Y-17623667D01*
X7262143Y-17671286D01*
X7252619Y-17709381D01*
X7243095Y-17728429D01*
X7233571Y-17737952D01*
X7214524Y-17747476D01*
X7195476Y-17747476D01*
X7176428Y-17737952D01*
X7166905Y-17728429D01*
X7157381Y-17709381D01*
X7147857Y-17671286D01*
X7147857Y-17623667D01*
X7157381Y-17585571D01*
X7166905Y-17566524D01*
X7176428Y-17557000D01*
X7195476Y-17547476D01*
X7347857Y-17728429D02*
X7357381Y-17737952D01*
X7347857Y-17747476D01*
X7338333Y-17737952D01*
X7347857Y-17728429D01*
X7347857Y-17747476D01*
X7481190Y-17547476D02*
X7500238Y-17547476D01*
X7519286Y-17557000D01*
X7528809Y-17566524D01*
X7538333Y-17585571D01*
X7547857Y-17623667D01*
X7547857Y-17671286D01*
X7538333Y-17709381D01*
X7528809Y-17728429D01*
X7519286Y-17737952D01*
X7500238Y-17747476D01*
X7481190Y-17747476D01*
X7462143Y-17737952D01*
X7452619Y-17728429D01*
X7443095Y-17709381D01*
X7433571Y-17671286D01*
X7433571Y-17623667D01*
X7443095Y-17585571D01*
X7452619Y-17566524D01*
X7462143Y-17557000D01*
X7481190Y-17547476D01*
X7728809Y-17547476D02*
X7633571Y-17547476D01*
X7624048Y-17642714D01*
X7633571Y-17633190D01*
X7652619Y-17623667D01*
X7700238Y-17623667D01*
X7719286Y-17633190D01*
X7728809Y-17642714D01*
X7738333Y-17661762D01*
X7738333Y-17709381D01*
X7728809Y-17728429D01*
X7719286Y-17737952D01*
X7700238Y-17747476D01*
X7652619Y-17747476D01*
X7633571Y-17737952D01*
X7624048Y-17728429D01*
X7833571Y-17747476D02*
X7871667Y-17747476D01*
X7890714Y-17737952D01*
X7900238Y-17728429D01*
X7919286Y-17699857D01*
X7928809Y-17661762D01*
X7928809Y-17585571D01*
X7919286Y-17566524D01*
X7909762Y-17557000D01*
X7890714Y-17547476D01*
X7852619Y-17547476D01*
X7833571Y-17557000D01*
X7824048Y-17566524D01*
X7814524Y-17585571D01*
X7814524Y-17633190D01*
X7824048Y-17652238D01*
X7833571Y-17661762D01*
X7852619Y-17671286D01*
X7890714Y-17671286D01*
X7909762Y-17661762D01*
X7919286Y-17652238D01*
X7928809Y-17633190D01*
X8119286Y-17747476D02*
X8005000Y-17747476D01*
X8062143Y-17747476D02*
X8062143Y-17547476D01*
X8043095Y-17576048D01*
X8024048Y-17595095D01*
X8005000Y-17604619D01*
X8195476Y-17547476D02*
X8195476Y-17585571D01*
X8271667Y-17547476D02*
X8271667Y-17585571D01*
X8566905Y-17823667D02*
X8557381Y-17814143D01*
X8538333Y-17785571D01*
X8528810Y-17766524D01*
X8519286Y-17737952D01*
X8509762Y-17690333D01*
X8509762Y-17652238D01*
X8519286Y-17604619D01*
X8528810Y-17576048D01*
X8538333Y-17557000D01*
X8557381Y-17528429D01*
X8566905Y-17518905D01*
X8747857Y-17747476D02*
X8633571Y-17747476D01*
X8690714Y-17747476D02*
X8690714Y-17547476D01*
X8671667Y-17576048D01*
X8652619Y-17595095D01*
X8633571Y-17604619D01*
X8871667Y-17547476D02*
X8890714Y-17547476D01*
X8909762Y-17557000D01*
X8919286Y-17566524D01*
X8928810Y-17585571D01*
X8938333Y-17623667D01*
X8938333Y-17671286D01*
X8928810Y-17709381D01*
X8919286Y-17728429D01*
X8909762Y-17737952D01*
X8890714Y-17747476D01*
X8871667Y-17747476D01*
X8852619Y-17737952D01*
X8843095Y-17728429D01*
X8833571Y-17709381D01*
X8824048Y-17671286D01*
X8824048Y-17623667D01*
X8833571Y-17585571D01*
X8843095Y-17566524D01*
X8852619Y-17557000D01*
X8871667Y-17547476D01*
X9176429Y-17747476D02*
X9176429Y-17547476D01*
X9262143Y-17747476D02*
X9262143Y-17642714D01*
X9252619Y-17623667D01*
X9233571Y-17614143D01*
X9205000Y-17614143D01*
X9185952Y-17623667D01*
X9176429Y-17633190D01*
X9385952Y-17747476D02*
X9366905Y-17737952D01*
X9357381Y-17728429D01*
X9347857Y-17709381D01*
X9347857Y-17652238D01*
X9357381Y-17633190D01*
X9366905Y-17623667D01*
X9385952Y-17614143D01*
X9414524Y-17614143D01*
X9433571Y-17623667D01*
X9443095Y-17633190D01*
X9452619Y-17652238D01*
X9452619Y-17709381D01*
X9443095Y-17728429D01*
X9433571Y-17737952D01*
X9414524Y-17747476D01*
X9385952Y-17747476D01*
X9566905Y-17747476D02*
X9547857Y-17737952D01*
X9538333Y-17718905D01*
X9538333Y-17547476D01*
X9719286Y-17737952D02*
X9700238Y-17747476D01*
X9662143Y-17747476D01*
X9643095Y-17737952D01*
X9633571Y-17718905D01*
X9633571Y-17642714D01*
X9643095Y-17623667D01*
X9662143Y-17614143D01*
X9700238Y-17614143D01*
X9719286Y-17623667D01*
X9728810Y-17642714D01*
X9728810Y-17661762D01*
X9633571Y-17680810D01*
X9805000Y-17737952D02*
X9824048Y-17747476D01*
X9862143Y-17747476D01*
X9881190Y-17737952D01*
X9890714Y-17718905D01*
X9890714Y-17709381D01*
X9881190Y-17690333D01*
X9862143Y-17680810D01*
X9833571Y-17680810D01*
X9814524Y-17671286D01*
X9805000Y-17652238D01*
X9805000Y-17642714D01*
X9814524Y-17623667D01*
X9833571Y-17614143D01*
X9862143Y-17614143D01*
X9881190Y-17623667D01*
X9957381Y-17823667D02*
X9966905Y-17814143D01*
X9985952Y-17785571D01*
X9995476Y-17766524D01*
X10005000Y-17737952D01*
X10014524Y-17690333D01*
X10014524Y-17652238D01*
X10005000Y-17604619D01*
X9995476Y-17576048D01*
X9985952Y-17557000D01*
X9966905Y-17528429D01*
X9957381Y-17518905D01*
X4895000Y-17827000D02*
X4895000Y-18027000D01*
X4795000Y-17927000D02*
X4995000Y-17927000D01*
X4995000Y-17927000D02*
G75*
G03*
X4995000Y-17927000I-100000J0D01*
G01*
X5233571Y-17817476D02*
X5357381Y-17817476D01*
X5290714Y-17893667D01*
X5319286Y-17893667D01*
X5338333Y-17903190D01*
X5347857Y-17912714D01*
X5357381Y-17931762D01*
X5357381Y-17979381D01*
X5347857Y-17998429D01*
X5338333Y-18007952D01*
X5319286Y-18017476D01*
X5262143Y-18017476D01*
X5243095Y-18007952D01*
X5233571Y-17998429D01*
X5443095Y-17998429D02*
X5452619Y-18007952D01*
X5443095Y-18017476D01*
X5433571Y-18007952D01*
X5443095Y-17998429D01*
X5443095Y-18017476D01*
X5528810Y-17836524D02*
X5538333Y-17827000D01*
X5557381Y-17817476D01*
X5605000Y-17817476D01*
X5624048Y-17827000D01*
X5633571Y-17836524D01*
X5643095Y-17855571D01*
X5643095Y-17874619D01*
X5633571Y-17903190D01*
X5519286Y-18017476D01*
X5643095Y-18017476D01*
X5766905Y-17817476D02*
X5785952Y-17817476D01*
X5805000Y-17827000D01*
X5814524Y-17836524D01*
X5824048Y-17855571D01*
X5833571Y-17893667D01*
X5833571Y-17941286D01*
X5824048Y-17979381D01*
X5814524Y-17998429D01*
X5805000Y-18007952D01*
X5785952Y-18017476D01*
X5766905Y-18017476D01*
X5747857Y-18007952D01*
X5738333Y-17998429D01*
X5728809Y-17979381D01*
X5719286Y-17941286D01*
X5719286Y-17893667D01*
X5728809Y-17855571D01*
X5738333Y-17836524D01*
X5747857Y-17827000D01*
X5766905Y-17817476D01*
X5957381Y-17817476D02*
X5976428Y-17817476D01*
X5995476Y-17827000D01*
X6005000Y-17836524D01*
X6014524Y-17855571D01*
X6024048Y-17893667D01*
X6024048Y-17941286D01*
X6014524Y-17979381D01*
X6005000Y-17998429D01*
X5995476Y-18007952D01*
X5976428Y-18017476D01*
X5957381Y-18017476D01*
X5938333Y-18007952D01*
X5928809Y-17998429D01*
X5919286Y-17979381D01*
X5909762Y-17941286D01*
X5909762Y-17893667D01*
X5919286Y-17855571D01*
X5928809Y-17836524D01*
X5938333Y-17827000D01*
X5957381Y-17817476D01*
X6109762Y-18017476D02*
X6109762Y-17884143D01*
X6109762Y-17903190D02*
X6119286Y-17893667D01*
X6138333Y-17884143D01*
X6166905Y-17884143D01*
X6185952Y-17893667D01*
X6195476Y-17912714D01*
X6195476Y-18017476D01*
X6195476Y-17912714D02*
X6205000Y-17893667D01*
X6224048Y-17884143D01*
X6252619Y-17884143D01*
X6271667Y-17893667D01*
X6281190Y-17912714D01*
X6281190Y-18017476D01*
X6376428Y-18017476D02*
X6376428Y-17884143D01*
X6376428Y-17903190D02*
X6385952Y-17893667D01*
X6405000Y-17884143D01*
X6433571Y-17884143D01*
X6452619Y-17893667D01*
X6462143Y-17912714D01*
X6462143Y-18017476D01*
X6462143Y-17912714D02*
X6471667Y-17893667D01*
X6490714Y-17884143D01*
X6519286Y-17884143D01*
X6538333Y-17893667D01*
X6547857Y-17912714D01*
X6547857Y-18017476D01*
X6938333Y-17807952D02*
X6766905Y-18065095D01*
X7195476Y-17817476D02*
X7214524Y-17817476D01*
X7233571Y-17827000D01*
X7243095Y-17836524D01*
X7252619Y-17855571D01*
X7262143Y-17893667D01*
X7262143Y-17941286D01*
X7252619Y-17979381D01*
X7243095Y-17998429D01*
X7233571Y-18007952D01*
X7214524Y-18017476D01*
X7195476Y-18017476D01*
X7176428Y-18007952D01*
X7166905Y-17998429D01*
X7157381Y-17979381D01*
X7147857Y-17941286D01*
X7147857Y-17893667D01*
X7157381Y-17855571D01*
X7166905Y-17836524D01*
X7176428Y-17827000D01*
X7195476Y-17817476D01*
X7347857Y-17998429D02*
X7357381Y-18007952D01*
X7347857Y-18017476D01*
X7338333Y-18007952D01*
X7347857Y-17998429D01*
X7347857Y-18017476D01*
X7547857Y-18017476D02*
X7433571Y-18017476D01*
X7490714Y-18017476D02*
X7490714Y-17817476D01*
X7471667Y-17846048D01*
X7452619Y-17865095D01*
X7433571Y-17874619D01*
X7624048Y-17836524D02*
X7633571Y-17827000D01*
X7652619Y-17817476D01*
X7700238Y-17817476D01*
X7719286Y-17827000D01*
X7728809Y-17836524D01*
X7738333Y-17855571D01*
X7738333Y-17874619D01*
X7728809Y-17903190D01*
X7614524Y-18017476D01*
X7738333Y-18017476D01*
X7909762Y-17817476D02*
X7871667Y-17817476D01*
X7852619Y-17827000D01*
X7843095Y-17836524D01*
X7824048Y-17865095D01*
X7814524Y-17903190D01*
X7814524Y-17979381D01*
X7824048Y-17998429D01*
X7833571Y-18007952D01*
X7852619Y-18017476D01*
X7890714Y-18017476D01*
X7909762Y-18007952D01*
X7919286Y-17998429D01*
X7928809Y-17979381D01*
X7928809Y-17931762D01*
X7919286Y-17912714D01*
X7909762Y-17903190D01*
X7890714Y-17893667D01*
X7852619Y-17893667D01*
X7833571Y-17903190D01*
X7824048Y-17912714D01*
X7814524Y-17931762D01*
X8052619Y-17817476D02*
X8071667Y-17817476D01*
X8090714Y-17827000D01*
X8100238Y-17836524D01*
X8109762Y-17855571D01*
X8119286Y-17893667D01*
X8119286Y-17941286D01*
X8109762Y-17979381D01*
X8100238Y-17998429D01*
X8090714Y-18007952D01*
X8071667Y-18017476D01*
X8052619Y-18017476D01*
X8033571Y-18007952D01*
X8024048Y-17998429D01*
X8014524Y-17979381D01*
X8005000Y-17941286D01*
X8005000Y-17893667D01*
X8014524Y-17855571D01*
X8024048Y-17836524D01*
X8033571Y-17827000D01*
X8052619Y-17817476D01*
X8195476Y-17817476D02*
X8195476Y-17855571D01*
X8271667Y-17817476D02*
X8271667Y-17855571D01*
X8566905Y-18093667D02*
X8557381Y-18084143D01*
X8538333Y-18055571D01*
X8528810Y-18036524D01*
X8519286Y-18007952D01*
X8509762Y-17960333D01*
X8509762Y-17922238D01*
X8519286Y-17874619D01*
X8528810Y-17846048D01*
X8538333Y-17827000D01*
X8557381Y-17798429D01*
X8566905Y-17788905D01*
X8728810Y-17884143D02*
X8728810Y-18017476D01*
X8681190Y-17807952D02*
X8633571Y-17950810D01*
X8757381Y-17950810D01*
X8985952Y-18017476D02*
X8985952Y-17817476D01*
X9071667Y-18017476D02*
X9071667Y-17912714D01*
X9062143Y-17893667D01*
X9043095Y-17884143D01*
X9014524Y-17884143D01*
X8995476Y-17893667D01*
X8985952Y-17903190D01*
X9195476Y-18017476D02*
X9176429Y-18007952D01*
X9166905Y-17998429D01*
X9157381Y-17979381D01*
X9157381Y-17922238D01*
X9166905Y-17903190D01*
X9176429Y-17893667D01*
X9195476Y-17884143D01*
X9224048Y-17884143D01*
X9243095Y-17893667D01*
X9252619Y-17903190D01*
X9262143Y-17922238D01*
X9262143Y-17979381D01*
X9252619Y-17998429D01*
X9243095Y-18007952D01*
X9224048Y-18017476D01*
X9195476Y-18017476D01*
X9376429Y-18017476D02*
X9357381Y-18007952D01*
X9347857Y-17988905D01*
X9347857Y-17817476D01*
X9528810Y-18007952D02*
X9509762Y-18017476D01*
X9471667Y-18017476D01*
X9452619Y-18007952D01*
X9443095Y-17988905D01*
X9443095Y-17912714D01*
X9452619Y-17893667D01*
X9471667Y-17884143D01*
X9509762Y-17884143D01*
X9528810Y-17893667D01*
X9538333Y-17912714D01*
X9538333Y-17931762D01*
X9443095Y-17950810D01*
X9614524Y-18007952D02*
X9633571Y-18017476D01*
X9671667Y-18017476D01*
X9690714Y-18007952D01*
X9700238Y-17988905D01*
X9700238Y-17979381D01*
X9690714Y-17960333D01*
X9671667Y-17950810D01*
X9643095Y-17950810D01*
X9624048Y-17941286D01*
X9614524Y-17922238D01*
X9614524Y-17912714D01*
X9624048Y-17893667D01*
X9643095Y-17884143D01*
X9671667Y-17884143D01*
X9690714Y-17893667D01*
X9766905Y-18093667D02*
X9776429Y-18084143D01*
X9795476Y-18055571D01*
X9805000Y-18036524D01*
X9814524Y-18007952D01*
X9824048Y-17960333D01*
X9824048Y-17922238D01*
X9814524Y-17874619D01*
X9805000Y-17846048D01*
X9795476Y-17827000D01*
X9776429Y-17798429D01*
X9766905Y-17788905D01*
M02*
